<svg width="34" height="34" viewBox="0 0 34 34" fill="none" xmlns="http://www.w3.org/2000/svg">
<path d="M8.9251 23.1411C9.46207 22.6041 10.3327 22.6041 10.8696 23.1411C11.4066 23.6781 11.4066 24.5486 10.8696 25.0856L5.19517 30.7577H9.20833C9.90445 30.7577 10.4797 31.2751 10.5708 31.9461L10.5833 32.1327C10.5833 32.8921 9.96772 33.5077 9.20833 33.5077H1.875C1.11562 33.5077 0.5 32.8921 0.5 32.1327V24.7994C0.5 24.04 1.11562 23.4244 1.875 23.4244C2.63439 23.4244 3.25 24.04 3.25 24.7994V28.8125L8.9251 23.1411ZM24.8008 33.5077C24.0415 33.5077 23.4258 32.8921 23.4258 32.1327C23.4258 31.3733 24.0415 30.7577 24.8008 30.7577H28.8085L23.1408 25.0852C22.6527 24.597 22.6087 23.833 23.0082 23.2949L23.1415 23.1408C23.6787 22.604 24.5493 22.6043 25.0859 23.1415L30.7592 28.818V24.7994C30.7592 24.1033 31.2765 23.528 31.9475 23.437L32.1342 23.4244C32.8935 23.4244 33.5092 24.04 33.5092 24.7994V32.1327C33.5092 32.8921 32.8935 33.5077 32.1342 33.5077H24.8008ZM9.20833 0.5C9.96772 0.5 10.5833 1.11562 10.5833 1.875C10.5833 2.63439 9.96772 3.25 9.20833 3.25H5.19883L10.8685 8.92395C11.3565 9.41229 11.4005 10.1762 11.0009 10.7143L10.8677 10.8685C10.3305 11.4053 9.45994 11.4049 8.92318 10.8677L3.25 5.18967V9.20833C3.25 9.90445 2.73272 10.4797 2.06158 10.5708L1.875 10.5833C1.11562 10.5833 0.5 9.96772 0.5 9.20833V1.875C0.5 1.11562 1.11562 0.5 1.875 0.5H9.20833ZM32.1342 0.5C32.8935 0.5 33.5092 1.11562 33.5092 1.875V9.20833C33.5092 9.96772 32.8935 10.5833 32.1342 10.5833C31.3748 10.5833 30.7592 9.96772 30.7592 9.20833V5.1915L25.0857 10.8679C24.5977 11.3562 23.8339 11.4007 23.2955 11.0014L23.1413 10.8683C22.6041 10.3314 22.604 9.46084 23.1409 8.92376L28.8103 3.25H24.8008C24.1047 3.25 23.5294 2.73273 23.4383 2.06158L23.4258 1.875C23.4258 1.11562 24.0415 0.5 24.8008 0.5H32.1342Z" fill="#1DACB0"/>
</svg>
