<svg width="45" height="43" viewBox="0 0 45 43" fill="none" xmlns="http://www.w3.org/2000/svg">
<path d="M39.3453 37.7195C39.2822 37.6864 39.2121 37.6692 39.141 37.6692C39.0698 37.6692 38.9997 37.6864 38.9366 37.7195C38.8694 37.7582 38.8126 37.8127 38.771 37.8784C38.7295 37.9441 38.7045 38.0191 38.6981 38.0967V39.194H3.88357V4.9037H4.97366C5.0477 4.90106 5.12011 4.88109 5.18516 4.84538C5.2502 4.80967 5.30608 4.75919 5.34837 4.69796C5.38159 4.62841 5.39884 4.55223 5.39884 4.47507C5.39884 4.3979 5.38159 4.32173 5.34837 4.25218L3.06601 0.20593C3.03178 0.137324 2.97756 0.080868 2.9106 0.0441041C2.84364 0.00734027 2.76713 -0.00798057 2.6913 0.000188457C2.62107 -0.00110421 2.55189 0.0174998 2.49166 0.0538781C2.43142 0.0902564 2.38256 0.142944 2.35064 0.20593L0.0001527 4.1836C-0.0468999 4.24826 -0.0722656 4.32633 -0.0722656 4.40649C-0.0722656 4.48664 -0.0468999 4.56471 0.0001527 4.62937C0.0370954 4.688 0.0871315 4.73713 0.146273 4.77285C0.205415 4.80857 0.272028 4.82989 0.340804 4.83512H1.53308V40.2913C1.53296 40.6037 1.65388 40.9039 1.87016 41.128C2.08644 41.3521 2.38103 41.4825 2.6913 41.4914H38.6981V42.5887C38.7071 42.6656 38.7332 42.7394 38.7745 42.8047C38.8158 42.8701 38.8712 42.9251 38.9366 42.9659H39.3453L43.2969 40.6684C43.3602 40.6283 43.4124 40.5726 43.4486 40.5067C43.4848 40.4407 43.5037 40.3666 43.5037 40.2913C43.5037 40.2159 43.4848 40.1418 43.4486 40.0758C43.4124 40.0099 43.3602 39.9542 43.2969 39.9141L39.3453 37.7195Z" fill="#1DACB0"/>
<path d="M4.19094 36.0046C4.21089 36.1624 4.26368 36.3142 4.34585 36.4501C4.42803 36.586 4.53775 36.7029 4.66785 36.7933C4.86789 36.9321 5.10624 37.0041 5.34916 36.999C5.53103 37.0006 5.71097 36.9614 5.87594 36.8843C6.04091 36.8072 6.18678 36.6941 6.30298 36.5532L9.33477 32.4727L10.3908 33.57C10.6232 33.7844 10.9271 33.9034 11.2424 33.9034C11.5577 33.9034 11.8616 33.7844 12.094 33.57L15.5006 30.141L17.3741 32.0269C17.4851 32.141 17.6177 32.2316 17.7639 32.2934C17.9101 32.3553 18.0671 32.3871 18.2258 32.3871C18.3844 32.3871 18.5414 32.3553 18.6876 32.2934C18.8339 32.2316 18.9664 32.141 19.0774 32.0269L23.1652 27.9121L24.5959 29.318C24.704 29.431 24.8336 29.521 24.977 29.5824C25.1204 29.6438 25.2747 29.6755 25.4305 29.6755C25.5864 29.6755 25.7406 29.6438 25.884 29.5824C26.0275 29.521 26.1571 29.431 26.2651 29.318L28.6156 26.952L32.465 30.8611C32.6805 31.0686 32.9673 31.1844 33.2655 31.1844C33.5638 31.1844 33.8505 31.0686 34.066 30.8611L37.4725 27.6035L39.8912 30.0381C40.0022 30.1521 40.1347 30.2427 40.2809 30.3046C40.4272 30.3664 40.5842 30.3983 40.7428 30.3983C40.9014 30.3983 41.0584 30.3664 41.2047 30.3046C41.3509 30.2427 41.4834 30.1521 41.5944 30.0381C41.8051 29.8097 41.9222 29.5096 41.9222 29.198C41.9222 28.8863 41.8051 28.5862 41.5944 28.3579L38.1879 24.9288C37.952 24.7214 37.6495 24.6071 37.3363 24.6071C37.0231 24.6071 36.7205 24.7214 36.4847 24.9288L33.3166 28.1178L29.4672 24.4145C29.2348 24.2 28.9309 24.0811 28.6156 24.0811C28.3003 24.0811 27.9964 24.2 27.764 24.4145L25.4135 26.7805L24.0168 25.3746C23.9058 25.2606 23.7733 25.17 23.6271 25.1081C23.4809 25.0462 23.3238 25.0144 23.1652 25.0144C23.0066 25.0144 22.8496 25.0462 22.7033 25.1081C22.5571 25.17 22.4246 25.2606 22.3136 25.3746L18.3961 29.318L16.4884 27.432C16.3804 27.319 16.2508 27.229 16.1074 27.1676C15.9639 27.1062 15.8097 27.0745 15.6538 27.0745C15.498 27.0745 15.3437 27.1062 15.2003 27.1676C15.0569 27.229 14.9273 27.319 14.8193 27.432L11.4127 31.0325L10.2205 29.8323C10.1124 29.6967 9.96972 29.5932 9.80773 29.5328C9.64574 29.4724 9.47049 29.4574 9.30071 29.4894C9.12907 29.4907 8.96 29.5316 8.80647 29.6089C8.65295 29.6861 8.51904 29.7978 8.41501 29.9352L4.39533 35.113C4.22238 35.3756 4.14977 35.6923 4.19094 36.0046Z" fill="#1DACB0"/>
<path d="M44.6597 10.2873L42.6157 8.22991C42.3833 8.01545 42.0794 7.89648 41.7641 7.89648C41.4488 7.89648 41.1449 8.01545 40.9125 8.22991L33.7588 15.3966L32.6687 14.2993C32.5607 14.1862 32.4311 14.0963 32.2877 14.0349C32.1442 13.9735 31.99 13.9418 31.8341 13.9418C31.6783 13.9418 31.524 13.9735 31.3806 14.0349C31.2372 14.0963 31.1076 14.1862 30.9995 14.2993L27.593 17.7283L25.5151 15.6366C25.2882 15.4245 24.9901 15.3066 24.6805 15.3066C24.3709 15.3066 24.0727 15.4245 23.8459 15.6366L18.4295 21.0888L16.3175 18.9628C16.2065 18.8487 16.074 18.7581 15.9277 18.6963C15.7815 18.6344 15.6245 18.6025 15.4659 18.6025C15.3072 18.6025 15.1502 18.6344 15.004 18.6963C14.8577 18.7581 14.7252 18.8487 14.6142 18.9628L5.55292 28.0497C5.33229 28.2798 5.20898 28.5871 5.20898 28.9069C5.20898 29.2268 5.33229 29.5341 5.55292 29.7642C5.78735 29.9766 6.08923 30.0982 6.40454 30.1071C6.71986 30.0982 7.02174 29.9766 7.25617 29.7642L15.4659 21.5002L17.5779 23.6262C17.8065 23.8483 18.1118 23.9724 18.4295 23.9724C18.7472 23.9724 19.0525 23.8483 19.2812 23.6262L24.6294 18.2427L26.7073 20.3344C26.9342 20.5465 27.2323 20.6643 27.5419 20.6643C27.8515 20.6643 28.1497 20.5465 28.3765 20.3344L31.783 16.9053L32.8391 17.9683C33.0627 18.2018 33.3686 18.3373 33.6907 18.3455C34.006 18.3366 34.3079 18.2151 34.5423 18.0026L41.696 10.7674L42.8883 12.0018C43.1141 12.2292 43.4205 12.3569 43.7399 12.3569C44.0593 12.3569 44.3657 12.2292 44.5915 12.0018C44.8174 11.7745 44.9443 11.4661 44.9443 11.1446C44.9443 10.823 44.8174 10.5147 44.5915 10.2873H44.6597Z" fill="#1DACB0"/>
<path d="M4.80376 22.3575C4.91619 22.4685 5.04934 22.5559 5.1955 22.6147C5.34167 22.6736 5.49797 22.7027 5.65539 22.7004C5.8082 22.7063 5.96045 22.6786 6.10161 22.6194C6.24277 22.5602 6.36947 22.4709 6.47295 22.3575L16.0112 12.7905L18.0891 14.848C18.1972 14.961 18.3268 15.0509 18.4702 15.1124C18.6136 15.1738 18.7679 15.2055 18.9237 15.2055C19.0796 15.2055 19.2338 15.1738 19.3773 15.1124C19.5207 15.0509 19.6503 14.961 19.7583 14.848L27.6955 6.85833L32.5668 11.7618C32.6749 11.8749 32.8045 11.9648 32.9479 12.0262C33.0913 12.0877 33.2456 12.1193 33.4014 12.1193C33.5573 12.1193 33.7115 12.0877 33.8549 12.0262C33.9983 11.9648 34.1279 11.8749 34.236 11.7618L42.2072 3.73792C42.3195 3.62914 42.4089 3.49867 42.4699 3.35431C42.5309 3.20996 42.5624 3.05469 42.5624 2.89781C42.5624 2.74092 42.5309 2.58565 42.4699 2.4413C42.4089 2.29694 42.3195 2.16647 42.2072 2.05769C42.0992 1.94465 41.9696 1.85472 41.8262 1.79329C41.6827 1.73186 41.5285 1.7002 41.3726 1.7002C41.2168 1.7002 41.0625 1.73186 40.9191 1.79329C40.7757 1.85472 40.6461 1.94465 40.538 2.05769L33.4184 9.22436L28.5471 4.32085C28.3203 4.10876 28.0221 3.99088 27.7125 3.99088C27.4029 3.99088 27.1048 4.10876 26.8779 4.32085L18.9067 12.3448L17.0331 10.2874C16.8007 10.0729 16.4968 9.95393 16.1815 9.95393C15.8662 9.95393 15.5623 10.0729 15.3299 10.2874L5.11035 20.5744C4.9689 20.6671 4.84797 20.7881 4.75511 20.9299C4.66226 21.0717 4.59948 21.2313 4.5707 21.3987C4.54192 21.566 4.54777 21.7376 4.58787 21.9026C4.62797 22.0676 4.70147 22.2224 4.80376 22.3575Z" fill="#1DACB0"/>
</svg>
