<svg width="44" height="44" viewBox="0 0 44 44" fill="none" xmlns="http://www.w3.org/2000/svg">
<path d="M5.5 33.4587C5.5 34.218 6.11562 34.8337 6.875 34.8337C7.63439 34.8337 8.25 34.218 8.25 33.4587V10.542C8.25 9.78261 7.63439 9.16699 6.875 9.16699C6.11562 9.16699 5.5 9.78261 5.5 10.542V33.4587ZM35.75 33.4587C35.75 34.218 36.3656 34.8337 37.125 34.8337C37.8844 34.8337 38.5 34.218 38.5 33.4587V10.542C38.5 9.78261 37.8844 9.16699 37.125 9.16699C36.3656 9.16699 35.75 9.78261 35.75 10.542V33.4587ZM25.9347 25.7651C25.5354 26.3035 25.5798 27.0673 26.0678 27.5555C26.6048 28.0925 27.4754 28.0925 28.0124 27.5555L32.3576 23.2153C32.7397 22.9848 33 22.5263 33 21.9981C33 21.4699 32.7393 21.0114 32.357 20.7812L28.0124 16.4413L27.8582 16.3081C27.32 15.9087 26.556 15.9531 26.0678 16.4413L25.9347 16.5955C25.5354 17.1338 25.5798 17.8977 26.0678 18.3857L28.3067 20.625H21.3697L21.3231 20.6284H15.6933L17.9321 18.3894L18.0784 18.2171C18.4246 17.7343 18.4202 17.0775 18.0652 16.5991L17.9321 16.4448L17.7599 16.2986C17.277 15.9523 16.6203 15.9567 16.1418 16.3117L15.9876 16.4448L11.643 20.7848L11.5056 20.8814C11.1996 21.1308 11 21.5396 11 22.0018C11 22.5298 11.2604 22.9883 11.6424 23.2188L15.9876 27.559L16.1418 27.6923C16.6801 28.0916 17.4439 28.0472 17.9321 27.559C18.4202 27.071 18.4646 26.307 18.0652 25.7687L17.9321 25.6146L15.6933 23.3784H22.6301L22.6767 23.375H28.3067L26.0678 25.6109L25.9347 25.7651Z" fill="#1DACB0"/>
</svg>
