<svg width="30" height="38" viewBox="0 0 30 38" fill="none" xmlns="http://www.w3.org/2000/svg">
<path d="M6.6134 2.18961C6.93864 1.27665 7.803 0.666992 8.77217 0.666992H20.6038C22.168 0.666992 23.2724 2.19942 22.7778 3.68334L20.1167 11.667H27.3743C29.3987 11.667 30.4289 14.0995 29.0203 15.5533L8.74181 36.483C6.80996 38.4769 3.47657 36.6777 4.08322 33.9686L6.41014 23.5771L3.53465 23.5661C1.32227 23.5576 -0.21778 21.3651 0.524665 19.2812L6.6134 2.18961ZM9.09544 3.41699L3.11518 20.2039C3.00912 20.5016 3.22914 20.815 3.54519 20.8161L8.13089 20.8337C8.54742 20.8353 8.94078 21.0256 9.20053 21.3512C9.46028 21.6768 9.55841 22.1027 9.46739 22.5091L6.76678 34.5695L26.2921 14.417H18.209C17.7669 14.417 17.3519 14.2045 17.0936 13.846C16.8351 13.4874 16.7648 13.0265 16.9045 12.6072L19.9679 3.41699H9.09544Z" fill="#1DACB0"/>
</svg>
