<svg width="39" height="47" viewBox="0 0 39 47" fill="none" xmlns="http://www.w3.org/2000/svg">
<path d="M37.9539 41.8628C37.5933 41.5542 37.2508 41.2819 36.9623 41.0822C36.9692 39.8156 36.5063 38.592 35.6641 37.6511C35.5559 36.0717 34.8888 27.4124 34.5822 24.2718C34.2577 20.7681 27.6044 15.9937 25.2424 14.4143V11.5279C25.7293 9.87591 28.8485 8.3873 30.7417 7.89715C30.937 7.83455 31.1136 7.72365 31.2554 7.5746C31.3971 7.42554 31.4995 7.24309 31.5531 7.04393C32.1481 4.61133 29.137 2.97749 28.0732 2.48734C27.266 1.70214 26.2292 1.19931 25.1162 1.0532C23.94 0.889877 22.777 0.641127 21.6363 0.308895C20.2298 -0.108173 18.7336 -0.108173 17.327 0.308895C16.2043 0.639246 15.0594 0.887987 13.9012 1.0532C12.7884 1.18043 11.7455 1.66406 10.9262 2.43288C9.8624 2.92303 6.85131 4.55687 7.44632 6.97131C7.4973 7.17666 7.60064 7.36506 7.7461 7.51789C7.89156 7.67071 8.07412 7.78267 8.27572 7.84269C10.0788 8.3873 13.2702 9.85776 13.6849 11.4734V14.4143C11.3229 15.9937 4.66962 20.7681 4.34507 24.2718C4.14673 26.2143 3.80415 30.6256 3.28127 37.397V37.6511C2.43907 38.592 1.97611 39.8156 1.98307 41.0822C1.71261 41.2819 1.352 41.5542 0.991391 41.8628C0.538103 42.2423 0.211197 42.7526 0.054685 43.3249C-0.101827 43.8972 -0.0804306 44.504 0.115993 45.0637C0.312417 45.6234 0.674438 46.109 1.15332 46.4553C1.6322 46.8015 2.20494 46.9917 2.79444 47.0003H36.0607C36.657 47.0044 37.2396 46.8213 37.7276 46.4764C38.2156 46.1315 38.5846 45.642 38.7834 45.076C39.0014 44.5211 39.0386 43.9107 38.8895 43.3331C38.7404 42.7555 38.4128 42.2406 37.9539 41.8628ZM4.45325 41.3908C4.39542 40.9621 4.44056 40.5257 4.58488 40.1182C4.72919 39.7108 4.96848 39.3441 5.28265 39.049C5.40637 38.9288 5.50514 38.785 5.57323 38.6261C5.64132 38.4672 5.67739 38.2962 5.67933 38.1231C5.80554 36.3077 6.47267 27.5576 6.77919 24.417C6.94146 22.6017 11.2147 18.8802 15.2896 16.1753H23.7098C27.7847 18.8802 32.058 22.6743 32.2202 24.417C32.3825 26.1598 32.7972 31.1521 33.3021 37.8326V38.1776C33.3224 38.4827 33.4579 38.7685 33.6807 38.9763C33.9949 39.2715 34.2342 39.6381 34.3785 40.0456C34.5228 40.4531 34.5679 40.8895 34.5101 41.3182C34.4637 41.5493 34.485 41.789 34.5714 42.0082C34.6578 42.2274 34.8057 42.4165 34.9969 42.5526C35.4847 42.8837 35.9542 43.2413 36.4033 43.6237C36.4894 43.6854 36.5523 43.7745 36.5817 43.8766C36.6112 43.9788 36.6055 44.088 36.5656 44.1865C36.5279 44.2899 36.4589 44.3789 36.3683 44.4407C36.2777 44.5026 36.1702 44.5343 36.0607 44.5314H2.90263C2.79436 44.5395 2.68665 44.5096 2.59786 44.4467C2.50908 44.3838 2.44473 44.2918 2.4158 44.1865C2.37404 44.0899 2.36555 43.982 2.39169 43.8801C2.41783 43.7781 2.47709 43.6878 2.56005 43.6237C3.00921 43.2413 3.4787 42.8837 3.96643 42.5526C4.14528 42.4222 4.28523 42.245 4.37106 42.0402C4.45689 41.8353 4.48531 41.6107 4.45325 41.3908ZM22.8804 12.5808V13.8697H16.119V12.5808H22.8804ZM23.2771 10.1845H15.7223C14.3673 8.13316 12.3471 6.6189 10.0066 5.90024C10.6018 5.32168 11.2989 4.85995 12.0621 4.53871C12.2103 4.4823 12.3453 4.39579 12.4588 4.28456C12.9411 3.79206 13.5786 3.48397 14.2619 3.41318C15.5389 3.25008 16.7997 2.97677 18.0302 2.59626C19.0158 2.3244 20.0558 2.3244 21.0413 2.59626C22.2895 2.97983 23.5685 3.25317 24.8638 3.41318C25.5451 3.49113 26.1803 3.79813 26.6668 4.28456C26.7737 4.39535 26.9028 4.48198 27.0455 4.53871C27.805 4.86707 28.5008 5.328 29.101 5.90024C26.7207 6.59634 24.6592 8.11285 23.2771 10.1845Z" fill="#1DACB0"/>
</svg>
