<svg width="60" height="36" viewBox="0 0 60 36" fill="none" xmlns="http://www.w3.org/2000/svg">
<path d="M42.6529 25.6882L34.3349 28.6503C33.7635 27.6327 32.8472 26.8498 31.7491 26.441C30.651 26.0323 29.4426 26.0243 28.3391 26.4184C27.2336 26.8071 26.3023 27.5721 25.7103 28.578C25.1183 29.5839 24.9037 30.7656 25.1047 31.9137C25.3057 33.0618 25.9092 34.102 26.8083 34.8501C27.7074 35.5982 28.844 36.0057 30.0165 36.0005C30.5861 36.0023 31.1516 35.9043 31.6871 35.7112C32.6963 35.3514 33.5612 34.6764 34.1523 33.7873C34.7433 32.8981 35.0287 31.8427 34.9657 30.7789L43.4084 27.7755C43.6463 27.6507 43.8308 27.4447 43.9281 27.1955C44.0253 26.9462 44.0287 26.6705 43.9376 26.419C43.8464 26.1674 43.667 25.9571 43.4322 25.8266C43.1974 25.6961 42.9231 25.6543 42.6598 25.7089L42.6529 25.6882ZM32.4773 32.2255C32.2453 32.7101 31.8743 33.1156 31.411 33.3912C30.9477 33.6668 30.4127 33.8001 29.8734 33.7743C29.3341 33.7485 28.8144 33.5649 28.3799 33.2464C27.9453 32.9279 27.6152 32.4889 27.431 31.9844C27.2059 31.3097 27.2518 30.5746 27.5592 29.9327C27.8667 29.2908 28.4118 28.7919 29.0808 28.5401C29.3795 28.4369 29.6933 28.3834 30.0096 28.3817C30.4123 28.3839 30.8097 28.4732 31.1741 28.6434C31.4988 28.7957 31.7901 29.01 32.0314 29.2742C32.2727 29.5384 32.4592 29.8473 32.5802 30.1832C32.7013 30.5191 32.7545 30.8754 32.7368 31.2318C32.7191 31.5881 32.6309 31.9375 32.4773 32.26V32.2255Z" fill="#1DACB0"/>
<path d="M30.0013 0.000376605C22.484 -0.0371741 15.2271 2.7346 9.67009 7.76589C4.11308 12.7972 0.661949 19.7204 0.00125182 27.1623C-0.0240489 27.4221 0.0442793 27.6824 0.194067 27.8969C0.343855 28.1114 0.565378 28.266 0.819182 28.3333L10.7522 30.9992C10.9161 31.0413 11.0876 31.0455 11.2534 31.0115C11.4192 30.9776 11.575 30.9063 11.7088 30.8032C11.8426 30.7002 11.9509 30.568 12.0254 30.4169C12.0999 30.2658 12.1386 30.0998 12.1385 29.9315C12.2306 25.2885 14.1512 20.8665 17.4878 17.6152C20.8245 14.364 25.311 12.5428 29.9839 12.5428C34.6568 12.5428 39.1434 14.364 42.48 17.6152C45.8167 20.8665 47.7373 25.2885 47.8293 29.9315C47.8284 30.0774 47.8567 30.222 47.9124 30.357C47.9682 30.492 48.0503 30.6146 48.1542 30.7178C48.258 30.8209 48.3814 30.9026 48.5172 30.958C48.653 31.0134 48.7985 31.0415 48.9453 31.0406C49.0438 31.0404 49.1418 31.0265 49.2365 30.9992L59.1625 28.3264C59.4149 28.2567 59.6348 28.1015 59.7842 27.8876C59.9335 27.6738 60.003 27.4147 59.9805 27.1554C59.3169 19.7189 55.8675 12.8012 50.3154 7.7722C44.7633 2.74316 37.5134 -0.0305348 30.0013 0.000376605ZM50.0267 28.5055C49.5891 23.5272 47.2899 18.8926 43.5828 15.5162C39.8756 12.1398 35.0297 10.2668 30.0013 10.2668C24.9728 10.2668 20.1269 12.1398 16.4197 15.5162C12.7126 18.8926 10.4134 23.5272 9.97584 28.5055L2.35107 26.439C2.74129 23.2271 3.69372 20.1078 5.1653 17.222L7.56364 18.5997C7.73312 18.6939 7.92396 18.7437 8.11817 18.7444C8.31378 18.747 8.50651 18.6973 8.67606 18.6003C8.84562 18.5033 8.98573 18.3627 9.08166 18.1933C9.1562 18.0677 9.20495 17.9287 9.22508 17.7844C9.24521 17.64 9.23632 17.4931 9.19893 17.3521C9.16154 17.2112 9.09639 17.079 9.00725 16.9632C8.91811 16.8475 8.80676 16.7505 8.67963 16.6778L6.2397 15.3138C8.44258 11.7737 11.4239 8.77561 14.9597 6.54458L16.4014 9.0176C16.4993 9.18742 16.6406 9.32849 16.811 9.42648C16.9815 9.52448 17.175 9.57592 17.3719 9.57558C17.5671 9.57573 17.7587 9.52336 17.9264 9.42403C18.0532 9.35191 18.1644 9.2556 18.2536 9.14065C18.3428 9.0257 18.4083 8.89436 18.4463 8.75418C18.4843 8.614 18.4941 8.46774 18.475 8.3238C18.456 8.17986 18.4085 8.04107 18.3354 7.91542L16.8936 5.42862C20.6003 3.48794 24.6985 2.40027 28.8853 2.24607V4.82242C28.8853 4.96807 28.9141 5.11228 28.9702 5.24684C29.0263 5.3814 29.1085 5.50366 29.2121 5.60665C29.3158 5.70964 29.4388 5.79133 29.5742 5.84707C29.7096 5.9028 29.8547 5.93149 30.0013 5.93149C30.1478 5.93149 30.2929 5.9028 30.4283 5.84707C30.5637 5.79133 30.6867 5.70964 30.7904 5.60665C30.894 5.50366 30.9762 5.3814 31.0323 5.24684C31.0884 5.11228 31.1172 4.96807 31.1172 4.82242V2.24607C35.3062 2.40018 39.4067 3.48783 43.1159 5.42862L41.6741 7.91542C41.6 8.04083 41.5518 8.17966 41.5322 8.3238C41.5127 8.46794 41.5222 8.6145 41.5603 8.75493C41.5984 8.89537 41.6642 9.02686 41.7539 9.14174C41.8437 9.25662 41.9556 9.35258 42.083 9.42403C42.2507 9.52336 42.4424 9.57573 42.6376 9.57558C42.8345 9.57592 43.028 9.52448 43.1984 9.42648C43.3688 9.32849 43.5102 9.18742 43.608 9.0176L45.0567 6.54458C48.5824 8.77669 51.5521 11.7751 53.742 15.3138L51.3298 16.6915C51.1183 16.8144 50.9533 17.003 50.8604 17.2283C50.7674 17.4536 50.7517 17.7031 50.8155 17.9382C50.8794 18.1732 51.0193 18.3809 51.2137 18.5291C51.4082 18.6773 51.6463 18.7578 51.8913 18.7581C52.0855 18.7575 52.2763 18.7077 52.4458 18.6135L54.8372 17.2357C56.3152 20.1113 57.2769 23.2211 57.6792 26.4252L50.0267 28.5055Z" fill="#1DACB0"/>
</svg>
