<svg width="65" height="39" viewBox="0 0 65 39" fill="none" xmlns="http://www.w3.org/2000/svg">
<path d="M33.1602 13.6663V20.5807C33.1815 20.8522 33.3013 21.1054 33.4956 21.29C33.6899 21.4746 33.9445 21.5771 34.2089 21.5771C34.4732 21.5771 34.7279 21.4746 34.9222 21.29C35.1165 21.1054 35.2362 20.8522 35.2576 20.5807V13.6663C35.2362 13.3949 35.1165 13.1417 34.9222 12.957C34.7279 12.7724 34.4732 12.6699 34.2089 12.6699C33.9445 12.6699 33.6899 12.7724 33.4956 12.957C33.3013 13.1417 33.1815 13.3949 33.1602 13.6663Z" fill="#1DACB0"/>
<path d="M27.1212 13.666V20.5804C27.0967 20.7345 27.105 20.8923 27.1455 21.0427C27.1861 21.1931 27.2579 21.3327 27.3561 21.4517C27.4542 21.5707 27.5763 21.6663 27.7138 21.7319C27.8514 21.7974 28.0011 21.8314 28.1527 21.8314C28.3043 21.8314 28.454 21.7974 28.5916 21.7319C28.7291 21.6663 28.8512 21.5707 28.9493 21.4517C29.0475 21.3327 29.1193 21.1931 29.1599 21.0427C29.2004 20.8923 29.2087 20.7345 29.1842 20.5804V13.666C29.2087 13.5119 29.2004 13.3542 29.1599 13.2037C29.1193 13.0533 29.0475 12.9137 28.9493 12.7947C28.8512 12.6757 28.7291 12.5801 28.5916 12.5146C28.454 12.449 28.3043 12.415 28.1527 12.415C28.0011 12.415 27.8514 12.449 27.7138 12.5146C27.5763 12.5801 27.4542 12.6757 27.3561 12.7947C27.2579 12.9137 27.1861 13.0533 27.1455 13.2037C27.105 13.3542 27.0967 13.5119 27.1212 13.666Z" fill="#1DACB0"/>
<path d="M21.0841 13.6664V20.5808C21.0596 20.7349 21.0679 20.8927 21.1084 21.0431C21.149 21.1936 21.2208 21.3331 21.319 21.4521C21.4171 21.5711 21.5392 21.6667 21.6767 21.7323C21.8143 21.7978 21.964 21.8318 22.1156 21.8318C22.2672 21.8318 22.4169 21.7978 22.5545 21.7323C22.692 21.6667 22.8141 21.5711 22.9122 21.4521C23.0104 21.3331 23.0822 21.1936 23.1228 21.0431C23.1633 20.8927 23.1716 20.7349 23.1471 20.5808V13.6664C23.107 13.4143 22.9813 13.1852 22.7923 13.0198C22.6034 12.8545 22.3635 12.7637 22.1156 12.7637C21.8677 12.7637 21.6278 12.8545 21.4389 13.0198C21.2499 13.1852 21.1242 13.4143 21.0841 13.6664Z" fill="#1DACB0"/>
<path d="M15.0391 13.6663V20.5807C15.0604 20.8522 15.1802 21.1054 15.3745 21.29C15.5688 21.4746 15.8234 21.5771 16.0878 21.5771C16.3521 21.5771 16.6068 21.4746 16.8011 21.29C16.9954 21.1054 17.1151 20.8522 17.1365 20.5807V13.6663C17.1151 13.3949 16.9954 13.1417 16.8011 12.957C16.6068 12.7724 16.3521 12.6699 16.0878 12.6699C15.8234 12.6699 15.5688 12.7724 15.3745 12.957C15.1802 13.1417 15.0604 13.3949 15.0391 13.6663Z" fill="#1DACB0"/>
<path d="M64.9997 19.1286C64.9944 18.8659 64.8967 18.6141 64.7246 18.4201L52.7452 4.76126C52.6469 4.64945 52.527 4.56015 52.3931 4.49913C52.2593 4.43811 52.1145 4.40673 51.9681 4.40704H39.9955C39.8576 4.40703 39.7211 4.43512 39.5939 4.48968C39.4666 4.54424 39.3511 4.62419 39.2539 4.72494C39.1568 4.82568 39.0799 4.94523 39.0278 5.0767C38.9757 5.20816 38.9493 5.34895 38.9502 5.49096V23.3792H9.868L2.5304 15.7918L8.03188 10.1242H35.5599C35.6978 10.1251 35.8344 10.098 35.962 10.0443C36.0897 9.99058 36.2057 9.91141 36.3035 9.81132C36.4013 9.71123 36.4789 9.59221 36.5319 9.4611C36.5848 9.32998 36.6121 9.18938 36.6121 9.04737V2.12584H45.6276C45.7772 2.15108 45.9303 2.14252 46.0763 2.10074C46.2224 2.05895 46.3579 1.98495 46.4734 1.88386C46.5889 1.78277 46.6817 1.65701 46.7453 1.5153C46.809 1.37358 46.8419 1.21931 46.8419 1.06317C46.8419 0.907025 46.809 0.75275 46.7453 0.611038C46.6817 0.469325 46.5889 0.343565 46.4734 0.242475C46.3579 0.141385 46.2224 0.0673832 46.0763 0.0255998C45.9303 -0.0161836 45.7772 -0.0247491 45.6276 0.000497112H35.5599C35.2827 0.000497112 35.0168 0.113949 34.8208 0.315896C34.6248 0.517843 34.5146 0.791741 34.5146 1.07734V7.99886H7.56425C7.28688 7.99995 7.02069 8.11167 6.82155 8.31058L0.309175 15.0267C0.211243 15.1262 0.133482 15.2447 0.0804067 15.3755C0.0273314 15.5062 0 15.6465 0 15.7882C0 15.9299 0.0273314 16.0702 0.0804067 16.201C0.133482 16.3317 0.211243 16.4503 0.309175 16.5498L7.99749 24.4703L1.55388 32.0294C1.41944 32.1852 1.33115 32.3774 1.29946 32.5834C1.26778 32.7893 1.29402 33.0002 1.37509 33.1912C1.45736 33.3795 1.59073 33.5391 1.75912 33.651C1.92751 33.7629 2.12372 33.8222 2.32409 33.8218H8.60953C8.85409 35.2737 9.58835 36.5901 10.6829 37.5389C11.7774 38.4876 13.1619 39.0079 14.5924 39.0079C16.0228 39.0079 17.4074 38.4876 18.5019 37.5389C19.5964 36.5901 20.3307 35.2737 20.5753 33.8218H45.8408C46.0894 35.2694 46.8249 36.5806 47.9183 37.5252C49.0118 38.4699 50.3932 38.9876 51.8202 38.9876C53.2473 38.9876 54.6287 38.4699 55.7221 37.5252C56.8155 36.5806 57.5511 35.2694 57.7997 33.8218H63.9544C64.0923 33.8227 64.2289 33.7955 64.3566 33.7418C64.4842 33.6881 64.6002 33.609 64.698 33.5089C64.7958 33.4088 64.8734 33.2898 64.9264 33.1586C64.9793 33.0275 65.0066 32.8869 65.0066 32.7449V19.1286H64.9997ZM61.5613 18.0446H47.8076V6.5678H51.5073L61.5613 18.0446ZM9.90238 25.5046H38.9502V31.6539H20.589C20.3445 30.202 19.6102 28.8856 18.5157 27.9368C17.4211 26.988 16.0366 26.4678 14.6061 26.4678C13.1757 26.4678 11.7912 26.988 10.6966 27.9368C9.60211 28.8856 8.86784 30.202 8.62329 31.6539H4.65534L9.90238 25.5046ZM14.6061 36.8397C13.5531 36.8379 12.5434 36.4071 11.7975 35.6413C11.0516 34.8755 10.6299 33.8369 10.6245 32.752C10.6204 31.9381 10.851 31.1413 11.2871 30.4627C11.7232 29.784 12.3451 29.254 13.0739 28.94C13.8028 28.6259 14.6057 28.5419 15.381 28.6986C16.1562 28.8554 16.8688 29.2457 17.4284 29.8202C17.988 30.3947 18.3694 31.1275 18.5242 31.9256C18.679 32.7237 18.6003 33.5512 18.2979 34.3032C17.9956 35.0551 17.4833 35.6976 16.8261 36.1492C16.1688 36.6008 15.3962 36.8411 14.6061 36.8397ZM51.8168 36.8397C50.7637 36.8379 49.7541 36.4071 49.0082 35.6413C48.2622 34.8755 47.8405 33.8369 47.8351 32.752C47.831 31.9381 48.0616 31.1413 48.4977 30.4627C48.9338 29.784 49.5557 29.254 50.2845 28.94C51.0134 28.6259 51.8164 28.5419 52.5916 28.6986C53.3669 28.8554 54.0795 29.2457 54.6391 29.8202C55.1987 30.3947 55.5801 31.1275 55.7349 31.9256C55.8897 32.7237 55.8109 33.5512 55.5086 34.3032C55.2063 35.0551 54.694 35.6976 54.0367 36.1492C53.3795 36.6008 52.6068 36.8411 51.8168 36.8397ZM57.8065 31.661C57.5578 30.2116 56.8215 28.8988 55.7268 27.9529C54.6321 27.0071 53.249 26.4886 51.8202 26.4886C50.3915 26.4886 49.0084 27.0071 47.9137 27.9529C46.819 28.8988 46.0827 30.2116 45.8339 31.661H41.0201V6.5678H45.717V19.1286C45.7206 19.4117 45.8324 19.682 46.028 19.8809C46.2236 20.0798 46.4874 20.1913 46.7623 20.1912H62.8954V31.661H57.8065Z" fill="#1DACB0"/>
</svg>
