<svg width="112" height="75" viewBox="0 0 112 75" fill="none" xmlns="http://www.w3.org/2000/svg">
<path fill-rule="evenodd" clip-rule="evenodd" d="M40.5003 46.0273C39.497 45.0355 37.8822 45.0355 36.879 46.0273L30.1288 52.7823C29.1403 53.7831 29.1403 55.3922 30.1288 56.3929L30.1411 56.4076C31.141 57.3994 32.7532 57.3994 33.7533 56.4076L40.506 49.6526C41.497 48.6469 41.497 47.0329 40.506 46.0274L40.5003 46.0273ZM31.6699 46.9406L27.9809 50.6288L27.98 50.628C26.9834 51.6279 25.3654 51.6296 24.3661 50.6329C23.3662 49.6354 23.3645 48.0174 24.3612 47.0181L28.052 43.3316C29.0544 42.3398 30.6683 42.3398 31.6707 43.3316C32.6625 44.3299 32.6625 45.9423 31.6707 46.9405L31.6699 46.9406ZM40.5532 53.8984V53.8976C41.0299 53.412 41.6815 53.1381 42.3626 53.1381C43.0428 53.1381 43.6953 53.412 44.172 53.8976C45.1637 54.8967 45.1637 56.5092 44.172 57.5082L41.6898 59.9814L39.5148 62.1668H39.514C38.501 63.0784 36.9508 63.0376 35.9876 62.0719C35.0244 61.1072 34.986 59.5569 35.9001 58.5455L40.5555 53.8974L40.5532 53.8984ZM43.84 62.14L41.6636 64.309C41.1869 64.7914 40.9204 65.4439 40.9228 66.1225C40.9196 66.7962 41.1869 67.443 41.6636 67.9188L41.6759 67.9352C42.6766 68.9269 44.2897 68.9269 45.2906 67.9352L47.4656 65.7661H47.4664C47.9406 65.2812 48.2063 64.6304 48.2063 63.9526C48.212 63.2732 47.9455 62.6207 47.4664 62.14C46.464 61.1498 44.8517 61.1498 43.8485 62.14L43.84 62.14ZM84.9252 12.3119L93.3156 38.5132L80.914 48.0415L55.1795 22.7549C54.8843 22.4639 54.4829 22.3077 54.0684 22.3224C52.8313 22.3633 51.6393 22.7926 50.6589 23.5488C49.6786 24.3043 48.9616 25.3492 48.6075 26.5357C48.574 26.6518 48.5536 26.7712 48.547 26.8922C48.4865 28.6059 48.202 30.3041 47.7024 31.9434C47.3991 33.0014 46.8415 33.9695 46.0787 34.7626C46.0386 34.7945 46.0034 34.8313 45.9724 34.8713C45.2717 35.7903 44.3053 36.4714 43.2047 36.8238C42.3478 37.0266 41.4476 36.9284 40.6545 36.5458L40.6005 23.1737L54.5761 10.7786C54.7698 10.6077 54.9979 10.4818 55.2457 10.4083C55.4991 10.3437 55.7632 10.333 56.0208 10.378L77.3221 13.9239C77.5225 13.9656 77.7293 13.9607 77.9272 13.9084L84.9177 12.3116L84.9252 12.3119ZM87.3633 10.0038C87.3772 10.0504 87.3919 10.0815 87.4025 10.1273L96.9489 39.9685L107.89 36.4667L97.5228 4.08874L86.5822 7.59047L87.3557 10.0074L87.3633 10.0038ZM17.1966 37.3814L31.2417 13.3339L36.2708 15.9821C36.4801 16.1121 36.7221 16.1824 36.969 16.1841L43.5296 16.5242L38.0819 21.3611C37.7491 21.6546 37.5619 22.0798 37.5709 22.5238L37.6281 36.8214C37.6265 37.303 37.7606 37.7748 38.014 38.1844C38.2732 38.5948 38.6403 38.9276 39.0737 39.1459C40.5707 39.9472 42.3131 40.1622 43.9598 39.7501C45.6302 39.2596 47.1101 38.2695 48.2008 36.9121C49.3111 35.7838 50.1287 34.4013 50.5817 32.8838C51.145 31.058 51.4729 29.1677 51.5563 27.2586C51.7386 26.7361 52.0689 26.2791 52.508 25.9422C52.826 25.6969 53.1898 25.5179 53.579 25.4157L82.0869 53.4233L82.1809 53.5173C83.1915 54.4715 83.261 56.0569 82.3371 57.0953C81.3838 58.1328 79.7779 58.2219 78.715 57.298L76.6775 55.4764C76.6661 55.46 76.6514 55.4453 76.6415 55.4453V55.4461C76.5917 55.3889 76.5361 55.3366 76.4756 55.2908L63.8262 43.9645V43.9636C63.2015 43.4077 62.2433 43.4625 61.6864 44.0871C61.1296 44.7126 61.1852 45.67 61.8099 46.2269L74.4593 57.5532C74.4715 57.5679 74.483 57.5679 74.4961 57.5826C74.5394 57.6292 74.5868 57.6709 74.6391 57.7061C75.0986 58.1582 75.3709 58.7665 75.4028 59.41C75.442 60.0575 75.2319 60.6953 74.8157 61.1916C74.7699 61.2382 74.7282 61.2856 74.6923 61.3314C74.2467 61.7974 73.64 62.0746 72.9957 62.1065C72.3179 62.1392 71.654 61.9053 71.1455 61.4556L69.1137 59.643L69.1129 59.6438C69.063 59.5858 69.0066 59.5334 68.9453 59.4876L57.2453 49.0312C56.6248 48.4744 55.6706 48.5259 55.1137 49.1465C54.5569 49.767 54.6084 50.7212 55.229 51.2781L66.9193 61.7509C66.9291 61.7672 66.9414 61.7672 66.9529 61.7827L67.0035 61.8285H67.0125V61.8449H67.0117C68.0272 62.7631 68.1449 64.3158 67.2799 65.377L67.2652 65.3917L67.2096 65.4546C66.7558 65.9624 66.1197 66.2682 65.4403 66.3058C64.7608 66.3442 64.0945 66.1095 63.5884 65.6558L62.4617 64.6493C62.4502 64.6329 62.4372 64.6329 62.4249 64.6174L62.3644 64.5561L52.3691 55.6C51.742 55.0611 50.7984 55.1233 50.249 55.7406C49.6987 56.3587 49.7461 57.303 50.3544 57.8632L60.2949 66.7563C60.3407 66.8021 60.3873 66.8487 60.438 66.8961C60.8959 67.3425 61.1682 67.9451 61.2017 68.5837C61.2385 69.2353 61.0283 69.8771 60.6146 70.3816V70.3669C60.5705 70.4127 60.5271 70.474 60.4912 70.5214V70.5206C59.5476 71.469 58.0374 71.5426 57.0057 70.6915C56.9551 70.6391 56.8995 70.5917 56.839 70.5517L51.061 65.3769C51.182 64.9109 51.2425 64.4318 51.2425 63.951C51.2474 62.4793 50.671 61.0648 49.6383 60.0158L49.5917 59.9692C48.918 59.3045 48.0873 58.8196 47.1773 58.5604C47.8118 57.4902 48.0726 56.24 47.9189 55.0055C47.7652 53.7717 47.206 52.6238 46.3287 51.7424C45.6116 51.0286 44.7171 50.5201 43.7376 50.2699C44.4792 48.7368 44.4817 46.9488 43.7442 45.4133C43.0059 43.8778 41.6086 42.7626 39.9471 42.3839C38.2856 42.0053 36.5433 42.4052 35.2131 43.4689C34.6261 41.6007 33.1062 40.1731 31.2045 39.7047C29.3027 39.2362 27.2937 39.7938 25.9064 41.1756L23.3317 43.7478L21.0842 39.9819L21.0834 39.9827C20.9493 39.7562 20.7588 39.5698 20.529 39.4406L17.1916 37.3802L17.1966 37.3814ZM26.3564 54.4083H26.1798L26.1806 54.4075C24.6975 54.4148 23.2731 53.8303 22.2234 52.7837C21.1736 51.7364 20.5849 50.3137 20.589 48.8305C20.589 47.9017 20.8171 46.9868 21.2529 46.166L18.6807 41.8473L15.6663 39.9987L15.506 40.2612L15.5052 40.262C15.1651 40.8539 14.6001 41.284 13.9386 41.4549H13.9321C13.2748 41.6315 12.5732 41.5366 11.9854 41.1924L1.27461 34.9345C0.68593 34.5919 0.257495 34.0286 0.0866152 33.3696C-0.0891708 32.7106 0.004855 32.0074 0.348251 31.4179L17.9555 1.2649C18.2842 0.712199 18.8083 0.30256 19.424 0.118599C19.4558 0.100611 19.491 0.0899829 19.5278 0.0867135C20.1868 -0.0898909 20.8899 0.00576868 21.4786 0.350798L32.1894 6.5949C32.7772 6.94566 33.204 7.51308 33.3774 8.17535C33.5507 8.83597 33.4559 9.53749 33.1125 10.1278L32.7609 10.732L37.449 13.1799L46.7567 13.6598L52.5693 8.51627C53.6403 7.54904 55.0973 7.13123 56.5175 7.38471L77.5446 10.9021L83.9924 9.41408L83.5566 8.06666L83.5574 8.06747C83.1282 6.7176 83.873 5.27529 85.2221 4.84454L97.0334 1.064C97.6818 0.851425 98.3882 0.907017 98.9957 1.21853C99.6031 1.53004 100.061 2.07048 100.267 2.7213L110.917 35.9721C111.127 36.6238 111.07 37.3318 110.757 37.9401C110.442 38.5435 109.903 38.9989 109.257 39.2099L97.4454 42.9904C96.7954 43.2013 96.0874 43.14 95.484 42.8203C94.9566 42.5513 94.5396 42.1074 94.3033 41.5653L83.1028 50.1796L84.2295 51.2899H84.2287C85.3079 52.2899 85.9497 53.675 86.0143 55.145C86.0789 56.615 85.5622 58.0508 84.5753 59.1424C83.5885 60.2339 82.2107 60.8921 80.7424 60.9746C79.924 61.0122 79.1072 60.8765 78.3444 60.5756C78.1604 61.5854 77.7018 62.5248 77.0182 63.2902L76.9602 63.3515L76.9062 63.3981V63.3989C75.9235 64.4307 74.585 65.0505 73.1623 65.1314C72.3635 65.178 71.5639 65.0521 70.8183 64.7611C70.6433 65.7209 70.2198 66.6179 69.591 67.3636C69.542 67.4282 69.4888 67.4903 69.4332 67.5492C68.4455 68.6129 67.0833 69.2515 65.6338 69.3316C65.1621 69.3618 64.6887 69.3308 64.2251 69.2384C64.1172 70.4362 63.6258 71.5661 62.8237 72.4613L62.7673 72.5227L62.7117 72.5693L62.7109 72.5701C61.7322 73.6092 60.3888 74.2306 58.963 74.3051C57.4831 74.3868 56.031 73.8799 54.9248 72.8947L54.8635 72.8333V72.8497L54.8275 72.8031L49.4926 68.0306L47.438 70.091V70.0902C46.3857 71.1327 44.9648 71.7173 43.4831 71.7173C42.0024 71.7173 40.5806 71.1327 39.529 70.0902C38.4727 69.0396 37.8774 67.6128 37.8758 66.1232V65.9515H37.6951C36.2128 65.9507 34.791 65.3612 33.7427 64.3122C32.6954 63.264 32.1067 61.8413 32.1075 60.359V60.1742V60.1734C32.0495 60.1856 31.9898 60.1905 31.9309 60.1881C30.4461 60.1938 29.0211 59.6018 27.976 58.5463C26.9287 57.4998 26.3416 56.0788 26.3441 54.5981V54.4117L26.3564 54.4083ZM30.2663 8.99665L20.3536 3.19732L3.20413 32.5466L13.1193 38.3459L30.2663 8.99665Z" fill="white"/>
</svg>
