<svg width="59" height="40" viewBox="0 0 59 40" fill="none" xmlns="http://www.w3.org/2000/svg">
<path fill-rule="evenodd" clip-rule="evenodd" d="M21.519 24.4557C20.986 23.9288 20.128 23.9288 19.595 24.4557L16.0084 28.0449C15.4831 28.5766 15.4831 29.4316 16.0084 29.9633L16.0149 29.9711C16.5462 30.4981 17.4028 30.4981 17.9342 29.9711L21.5221 26.382C22.0486 25.8476 22.0486 24.99 21.5221 24.4558L21.519 24.4557ZM16.8272 24.941L14.8671 26.9007L14.8667 26.9002C14.3371 27.4315 13.4774 27.4324 12.9465 26.9028C12.4152 26.3728 12.4143 25.5131 12.9439 24.9822L14.9049 23.0234C15.4375 22.4965 16.295 22.4965 16.8276 23.0234C17.3546 23.5538 17.3546 24.4106 16.8276 24.9409L16.8272 24.941ZM21.5472 28.6379V28.6375C21.8004 28.3794 22.1467 28.2339 22.5086 28.2339C22.87 28.2339 23.2167 28.3794 23.4699 28.6375C23.9969 29.1683 23.9969 30.0251 23.4699 30.5559L22.1511 31.87L20.9955 33.0311H20.995C20.4568 33.5155 19.6331 33.4938 19.1213 32.9808C18.6096 32.4681 18.5891 31.6444 19.0748 31.107L21.5484 28.6374L21.5472 28.6379ZM23.2936 33.0169L22.1372 34.1694C21.8839 34.4257 21.7423 34.7724 21.7436 35.1329C21.7418 35.4909 21.8839 35.8345 22.1372 36.0874L22.1437 36.0961C22.6754 36.623 23.5325 36.623 24.0643 36.0961L25.2199 34.9436H25.2204C25.4723 34.686 25.6135 34.3402 25.6135 33.98C25.6166 33.619 25.4749 33.2723 25.2204 33.0169C24.6878 32.4908 23.8311 32.4908 23.2981 33.0169L23.2936 33.0169ZM45.1234 6.54169L49.5815 20.4633L42.9921 25.526L29.3186 12.0904C29.1618 11.9358 28.9485 11.8528 28.7282 11.8606C28.0709 11.8823 27.4376 12.1104 26.9167 12.5122C26.3958 12.9136 26.0148 13.4688 25.8267 14.0992C25.8089 14.1609 25.798 14.2244 25.7946 14.2886C25.7624 15.1992 25.6112 16.1015 25.3458 16.9725C25.1846 17.5347 24.8883 18.049 24.483 18.4704C24.4617 18.4874 24.4431 18.5069 24.4266 18.5282C24.0542 19.0165 23.5408 19.3784 22.956 19.5656C22.5007 19.6734 22.0224 19.6212 21.601 19.4179L21.5723 12.3129L28.998 5.72702C29.1009 5.63622 29.2221 5.56932 29.3537 5.53023C29.4884 5.49591 29.6287 5.49026 29.7656 5.51415L41.0837 7.3982C41.1901 7.42036 41.3 7.41775 41.4051 7.38995L45.1194 6.54152L45.1234 6.54169ZM46.4188 5.31535C46.4262 5.34011 46.434 5.35662 46.4397 5.38095L51.512 21.2365L57.3254 19.3759L51.8169 2.17247L46.0038 4.03306L46.4148 5.31723L46.4188 5.31535ZM9.13711 19.8619L16.5997 7.08474L19.2718 8.4918C19.383 8.56087 19.5116 8.59823 19.6428 8.5991L23.1286 8.77982L20.2341 11.3498C20.0573 11.5058 19.9578 11.7317 19.9626 11.9676L19.993 19.5644C19.9921 19.8203 20.0634 20.0709 20.198 20.2886C20.3358 20.5066 20.5308 20.6835 20.761 20.7994C21.5565 21.2252 22.4823 21.3394 23.3572 21.1205C24.2447 20.8598 25.031 20.3338 25.6106 19.6126C26.2005 19.0131 26.6349 18.2785 26.8756 17.4722C27.1749 16.5021 27.3491 15.4977 27.3934 14.4833C27.4903 14.2057 27.6658 13.9629 27.8991 13.7839C28.0681 13.6536 28.2614 13.5584 28.4682 13.5041L43.6153 28.3855L43.6653 28.4354C44.2022 28.9424 44.2392 29.7848 43.7483 30.3365C43.2417 30.8878 42.3885 30.9351 41.8237 30.4442L40.7412 29.4763C40.7351 29.4676 40.7272 29.4598 40.722 29.4598V29.4603C40.6955 29.4299 40.666 29.402 40.6338 29.3777L33.9128 23.3597V23.3593C33.5809 23.0639 33.0718 23.093 32.7759 23.4249C32.4801 23.7572 32.5096 24.2659 32.8415 24.5618L39.5625 30.5798C39.569 30.5876 39.5751 30.5876 39.5821 30.5954C39.6051 30.6202 39.6303 30.6424 39.6581 30.661C39.9022 30.9013 40.0469 31.2245 40.0638 31.5664C40.0847 31.9104 39.973 32.2493 39.7519 32.513C39.7276 32.5378 39.7054 32.5629 39.6863 32.5873C39.4496 32.8349 39.1272 32.9822 38.7849 32.9991C38.4248 33.0165 38.072 32.8922 37.8018 32.6533L36.7223 31.6902L36.7218 31.6906C36.6953 31.6598 36.6654 31.632 36.6328 31.6076L30.4162 26.0518C30.0865 25.756 29.5795 25.7833 29.2836 26.1131C28.9878 26.4428 29.0152 26.9498 29.3449 27.2456L35.5563 32.8102C35.5615 32.8188 35.5681 32.8188 35.5741 32.8271L35.6011 32.8514H35.6058V32.8601H35.6054C36.145 33.348 36.2075 34.173 35.7479 34.7368L35.7401 34.7446L35.7105 34.7781C35.4694 35.0479 35.1315 35.2103 34.7705 35.2303C34.4094 35.2507 34.0554 35.1261 33.7865 34.885L33.1878 34.3502C33.1818 34.3415 33.1748 34.3415 33.1683 34.3332L33.1361 34.3007L27.8253 29.542C27.4921 29.2557 26.9908 29.2887 26.6988 29.6167C26.4065 29.9451 26.4317 30.4469 26.7549 30.7445L32.0366 35.4697C32.0609 35.494 32.0857 35.5188 32.1126 35.544C32.3559 35.7812 32.5005 36.1014 32.5183 36.4406C32.5379 36.7869 32.4263 37.1279 32.2064 37.3959V37.3881C32.183 37.4124 32.16 37.445 32.1408 37.4702V37.4698C31.6395 37.9737 30.8371 38.0128 30.2889 37.5606C30.262 37.5328 30.2325 37.5076 30.2003 37.4863L27.1303 34.7368C27.1946 34.4892 27.2267 34.2346 27.2267 33.9792C27.2293 33.1972 26.9231 32.4456 26.3744 31.8883L26.3496 31.8635C25.9917 31.5103 25.5503 31.2527 25.0668 31.115C25.4039 30.5463 25.5425 29.8821 25.4608 29.2261C25.3791 28.5706 25.082 27.9607 24.6159 27.4923C24.2349 27.1131 23.7596 26.8429 23.2392 26.7099C23.6332 25.8954 23.6345 24.9453 23.2426 24.1295C22.8504 23.3136 22.1079 22.7211 21.2251 22.5199C20.3423 22.3187 19.4166 22.5312 18.7098 23.0964C18.3979 22.1037 17.5904 21.3452 16.5799 21.0963C15.5694 20.8474 14.502 21.1437 13.7649 21.8779L12.3969 23.2446L11.2027 21.2436L11.2022 21.2441C11.131 21.1237 11.0298 21.0247 10.9077 20.956L9.13443 19.8613L9.13711 19.8619ZM14.004 28.9088H13.9101L13.9106 28.9084C13.1225 28.9123 12.3657 28.6017 11.808 28.0456C11.2502 27.4891 10.9374 26.7332 10.9396 25.9452C10.9396 25.4517 11.0608 24.9655 11.2923 24.5294L9.92566 22.2348L8.32398 21.2526L8.23883 21.392L8.2384 21.3924C8.05768 21.707 7.75749 21.9355 7.40604 22.0263H7.40256C7.05329 22.1201 6.68055 22.0697 6.3682 21.8868L0.677241 18.5618C0.364456 18.3798 0.136815 18.0805 0.0460214 17.7303C-0.0473792 17.3802 0.00257961 17.0065 0.185037 16.6933L9.54033 0.672081C9.71497 0.378413 9.99343 0.16076 10.3206 0.0630152C10.3375 0.053458 10.3562 0.0478107 10.3757 0.0460736C10.7259 -0.0477618 11.0995 0.00306508 11.4123 0.18639L17.1032 3.50408C17.4156 3.69045 17.6423 3.99193 17.7344 4.34382C17.8265 4.69483 17.7761 5.06757 17.5937 5.38122L17.4069 5.70226L19.8978 7.00288L24.8433 7.25789L27.9317 4.52496C28.5008 4.01104 29.2749 3.78905 30.0295 3.92372L41.2019 5.79265L44.6278 5.002L44.3962 4.28607L44.3967 4.2865C44.1686 3.56927 44.5643 2.80293 45.2811 2.57405L51.5569 0.565336C51.9014 0.452388 52.2767 0.481927 52.5995 0.647442C52.9222 0.812959 53.1655 1.10011 53.275 1.44591L58.9338 19.1131C59.0455 19.4593 59.015 19.8356 58.8487 20.1588C58.6814 20.4794 58.3951 20.7213 58.0515 20.8334L51.7758 22.8421C51.4304 22.9542 51.0542 22.9216 50.7336 22.7518C50.4534 22.6088 50.2318 22.373 50.1063 22.0849L44.1551 26.662L44.7537 27.2519H44.7533C45.3267 27.7832 45.6678 28.5192 45.7021 29.3002C45.7364 30.0813 45.4618 30.8442 44.9375 31.4242C44.4132 32.0041 43.6811 32.3538 42.901 32.3977C42.4661 32.4177 42.0321 32.3456 41.6268 32.1857C41.5291 32.7222 41.2854 33.2214 40.9222 33.628L40.8913 33.6606L40.8627 33.6854V33.6858C40.3405 34.2341 39.6293 34.5634 38.8734 34.6064C38.449 34.6311 38.0241 34.5642 37.6279 34.4096C37.535 34.9196 37.3099 35.3961 36.9759 35.7924C36.9498 35.8267 36.9216 35.8597 36.892 35.891C36.3672 36.4562 35.6434 36.7955 34.8733 36.838C34.6226 36.8541 34.3711 36.8376 34.1248 36.7885C34.0674 37.4249 33.8064 38.0253 33.3802 38.501L33.3502 38.5335L33.3207 38.5583L33.3202 38.5587C32.8002 39.1109 32.0864 39.4411 31.3289 39.4806C30.5426 39.524 29.771 39.2547 29.1833 38.7312L29.1507 38.6986V38.7073L29.1316 38.6825L26.297 36.1468L25.2053 37.2416V37.2411C24.6462 37.795 23.8912 38.1056 23.1039 38.1056C22.3172 38.1056 21.5617 37.795 21.003 37.2411C20.4417 36.6829 20.1255 35.9248 20.1246 35.1333V35.0421H20.0286C19.241 35.0416 18.4855 34.7284 17.9286 34.1711C17.3721 33.6141 17.0593 32.8582 17.0597 32.0706V31.9724V31.972C17.0289 31.9785 16.9972 31.9811 16.9659 31.9798C16.177 31.9828 15.4198 31.6683 14.8645 31.1075C14.308 30.5514 13.9961 29.7964 13.9974 29.0097V28.9106L14.004 28.9088ZM16.0814 4.7802L10.8145 1.69884L1.70245 17.293L6.97069 20.3744L16.0814 4.7802Z" fill="#1DACB0"/>
</svg>
