<svg width="13" height="9" viewBox="0 0 13 9" fill="none" xmlns="http://www.w3.org/2000/svg">
<path d="M12.5 4.18784L12.5 4.81284C12.5 4.98543 12.3601 5.12534 12.1875 5.12534L2.08125 5.12534L4.8625 7.90034C4.92166 7.95901 4.95494 8.03889 4.95494 8.12221C4.95494 8.20554 4.92166 8.28541 4.8625 8.34409L4.41875 8.78159C4.36007 8.84075 4.2802 8.87402 4.19687 8.87402C4.11355 8.87402 4.03368 8.84075 3.975 8.78159L0.137499 4.95034C0.0495657 4.86251 0.00010908 4.74336 -5.81696e-07 4.61909L-5.60933e-07 4.38159C0.0014395 4.25758 0.0506958 4.13891 0.137499 4.05034L3.975 0.219086C4.03368 0.159927 4.11355 0.126649 4.19688 0.126649C4.2802 0.126649 4.36007 0.159927 4.41875 0.219086L4.8625 0.662837C4.92129 0.720439 4.95442 0.79928 4.95442 0.881586C4.95442 0.963892 4.92129 1.04273 4.8625 1.10034L2.08125 3.87534L12.1875 3.87534C12.3601 3.87534 12.5 4.01525 12.5 4.18784Z" fill="#1DACB0"/>
</svg>
