<svg width="86" height="86" viewBox="0 0 86 86" fill="none" xmlns="http://www.w3.org/2000/svg">
<path d="M14.1932 40.1054L12.8051 38.3634C11.4942 36.7173 0 22.0693 0 14.5876C0 6.54412 6.36702 0 14.193 0C22.019 0 28.386 6.54412 28.386 14.5876C28.386 22.0686 16.8919 36.716 15.5805 38.3634L14.1932 40.1054ZM14.1932 3.54875C8.32283 3.54875 3.54789 8.50079 3.54789 14.5879C3.54789 19.2548 10.3017 29.1903 14.1932 34.3555C18.0846 29.19 24.8384 19.2544 24.8384 14.5879C24.8384 8.50013 20.0635 3.54875 14.1932 3.54875Z" fill="white"/>
<path d="M14.1938 20.2099C11.2587 20.2099 8.87109 17.8224 8.87109 14.8872C8.87109 11.9519 11.2586 9.56445 14.1938 9.56445C17.129 9.56445 19.5165 11.9519 19.5165 14.8872C19.5165 17.8224 17.129 20.2099 14.1938 20.2099ZM14.1938 13.1137C13.215 13.1137 12.4195 13.9097 12.4195 14.888C12.4195 15.8662 13.2149 16.6623 14.1938 16.6623C15.1727 16.6623 15.9681 15.8662 15.9681 14.888C15.9681 13.9097 15.1727 13.1137 14.1938 13.1137Z" fill="white"/>
<path d="M67.2405 85.1601C66.6999 85.1601 66.1889 84.9142 65.8524 84.4914C65.1767 83.6439 49.3203 63.6233 49.3203 53.9149C49.321 43.7517 57.36 35.4834 67.2412 35.4834C77.1225 35.4834 85.1604 43.7516 85.1604 53.9149C85.1604 63.6233 69.3057 83.6446 68.63 84.4914C68.294 84.9142 67.7824 85.1601 67.2419 85.1601H67.2405ZM67.2405 39.0318C59.3155 39.0318 52.8685 45.7083 52.8685 53.9147C52.8685 60.2992 62.2299 73.913 67.2405 80.4945C72.251 73.9105 81.6106 60.2953 81.6106 53.9147C81.6106 45.7085 75.1637 39.0318 67.2405 39.0318Z" fill="white"/>
<path d="M67.2439 64.9507C61.3736 64.9507 56.5986 60.1757 56.5986 54.3054C56.5986 48.4351 61.3736 43.6602 67.2439 43.6602C73.1142 43.6602 77.8892 48.4351 77.8892 54.3054C77.8892 60.1757 73.1142 64.9507 67.2439 64.9507ZM67.2439 47.2094C63.3299 47.2094 60.1471 50.3929 60.1471 54.3062C60.1471 58.2196 63.3299 61.4031 67.2439 61.4031C71.1579 61.4031 74.3407 58.2196 74.3407 54.3062C74.3407 50.3929 71.1579 47.2094 67.2439 47.2094Z" fill="white"/>
<path d="M67.2413 85.1603H54.112C45.7976 85.1603 39.0315 78.3955 39.0315 70.0798C39.0315 63.721 33.8582 58.5477 27.4994 58.5477C19.185 58.5477 12.4189 51.783 12.4189 43.4672V37.2578H15.9674V43.4672C15.9674 49.826 21.1407 54.9993 27.4994 54.9993C35.8139 54.9993 42.5799 61.764 42.5799 70.0798C42.5799 76.4385 47.7532 81.6118 54.112 81.6118H67.2413V85.1603Z" fill="white"/>
</svg>
