<svg width="46" height="46" viewBox="0 0 46 46" fill="none" xmlns="http://www.w3.org/2000/svg">
<path d="M7.54126 21.3093L6.80372 20.3837C6.10722 19.509 0 11.7261 0 7.75084C0 3.4771 3.383 0 7.54119 0C11.6994 0 15.0824 3.4771 15.0824 7.75084C15.0824 11.7257 8.97517 19.5083 8.2784 20.3837L7.54126 21.3093ZM7.54126 1.88556C4.42218 1.88556 1.88511 4.51673 1.88511 7.75101C1.88511 10.2307 5.47363 15.5097 7.54126 18.2542C9.6089 15.5096 13.1974 10.2305 13.1974 7.75101C13.1974 4.51638 10.6603 1.88556 7.54126 1.88556Z" fill="#1DACB0"/>
<path d="M7.5415 10.7383C5.982 10.7383 4.71338 9.46974 4.71338 7.91015C4.71338 6.35057 5.98192 5.08203 7.5415 5.08203C9.10109 5.08203 10.3696 6.35057 10.3696 7.91015C10.3696 9.46974 9.10109 10.7383 7.5415 10.7383ZM7.5415 6.96785C7.02143 6.96785 6.59877 7.39082 6.59877 7.91059C6.59877 8.43037 7.02139 8.85333 7.5415 8.85333C8.06162 8.85333 8.48424 8.43037 8.48424 7.91059C8.48424 7.39082 8.06162 6.96785 7.5415 6.96785Z" fill="#1DACB0"/>
<path d="M35.7276 45.2483C35.4404 45.2483 35.1689 45.1177 34.9901 44.893C34.631 44.4427 26.2061 33.8051 26.2061 28.6468C26.2064 23.2467 30.4778 18.8535 35.728 18.8535C40.9782 18.8535 45.249 23.2467 45.249 28.6468C45.249 33.8051 36.8249 44.4431 36.4659 44.893C36.2874 45.1177 36.0156 45.2483 35.7283 45.2483H35.7276ZM35.7276 20.7389C31.5168 20.7389 28.0913 24.2863 28.0913 28.6466C28.0913 32.0389 33.0653 39.2724 35.7276 42.7693C38.3898 39.271 43.3629 32.0368 43.3629 28.6466C43.3629 24.2864 39.9374 20.7389 35.7276 20.7389Z" fill="#1DACB0"/>
<path d="M35.7279 34.5096C32.6089 34.5096 30.0718 31.9725 30.0718 28.8534C30.0718 25.7343 32.6089 23.1973 35.7279 23.1973C38.847 23.1973 41.3841 25.7343 41.3841 28.8534C41.3841 31.9725 38.847 34.5096 35.7279 34.5096ZM35.7279 25.0831C33.6483 25.0831 31.9572 26.7746 31.9572 28.8539C31.9572 30.9331 33.6483 32.6246 35.7279 32.6246C37.8076 32.6246 39.4987 30.9331 39.4987 28.8539C39.4987 26.7746 37.8076 25.0831 35.7279 25.0831Z" fill="#1DACB0"/>
<path d="M35.7279 45.248H28.7519C24.3342 45.248 20.7392 41.6536 20.7392 37.2352C20.7392 33.8566 17.9905 31.1079 14.6119 31.1079C10.1941 31.1079 6.59912 27.5136 6.59912 23.0951V19.7959H8.48451V23.0951C8.48451 26.4737 11.2332 29.2225 14.6119 29.2225C19.0296 29.2225 22.6246 32.8168 22.6246 37.2352C22.6246 40.6138 25.3733 43.3626 28.7519 43.3626H35.7279V45.248Z" fill="#1DACB0"/>
</svg>
