<svg width="51" height="75" viewBox="0 0 51 75" fill="none" xmlns="http://www.w3.org/2000/svg">
<mask id="path-1-outside-1_64_1311" maskUnits="userSpaceOnUse" x="0.396973" y="0.853516" width="51" height="74" fill="black">
<rect fill="white" x="0.396973" y="0.853516" width="51" height="74"/>
<path fill-rule="evenodd" clip-rule="evenodd" d="M4.39697 26.1525C4.39697 38.2928 16.8356 56.8655 25.6959 68.2391C34.7267 56.7803 46.9948 38.4206 46.9948 26.1525C46.9948 14.3954 37.4529 4.85352 25.6959 4.85352C13.9389 4.85352 4.39697 14.3954 4.39697 26.1525ZM25.6959 36.8021C19.8143 36.8021 15.0464 32.0342 15.0464 26.1526C15.0464 20.2711 19.8143 15.5032 25.6959 15.5032C31.5774 15.5032 36.3453 20.2711 36.3453 26.1526C36.3453 32.0342 31.5774 36.8021 25.6959 36.8021Z"/>
</mask>
<path fill-rule="evenodd" clip-rule="evenodd" d="M4.39697 26.1525C4.39697 38.2928 16.8356 56.8655 25.6959 68.2391C34.7267 56.7803 46.9948 38.4206 46.9948 26.1525C46.9948 14.3954 37.4529 4.85352 25.6959 4.85352C13.9389 4.85352 4.39697 14.3954 4.39697 26.1525ZM25.6959 36.8021C19.8143 36.8021 15.0464 32.0342 15.0464 26.1526C15.0464 20.2711 19.8143 15.5032 25.6959 15.5032C31.5774 15.5032 36.3453 20.2711 36.3453 26.1526C36.3453 32.0342 31.5774 36.8021 25.6959 36.8021Z" fill="#1DACB0"/>
<path d="M25.6959 68.2391L22.5404 70.6974L25.6777 74.7245L28.8375 70.7151L25.6959 68.2391ZM0.396973 26.1525C0.396973 33.3179 3.9683 41.7685 8.2281 49.4276C12.5799 57.252 18.0367 64.9162 22.5404 70.6974L28.8514 65.7809C24.4947 60.1885 19.3021 52.8795 15.2195 45.5391C11.0449 38.0333 8.39697 31.1274 8.39697 26.1525H0.396973ZM28.8375 70.7151C33.4329 64.8841 38.8946 57.2462 43.2289 49.4413C47.4772 41.7911 50.9948 33.3705 50.9948 26.1525H42.9948C42.9948 31.2026 40.3784 38.0959 36.2349 45.5574C32.1774 52.864 26.9897 60.1353 22.5543 65.7632L28.8375 70.7151ZM50.9948 26.1525C50.9948 12.1863 39.6621 0.853516 25.6959 0.853516V8.85352C35.2438 8.85352 42.9948 16.6046 42.9948 26.1525H50.9948ZM25.6959 0.853516C11.7298 0.853516 0.396973 12.1863 0.396973 26.1525H8.39697C8.39697 16.6046 16.148 8.85352 25.6959 8.85352V0.853516ZM25.6959 32.8021C22.0235 32.8021 19.0464 29.825 19.0464 26.1526H11.0464C11.0464 34.2433 17.6052 40.8021 25.6959 40.8021V32.8021ZM19.0464 26.1526C19.0464 22.4802 22.0235 19.5032 25.6959 19.5032V11.5032C17.6052 11.5032 11.0464 18.0619 11.0464 26.1526H19.0464ZM25.6959 19.5032C29.3683 19.5032 32.3453 22.4802 32.3453 26.1526H40.3453C40.3453 18.0619 33.7865 11.5032 25.6959 11.5032V19.5032ZM32.3453 26.1526C32.3453 29.825 29.3683 32.8021 25.6959 32.8021V40.8021C33.7865 40.8021 40.3453 34.2433 40.3453 26.1526H32.3453Z" fill="white" mask="url(#path-1-outside-1_64_1311)"/>
</svg>
