<svg width="58" height="57" viewBox="0 0 58 57" fill="none" xmlns="http://www.w3.org/2000/svg">
<path d="M55.4885 9.6502e-05H34.4809C33.0924 9.6502e-05 31.9692 1.12373 31.9692 2.51175V13.4725C31.9692 14.861 33.0929 15.9842 34.4809 15.9842H37.4492V19.8667C37.4492 20.1408 37.6136 20.3872 37.86 20.497C37.9513 20.5336 38.0425 20.5517 38.1342 20.5517C38.2986 20.5517 38.4723 20.4877 38.6001 20.3692L43.377 15.985L55.4886 15.9845C56.877 15.9845 58.0002 14.8609 58.0002 13.4729V2.51209C58.0002 1.12364 56.8766 0 55.4886 0L55.4885 9.6502e-05ZM56.6301 13.4723C56.6301 14.1027 56.1188 14.6139 55.4885 14.6139H43.1122C42.9385 14.6139 42.7741 14.6779 42.6462 14.7964L38.8192 18.3131V15.2989C38.8192 14.9243 38.5085 14.6139 38.1342 14.6139H34.4809C33.8505 14.6139 33.3392 14.1026 33.3392 13.4723V2.51154C33.3392 1.8812 33.8506 1.36993 34.4809 1.36993H55.4885C56.1188 1.36993 56.6301 1.88126 56.6301 2.51154L56.6301 13.4723Z" fill="#1DACB0"/>
<path d="M35.3936 41.6143C32.7814 41.6143 30.6533 43.7425 30.6533 46.3546C30.6533 48.9668 32.7815 51.0949 35.3936 51.0949C38.0057 51.0949 40.1339 48.9667 40.1339 46.3546C40.1339 43.7424 38.0057 41.6143 35.3936 41.6143ZM35.3936 49.7254C33.5303 49.7254 32.0233 48.209 32.0233 46.355C32.0233 44.501 33.5396 42.9846 35.3936 42.9846C37.2477 42.9846 38.764 44.501 38.764 46.355C38.764 48.209 37.2569 49.7254 35.3936 49.7254Z" fill="#1DACB0"/>
<path d="M44.6373 43.8514L42.6462 43.5226C42.6096 43.4314 42.5731 43.3309 42.5276 43.2396L43.7059 41.5955C43.8976 41.3213 43.8703 40.9471 43.6327 40.7095L41.0478 38.1246C40.8102 37.887 40.436 37.8597 40.1618 38.0515L38.5177 39.2297C38.4265 39.1838 38.326 39.1477 38.2347 39.1111L37.9059 37.1108C37.8512 36.7819 37.5678 36.5355 37.2301 36.5355H33.5768C33.2387 36.5355 32.9557 36.7819 32.901 37.1108L32.8098 37.6587C31.8691 36.3067 30.5264 35.2837 28.9369 34.7543L22.1963 32.5076L22.1954 30.096C22.3052 30.014 22.4237 29.9316 22.5335 29.8404C22.8623 29.5662 23.1638 29.2651 23.4468 28.9636H27.5207C27.8954 28.9636 28.2057 28.6529 28.2057 28.2786V24.8444C29.3566 24.1047 30.1235 22.826 30.1235 21.3551C30.1235 20.4964 29.8586 19.6929 29.4112 19.0259V16.5963C29.4112 9.77317 23.8669 4.22852 17.0435 4.22852C10.2204 4.22852 4.6671 9.78211 4.6671 16.5963V19.0625C4.6671 19.0898 4.67635 19.1172 4.67635 19.1357C4.26552 19.7748 4.01868 20.5329 4.01868 21.3462C4.01868 23.6296 5.88198 25.4929 8.16531 25.4929H8.78639C9.34356 27.3469 10.4398 28.9178 11.8738 30.0322V32.5531L5.32484 34.7359C2.1463 35.8044 0 38.7731 0 42.125V51.1948C0 51.5695 0.310749 51.8798 0.685 51.8798C1.05967 51.8798 1.37 51.5691 1.37 51.1948V42.125C1.37 39.3573 3.13275 36.9095 5.75421 36.0327L9.21576 34.8819L12.5407 40.9834C12.6412 41.1659 12.8237 41.2941 13.0339 41.3303C13.0705 41.3396 13.1071 41.3396 13.1437 41.3396C13.3174 41.3396 13.4818 41.2756 13.6096 41.1571L13.9204 40.8648L14.9708 43.2033L13.5369 51.0675C13.5003 51.2685 13.555 51.4695 13.6832 51.6247C13.8111 51.7799 14.0028 51.8711 14.2131 51.8711H20.1501C20.3511 51.8711 20.5428 51.7799 20.6799 51.6247C20.817 51.4695 20.8624 51.2593 20.8263 51.0675L19.3924 43.2033L20.4062 40.938L20.6438 41.1483C20.7716 41.2669 20.9361 41.3308 21.1097 41.3308C21.1463 41.3308 21.1829 41.3308 21.2195 41.3215C21.4297 41.2849 21.603 41.1571 21.7127 40.9746L25.0377 34.8731L28.4992 36.0239C30.061 36.5445 31.3309 37.6316 32.1072 39.0747L31.7052 38.7917L30.6274 38.0243C30.3532 37.8325 29.979 37.8599 29.7414 38.0975L27.1565 40.6823C26.9189 40.9199 26.8916 41.2941 27.0834 41.5683L28.2616 43.2124C28.2157 43.3037 28.1796 43.4042 28.143 43.4954L26.1519 43.8243C25.8231 43.8789 25.5767 44.1623 25.5767 44.5V48.1534C25.5767 48.4915 25.8142 48.7745 26.1519 48.8291L28.143 49.158C28.1796 49.2492 28.2161 49.3497 28.2616 49.441L27.0834 51.0851C26.8916 51.3593 26.9189 51.7335 27.1565 51.9711L29.7414 54.5559C29.979 54.7935 30.3532 54.8209 30.6274 54.6291L32.2715 53.4509C32.3628 53.4967 32.4632 53.5329 32.5545 53.5695L32.8833 55.5698C32.938 55.8986 33.2214 56.1451 33.5591 56.1451H37.2125C37.5505 56.1451 37.8335 55.8986 37.8882 55.5698L38.217 53.5695C38.3083 53.5329 38.4088 53.4963 38.5 53.4509L40.1441 54.6291C40.4183 54.8209 40.7926 54.7935 41.0301 54.5559L43.615 51.9711C43.8526 51.7335 43.8799 51.3593 43.6882 51.0851L42.51 49.441C42.5558 49.3497 42.592 49.2492 42.6285 49.158L44.6196 48.8291C44.9485 48.7745 45.1949 48.4911 45.1949 48.1534V44.5C45.2121 44.1893 44.9745 43.9063 44.6369 43.8516L44.6373 43.8514ZM26.8258 27.5933H24.46C24.8527 26.9356 25.1635 26.2413 25.3733 25.5017H25.967C26.2593 25.5017 26.5423 25.4651 26.8257 25.4104L26.8258 27.5933ZM25.9675 24.1317H25.785V18.5786H25.9675C27.5019 18.5786 28.7441 19.8207 28.7441 21.3551C28.7441 22.8896 27.5019 24.1317 25.9675 24.1317ZM17.0344 5.59892C23.0993 5.59892 28.0318 10.531 28.0318 16.5963V17.7745C27.4199 17.4184 26.7257 17.2081 25.9675 17.2081H25.7026L25.7118 16.8519C25.7118 16.7607 25.7026 16.6602 25.6753 16.4865C25.7026 15.8928 25.9036 10.7139 23.2549 8.84132C22.0401 7.98265 20.4598 7.94607 18.5873 8.75007C14.879 10.3304 13.1255 10.0562 11.9652 9.87371C10.385 9.62729 9.6087 9.74588 8.27536 12.0111C7.06981 14.048 7.57186 16.1304 8.00119 17.2173C7.27961 17.2446 6.61274 17.4549 6.02821 17.811V16.587C6.03788 10.5317 10.9699 5.59926 17.0353 5.59926L17.0344 5.59892ZM8.34811 24.1317H8.16561C6.63119 24.1317 5.38903 22.8896 5.38903 21.3551C5.38903 19.8207 6.63119 18.5786 8.16561 18.5786H8.34811V24.1317ZM9.06086 16.0572C8.83253 15.1712 8.74128 13.929 9.45361 12.7142C10.4401 11.0335 10.6684 11.0608 11.7555 11.2344C12.9884 11.4262 15.0526 11.7458 19.1265 10.0196C20.533 9.41662 21.6655 9.39854 22.4695 9.97379C23.9219 10.9969 24.2874 13.7827 24.3235 15.5181C24.2504 15.4908 24.1772 15.4635 24.1045 15.4361C23.2092 15.1346 22.4788 15.2351 18.9713 15.701L17.3545 15.9113C13.3445 16.4411 12.6781 14.7512 12.6781 14.7512C12.5776 14.4131 12.2395 14.2121 11.8926 14.276C10.4949 14.5409 9.60883 15.3357 9.06089 16.0572L9.06086 16.0572ZM9.81861 23.8209C9.81861 23.8029 9.80936 23.7843 9.80936 23.7663C9.76353 23.191 9.69961 18.5508 9.71811 18.0395V17.9663V17.5916C9.94645 17.0803 10.5129 16.1392 11.6726 15.7376C12.2478 16.5231 13.7642 17.7472 17.5184 17.2628L19.1353 17.0525C22.3139 16.6324 23.0628 16.5319 23.6566 16.7329C23.8941 16.8149 24.1225 16.8973 24.3323 16.9793V18.0113C24.3323 18.0844 24.3416 18.1576 24.3689 18.2303C24.4421 18.9246 24.4147 22.9526 24.3323 23.6375C24.3142 23.6922 24.2957 23.7561 24.2957 23.8112C24.1679 25.1997 23.6473 26.4965 22.7979 27.5835H17.1715C16.7969 27.5835 16.4865 27.8943 16.4865 28.2685C16.4865 28.6432 16.7973 28.9535 17.1715 28.9535H21.4098C21.3551 28.9901 21.3093 29.0267 21.2546 29.0633C21.1449 29.0999 21.0536 29.173 20.9804 29.255C19.592 30.1591 17.9389 30.5704 16.2675 30.3966C15.0893 30.2781 14.0022 29.8576 13.0523 29.2092C12.9792 29.1272 12.8879 29.0628 12.7874 29.0174C11.2257 27.84 10.1114 25.9949 9.81868 23.8209L9.81861 23.8209ZM16.1396 31.7764C16.4411 31.8037 16.7334 31.8222 17.0256 31.8222C18.3503 31.8222 19.6378 31.5115 20.816 30.9362V32.7541L17.1077 36.0971L13.2348 32.7448V30.9181C14.1393 31.3748 15.1073 31.6759 16.1396 31.7764H16.1396ZM10.5402 34.4528L12.4127 33.8318L16.1026 37.0284L13.3348 39.5674L10.5402 34.4528ZM18.0116 43.2578L19.3363 50.519H15.0433L16.368 43.2578C16.3953 43.1207 16.3772 42.9836 16.3221 42.8558L15.0253 39.9879L17.19 38.0056L19.3547 39.9879L18.0667 42.8558C18.0028 42.9836 17.9843 43.1207 18.0116 43.2578H18.0116ZM20.9253 39.5767L18.1487 37.0285L21.72 33.7952L23.7111 34.4621L20.9253 39.5767ZM43.8426 47.5965L42.0247 47.898C41.7691 47.9439 41.568 48.1171 41.4856 48.3547C41.3851 48.6469 41.2665 48.9392 41.1202 49.2314C41.0016 49.4598 41.029 49.734 41.1749 49.935L42.2434 51.4328L40.4806 53.1955L38.9736 52.127C38.7633 51.9807 38.4984 51.9534 38.2701 52.0724C37.9778 52.2187 37.6856 52.3373 37.3933 52.4378C37.1557 52.5198 36.9732 52.7208 36.9274 52.9769L36.6259 54.7947H34.1323L33.8308 52.9769C33.785 52.7304 33.6117 52.5202 33.3649 52.4378C33.0727 52.3465 32.7804 52.2187 32.4882 52.0724C32.2598 51.9538 31.9857 51.9811 31.7847 52.127L30.2776 53.1955L28.5148 51.4328L29.5833 49.935C29.7297 49.7247 29.7477 49.451 29.638 49.2314C29.4916 48.9485 29.3731 48.6469 29.2726 48.3547C29.1906 48.1171 28.9896 47.9346 28.7335 47.898L26.9156 47.5965V45.103L28.7335 44.8015C28.9892 44.7556 29.1902 44.5824 29.2726 44.3448C29.3731 44.0525 29.4917 43.7603 29.638 43.468C29.7566 43.2397 29.7292 42.9655 29.5833 42.7645L28.5148 41.2667L30.2776 39.504L31.7847 40.5725C31.9949 40.7188 32.2687 40.7461 32.4882 40.6271C32.7804 40.4808 33.0727 40.3622 33.3649 40.2617C33.6025 40.1797 33.785 39.9787 33.8308 39.7226L34.1323 37.9048H36.6259L36.9274 39.7226C36.9732 39.9691 37.1465 40.1793 37.3933 40.2617C37.6856 40.353 37.9778 40.4808 38.2701 40.6271C38.4984 40.7457 38.7726 40.7184 38.9736 40.5725L40.4806 39.504L42.2434 41.2667L41.1749 42.7645C41.0285 42.9748 41.0105 43.2485 41.1202 43.468C41.2666 43.751 41.3851 44.0525 41.4856 44.3448C41.5676 44.5824 41.7686 44.7649 42.0247 44.8015L43.8426 45.103V47.5965Z" fill="#1DACB0"/>
<path d="M15.2998 20.4417C15.2998 20.9463 14.8911 21.355 14.3865 21.355C13.8819 21.355 13.4731 20.9463 13.4731 20.4417C13.4731 19.9375 13.8819 19.5283 14.3865 19.5283C14.8911 19.5283 15.2998 19.9375 15.2998 20.4417Z" fill="#1DACB0"/>
<path d="M19.8662 20.4417C19.8662 20.9463 19.4571 21.355 18.9529 21.355C18.4483 21.355 18.0396 20.9463 18.0396 20.4417C18.0396 19.9375 18.4483 19.5283 18.9529 19.5283C19.4571 19.5283 19.8662 19.9375 19.8662 20.4417Z" fill="#1DACB0"/>
<path d="M14.6143 25.4291C14.6143 25.8038 14.925 26.1141 15.2993 26.1141H18.0392C18.4139 26.1141 18.7242 25.8034 18.7242 25.4291C18.7242 25.0545 18.4135 24.7441 18.0392 24.7441H15.2993C14.925 24.7441 14.6143 25.0456 14.6143 25.4291Z" fill="#1DACB0"/>
<path d="M52.7489 3.65332H37.2216C36.8469 3.65332 36.5366 3.96407 36.5366 4.33832C36.5366 4.71257 36.8474 5.02332 37.2216 5.02332H52.7489C53.1235 5.02332 53.4339 4.71257 53.4339 4.33832C53.4339 3.96365 53.1235 3.65332 52.7489 3.65332Z" fill="#1DACB0"/>
<path d="M52.7489 7.30762H37.2216C36.8469 7.30762 36.5366 7.61837 36.5366 7.99262C36.5366 8.36729 36.8474 8.67762 37.2216 8.67762H52.7489C53.1235 8.67762 53.4339 8.36687 53.4339 7.99262C53.4339 7.61837 53.1235 7.30762 52.7489 7.30762Z" fill="#1DACB0"/>
<path d="M43.6144 10.9609H37.2206C36.846 10.9609 36.5356 11.2717 36.5356 11.6459C36.5356 12.0206 36.8464 12.3309 37.2206 12.3309H43.6144C43.9891 12.3309 44.2994 12.0202 44.2994 11.6459C44.2994 11.2713 43.9891 10.9609 43.6144 10.9609Z" fill="#1DACB0"/>
</svg>
