<svg width="110" height="106" viewBox="0 0 110 106" fill="none" xmlns="http://www.w3.org/2000/svg">
<path d="M104.432 0.000181623H64.8941C62.2809 0.000181623 60.167 2.11494 60.167 4.72729V25.3562C60.167 27.9694 62.2817 30.0833 64.8941 30.0833H70.4806V37.3903C70.4806 37.9063 70.7901 38.3701 71.2539 38.5767C71.4256 38.6455 71.5973 38.6796 71.7699 38.6796C72.0793 38.6796 72.4061 38.5593 72.6467 38.3361L81.6372 30.0847L104.432 30.0839C107.045 30.0839 109.159 27.9692 109.159 25.3568V4.72792C109.159 2.11476 107.044 0 104.432 0L104.432 0.000181623ZM106.58 25.3558C106.58 26.5421 105.618 27.5044 104.432 27.5044H81.1387C80.8118 27.5044 80.5024 27.6247 80.2618 27.8479L73.0591 34.4665V28.7936C73.0591 28.0884 72.4743 27.5044 71.7699 27.5044H64.894C63.7077 27.5044 62.7454 26.542 62.7454 25.3558V4.72688C62.7454 3.54055 63.7078 2.57829 64.894 2.57829H104.432C105.618 2.57829 106.58 3.54065 106.58 4.72688L106.58 25.3558Z" fill="white"/>
<path d="M66.613 78.3203C61.6966 78.3203 57.6914 82.3258 57.6914 87.2419C57.6914 92.1582 61.6968 96.1635 66.613 96.1635C71.5291 96.1635 75.5345 92.158 75.5345 87.2419C75.5345 82.3255 71.5291 78.3203 66.613 78.3203ZM66.613 93.586C63.1061 93.586 60.2697 90.7321 60.2697 87.2427C60.2697 83.7533 63.1236 80.8994 66.613 80.8994C70.1024 80.8994 72.9562 83.7533 72.9562 87.2427C72.9562 90.7321 70.1198 93.586 66.613 93.586Z" fill="white"/>
<path d="M84.0103 82.5329L80.263 81.914C80.1941 81.7423 80.1253 81.5531 80.0398 81.3814L82.2573 78.2871C82.6182 77.771 82.5667 77.0667 82.1196 76.6195L77.2547 71.7547C76.8076 71.3075 76.1032 71.2561 75.5872 71.617L72.4929 73.8344C72.3211 73.7482 72.132 73.6801 71.9602 73.6113L71.3413 69.8465C71.2385 69.2276 70.7051 68.7638 70.0696 68.7638H63.1937C62.5574 68.7638 62.0248 69.2276 61.9219 69.8465L61.7501 70.8777C59.9797 68.3332 57.4527 66.4079 54.4611 65.4115L41.7748 61.183L41.7732 56.6443C41.9798 56.49 42.203 56.3349 42.4095 56.1631C43.0284 55.6471 43.5958 55.0805 44.1285 54.5131H51.7957C52.5009 54.5131 53.0849 53.9282 53.0849 53.2238V46.7604C55.251 45.3683 56.6945 42.9616 56.6945 40.1933C56.6945 38.5772 56.1959 37.0649 55.3538 35.8096V31.2369C55.3538 18.3954 44.919 7.95996 32.0769 7.95996C19.2354 7.95996 8.78379 18.4122 8.78379 31.2369V35.8785C8.78379 35.9299 8.8012 35.9814 8.8012 36.0162C8.02799 37.2191 7.56343 38.646 7.56343 40.1766C7.56343 44.474 11.0703 47.9808 15.3677 47.9808H16.5366C17.5852 51.4703 19.6483 54.4268 22.3472 56.5242V61.2687L10.0217 65.3768C4.03947 67.3878 0 72.9752 0 79.2836V96.3536C0 97.0588 0.58485 97.6429 1.28922 97.6429C1.99437 97.6429 2.57843 97.058 2.57843 96.3536V79.2836C2.57843 74.0745 5.89604 69.4678 10.8298 67.8176L17.3447 65.6516L23.6024 77.135C23.7916 77.4785 24.135 77.7199 24.5307 77.788C24.5996 77.8054 24.6684 77.8054 24.7373 77.8054C25.0642 77.8054 25.3736 77.6851 25.6142 77.4619L26.199 76.9119L28.176 81.313L25.4773 96.1141C25.4085 96.4924 25.5113 96.8707 25.7527 97.1627C25.9933 97.4547 26.3542 97.6265 26.7499 97.6265H37.9238C38.3021 97.6265 38.663 97.4547 38.921 97.1627C39.179 96.8707 39.2645 96.475 39.1964 96.1141L36.4978 81.313L38.4059 77.0496L38.853 77.4454C39.0936 77.6685 39.403 77.7888 39.7299 77.7888C39.7987 77.7888 39.8676 77.7888 39.9364 77.7714C40.3321 77.7026 40.6582 77.462 40.8648 77.1185L47.1225 65.635L53.6374 67.801C56.5767 68.7808 58.9668 70.8267 60.4278 73.5428L59.6712 73.0101L57.6427 71.5658C57.1267 71.2049 56.4224 71.2564 55.9752 71.7035L51.1104 76.5684C50.6632 77.0155 50.6118 77.7199 50.9727 78.2359L53.1901 81.3303C53.1039 81.502 53.0358 81.6911 52.9669 81.8629L49.2196 82.4818C48.6007 82.5846 48.137 83.118 48.137 83.7535V90.6295C48.137 91.2657 48.5841 91.7984 49.2196 91.9012L52.9669 92.5201C53.0358 92.6919 53.1046 92.881 53.1901 93.0527L50.9727 96.1471C50.6118 96.6631 50.6632 97.3674 51.1104 97.8146L55.9752 102.679C56.4224 103.127 57.1267 103.178 57.6427 102.817L60.7371 100.6C60.9088 100.686 61.0979 100.754 61.2697 100.823L61.8886 104.588C61.9915 105.207 62.5249 105.67 63.1604 105.67H70.0363C70.6726 105.67 71.2052 105.207 71.3081 104.588L71.927 100.823C72.0987 100.754 72.2878 100.685 72.4596 100.6L75.5539 102.817C76.0699 103.178 76.7743 103.127 77.2214 102.679L82.0863 97.8146C82.5335 97.3675 82.5849 96.6631 82.224 96.1471L80.0065 93.0527C80.0928 92.881 80.1609 92.6919 80.2297 92.5201L83.9771 91.9012C84.5959 91.7984 85.0597 91.265 85.0597 90.6295V83.7535C85.0922 83.1687 84.645 82.6361 84.0095 82.5332L84.0103 82.5329ZM50.4878 51.934H46.0352C46.7744 50.6962 47.3593 49.3895 47.7542 47.9974H48.8717C49.4217 47.9974 49.9543 47.9285 50.4877 47.8257L50.4878 51.934ZM48.8725 45.4191H48.5291V34.9677H48.8725C51.7604 34.9677 54.0983 37.3055 54.0983 40.1934C54.0983 43.0813 51.7604 45.4191 48.8725 45.4191ZM32.0598 10.5392C43.4744 10.5392 52.7576 19.8216 52.7576 31.237V33.4544C51.6061 32.7841 50.2995 32.3884 48.8725 32.3884H48.374L48.3914 31.7181C48.3914 31.5463 48.374 31.3572 48.3225 31.0303C48.374 29.9129 48.7523 20.1658 43.7672 16.6416C41.4809 15.0255 38.5067 14.9566 34.9826 16.4698C28.0032 19.444 24.703 18.928 22.5194 18.5846C19.5452 18.1208 18.0842 18.344 15.5748 22.6072C13.3058 26.4409 14.2507 30.36 15.0588 32.4057C13.7007 32.4571 12.4456 32.8528 11.3455 33.5231V31.2194C11.3637 19.823 20.6461 10.5398 32.0615 10.5398L32.0598 10.5392ZM15.7117 45.4191H15.3682C12.4803 45.4191 10.1425 43.0813 10.1425 40.1934C10.1425 37.3055 12.4803 34.9677 15.3682 34.9677H15.7117V45.4191ZM17.0531 30.2223C16.6234 28.5548 16.4517 26.2169 17.7923 23.9305C19.649 20.7673 20.0787 20.8188 22.1245 21.1456C24.4449 21.5064 28.33 22.1079 35.9973 18.8592C38.6445 17.7243 40.7759 17.6903 42.2891 18.7729C45.0226 20.6984 45.7104 25.9416 45.7785 29.2077C45.6408 29.1563 45.5031 29.1049 45.3662 29.0534C43.6813 28.486 42.3065 28.6751 35.7053 29.552L32.6622 29.9477C25.1153 30.9449 23.861 27.7643 23.861 27.7643C23.6719 27.128 23.0356 26.7497 22.3826 26.87C19.7521 27.3685 18.0844 28.8643 17.0532 30.2224L17.0531 30.2223ZM18.4793 44.8342C18.4793 44.8001 18.4619 44.7653 18.4619 44.7313C18.3756 43.6486 18.2553 34.9154 18.2901 33.9531V33.8154V33.1102C18.7199 32.1479 19.7859 30.3767 21.9686 29.6208C23.0512 31.0992 25.9051 33.403 32.9709 32.4913L36.0139 32.0956C41.9962 31.305 43.4057 31.1158 44.5232 31.4941C44.9704 31.6484 45.4001 31.8035 45.795 31.9579V33.9C45.795 34.0377 45.8124 34.1754 45.8639 34.3123C46.0016 35.6189 45.9501 43.1998 45.795 44.489C45.761 44.5919 45.7262 44.7122 45.7262 44.8159C45.4856 47.429 44.5058 49.8698 42.9072 51.9156H32.318C31.6128 51.9156 31.0287 52.5005 31.0287 53.2048C31.0287 53.91 31.6136 54.4941 32.318 54.4941H40.2946C40.1917 54.5629 40.1055 54.6318 40.0026 54.7006C39.796 54.7695 39.6243 54.9072 39.4866 55.0615C36.8734 56.763 33.7623 57.5371 30.6165 57.2101C28.399 56.9869 26.3531 56.1955 24.5653 54.9752C24.4276 54.8209 24.2559 54.6998 24.0668 54.6143C21.1274 52.3982 19.0303 48.9257 18.4794 44.8341L18.4793 44.8342ZM30.3758 59.8069C30.9433 59.8583 31.4933 59.8931 32.0434 59.8931C34.5364 59.8931 36.9597 59.3083 39.1772 58.2256V61.6469L32.1977 67.9387L24.9087 61.6295V58.1916C26.6111 59.051 28.433 59.6177 30.3757 59.8069H30.3758ZM19.8373 64.8441L23.3616 63.6752L30.3062 69.6915L25.0971 74.4701L19.8373 64.8441ZM33.8991 81.4156L36.3921 95.0816H28.3126L30.8056 81.4156C30.857 81.1576 30.823 80.8995 30.7193 80.6589L28.2786 75.2614L32.3527 71.5307L36.4268 75.2614L34.0027 80.6589C33.8824 80.8995 33.8476 81.1575 33.899 81.4156H33.8991ZM39.3827 74.4876L34.157 69.6916L40.8785 63.6064L44.6258 64.8616L39.3827 74.4876ZM82.5146 89.5814L79.0933 90.1489C78.6121 90.2351 78.2338 90.5612 78.0787 91.0083C77.8895 91.5584 77.6664 92.1084 77.391 92.6584C77.1678 93.0882 77.2192 93.6042 77.4938 93.9825L79.5048 96.8015L76.1872 100.119L73.3508 98.1081C72.9551 97.8327 72.4565 97.7812 72.0267 98.0052C71.4767 98.2806 70.9267 98.5038 70.3767 98.6929C69.9295 98.8473 69.586 99.2256 69.4998 99.7075L68.9323 103.129H64.2393L63.6718 99.7075C63.5856 99.2438 63.2595 98.8481 62.7949 98.6929C62.2449 98.5212 61.6949 98.2806 61.1449 98.0052C60.7151 97.782 60.1991 97.8335 59.8208 98.1081L56.9844 100.119L53.6668 96.8015L55.6778 93.9825C55.9532 93.5868 55.9872 93.0716 55.7806 92.6584C55.5052 92.1258 55.2821 91.5584 55.0929 91.0083C54.9386 90.5612 54.5603 90.2177 54.0783 90.1489L50.657 89.5814V84.8883L54.0783 84.3209C54.5595 84.2346 54.9378 83.9086 55.0929 83.4614C55.2821 82.9114 55.5052 82.3614 55.7806 81.8113C56.0038 81.3816 55.9524 80.8656 55.6778 80.4873L53.6668 77.6683L56.9844 74.3507L59.8208 76.3617C60.2165 76.6371 60.7317 76.6885 61.1449 76.4646C61.6949 76.1891 62.2449 75.966 62.7949 75.7768C63.2421 75.6225 63.5856 75.2442 63.6718 74.7622L64.2393 71.3409H68.9323L69.4998 74.7622C69.586 75.226 69.9121 75.6217 70.3767 75.7768C70.9267 75.9486 71.4767 76.1892 72.0267 76.4646C72.4565 76.6877 72.9725 76.6363 73.3508 76.3617L76.1872 74.3507L79.5048 77.6683L77.4938 80.4873C77.2184 80.883 77.1844 81.3982 77.391 81.8113C77.6664 82.3439 77.8895 82.9114 78.0787 83.4614C78.233 83.9086 78.6113 84.252 79.0933 84.3209L82.5146 84.8883V89.5814Z" fill="white"/>
<path d="M28.7953 38.4729C28.7953 39.4226 28.0261 40.1918 27.0764 40.1918C26.1267 40.1918 25.3574 39.4226 25.3574 38.4729C25.3574 37.524 26.1267 36.7539 27.0764 36.7539C28.0261 36.7539 28.7953 37.524 28.7953 38.4729Z" fill="white"/>
<path d="M37.391 38.4729C37.391 39.4226 36.621 40.1918 35.6721 40.1918C34.7224 40.1918 33.9531 39.4226 33.9531 38.4729C33.9531 37.524 34.7224 36.7539 35.6721 36.7539C36.621 36.7539 37.391 37.524 37.391 38.4729Z" fill="white"/>
<path d="M27.5059 47.8586C27.5059 48.5637 28.0907 49.1478 28.7951 49.1478H33.9519C34.6571 49.1478 35.2411 48.5629 35.2411 47.8586C35.2411 47.1534 34.6563 46.5693 33.9519 46.5693H28.7951C28.0907 46.5693 27.5059 47.1368 27.5059 47.8586Z" fill="white"/>
<path d="M99.2762 6.87598H70.0529C69.3477 6.87598 68.7637 7.46083 68.7637 8.16519C68.7637 8.86956 69.3485 9.45441 70.0529 9.45441H99.2762C99.9813 9.45441 100.565 8.86956 100.565 8.16519C100.565 7.46004 99.9813 6.87598 99.2762 6.87598Z" fill="white"/>
<path d="M99.2762 13.7529H70.0529C69.3477 13.7529 68.7637 14.3378 68.7637 15.0421C68.7637 15.7473 69.3485 16.3314 70.0529 16.3314H99.2762C99.9813 16.3314 100.565 15.7465 100.565 15.0421C100.565 14.3378 99.9813 13.7529 99.2762 13.7529Z" fill="white"/>
<path d="M82.0864 20.6309H70.0529C69.3477 20.6309 68.7637 21.2157 68.7637 21.9201C68.7637 22.6252 69.3485 23.2093 70.0529 23.2093H82.0864C82.7916 23.2093 83.3756 22.6244 83.3756 21.9201C83.3756 21.2149 82.7916 20.6309 82.0864 20.6309Z" fill="white"/>
</svg>
