<svg width="111" height="111" viewBox="0 0 111 111" fill="none" xmlns="http://www.w3.org/2000/svg">
<path d="M55.5788 34.5878C61.0745 34.5878 65.3754 28.1705 65.3754 19.9782C65.3754 17.38 64.3433 14.8882 62.5061 13.051C60.6689 11.2138 58.177 10.1816 55.5788 10.1816C52.9806 10.1816 50.4888 11.2138 48.6516 13.051C46.8144 14.8882 45.7822 17.38 45.7822 19.9782C45.7822 28.1705 50.0832 34.5878 55.5788 34.5878ZM55.5788 12.8953C57.4573 12.8953 59.2589 13.6416 60.5872 14.9699C61.9155 16.2982 62.6617 18.0997 62.6617 19.9782C62.6617 26.4297 59.419 31.9253 55.5788 31.9253C51.7387 31.9253 48.4959 26.4638 48.4959 19.9782C48.4959 18.0997 49.2422 16.2982 50.5705 14.9699C51.8988 13.6416 53.7003 12.8953 55.5788 12.8953Z" fill="white"/>
<path d="M25.198 70.96C22.5998 70.96 20.1079 71.9921 18.2707 73.8293C16.4335 75.6665 15.4014 78.1583 15.4014 80.7566C15.4014 88.9488 19.7023 95.3661 25.198 95.3661C30.6936 95.3661 34.9775 88.9488 34.9775 80.7566C34.9775 78.1613 33.9477 75.6721 32.1142 73.8353C30.2807 71.9986 27.7932 70.9645 25.198 70.96ZM25.198 92.6695C21.3578 92.6695 18.098 87.208 18.098 80.7224C18.0509 79.7619 18.1993 78.8018 18.5345 77.9004C18.8696 76.999 19.3843 76.175 20.0474 75.4786C20.7106 74.7821 21.5083 74.2276 22.3922 73.8487C23.2761 73.4698 24.2278 73.2744 25.1894 73.2744C26.1511 73.2744 27.1028 73.4698 27.9867 73.8487C28.8706 74.2276 29.6683 74.7821 30.3314 75.4786C30.9946 76.175 31.5093 76.999 31.8444 77.9004C32.1795 78.8018 32.328 79.7619 32.2809 80.7224C32.2809 87.208 29.0381 92.6695 25.198 92.6695Z" fill="white"/>
<path d="M85.959 95.3648C91.4546 95.3648 95.7556 88.9475 95.7556 80.7552C95.8107 79.4354 95.5984 78.1182 95.1313 76.8826C94.6643 75.647 93.9522 74.5186 93.0378 73.5652C92.1235 72.6119 91.0258 71.8533 89.8108 71.3351C88.5957 70.8169 87.2884 70.5498 85.9675 70.5498C84.6466 70.5498 83.3393 70.8169 82.1243 71.3351C80.9092 71.8533 79.8115 72.6119 78.8972 73.5652C77.9829 74.5186 77.2708 75.647 76.8037 76.8826C76.3367 78.1182 76.1243 79.4354 76.1794 80.7552C76.1794 88.9475 80.4292 95.3648 85.959 95.3648ZM85.959 73.6552C87.839 73.6598 89.6406 74.4098 90.9684 75.7408C92.2962 77.0718 93.0419 78.8751 93.0419 80.7552C93.0419 87.2066 89.7991 92.7023 85.959 92.7023C82.1188 92.7023 78.8761 87.2408 78.8761 80.7552C78.8761 78.8751 79.6217 77.0718 80.9496 75.7408C82.2774 74.4098 84.0789 73.6598 85.959 73.6552Z" fill="white"/>
<path d="M103.845 103.216C106.238 100.778 108.105 97.8731 109.329 94.6832C110.554 91.4933 111.11 88.0859 110.964 84.6722C110.818 81.2584 109.972 77.9111 108.479 74.8376C106.986 71.7642 104.878 69.0301 102.285 66.8049C99.6917 64.5797 96.6693 62.9107 93.4049 61.9015C90.1405 60.8922 86.7036 60.5642 83.3071 60.9377C79.9107 61.3112 76.6272 62.3782 73.6601 64.0728C70.693 65.7673 68.1056 68.0531 66.0581 70.7886L56.9271 61.6577V49.9666C62.2511 49.6992 67.3459 47.7176 71.4514 44.3173C71.861 43.976 72.2365 43.6176 72.629 43.2421L73.2946 42.6447L73.4141 42.5253C73.4141 42.5253 73.4141 42.5253 73.4141 42.4399C76.8424 38.9165 79.1559 34.4606 80.0654 29.6294C80.9749 24.7981 80.44 19.806 78.5277 15.2771C76.6153 10.7483 73.4103 6.88363 69.3134 4.16642C65.2166 1.4492 60.4096 0 55.4935 0C50.5774 0 45.7704 1.4492 41.6735 4.16642C37.5766 6.88363 34.3716 10.7483 32.4593 15.2771C30.5469 19.806 30.0121 24.7981 30.9216 29.6294C31.8311 34.4606 34.1446 38.9165 37.5729 42.4399L37.6923 42.5423C37.9654 42.8325 38.2726 43.0885 38.5628 43.3616C38.8529 43.6346 39.1943 43.9589 39.5185 44.232L39.8428 44.4709C43.9011 47.7276 48.8805 49.6263 54.0769 49.8983V61.5553L44.9288 70.6862C42.8814 67.9507 40.2939 65.6649 37.3268 63.9703C34.3597 62.2758 31.0762 61.2088 27.6798 60.8353C24.2834 60.4618 20.8465 60.7898 17.5821 61.7991C14.3176 62.8083 11.2953 64.4773 8.7023 66.7025C6.10934 68.9277 4.00102 71.6618 2.50802 74.7352C1.01503 77.8087 0.169173 81.156 0.0228813 84.5698C-0.12341 87.9835 0.432981 91.3909 1.65757 94.5808C2.88216 97.7707 4.74885 100.675 7.14194 103.114L7.26141 103.216C7.53449 103.489 7.82463 103.728 8.09771 103.984C8.37078 104.24 8.74626 104.616 9.08761 104.889L9.30948 105.06C13.989 108.865 19.8933 110.837 25.9203 110.607C31.9472 110.378 37.6847 107.963 42.0616 103.814L42.693 103.233L42.8296 103.114C46.69 99.2219 49.1561 94.1632 49.8444 88.7247C50.5327 83.2862 49.4046 77.7727 46.6356 73.0415L55.5788 64.0812L64.5221 73.0415C61.688 77.751 60.4988 83.2686 61.1414 88.7273C61.784 94.1861 64.2219 99.2767 68.0721 103.199L68.1915 103.302C68.4646 103.575 68.7547 103.831 69.0449 104.087C69.335 104.343 69.6934 104.701 70.0348 104.974L70.2737 105.162C74.7069 108.766 80.2456 110.733 85.9585 110.733C91.6715 110.733 97.2102 108.766 101.643 105.162L101.814 105.043C102.172 104.735 102.514 104.411 102.855 104.087C103.196 103.763 103.401 103.609 103.64 103.353L103.76 103.251L103.845 103.216ZM39.4673 102.875L39.0236 103.233C38.614 103.558 38.2043 103.882 37.7777 104.172L37.3681 104.428C36.9072 104.735 36.4294 105.026 35.9515 105.299L35.576 105.503C35.081 105.759 34.569 106.015 34.057 106.237L33.6474 106.408L32.0772 106.988L31.6164 107.125C31.0873 107.295 30.5582 107.415 30.0291 107.534L29.5 107.654C28.971 107.773 28.4077 107.842 27.7933 107.91H27.2984C26.5815 107.91 25.8477 108.012 25.1138 108.012C24.3799 108.012 23.646 108.012 22.9292 107.91H22.4342C21.871 107.91 21.3248 107.773 20.7275 107.654L20.352 107.586C19.8058 107.466 19.2768 107.347 18.7477 107.176L18.3039 107.039C17.7748 106.869 17.2458 106.664 16.7167 106.459L16.3241 106.289C15.8121 106.067 15.3001 105.811 14.8051 105.555L14.4126 105.35C13.9347 105.077 13.4739 104.787 13.0131 104.496L12.5864 104.172C12.1768 103.899 11.7842 103.592 11.3917 103.285L10.8797 102.875L10.6407 102.653L17.553 99.7859C19.8255 101.307 22.4986 102.119 25.2332 102.119C27.9679 102.119 30.6409 101.307 32.9135 99.7859L39.8428 102.653C39.7225 102.735 39.5971 102.809 39.4673 102.875ZM41.8226 100.571L33.1695 96.9869C32.9543 96.8998 32.7202 96.8697 32.49 96.8996C32.2598 96.9295 32.0412 97.0184 31.8553 97.1575C29.9362 98.6233 27.5883 99.4174 25.1735 99.4174C22.7586 99.4174 20.4108 98.6233 18.4917 97.1575C18.3029 97.0241 18.0837 96.9401 17.8541 96.9133C17.6246 96.8865 17.3919 96.9176 17.1775 97.0039L8.54146 100.588C6.19161 97.8918 4.52842 94.6674 3.69359 91.1896C2.85877 87.7118 2.87705 84.0837 3.7469 80.6146C4.61674 77.1454 6.31235 73.9379 8.68926 71.2654C11.0662 68.5929 14.0539 66.5347 17.3979 65.266C20.7419 63.9973 24.343 63.5559 27.8945 63.9792C31.4459 64.4026 34.8423 65.6782 37.7944 67.6974C40.7465 69.7166 43.1666 72.4196 44.8487 75.5759C46.5308 78.7323 47.4249 82.2484 47.4548 85.8249C47.4532 91.2622 45.455 96.5097 41.8397 100.571H41.8226ZM52.8822 47.1505C52.336 47.1505 51.7728 46.9969 51.1755 46.8945L50.6634 46.775C50.1173 46.6498 49.5882 46.5133 49.0762 46.3654L48.6836 46.1435C48.1546 45.9728 47.6255 45.7851 47.1135 45.5803L46.7038 45.3926C46.1918 45.1707 45.6798 44.9317 45.2019 44.6757L44.7923 44.4539C44.3144 44.1979 43.8707 43.9077 43.4099 43.6176L42.9661 43.3274C42.5565 43.0373 42.164 42.7471 41.7885 42.4399L41.2594 42.0303L41.0204 41.7914L48.001 39.0094C50.2784 40.5177 52.9496 41.322 55.6812 41.322C58.4128 41.322 61.084 40.5177 63.3615 39.0094L70.1884 41.8767L69.9324 42.1156L69.4545 42.4741C69.0676 42.7926 68.658 43.0999 68.2257 43.3957L67.799 43.6858C67.3552 43.976 66.8944 44.2661 66.4165 44.5221L66.0069 44.744C65.529 45 65.017 45.239 64.5221 45.4608L64.0783 45.6486C63.5777 45.8534 63.0657 46.0411 62.5423 46.2118L62.0473 46.3654C61.5353 46.519 61.0233 46.6555 60.4942 46.775L59.948 46.8945C59.419 46.9969 58.8728 47.0822 58.3266 47.1505H57.8146C57.0978 47.1505 56.3639 47.2529 55.63 47.2529C54.8961 47.2529 54.1622 47.2529 53.4454 47.1505H52.8822ZM55.5618 2.77562C59.8677 2.74262 64.0903 3.96334 67.7144 6.28892C71.3386 8.6145 74.2077 11.9444 75.9718 15.8726C77.736 19.8008 78.3189 24.1574 77.6496 28.4112C76.9803 32.665 75.0876 36.632 72.2023 39.8286L63.5492 36.2445C63.3354 36.155 63.1022 36.1221 62.872 36.149C62.6418 36.1759 62.4224 36.2617 62.2351 36.3981C60.3174 37.8598 57.9729 38.6514 55.5618 38.6514C53.1506 38.6514 50.8061 37.8598 48.8885 36.3981C48.7011 36.2617 48.4817 36.1759 48.2515 36.149C48.0213 36.1221 47.7881 36.155 47.5743 36.2445L38.9212 39.8286C36.0294 36.6315 34.1316 32.6613 33.4597 28.4031C32.7878 24.1448 33.371 19.7831 35.1379 15.851C36.9049 11.9188 39.779 8.58657 43.4091 6.26148C47.0393 3.93638 51.2681 2.71915 55.5788 2.75856L55.5618 2.77562ZM85.9415 63.5521C90.2438 63.5185 94.4632 64.7365 98.0858 67.0578C101.708 69.3791 104.578 72.7037 106.345 76.6266C108.112 80.5495 108.7 84.9015 108.038 89.1528C107.376 93.4041 105.492 97.3711 102.616 100.571L93.9631 96.9869C93.7479 96.8998 93.5138 96.8697 93.2836 96.8996C93.0533 96.9295 92.8347 97.0184 92.6489 97.1575C90.7313 98.6192 88.3868 99.4108 85.9756 99.4108C83.5644 99.4108 81.2199 98.6192 79.3023 97.1575C79.1165 97.0184 78.8979 96.9295 78.6676 96.8996C78.4374 96.8697 78.2033 96.8998 77.9881 96.9869L69.335 100.571C66.4553 97.3738 64.5674 93.4083 63.9012 89.1574C63.2349 84.9065 63.8191 80.5535 65.5826 76.6286C67.3461 72.7038 70.2127 69.3764 73.8335 67.0516C77.4543 64.7269 81.6729 63.5051 85.9756 63.5351L85.9415 63.5521ZM100.261 102.807L99.7318 103.216C99.3563 103.524 98.9638 103.831 98.5542 104.104L98.0934 104.411C97.6496 104.701 97.2059 104.974 96.745 105.23L96.3013 105.469L94.8335 106.169L94.3898 106.357C93.8891 106.562 93.3771 106.749 92.8537 106.92L92.3588 107.091C91.8467 107.244 91.3347 107.364 90.8056 107.483L90.2595 107.603C89.7304 107.722 89.1842 107.79 88.5528 107.859H88.0407C87.3239 107.859 86.59 107.961 85.8561 107.961C85.1222 107.961 84.3884 107.961 83.6715 107.859H83.1936C82.6304 107.859 82.0672 107.722 81.4869 107.603L81.1114 107.586C80.5824 107.466 80.0362 107.347 79.5242 107.176L79.0634 107.039C78.5343 106.869 78.0052 106.664 77.4932 106.459L77.0836 106.289C76.5715 106.067 76.0595 105.811 75.5646 105.555L75.172 105.35C74.6941 105.077 74.2504 104.804 73.7896 104.496L73.3458 104.172C72.9362 103.899 72.5437 103.592 72.1682 103.285L71.6391 102.875L71.4002 102.653L78.3295 99.7859C80.5905 101.287 83.2443 102.088 85.9585 102.088C88.6727 102.088 91.3266 101.287 93.5876 99.7859L100.517 102.653L100.261 102.807Z" fill="white"/>
</svg>
