<svg width="59" height="59" viewBox="0 0 59 59" fill="none" xmlns="http://www.w3.org/2000/svg">
<path d="M55.1761 54.8421C56.4476 53.5462 57.4394 52.003 58.0901 50.3081C58.7408 48.6133 59.0364 46.8028 58.9587 44.989C58.8809 43.1751 58.4315 41.3966 57.6382 39.7636C56.845 38.1306 55.7247 36.6779 54.347 35.4955C52.9693 34.3132 51.3634 33.4264 49.6289 32.8902C47.8944 32.3539 46.0683 32.1796 44.2637 32.3781C42.4591 32.5765 40.7144 33.1435 39.1379 34.0438C37.5614 34.9442 36.1866 36.1587 35.0987 37.6122L30.2472 32.7606V26.5488C33.076 26.4067 35.783 25.3538 37.9643 23.5472C38.182 23.3658 38.3815 23.1754 38.5901 22.9759L38.9437 22.6585L39.0072 22.595C39.0072 22.595 39.0072 22.595 39.0072 22.5497C40.8287 20.6775 42.058 18.31 42.5412 15.743C43.0245 13.176 42.7403 10.5236 41.7242 8.11722C40.7081 5.71089 39.0052 3.65749 36.8284 2.21375C34.6516 0.770008 32.0975 0 29.4854 0C26.8734 0 24.3192 0.770008 22.1424 2.21375C19.9656 3.65749 18.2627 5.71089 17.2466 8.11722C16.2305 10.5236 15.9463 13.176 16.4296 15.743C16.9128 18.31 18.1421 20.6775 19.9636 22.5497L20.0271 22.6041C20.1722 22.7582 20.3354 22.8943 20.4896 23.0393C20.6438 23.1844 20.8251 23.3567 20.9974 23.5018L21.1697 23.6288C23.326 25.3592 25.9717 26.368 28.7327 26.5125V32.7062L23.8721 37.5578C22.7842 36.1043 21.4094 34.8898 19.8329 33.9894C18.2564 33.0891 16.5118 32.5221 14.7071 32.3237C12.9025 32.1252 11.0764 32.2995 9.34189 32.8358C7.6074 33.372 6.00153 34.2588 4.6238 35.4411C3.24608 36.6235 2.12587 38.0761 1.33259 39.7092C0.539316 41.3422 0.0898866 43.1207 0.0121575 44.9345C-0.0655715 46.7484 0.230056 48.5588 0.880718 50.2537C1.53138 51.9486 2.52321 53.4918 3.79474 54.7877L3.85821 54.8421C4.00331 54.9872 4.15747 55.1142 4.30256 55.2502C4.44766 55.3862 4.64716 55.5857 4.82853 55.7308L4.94642 55.8215C7.43278 57.8432 10.57 58.891 13.7722 58.7692C16.9745 58.6474 20.023 57.3643 22.3486 55.1595L22.6841 54.8512L22.7567 54.7877C24.8078 52.7197 26.1182 50.0319 26.4839 47.1422C26.8496 44.2526 26.2502 41.323 24.7789 38.8092L29.5308 34.0483L34.2826 38.8092C32.7767 41.3115 32.1449 44.2432 32.4863 47.1436C32.8277 50.044 34.1231 52.7488 36.1688 54.833L36.2323 54.8874C36.3774 55.0325 36.5315 55.1686 36.6857 55.3046C36.8399 55.4406 37.0303 55.6311 37.2117 55.7761L37.3386 55.8759C39.6941 57.7905 42.637 58.8357 45.6724 58.8357C48.7079 58.8357 51.6508 57.7905 54.0063 55.8759L54.097 55.8124C54.2874 55.6492 54.4688 55.4769 54.6501 55.3046C54.8315 55.1323 54.9403 55.0507 55.0673 54.9146L55.1307 54.8602L55.1761 54.8421ZM20.9702 54.6607L20.7344 54.8512C20.5168 55.0235 20.2992 55.1958 20.0725 55.3499L19.8548 55.486C19.61 55.6492 19.356 55.8033 19.1021 55.9484L18.9026 56.0573C18.6396 56.1933 18.3676 56.3293 18.0955 56.4472L17.8779 56.5379L17.0436 56.8462L16.7988 56.9188C16.5177 57.0094 16.2365 57.0729 15.9554 57.1364L15.6743 57.1999C15.3932 57.2634 15.0939 57.2996 14.7675 57.3359H14.5045C14.1236 57.3359 13.7337 57.3903 13.3437 57.3903C12.9538 57.3903 12.5638 57.3903 12.183 57.3359H11.92C11.6207 57.3359 11.3305 57.2634 11.0132 57.1999L10.8137 57.1636C10.5235 57.1001 10.2423 57.0366 9.96122 56.946L9.72545 56.8734C9.44433 56.7827 9.16321 56.6739 8.88209 56.5651L8.67352 56.4744C8.40146 56.3565 8.12941 56.2205 7.86643 56.0845L7.65786 55.9756C7.40394 55.8306 7.1591 55.6764 6.91425 55.5222L6.68754 55.3499C6.4699 55.2048 6.26133 55.0416 6.05276 54.8784L5.78071 54.6607L5.65375 54.5428L9.32644 53.0194C10.5339 53.8276 11.9542 54.259 13.4072 54.259C14.8602 54.259 16.2805 53.8276 17.488 53.0194L21.1697 54.5428C21.1058 54.5864 21.0392 54.6257 20.9702 54.6607ZM22.2217 53.4365L17.624 51.5321C17.5096 51.4859 17.3853 51.4699 17.2629 51.4858C17.1406 51.5017 17.0245 51.5489 16.9257 51.6228C15.906 52.4016 14.6585 52.8235 13.3755 52.8235C12.0924 52.8235 10.8449 52.4016 9.8252 51.6228C9.72491 51.5519 9.60845 51.5073 9.48646 51.4931C9.36448 51.4788 9.24087 51.4954 9.12693 51.5412L4.53834 53.4456C3.2898 52.0129 2.40609 50.2997 1.96252 48.4519C1.51895 46.604 1.52867 44.6763 1.99084 42.833C2.45302 40.9897 3.35395 39.2855 4.61687 37.8655C5.8798 36.4456 7.46728 35.3519 9.24405 34.6779C11.0208 34.0038 12.9342 33.7692 14.8212 33.9942C16.7082 34.2191 18.5128 34.8969 20.0813 35.9698C21.6499 37.0426 22.9358 38.4788 23.8295 40.1558C24.7232 41.8329 25.1983 43.7012 25.2142 45.6014C25.2134 48.4905 24.1517 51.2786 22.2307 53.4365H22.2217ZM28.098 25.0525C27.8078 25.0525 27.5085 24.9709 27.1911 24.9165L26.9191 24.853C26.6289 24.7865 26.3478 24.714 26.0757 24.6354L25.8671 24.5175C25.586 24.4268 25.3049 24.3271 25.0328 24.2182L24.8152 24.1185C24.5432 24.0006 24.2711 23.8736 24.0172 23.7376L23.7995 23.6197C23.5456 23.4837 23.3099 23.3295 23.065 23.1754L22.8292 23.0212C22.6116 22.867 22.403 22.7129 22.2035 22.5497L21.9224 22.332L21.7954 22.2051L25.5044 20.7269C26.7145 21.5283 28.1338 21.9556 29.5852 21.9556C31.0366 21.9556 32.4558 21.5283 33.6659 20.7269L37.2933 22.2504L37.1572 22.3774L36.9033 22.5678C36.6978 22.7371 36.4801 22.9003 36.2504 23.0575L36.0237 23.2116C35.7879 23.3658 35.5431 23.52 35.2892 23.656L35.0715 23.7739C34.8176 23.9099 34.5456 24.0369 34.2826 24.1548L34.0468 24.2545C33.7808 24.3633 33.5087 24.4631 33.2306 24.5538L32.9677 24.6354C32.6956 24.717 32.4236 24.7895 32.1424 24.853L31.8523 24.9165C31.5711 24.9709 31.2809 25.0162 30.9908 25.0525H30.7187C30.3378 25.0525 29.9479 25.1069 29.558 25.1069C29.168 25.1069 28.7781 25.1069 28.3972 25.0525H28.098ZM29.5217 1.47478C31.8096 1.45724 34.0532 2.10585 35.9788 3.3415C37.9044 4.57715 39.4288 6.34644 40.3662 8.4336C41.3035 10.5208 41.6133 12.8356 41.2576 15.0957C40.902 17.3559 39.8964 19.4637 38.3633 21.1622L33.7657 19.2578C33.6521 19.2103 33.5282 19.1928 33.4058 19.2071C33.2835 19.2214 33.167 19.267 33.0674 19.3395C32.0485 20.1161 30.8028 20.5367 29.5217 20.5367C28.2406 20.5367 26.9949 20.1161 25.976 19.3395C25.8764 19.267 25.7598 19.2214 25.6375 19.2071C25.5152 19.1928 25.3913 19.2103 25.2777 19.2578L20.68 21.1622C19.1435 19.4635 18.1352 17.354 17.7782 15.0914C17.4212 12.8289 17.731 10.5114 18.6699 8.42212C19.6087 6.33284 21.1358 4.56231 23.0646 3.32692C24.9934 2.09152 27.2403 1.44477 29.5308 1.46571L29.5217 1.47478ZM45.6634 33.7672C47.9494 33.7493 50.1912 34.3965 52.116 35.6299C54.0408 36.8633 55.5654 38.6297 56.5043 40.7141C57.4432 42.7984 57.7558 45.1108 57.404 47.3697C57.0523 49.6285 56.0514 51.7363 54.5232 53.4365L49.9255 51.5321C49.8112 51.4859 49.6868 51.4699 49.5645 51.4858C49.4421 51.5017 49.326 51.5489 49.2272 51.6228C48.2083 52.3995 46.9626 52.8201 45.6815 52.8201C44.4004 52.8201 43.1547 52.3995 42.1358 51.6228C42.037 51.5489 41.9209 51.5017 41.7986 51.4858C41.6762 51.4699 41.5519 51.4859 41.4375 51.5321L36.8399 53.4365C35.3098 51.7378 34.3067 49.6308 33.9527 47.3721C33.5987 45.1134 33.9091 42.8006 34.8461 40.7152C35.7831 38.6298 37.3062 36.8618 39.23 35.6266C41.1539 34.3914 43.3953 33.7422 45.6815 33.7582L45.6634 33.7672ZM53.2717 54.6245L52.9906 54.8421C52.7911 55.0053 52.5825 55.1686 52.3649 55.3137L52.12 55.4769C51.8843 55.631 51.6485 55.7761 51.4037 55.9122L51.1679 56.0391L50.388 56.4109L50.1522 56.5107C49.8862 56.6195 49.6142 56.7193 49.3361 56.8099L49.0731 56.9006C48.801 56.9822 48.529 57.0457 48.2479 57.1092L47.9577 57.1727C47.6766 57.2361 47.3864 57.2724 47.0508 57.3087H46.7788C46.3979 57.3087 46.008 57.3631 45.618 57.3631C45.2281 57.3631 44.8382 57.3631 44.4573 57.3087H44.2034C43.9041 57.3087 43.6049 57.2361 43.2965 57.1727L43.097 57.1636C42.8159 57.1001 42.5257 57.0366 42.2537 56.946L42.0088 56.8734C41.7277 56.7827 41.4466 56.6739 41.1745 56.5651L40.9569 56.4744C40.6848 56.3565 40.4128 56.2205 40.1498 56.0845L39.9412 55.9756C39.6873 55.8306 39.4515 55.6855 39.2067 55.5222L38.9709 55.3499C38.7533 55.2048 38.5447 55.0416 38.3452 54.8784L38.0641 54.6607L37.9371 54.5428L41.6189 53.0194C42.8202 53.8172 44.2303 54.2427 45.6724 54.2427C47.1146 54.2427 48.5247 53.8172 49.726 53.0194L53.4078 54.5428L53.2717 54.6245Z" fill="#1DACB0"/>
</svg>
