<svg width="102" height="102" viewBox="0 0 102 102" fill="none" xmlns="http://www.w3.org/2000/svg">
<path d="M99.9378 54.2038H94.2089L86.5865 38.959H88.9277C91.6507 38.959 94.1673 37.5063 95.5293 35.1477C96.8905 32.789 96.8905 29.8839 95.5293 27.5253C94.1674 25.1666 91.6509 23.714 88.9277 23.714H77.0707L76.0544 22.3589C73.4886 18.9545 69.4764 16.9484 65.2137 16.9385H59.2852C59.2837 15.8882 58.9578 14.8635 58.3513 14.0061C57.7441 13.1486 56.8873 12.4998 55.8974 12.1481V5.08152C55.8974 3.26591 54.9287 1.58868 53.3566 0.680571C51.7845 -0.226857 49.8471 -0.226857 48.2751 0.680571C46.7029 1.58875 45.7343 3.26589 45.7343 5.08152V12.1481C44.7444 12.4998 43.8876 13.1486 43.2804 14.0061C42.6739 14.8636 42.348 15.8883 42.3465 16.9385H36.418C32.1553 16.9484 28.1431 18.9545 25.5773 22.3589L24.561 23.714H12.704C9.981 23.714 7.46441 25.1666 6.10235 27.5253C4.74122 29.8839 4.74122 32.789 6.10235 35.1477C7.46425 37.5063 9.98081 38.959 12.704 38.959H15.0452L7.42278 54.2038H1.69386C0.758462 54.2038 0 54.9622 0 55.8976V59.2854C0.00378089 62.8781 1.43297 66.3225 3.9737 68.8626C6.51372 71.4034 9.95816 72.8326 13.5509 72.8363H27.1018C30.6945 72.8325 34.1389 71.4033 36.6789 68.8626C39.2197 66.3225 40.649 62.8781 40.6526 59.2854V55.8976C40.6526 54.9622 39.8942 54.2038 38.9588 54.2038H33.2299L23.0667 33.8774H28.7956C29.3287 33.8774 29.8309 33.6263 30.1507 33.1998L33.1997 29.1345C34.1623 27.8581 35.6663 27.1058 37.2649 27.1019H42.3465C42.3465 28.0373 43.105 28.7958 44.0404 28.7958H45.7342V77.4049L43.1336 81.306C41.5615 81.303 40.0204 81.7393 38.6843 82.5666C37.3474 83.3938 36.2689 84.5789 35.5711 85.9868L34.5245 88.0806H28.7956C25.6522 88.0844 22.6379 89.3344 20.4155 91.5576C18.1924 93.7799 16.9424 96.7942 16.9386 99.9377C16.9386 100.873 17.697 101.632 18.6324 101.632H82.9991C83.9345 101.632 84.693 100.873 84.693 99.9377C84.6892 96.7942 83.4392 93.7799 81.216 91.5576C78.9937 89.3345 75.9794 88.0845 72.8359 88.0806H67.107L66.0605 85.9868C65.3625 84.5788 64.2842 83.3937 62.9473 82.5666C61.6111 81.7393 60.07 81.303 58.4979 81.306L55.8973 77.4049V28.7958H57.5912C58.5266 28.7958 59.285 28.0373 59.285 27.1019H64.3666C65.9652 27.1057 67.4692 27.8581 68.4319 29.1345L71.4808 33.1998C71.8007 33.6263 72.3028 33.8774 72.8359 33.8774H78.5648L68.4017 54.2038H62.6728C61.7374 54.2038 60.9789 54.9622 60.9789 55.8976V59.2854C60.9827 62.8781 62.4119 66.3225 64.9526 68.8626C67.4926 71.4034 70.937 72.8326 74.5298 72.8363H88.0807C91.6734 72.8325 95.1178 71.4033 97.6578 68.8626C100.199 66.3225 101.628 62.8781 101.632 59.2854V55.8976C101.632 54.9622 100.873 54.2038 99.9377 54.2038H99.9378ZM50.8159 3.38779C51.7513 3.38855 52.509 4.14626 52.5097 5.08166V11.8571H49.122V5.08166C49.1228 4.14626 49.8805 3.38855 50.8159 3.38779ZM37.265 59.2854C37.262 61.9797 36.1905 64.5629 34.2848 66.4683C32.3791 68.3738 29.7959 69.4454 27.1018 69.4485H13.551C10.8567 69.4455 8.27347 68.374 6.36802 66.4683C4.46257 64.5626 3.39089 61.9795 3.3878 59.2854V57.5915H37.265V59.2854ZM11.2105 54.2038L20.3272 35.9712L29.4438 54.2038H11.2105ZM37.265 23.7142C34.6009 23.7202 32.0934 24.974 30.4896 27.1019L27.9488 30.4896H11.8571V33.8774H17.586L16.7391 35.5712H12.704C11.1909 35.5712 9.79349 34.7644 9.03658 33.4538C8.2804 32.1433 8.2804 30.5297 9.03658 29.2191C9.79353 27.9087 11.191 27.1017 12.704 27.1017H25.408C25.9411 27.1017 26.4432 26.8507 26.7631 26.4242L28.2875 24.3915C30.212 21.8385 33.2208 20.3338 36.4181 20.3263H42.3466V23.714L37.265 23.7142ZM81.135 98.2443H20.4968C20.89 96.3326 21.9297 94.6153 23.4414 93.3812C24.9537 92.1464 26.8442 91.4711 28.7959 91.4688H72.8363C74.788 91.4711 76.6785 92.1464 78.1908 93.3812C79.7024 94.6153 80.7422 96.3326 81.1354 98.2443H81.135ZM63.0305 87.5026L63.3201 88.0811H38.311L38.6006 87.5026C39.0203 86.6565 39.6683 85.9449 40.4714 85.4481C41.2752 84.9521 42.2015 84.6904 43.146 84.6935H58.4852H58.4844C59.4289 84.6904 60.3552 84.9521 61.159 85.4481C61.962 85.9449 62.6101 86.6565 63.0298 87.5026H63.0305ZM52.7939 78.8579L54.4265 81.3058H47.2049L48.8367 78.8573H48.8375C49.0228 78.5798 49.1218 78.2524 49.1218 77.9181V28.796H52.5095V77.9181C52.5095 78.2524 52.6086 78.5798 52.7939 78.8573L52.7939 78.8579ZM55.8973 25.4073H45.7341V16.9379C45.7349 16.0025 46.4926 15.2448 47.428 15.2441H54.2034C55.1388 15.2448 55.8965 16.0025 55.8973 16.9379V25.4073ZM71.142 27.1011C69.5381 24.9733 67.0307 23.7194 64.3666 23.7134H59.285V20.3257H65.2135C68.4107 20.3332 71.4196 21.8381 73.344 24.391L74.8685 26.4236C75.1884 26.8501 75.6905 27.1011 76.2236 27.1011H88.9276C90.4407 27.1011 91.8381 27.908 92.595 29.2186C93.3512 30.529 93.3512 32.1427 92.595 33.4532C91.838 34.7637 90.4406 35.5707 88.9276 35.5707H84.8925L84.0456 33.8768H89.7745V30.4891H73.6828L71.142 27.1011ZM81.3052 35.9704L90.4218 54.203H72.1885L81.3052 35.9704ZM98.2438 59.2838C98.2408 61.9781 97.1692 64.5613 95.2635 66.4668C93.3579 68.3722 90.7747 69.4439 88.0806 69.447H74.5297C71.8354 69.444 69.2523 68.3724 67.3468 66.4668C65.4414 64.5611 64.3697 61.9779 64.3666 59.2838V57.5899H98.2438V59.2838Z" fill="white"/>
</svg>
