<svg width="54" height="54" viewBox="0 0 54 54" fill="none" xmlns="http://www.w3.org/2000/svg">
<path d="M53.1001 28.8001H50.0561L46.0061 20.7001H47.2501C48.6969 20.7001 50.034 19.9283 50.7577 18.6751C51.4809 17.4218 51.4809 15.8783 50.7577 14.625C50.0341 13.3718 48.697 12.6 47.2501 12.6H40.9501L40.4101 11.88C39.0468 10.0711 36.915 9.00521 34.6501 8.99997H31.5001C31.4993 8.44188 31.3261 7.89743 31.0039 7.44188C30.6812 6.98625 30.226 6.64152 29.7 6.45468V2.69997C29.7 1.73528 29.1854 0.844113 28.35 0.361609C27.5147 -0.120536 26.4853 -0.120536 25.65 0.361609C24.8147 0.844154 24.3 1.73527 24.3 2.69997V6.45468C23.7741 6.64151 23.3189 6.98625 22.9962 7.44188C22.674 7.89751 22.5008 8.44193 22.5 8.99997H19.35C17.0851 9.00519 14.9533 10.0711 13.59 11.88L13.05 12.6H6.75C5.30322 12.6 3.96607 13.3718 3.24237 14.625C2.51916 15.8783 2.51916 17.4218 3.24237 18.6751C3.96599 19.9283 5.30311 20.7001 6.75 20.7001H7.99396L3.94396 28.8001H0.900001C0.402995 28.8001 0 29.2031 0 29.7001V31.5002C0.0020089 33.4091 0.76138 35.2392 2.11135 36.5888C3.46094 37.9388 5.29108 38.6982 7.20001 38.7002H14.4C16.3089 38.6982 18.1391 37.9388 19.4887 36.5888C20.8387 35.2392 21.5981 33.4091 21.6 31.5002V29.7001C21.6 29.2031 21.197 28.8001 20.7 28.8001H17.6561L12.2561 18.0001H15.3C15.5833 18.0001 15.8501 17.8667 16.02 17.6401L17.64 15.4801C18.1515 14.8019 18.9506 14.4021 19.8 14.4001H22.5C22.5 14.8971 22.903 15.3001 23.4 15.3001H24.3V41.1276L22.9182 43.2004C22.0829 43.1988 21.2641 43.4306 20.5542 43.8702C19.8438 44.3097 19.2708 44.9394 18.9 45.6875L18.3439 46.8H15.3C13.6298 46.802 12.0282 47.4661 10.8474 48.6474C9.66619 49.8282 9.00204 51.4298 8.99999 53.1C8.99999 53.597 9.40298 54 9.89999 54H44.1C44.597 54 45 53.597 45 53.1C44.998 51.4298 44.3338 49.8282 43.1526 48.6474C41.9718 47.4662 40.3702 46.802 38.7 46.8H35.6561L35.1 45.6875C34.7291 44.9393 34.1562 44.3097 33.4458 43.8702C32.7359 43.4306 31.9171 43.1988 31.0818 43.2004L29.7 41.1276V15.3001H30.6C31.097 15.3001 31.5 14.8971 31.5 14.4001H34.2C35.0494 14.4021 35.8485 14.8019 36.36 15.4801L37.98 17.6401C38.1499 17.8667 38.4167 18.0001 38.7 18.0001H41.7439L36.3439 28.8001H33.3C32.803 28.8001 32.4 29.2031 32.4 29.7001V31.5002C32.402 33.4091 33.1614 35.2392 34.5113 36.5888C35.8609 37.9388 37.6911 38.6982 39.6 38.7002H46.8C48.7089 38.6982 50.5391 37.9388 51.8886 36.5888C53.2387 35.2392 53.998 33.4091 54 31.5002V29.7001C54 29.2031 53.597 28.8001 53.1 28.8001H53.1001ZM27.0001 1.80004C27.4971 1.80044 27.8997 2.20304 27.9001 2.70004V6.30006H26.1001V2.70004C26.1005 2.20304 26.5031 1.80044 27.0001 1.80004ZM19.8001 31.5002C19.7984 32.9317 19.2291 34.3043 18.2166 35.3167C17.204 36.3291 15.8315 36.8985 14.4001 36.9002H7.20005C5.76848 36.8986 4.39595 36.3292 3.38353 35.3167C2.3711 34.3041 1.80169 32.9316 1.80004 31.5002V30.6002H19.8001V31.5002ZM5.9565 28.8001L10.8005 19.1126L15.6444 28.8001H5.9565ZM19.8001 12.6001C18.3845 12.6033 17.0522 13.2695 16.2001 14.4001L14.8501 16.2001H6.30005V18.0001H9.344L8.894 18.9001H6.75005C5.94607 18.9001 5.20359 18.4714 4.80141 17.775C4.39963 17.0788 4.39963 16.2214 4.80141 15.525C5.20361 14.8287 5.94611 14.4 6.75005 14.4H13.5001C13.7833 14.4 14.0501 14.2666 14.2201 14.04L15.0301 12.96C16.0526 11.6035 17.6513 10.804 19.3501 10.8H22.5001V12.6L19.8001 12.6001ZM43.1096 52.2002H10.8906C11.0995 51.1845 11.6519 50.2721 12.4551 49.6164C13.2587 48.9602 14.2631 48.6014 15.3002 48.6002H38.7002C39.7372 48.6014 40.7417 48.9602 41.5452 49.6164C42.3484 50.2721 42.9009 51.1845 43.1098 52.2002H43.1096ZM33.49 46.4929L33.6439 46.8002H20.3558L20.5097 46.4929C20.7327 46.0433 21.077 45.6652 21.5037 45.4012C21.9308 45.1377 22.423 44.9987 22.9248 45.0003H31.075H31.0746C31.5764 44.9987 32.0686 45.1377 32.4957 45.4012C32.9224 45.6652 33.2667 46.0433 33.4897 46.4929H33.49ZM28.0511 41.8997L28.9185 43.2003H25.0814L25.9485 41.8994H25.9489C26.0473 41.7519 26.1 41.5779 26.1 41.4003V15.3002H27.9V41.4003C27.9 41.5779 27.9526 41.7519 28.051 41.8994L28.0511 41.8997ZM29.7 13.4997H24.3V8.99966C24.3004 8.50265 24.7029 8.10005 25.2 8.09965H28.8C29.297 8.10005 29.6996 8.50265 29.7 8.99966V13.4997ZM37.8 14.3997C36.9478 13.2691 35.6155 12.6029 34.2 12.5997H31.5V10.7997H34.65C36.3488 10.8037 37.9475 11.6032 38.97 12.9597L39.78 14.0397C39.9499 14.2663 40.2167 14.3997 40.5 14.3997H47.25C48.0539 14.3997 48.7964 14.8284 49.1986 15.5247C49.6004 16.221 49.6004 17.0784 49.1986 17.7747C48.7964 18.471 48.0539 18.8998 47.25 18.8998H45.106L44.656 17.9998H47.7V16.1998H39.15L37.8 14.3997ZM43.2 19.1122L48.0439 28.7997H38.356L43.2 19.1122ZM52.2 31.4993C52.1984 32.9309 51.629 34.3034 50.6165 35.3159C49.6039 36.3283 48.2314 36.8977 46.8 36.8994H39.6C38.1684 36.8977 36.7959 36.3284 35.7835 35.3159C34.771 34.3033 34.2016 32.9308 34.2 31.4993V30.5993H52.2V31.4993Z" fill="#1DACB0"/>
</svg>
