<svg width="47" height="58" viewBox="0 0 47 58" fill="none" xmlns="http://www.w3.org/2000/svg">
<path d="M46.0945 45.2967C44.8488 40.4273 34.8552 37.1008 32.4347 36.3647C31.9897 35.3867 31.6984 34.3458 31.5712 33.2789C33.619 30.498 35.0653 27.3212 35.8178 23.9506C36.2849 21.6716 36.9219 17.1561 36.9502 16.9721C36.9716 16.8694 36.9716 16.7634 36.9502 16.6607C37.429 16.0908 37.7683 15.4171 37.9411 14.6931C38.222 14.6215 38.4851 14.4929 38.714 14.3151C38.9429 14.1373 39.1328 13.9142 39.2717 13.6598C40.3374 12.0211 41.0375 10.172 41.3242 8.23833C41.2675 5.9735 31.2315 0 23.5735 0C16.3402 0 5.87951 5.73286 5.87951 8.16756C6.15621 10.1015 6.85186 11.9518 7.91786 13.589C8.1845 14.0724 8.62462 14.4366 9.14937 14.6082C9.35656 15.4995 9.79612 16.32 10.4233 16.9863C10.4233 17.4534 10.8905 21.3319 11.3717 23.9789C12.1269 27.3442 13.573 30.516 15.6183 33.2931C15.4903 34.3595 15.174 35.3947 14.6841 36.3506C12.3626 36.9734 2.17085 40.314 0.89688 45.2967C0.111488 48.9689 -0.160055 52.7324 0.0900332 56.4793C0.111047 56.7096 0.216768 56.924 0.386735 57.0809C0.556701 57.2378 0.778827 57.326 1.01012 57.3286H1.0809C1.20185 57.3197 1.31985 57.2869 1.42809 57.2322C1.53634 57.1775 1.6327 57.1019 1.71163 57.0098C1.79056 56.9177 1.85051 56.8109 1.88802 56.6956C1.92553 56.5803 1.93987 56.4586 1.93021 56.3377C1.6978 52.79 1.95501 49.2272 2.69459 45.7496C3.40235 43.0035 8.68224 40.4697 12.6032 39.0118L13.0562 45.5373C13.0696 45.716 13.1341 45.8871 13.242 46.0301C13.3499 46.1732 13.4967 46.2822 13.6649 46.3442L15.8589 47.151L14.4434 49.7272C14.3382 49.9128 14.3017 50.1295 14.3406 50.3392C14.3794 50.549 14.491 50.7383 14.6557 50.8738L22.9507 57.7533C23.1182 57.8909 23.3284 57.9659 23.5452 57.9656H23.7009C23.9193 57.9608 24.1293 57.8808 24.2954 57.7391L32.4347 50.8738C32.5949 50.7351 32.7031 50.5461 32.7417 50.3377C32.7803 50.1294 32.7469 49.9141 32.647 49.7272L31.2315 47.151L33.4256 46.3442C33.5937 46.2822 33.7405 46.1732 33.8484 46.0301C33.9563 45.8871 34.0208 45.716 34.0342 45.5373L34.473 39.0118C38.3516 40.4273 43.6315 43.0035 44.3817 45.7496C45.1201 49.2273 45.3726 52.7907 45.1319 56.3377C45.1222 56.4586 45.1366 56.5803 45.1741 56.6956C45.2116 56.8109 45.2716 56.9177 45.3505 57.0098C45.4294 57.1019 45.5258 57.1775 45.634 57.2322C45.7423 57.2869 45.8603 57.3197 45.9812 57.3286C46.2135 57.3293 46.4374 57.2421 46.608 57.0846C46.7787 56.9271 46.8834 56.7108 46.9013 56.4793C47.1671 52.7323 46.8954 48.9666 46.0945 45.2967ZM27.6927 40.4414L27.537 40.5688L27.4096 40.6679L27.3247 40.8095C27.2907 40.8631 27.2623 40.92 27.2397 40.9793L23.6443 53.903L19.8224 40.9227C19.7979 40.8571 19.7646 40.7952 19.7233 40.7387C19.7027 40.6946 19.6791 40.652 19.6525 40.6113L19.5251 40.5122C19.4838 40.4583 19.4305 40.4146 19.3694 40.3848C17.9782 39.7589 16.8792 38.6244 16.2977 37.214C16.6795 36.4952 16.9787 35.7354 17.1895 34.9492C18.8174 36.3647 22.4411 36.4638 23.5311 36.4638H23.7151C24.805 36.4638 28.4288 36.3364 30.0566 34.9634C30.2634 35.7124 30.5236 36.4456 30.8351 37.1574C30.2346 38.6038 29.0912 39.7573 27.6502 40.3707L27.6927 40.4414ZM11.3293 15.0187C15.4105 15.587 19.5239 15.8943 23.6443 15.9388C27.7207 15.8789 31.7902 15.5812 35.8319 15.047C34.4164 17.3684 28.7543 20.5392 23.5877 20.5392C18.421 20.5392 12.6315 17.326 11.3293 15.0187ZM7.71969 8.29495C8.59731 6.87943 16.7082 1.84018 23.5735 1.84018C30.4388 1.84018 38.5356 6.90774 39.4132 8.29495C39.0828 9.87384 38.4689 11.3798 37.6013 12.7397C37.6013 12.8388 37.3749 12.8954 36.8936 12.9803C36.6954 12.9803 36.4831 12.9803 36.2849 13.1077C32.0673 13.7438 27.8103 14.0844 23.5452 14.1269C19.2794 14.0868 15.022 13.7415 10.8055 13.0936L10.395 13.0228C9.82882 12.9379 9.61649 12.8812 9.54571 12.7397C8.68668 11.3738 8.069 9.87028 7.71969 8.29495ZM12.49 18.7415C15.7403 20.9873 19.5683 22.2502 23.5169 22.3794C27.5907 22.264 31.5359 20.9276 34.8411 18.5433C34.6146 20.0862 34.2749 22.1954 34.0059 23.4835C33.3038 27.2426 31.5291 30.7182 28.8959 33.4912C27.3028 34.3413 25.502 34.7241 23.7009 34.5953V35.5154L23.616 34.5953V35.5154L23.5311 34.5953C21.7254 34.7252 19.9197 34.3425 18.3219 33.4912C15.7165 30.7395 13.9489 27.3025 13.2261 23.5826C12.9147 22.0821 12.6599 20.1712 12.49 18.7415ZM16.3827 49.883L17.9256 47.0519C17.9782 46.9289 18.0053 46.7965 18.0053 46.6626C18.0053 46.5288 17.9782 46.3964 17.9256 46.2734C17.8749 46.151 17.7998 46.0401 17.7049 45.9477C17.61 45.8552 17.4972 45.783 17.3735 45.7355L14.7407 44.7729L14.3019 38.3323L14.6133 38.2332C15.3516 39.7777 16.5676 41.0433 18.0813 41.8428L21.7192 54.3702L16.3827 49.883ZM32.194 44.7588L29.5612 45.7213C29.3183 45.8232 29.1252 46.0164 29.0233 46.2592C28.9673 46.3814 28.9383 46.5141 28.9383 46.6485C28.9383 46.7828 28.9673 46.9156 29.0233 47.0378L30.5662 49.8688L25.3005 54.3135L28.7685 41.8145C30.3138 41.0316 31.5649 39.7705 32.3356 38.2191L32.647 38.3181L32.194 44.7588Z" fill="#1DACB0"/>
<path d="M20.3039 11.4515H26.4472C26.6913 11.4515 26.9253 11.3546 27.0978 11.182C27.2704 11.0095 27.3673 10.7754 27.3673 10.5314C27.3673 10.2874 27.2704 10.0534 27.0978 9.88082C26.9253 9.70827 26.6913 9.61133 26.4472 9.61133H20.3039C20.0599 9.61133 19.8258 9.70827 19.6533 9.88082C19.4807 10.0534 19.3838 10.2874 19.3838 10.5314C19.3838 10.7754 19.4807 11.0095 19.6533 11.182C19.8258 11.3546 20.0599 11.4515 20.3039 11.4515Z" fill="#1DACB0"/>
</svg>
