<svg width="48" height="47" viewBox="0 0 48 47" fill="none" xmlns="http://www.w3.org/2000/svg">
<path d="M10.1255 10.7221C9.05551 10.7198 8.01022 10.4035 7.12167 9.81306C6.23313 9.22262 5.54121 8.38456 5.13332 7.40476C4.72543 6.42496 4.61988 5.34739 4.83001 4.3082C5.04014 3.26901 5.55652 2.31483 6.3139 1.56621C7.07128 0.817587 8.03568 0.308124 9.08526 0.102186C10.1348 -0.103753 11.2225 0.00307513 12.2108 0.409171C13.1991 0.815268 14.0437 1.50241 14.6379 2.38378C15.2321 3.26515 15.5493 4.3012 15.5493 5.36103C15.5462 6.78391 14.9735 8.14749 13.9566 9.15255C12.9398 10.1576 11.562 10.7221 10.1255 10.7221ZM10.1255 1.46519C9.34807 1.46744 8.58877 1.69783 7.94349 2.12727C7.2982 2.55672 6.79587 3.16595 6.49994 3.87801C6.20401 4.59008 6.12775 5.37304 6.28081 6.12801C6.43386 6.88298 6.80935 7.57609 7.35986 8.1198C7.91037 8.66351 8.6112 9.03343 9.37383 9.18283C10.1365 9.33223 10.9267 9.25442 11.6447 8.95922C12.3627 8.66403 12.9763 8.16468 13.408 7.52426C13.8397 6.88384 14.07 6.13107 14.07 5.36103C14.067 4.32675 13.6501 3.33585 12.9107 2.60557C12.1712 1.87528 11.1697 1.46519 10.1255 1.46519Z" fill="#1DACB0"/>
<path d="M36.3039 19.9223C35.2335 19.9223 34.1871 19.6079 33.297 19.0188C32.407 18.4297 31.7132 17.5924 31.3036 16.6128C30.8939 15.6332 30.7868 14.5553 30.9956 13.5154C31.2044 12.4754 31.7199 11.5202 32.4768 10.7704C33.2338 10.0207 34.1982 9.51007 35.248 9.30321C36.2979 9.09635 37.3862 9.20252 38.3751 9.60828C39.3641 10.014 40.2094 10.7012 40.8041 11.5828C41.3988 12.4644 41.7163 13.5009 41.7163 14.5612C41.7132 15.9822 41.142 17.344 40.1277 18.3488C39.1133 19.3535 37.7384 19.9193 36.3039 19.9223ZM36.3039 10.6654C35.526 10.6654 34.7656 10.8939 34.1188 11.322C33.472 11.75 32.9679 12.3585 32.6702 13.0704C32.3725 13.7822 32.2946 14.5656 32.4464 15.3213C32.5982 16.077 32.9727 16.7712 33.5228 17.316C34.0729 17.8609 34.7737 18.2319 35.5366 18.3822C36.2996 18.5325 37.0904 18.4554 37.8091 18.1605C38.5277 17.8657 39.142 17.3663 39.5742 16.7257C40.0064 16.085 40.237 15.3318 40.237 14.5612C40.234 13.5289 39.8187 12.5397 39.0817 11.8098C38.3448 11.0798 37.3461 10.6684 36.3039 10.6654Z" fill="#1DACB0"/>
<path d="M5.4128 36.7214C4.33959 36.7236 3.28983 36.4104 2.39639 35.8215C1.50294 35.2325 0.805975 34.3942 0.393702 33.4128C-0.0185711 32.4313 -0.127618 31.3507 0.0803638 30.3078C0.288345 29.2649 0.804005 28.3066 1.56208 27.5541C2.32015 26.8016 3.28656 26.2888 4.33898 26.0806C5.39141 25.8724 6.48254 25.9781 7.47427 26.3844C8.46601 26.7907 9.31377 27.4793 9.91025 28.363C10.5067 29.2468 10.8251 30.2859 10.8251 31.349C10.8251 32.7718 10.2553 34.1366 9.24059 35.1438C8.22591 36.151 6.84929 36.7184 5.4128 36.7214ZM5.4128 27.4531C4.63167 27.4509 3.86744 27.6784 3.21701 28.1069C2.56657 28.5353 2.05921 29.1454 1.75923 29.8598C1.45926 30.5742 1.38017 31.3608 1.53201 32.1198C1.68385 32.8788 2.05977 33.576 2.61211 34.1231C3.16446 34.6702 3.86837 35.0426 4.63461 35.193C5.40085 35.3434 6.19492 35.265 6.91616 34.9679C7.63741 34.6708 8.25335 34.1682 8.68591 33.5239C9.11847 32.8797 9.34818 32.1227 9.34591 31.349C9.34289 30.3166 8.92754 29.3275 8.19059 28.5975C7.45364 27.8675 6.455 27.4561 5.4128 27.4531Z" fill="#1DACB0"/>
<path d="M42.5886 46.9997C41.5154 47.0019 40.4656 46.6888 39.5722 46.0998C38.6787 45.5108 37.9818 44.6726 37.5695 43.6911C37.1572 42.7096 37.0482 41.629 37.2561 40.5862C37.4641 39.5433 37.9798 38.5849 38.7379 37.8324C39.4959 37.08 40.4623 36.5672 41.5148 36.3589C42.5672 36.1507 43.6583 36.2565 44.6501 36.6627C45.6418 37.069 46.4896 37.7576 47.086 38.6414C47.6825 39.5251 48.0009 40.5642 48.0009 41.6273C48.0009 43.0502 47.4311 44.4149 46.4164 45.4221C45.4017 46.4293 44.0251 46.9967 42.5886 46.9997ZM42.5886 37.7314C41.8079 37.7314 41.0448 37.9609 40.3959 38.3907C39.747 38.8205 39.2414 39.4314 38.9432 40.146C38.645 40.8607 38.5675 41.6468 38.7207 42.4051C38.8738 43.1633 39.2506 43.8595 39.8034 44.4055C40.3562 44.9514 41.0602 45.3227 41.8261 45.4721C42.592 45.6216 43.3855 45.5426 44.1061 45.2451C44.8266 44.9477 45.4419 44.4451 45.874 43.8011C46.306 43.1571 46.5354 42.4005 46.5332 41.6273C46.5301 40.593 46.1132 39.6021 45.3738 38.8718C44.6344 38.1415 43.6328 37.7314 42.5886 37.7314Z" fill="#1DACB0"/>
<path d="M31.9015 13.743C31.8221 13.7592 31.7401 13.7592 31.6607 13.743L14.2885 7.5982C14.1039 7.53371 13.9523 7.39988 13.8665 7.22562C13.7806 7.05135 13.7675 6.85063 13.8298 6.66683C13.8971 6.48336 14.035 6.33376 14.2134 6.25075C14.3917 6.16774 14.596 6.15807 14.7816 6.22386L32.1079 12.3232C32.2779 12.376 32.4227 12.4883 32.5152 12.6391C32.6078 12.7899 32.6418 12.9689 32.6109 13.1427C32.58 13.3166 32.4863 13.4733 32.3474 13.5837C32.2084 13.6942 32.0336 13.7508 31.8556 13.743H31.9015Z" fill="#1DACB0"/>
<path d="M38.0935 41.1278C38.0291 41.1395 37.963 41.1395 37.8986 41.1278L9.7132 33.302C9.61937 33.2759 9.53173 33.2316 9.45539 33.1716C9.37905 33.1116 9.31554 33.0371 9.26858 32.9525C9.22161 32.8679 9.19212 32.7749 9.18183 32.6789C9.17155 32.5829 9.18067 32.4859 9.20866 32.3934C9.23372 32.3009 9.27728 32.2143 9.33675 32.1388C9.39622 32.0632 9.47039 32.0003 9.55487 31.9537C9.63935 31.9071 9.73242 31.8778 9.82855 31.8674C9.92469 31.8571 10.0219 31.866 10.1145 31.8936L38.2885 39.6853C38.4767 39.7408 38.6357 39.8667 38.732 40.0362C38.8283 40.2058 38.8543 40.4058 38.8045 40.594C38.7599 40.747 38.6667 40.8817 38.5385 40.9779C38.4104 41.0741 38.2543 41.1267 38.0935 41.1278Z" fill="#1DACB0"/>
<path d="M9.50635 29.8495C9.34664 29.8402 9.19418 29.7802 9.07152 29.6785C8.94886 29.5767 8.8625 29.4386 8.82521 29.2845C8.78793 29.1304 8.80169 28.9685 8.86446 28.8228C8.92724 28.677 9.0357 28.5551 9.17381 28.4751L31.8781 16.1515C31.9624 16.1053 32.0551 16.0759 32.1509 16.0652C32.2466 16.0544 32.3436 16.0625 32.4362 16.0888C32.5289 16.1152 32.6154 16.1594 32.6908 16.2189C32.7662 16.2783 32.829 16.3519 32.8757 16.4355C32.9705 16.6059 32.9936 16.8065 32.9399 16.9937C32.8862 17.1808 32.7601 17.3394 32.589 17.435L9.86182 29.7586C9.75428 29.8213 9.6311 29.8528 9.50635 29.8495Z" fill="#1DACB0"/>
</svg>
