<svg width="50" height="53" viewBox="0 0 50 53" fill="none" xmlns="http://www.w3.org/2000/svg">
<path d="M41.6272 49.8682H31.3946C31.2456 49.8682 31.1028 49.9273 30.9975 50.0326C30.8922 50.1379 30.833 50.2808 30.833 50.4297C30.833 50.5796 30.8918 50.7235 30.9968 50.8305C31.1019 50.9375 31.2447 50.9989 31.3946 51.0017H41.6272C41.7771 50.9989 41.9199 50.9375 42.0249 50.8305C42.1299 50.7235 42.1887 50.5796 42.1887 50.4297C42.1887 50.2808 42.1296 50.1379 42.0242 50.0326C41.9189 49.9273 41.7761 49.8682 41.6272 49.8682Z" fill="#1DACB0"/>
<path d="M38.7784 18.6085C38.7784 18.047 38.6119 17.4981 38.3 17.0312C37.9881 16.5644 37.5447 16.2005 37.0259 15.9856C36.5072 15.7708 35.9364 15.7145 35.3857 15.8241C34.835 15.9336 34.3291 16.204 33.9321 16.601C33.5351 16.9981 33.2647 17.5039 33.1551 18.0546C33.0456 18.6053 33.1018 19.1761 33.3167 19.6949C33.5316 20.2136 33.8954 20.657 34.3623 20.9689C34.8292 21.2809 35.378 21.4474 35.9395 21.4474C36.6924 21.4474 37.4145 21.1483 37.9469 20.6159C38.4793 20.0835 38.7784 19.3614 38.7784 18.6085ZM34.2341 18.6085C34.2341 18.2712 34.3341 17.9414 34.5215 17.661C34.7089 17.3805 34.9752 17.1619 35.2869 17.0328C35.5985 16.9038 35.9414 16.87 36.2722 16.9358C36.6031 17.0016 36.9069 17.164 37.1454 17.4025C37.384 17.641 37.5464 17.9449 37.6122 18.2757C37.678 18.6066 37.6442 18.9495 37.5151 19.2611C37.3861 19.5727 37.1675 19.8391 36.887 20.0265C36.6065 20.2139 36.2768 20.3139 35.9395 20.3139C35.4917 20.3058 35.0648 20.1228 34.75 19.8042C34.4352 19.4855 34.2575 19.0564 34.2549 18.6085H34.2341Z" fill="#1DACB0"/>
<path d="M49.5309 31.4719L48.491 28.789V28.7266V23.5271C48.4942 22.7885 48.2904 22.0637 47.9025 21.4351C47.5147 20.8065 46.9584 20.2991 46.2969 19.9706L42.4908 18.0676C42.4121 18.0333 42.3271 18.0156 42.2412 18.0156H40.4942V19.1387H42.0541H42.1373L45.6937 21.0105C46.1675 21.2459 46.5658 21.6094 46.8434 22.0597C47.121 22.5101 47.2667 23.0293 47.264 23.5583V28.841C47.2492 28.906 47.2492 28.9735 47.264 29.0386L48.3039 31.7215V31.7839V41.0286L48.1583 41.143C46.5304 42.4575 45.3141 44.2116 44.6538 46.1969L44.5706 46.4465H27.3187L27.2459 46.1761C26.558 44.1722 25.2825 42.4219 23.5854 41.1534L23.4398 41.039V31.7839V31.7215L24.4797 29.049C24.4935 28.9803 24.4935 28.9096 24.4797 28.841V23.6415C24.4797 23.0945 24.6377 22.5591 24.9347 22.0997C25.2317 21.6403 25.6551 21.2766 26.154 21.0521L30.2096 19.2115H30.2928H31.3327V18.0468H30.2616C30.1822 18.036 30.1018 18.036 30.0224 18.0468L25.7796 20.0226C25.0836 20.3378 24.4929 20.8466 24.078 21.4883C23.6632 22.1299 23.4416 22.8774 23.4398 23.6415V28.7266V28.789L22.3999 31.4615C22.3862 31.5302 22.3862 31.6009 22.3999 31.6695V41.3406C22.4018 41.4339 22.4265 41.5253 22.4718 41.6069C22.5171 41.6884 22.5817 41.7577 22.6599 41.8085C22.6599 41.8085 25.8628 43.9819 26.3828 47.112C26.407 47.2433 26.4765 47.362 26.579 47.4474C26.6816 47.5329 26.8108 47.5798 26.9443 47.58H28.8681L28.5977 48.1311L27.0067 51.3132C26.9436 51.4477 26.9343 51.6012 26.9807 51.7424C27.0271 51.8835 27.1257 52.0015 27.2563 52.0724C27.339 52.1055 27.4271 52.1231 27.5163 52.1244C27.6204 52.1249 27.7226 52.0958 27.811 52.0406C27.8993 51.9854 27.9702 51.9062 28.0154 51.8124L29.9392 47.788L30.0432 47.58H42.9796L43.0836 47.788L45.0906 51.8124C45.1247 51.8793 45.1717 51.9389 45.2288 51.9876C45.286 52.0364 45.3522 52.0734 45.4236 52.0966C45.4951 52.1198 45.5704 52.1286 45.6453 52.1227C45.7202 52.1168 45.7932 52.0961 45.8601 52.062C45.9918 51.9948 46.0925 51.8793 46.1409 51.7396C46.1928 51.6022 46.1928 51.4506 46.1409 51.3132L44.5498 48.1311L44.2794 47.58H45.0594C45.1813 47.5803 45.3 47.5409 45.3976 47.4677C45.4952 47.3945 45.5662 47.2916 45.6001 47.1744C46.1921 45.0161 47.5061 43.1258 49.323 41.8189C49.4072 41.7703 49.4773 41.7007 49.5265 41.6169C49.5758 41.533 49.6024 41.4378 49.6037 41.3406V31.6695C49.5955 31.5988 49.5706 31.5311 49.5309 31.4719Z" fill="#1DACB0"/>
<path d="M27.4219 23.7247V27.1355C27.4219 27.2845 27.481 27.4273 27.5863 27.5326C27.6917 27.6379 27.8345 27.6971 27.9834 27.6971H34.2228C34.3727 27.6971 34.5167 27.6383 34.6236 27.5333C34.7306 27.4282 34.792 27.2854 34.7948 27.1355V23.7247C34.7948 23.573 34.7345 23.4275 34.6273 23.3202C34.52 23.213 34.3745 23.1527 34.2228 23.1527H28.0146C27.9378 23.1499 27.8612 23.1627 27.7894 23.1901C27.7175 23.2176 27.652 23.2593 27.5967 23.3127C27.5413 23.3661 27.4973 23.4301 27.4673 23.5009C27.4373 23.5717 27.4218 23.6478 27.4219 23.7247ZM28.5554 24.2862H33.6717V26.5636H28.5554V24.2862Z" fill="#1DACB0"/>
<path d="M43.8947 23.1533H37.6553C37.5054 23.156 37.3626 23.2175 37.2576 23.3245C37.1526 23.4314 37.0937 23.5754 37.0938 23.7253V27.1361C37.0938 27.2851 37.1529 27.4279 37.2582 27.5332C37.3635 27.6385 37.5064 27.6977 37.6553 27.6977H43.8947C44.0446 27.6977 44.1885 27.6389 44.2955 27.5339C44.4025 27.4288 44.4639 27.286 44.4666 27.1361V23.7253C44.4666 23.5736 44.4064 23.4281 44.2991 23.3208C44.1919 23.2136 44.0464 23.1533 43.8947 23.1533ZM43.3332 26.5642H38.2168V24.2868H43.3332V26.5642Z" fill="#1DACB0"/>
<path d="M45.0385 32.2416C45.1687 32.2395 45.2944 32.193 45.3946 32.1098C45.4948 32.0266 45.5636 31.9117 45.5896 31.7841C45.6128 31.6352 45.5794 31.4832 45.4961 31.3577C45.4544 31.2956 45.4007 31.2425 45.3382 31.2014C45.2757 31.1603 45.2056 31.1321 45.1321 31.1185L36.0434 29.4131H35.8354L26.7466 31.1497C26.599 31.1794 26.4685 31.2651 26.3827 31.3889C26.3407 31.4506 26.3116 31.5202 26.2973 31.5935C26.283 31.6668 26.2838 31.7423 26.2995 31.8153C26.3102 31.8871 26.3362 31.9558 26.3756 32.0168C26.4151 32.0778 26.4671 32.1296 26.5283 32.1688C26.6218 32.2371 26.7348 32.2736 26.8506 32.2728H26.9754L35.8874 30.609H35.9602H36.033L44.9345 32.1896L45.0385 32.2416Z" fill="#1DACB0"/>
<path d="M33.6719 38.4917V41.3411C33.7109 41.9171 33.9672 42.4569 34.389 42.8511C34.8109 43.2453 35.3667 43.4646 35.9441 43.4646C36.5214 43.4646 37.0773 43.2453 37.4991 42.8511C37.9209 42.4569 38.1772 41.9171 38.2162 41.3411V38.4917C38.1772 37.9157 37.9209 37.3759 37.4991 36.9817C37.0773 36.5875 36.5214 36.3682 35.9441 36.3682C35.3667 36.3682 34.8109 36.5875 34.389 36.9817C33.9672 37.3759 33.7109 37.9157 33.6719 38.4917ZM37.0828 38.4917V41.3411C37.0557 41.6243 36.924 41.8873 36.7134 42.0786C36.5029 42.27 36.2286 42.376 35.9441 42.376C35.6595 42.376 35.3852 42.27 35.1747 42.0786C34.9641 41.8873 34.8325 41.6243 34.8054 41.3411V38.4917C34.8325 38.2085 34.9641 37.9456 35.1747 37.7542C35.3852 37.5628 35.6595 37.4568 35.9441 37.4568C36.2286 37.4568 36.5029 37.5628 36.7134 37.7542C36.924 37.9456 37.0557 38.2085 37.0828 38.4917Z" fill="#1DACB0"/>
<path d="M28.0147 36.2246C27.8657 36.2246 27.7229 36.2838 27.6176 36.3891C27.5123 36.4944 27.4531 36.6372 27.4531 36.7862V39.6355C27.4539 39.7227 27.475 39.8085 27.5147 39.8861C27.5544 39.9637 27.6117 40.031 27.6819 40.0826C28.893 41.024 29.8066 42.2951 30.3129 43.7431C30.3416 43.8668 30.4121 43.9767 30.5125 44.0544C30.6129 44.1321 30.7371 44.1727 30.864 44.1694H30.9992C31.1426 44.1298 31.2654 44.0368 31.3424 43.9095C31.3826 43.847 31.409 43.7766 31.4198 43.7031C31.4306 43.6295 31.4254 43.5545 31.4047 43.4831C30.9022 41.9106 29.9561 40.5167 28.6802 39.4691L28.5554 39.3547V36.7862C28.553 36.6415 28.4959 36.5032 28.3955 36.399C28.2952 36.2948 28.1591 36.2325 28.0147 36.2246Z" fill="#1DACB0"/>
<path d="M43.3324 36.7862V39.3547L43.1972 39.4691C41.9341 40.5198 40.9962 41.9085 40.4934 43.4727C40.462 43.6177 40.4842 43.7692 40.5558 43.8991C40.639 44.025 40.7644 44.1172 40.9094 44.159H41.0446C41.171 44.1604 41.2942 44.1191 41.3943 44.0417C41.4943 43.9643 41.5653 43.8554 41.5957 43.7327C42.0988 42.283 43.0129 41.0111 44.2267 40.0722C44.2952 40.019 44.3512 39.9514 44.3908 39.8741C44.4303 39.7968 44.4524 39.7118 44.4554 39.6251V36.7862C44.4527 36.6363 44.3913 36.4935 44.2843 36.3884C44.1773 36.2834 44.0334 36.2246 43.8835 36.2246C43.7364 36.2273 43.5962 36.2877 43.4931 36.3927C43.3901 36.4977 43.3323 36.639 43.3324 36.7862Z" fill="#1DACB0"/>
<path d="M18.4589 27.2812L21.5786 24.7231C21.6375 24.6766 21.6865 24.6187 21.7227 24.553C21.7589 24.4872 21.7815 24.4149 21.7893 24.3403C21.797 24.2656 21.7897 24.1902 21.7678 24.1184C21.7459 24.0466 21.7099 23.9799 21.6618 23.9223C21.5636 23.8095 21.4259 23.7388 21.277 23.7247H21.2146C21.0836 23.7216 20.9566 23.7702 20.861 23.8599L17.4502 26.6989C17.3862 26.7525 17.3346 26.8193 17.2987 26.8946C17.2628 26.97 17.2435 27.0522 17.2422 27.1356V44.1692C17.2428 44.3042 17.2912 44.4346 17.3787 44.5374C17.4663 44.6402 17.5874 44.7086 17.7205 44.7307L21.1314 45.3027H21.225C21.3588 45.3017 21.4878 45.2529 21.5889 45.1652C21.6899 45.0775 21.7563 44.9566 21.7762 44.8243C21.7902 44.7523 21.7891 44.6781 21.773 44.6065C21.7569 44.5349 21.7261 44.4675 21.6826 44.4084C21.5946 44.2868 21.4651 44.2017 21.3186 44.1692L18.6565 43.7428H18.3341V27.3956L18.4589 27.2812Z" fill="#1DACB0"/>
<path d="M24.1055 47.5905L17.2838 46.457H13.7897C13.638 46.457 13.4926 46.5173 13.3853 46.6245C13.278 46.7318 13.2178 46.8773 13.2178 47.029C13.2205 47.1789 13.282 47.3217 13.3889 47.4267C13.4959 47.5317 13.6398 47.5905 13.7897 47.5905H17.159L23.9183 48.7032H24.0119C24.1609 48.7156 24.3086 48.6684 24.4227 48.5718C24.5368 48.4753 24.6079 48.3374 24.6203 48.1885C24.6327 48.0395 24.5854 47.8918 24.4889 47.7777C24.3924 47.6636 24.2545 47.5925 24.1055 47.5801V47.5905Z" fill="#1DACB0"/>
<path d="M13.7893 43.6285C13.6394 43.6285 13.4955 43.6873 13.3885 43.7924C13.2815 43.8974 13.2201 44.0402 13.2174 44.1901C13.2174 44.3418 13.2776 44.4873 13.3849 44.5945C13.4921 44.7018 13.6376 44.762 13.7893 44.762H14.9228C15.0727 44.7593 15.2155 44.6978 15.3205 44.5909C15.4255 44.4839 15.4844 44.34 15.4843 44.1901V28.2692C15.485 28.1726 15.4615 28.0773 15.4161 27.992C15.3708 27.9066 15.3048 27.834 15.2244 27.7805C15.1325 27.7276 15.0287 27.6989 14.9228 27.6973C14.8331 27.7021 14.745 27.7232 14.6628 27.7597L13.5293 28.3316C13.4631 28.3634 13.404 28.4084 13.3557 28.4639C13.3075 28.5193 13.271 28.584 13.2486 28.654C13.1919 28.794 13.1919 28.9507 13.2486 29.0907C13.3181 29.2205 13.4328 29.3204 13.5709 29.3715C13.6329 29.3814 13.6961 29.3814 13.7581 29.3715H13.8621L14.3196 29.2779V43.6285H13.7893Z" fill="#1DACB0"/>
<path d="M11.3767 32.0858C10.1785 28.9221 9.52448 25.5784 9.44253 22.1963V21.7908H21.287V10.1543H30.8541L30.9373 10.4039C31.5311 11.9714 31.9801 13.59 32.2787 15.2394C32.6215 14.8631 33.0303 14.553 33.485 14.3243C33.2232 13.0816 32.8758 11.8586 32.4451 10.6639L32.2683 10.1543H37.5406L37.655 10.3311C38.8203 12.1207 39.6877 14.0873 40.2236 16.1545H41.6586C41.0532 13.6545 39.9959 11.2862 38.5389 9.16639C38.5179 9.10086 38.4735 9.04535 38.4142 9.01041C36.4657 6.22782 33.8751 3.95599 30.862 2.38748C27.8488 0.818964 24.502 0 21.105 0C17.7081 0 14.3612 0.818964 11.348 2.38748C8.3349 3.95599 5.74432 6.22782 3.79587 9.01041C3.75504 9.04798 3.72307 9.09416 3.70228 9.1456C1.31215 12.6298 0.02254 16.751 0.000292767 20.9761C-0.0219544 25.2012 1.22418 29.3358 3.57749 32.8449L3.63988 32.9281V33.0321C3.64916 33.1607 3.69393 33.2842 3.7692 33.3888C3.84447 33.4935 3.9473 33.5752 4.06624 33.6249H4.15983L4.22223 33.708C6.38823 36.5863 9.25117 38.8659 12.5414 40.3322V38.8764C10.2579 37.7677 8.21264 36.2241 6.52041 34.332L5.94846 33.708H10.7112L10.8256 33.9264C11.2753 34.9655 11.8073 35.967 12.4166 36.9213V34.3944C12.4166 34.3944 12.4166 34.3008 12.3438 34.2592L12.0735 33.708H12.4166V32.325H11.4495L11.3767 32.0858ZM28.7223 2.8646C31.5209 4.05034 34.0109 5.86094 36.0016 8.15769L36.5319 8.78163H31.7172L31.6132 8.55285C30.7867 6.69121 29.6667 4.97433 28.2959 3.46774L27.1 2.17826L28.7223 2.8646ZM21.287 1.32555H21.6926C24.885 1.59592 27.932 4.10208 30.0118 8.19929L30.2925 8.75043H21.287V1.32555ZM19.9039 1.42954V8.78163H16.2019C16.0199 8.78163 15.8453 8.85394 15.7166 8.98265C15.5879 9.11137 15.5155 9.28594 15.5155 9.46796C15.5155 9.64999 15.5879 9.82456 15.7166 9.95328C15.8453 10.082 16.0199 10.1543 16.2019 10.1543H19.9039V20.4181H9.41133V20.0334C9.50039 16.5574 10.2045 13.1247 11.4911 9.89432C11.5232 9.83393 11.551 9.77139 11.5743 9.70714C13.4149 5.36036 16.2747 2.42784 19.4048 1.67911L19.9039 1.42954ZM6.17724 8.15769C8.16795 5.86094 10.658 4.05034 13.4565 2.8646L15.0684 2.17826L13.9037 3.46774C12.5342 4.97531 11.4143 6.69198 10.5864 8.55285L10.4824 8.78163H5.63649L6.17724 8.15769ZM1.3521 20.023C1.54976 16.5766 2.64688 13.2422 4.5342 10.3519L4.63819 10.1751H9.92088L9.7441 10.6846C8.6886 13.6957 8.11309 16.8539 8.03866 20.0438V20.4077H1.3313L1.3521 20.023ZM4.81497 32.325L4.70058 32.1898C2.70194 29.2263 1.54468 25.7761 1.3521 22.2067V21.8116H8.02826V22.1756C8.11296 25.4664 8.7166 28.7232 9.81689 31.8258L10.0041 32.325H4.81497Z" fill="#1DACB0"/>
</svg>
