<svg width="57" height="47" viewBox="0 0 57 47" fill="none" xmlns="http://www.w3.org/2000/svg">
<path d="M22.5904 41.9939H37.1304C37.3213 41.9939 37.5044 41.9181 37.6395 41.7831C37.7745 41.648 37.8503 41.4649 37.8503 41.2739C37.8504 41.0821 37.7748 40.8979 37.6401 40.7613C37.5053 40.6246 37.3222 40.5466 37.1304 40.5439H22.5904C22.3967 40.5439 22.2111 40.6209 22.0742 40.7578C21.9373 40.8947 21.8604 41.0803 21.8604 41.2739C21.863 41.4658 21.941 41.6489 22.0777 41.7837C22.2143 41.9184 22.3985 41.994 22.5904 41.9939Z" fill="#1DACB0"/>
<path d="M38.2898 31.6538L35.1398 28.1238L35.0798 28.0538L34.9998 27.9938C34.9456 27.9577 34.8841 27.9339 34.8198 27.9238H34.6598H34.4798C34.4214 27.9439 34.3672 27.9744 34.3198 28.0138C34.2783 28.0453 34.2412 28.0823 34.2098 28.1238L30.9998 31.9038C30.8852 32.0516 30.8317 32.2377 30.8503 32.4238C30.8689 32.6098 30.9582 32.7817 31.0998 32.9038C31.2307 33.0075 31.3928 33.0639 31.5598 33.0638C31.6665 33.064 31.7719 33.0409 31.8686 32.9959C31.9654 32.951 32.0511 32.8854 32.1198 32.8038L33.9198 30.6138V38.0438C33.9198 38.1384 33.9384 38.232 33.9746 38.3194C34.0108 38.4067 34.0638 38.4861 34.1307 38.5529C34.1975 38.6198 34.2769 38.6728 34.3642 38.709C34.4516 38.7452 34.5452 38.7638 34.6398 38.7638C34.7343 38.7638 34.828 38.7452 34.9153 38.709C35.0027 38.6728 35.082 38.6198 35.1489 38.5529C35.2158 38.4861 35.2688 38.4067 35.305 38.3194C35.3412 38.232 35.3598 38.1384 35.3598 38.0438V30.5038L37.2498 32.6238C37.3863 32.7489 37.5647 32.8183 37.7498 32.8183C37.9349 32.8183 38.1133 32.7489 38.2498 32.6238C38.3762 32.4963 38.4505 32.3261 38.4579 32.1466C38.4653 31.9671 38.4053 31.7914 38.2898 31.6538Z" fill="#1DACB0"/>
<path d="M25.1604 38.7941C25.354 38.7941 25.5397 38.7172 25.6766 38.5803C25.8135 38.4434 25.8904 38.2577 25.8904 38.0641V30.5041L27.7804 32.6241C27.913 32.7674 28.0971 32.852 28.2921 32.8595C28.4871 32.867 28.6772 32.7967 28.8204 32.6641C28.9636 32.5315 29.0483 32.3475 29.0558 32.1524C29.0633 31.9574 28.993 31.7674 28.8604 31.6241L25.7004 28.1241L25.6404 28.0641H25.5804C25.5297 28.0282 25.4716 28.0043 25.4104 27.9941H25.2504H25.0604C25.0031 28.0164 24.9492 28.0467 24.9004 28.0841C24.8613 28.1183 24.8245 28.155 24.7904 28.1941L21.7204 31.9441C21.6034 32.091 21.5484 32.2777 21.5671 32.4645C21.5857 32.6513 21.6766 32.8234 21.8204 32.9441C21.9496 33.0508 22.1128 33.1076 22.2804 33.1041C22.3869 33.1037 22.4921 33.0802 22.5888 33.0353C22.6854 32.9905 22.7713 32.9252 22.8404 32.8441L24.6304 30.6541V38.0841C24.6269 38.2446 24.6772 38.4017 24.7732 38.5303C24.8693 38.659 25.0055 38.7518 25.1604 38.7941Z" fill="#1DACB0"/>
<path d="M56.23 28.0942L48.88 20.7542C51.0343 18.3304 52.1596 15.1628 52.0174 11.9231C51.8752 8.68348 50.4766 5.62664 48.1182 3.40096C45.7599 1.17527 42.6273 -0.044186 39.3848 0.00122421C36.1424 0.0466344 33.0451 1.35334 30.75 3.6442L30.67 3.7342H9.43C9.28774 3.7338 9.14855 3.77556 9.03 3.8542L0.32 9.7842L0.23 9.8642V9.9242V9.9842V10.0442C0.234335 10.0673 0.234335 10.0911 0.23 10.1142C0.234336 10.134 0.234336 10.1544 0.23 10.1742C0.23 10.1742 0.23 10.2542 0.23 10.2842H3.21803e-09V45.6242C-1.80017e-05 45.8161 0.0755183 46.0003 0.210264 46.1369C0.345011 46.2735 0.52813 46.3516 0.72 46.3542H41.77C41.9619 46.3516 42.145 46.2735 42.2797 46.1369C42.4145 46.0003 42.49 45.8161 42.49 45.6242V26.2442C42.49 26.0532 42.4141 25.8701 42.2791 25.7351C42.1441 25.6001 41.961 25.5242 41.77 25.5242C41.579 25.5242 41.3959 25.6001 41.2609 25.7351C41.1259 25.8701 41.05 26.0532 41.05 26.2442V44.9042H1.45V11.1142H17.45V16.1142C17.4526 16.3061 17.5307 16.4892 17.6673 16.6239C17.8039 16.7587 17.9881 16.8342 18.18 16.8342H24.34C24.531 16.8342 24.7141 16.7583 24.8491 16.6233C24.9841 16.4883 25.06 16.3052 25.06 16.1142V11.1142H27.19C26.9973 12.8546 27.1739 14.616 27.7083 16.2835C28.2426 17.951 29.1227 19.487 30.2911 20.7913C31.4594 22.0955 32.8897 23.1386 34.4886 23.8525C36.0875 24.5664 37.819 24.935 39.57 24.9342C42.6288 24.9412 45.5819 23.8155 47.86 21.7742L55.2 29.1242C55.336 29.2582 55.5191 29.3336 55.71 29.3342C55.904 29.3341 56.0903 29.2588 56.23 29.1242C56.3638 28.9861 56.4386 28.8014 56.4386 28.6092C56.4386 28.417 56.3638 28.2323 56.23 28.0942ZM22.29 5.1842L23.4 9.6642H19.14L20.46 5.1842H22.29ZM9.66 5.1842H19L17.63 9.6642H3.07L9.66 5.1842ZM23.6 15.3442H18.89V11.1142H23.6V15.3442ZM24.89 9.6642L23.79 5.1842H29.45C28.4876 6.52711 27.8072 8.0511 27.45 9.6642H24.89ZM39.57 23.4842C37.4458 23.492 35.3647 22.8845 33.5782 21.7352C31.7917 20.5859 30.3762 18.944 29.5027 17.0076C28.6292 15.0713 28.335 12.9234 28.6557 10.8235C28.9765 8.72364 29.8983 6.76152 31.31 5.1742C31.4905 5.16421 31.6607 5.08667 31.7867 4.95698C31.9127 4.82729 31.9853 4.65494 31.99 4.4742C34.0709 2.49422 36.8436 1.4067 39.7157 1.44407C42.5878 1.48145 45.3314 2.64074 47.36 4.6742C48.9101 6.21158 49.9676 8.17545 50.398 10.3158C50.8284 12.4561 50.6121 14.6761 49.7768 16.6932C48.9415 18.7102 47.5248 20.4331 45.7072 21.6424C43.8895 22.8518 41.7532 23.4929 39.57 23.4842Z" fill="#1DACB0"/>
</svg>
