<svg width="64" height="52" viewBox="0 0 64 52" fill="none" xmlns="http://www.w3.org/2000/svg">
<path d="M10.1688 51.9998C10.0022 51.9993 9.83862 51.9559 9.69385 51.8736C9.54908 51.7914 9.42808 51.6732 9.3426 51.5306C8.89772 50.9091 0 36.235 0 30.9715C0 28.2806 1.07135 25.6998 2.97838 23.797C4.8854 21.8942 7.47188 20.8252 10.1688 20.8252C12.8658 20.8252 15.4522 21.8942 17.3593 23.797C19.2663 25.6998 20.3376 28.2806 20.3376 30.9715C20.3376 36.235 11.4399 50.9091 11.0077 51.5306C10.9212 51.6751 10.7982 51.7944 10.651 51.8768C10.5038 51.9591 10.3375 52.0015 10.1688 51.9998ZM10.1688 22.8291C7.98987 22.8325 5.90132 23.6985 4.36176 25.237C2.82221 26.7755 1.95749 28.8608 1.9575 31.035C1.9575 34.5862 7.28342 44.3393 10.1688 49.2096C13.0542 44.3393 18.3801 34.5862 18.3801 31.035C18.3801 28.8608 17.5154 26.7755 15.9759 25.237C14.4363 23.6985 12.3478 22.8325 10.1688 22.8291Z" fill="#1DACB0"/>
<path d="M10.1684 36.7806C9.00887 36.7806 7.87544 36.4373 6.91153 35.7943C5.94762 35.1513 5.19656 34.2374 4.75343 33.1683C4.31029 32.0992 4.19499 30.9229 4.42212 29.7884C4.64926 28.6539 5.20861 27.6121 6.02939 26.7949C6.85016 25.9777 7.89547 25.4219 9.03299 25.1977C10.1705 24.9736 11.3491 25.0912 12.4196 25.5356C13.4901 25.9801 14.4044 26.7315 15.0468 27.6947C15.6891 28.6578 16.0307 29.7895 16.0281 30.9464C16.0248 32.4949 15.4059 33.9788 14.3074 35.0726C13.2088 36.1663 11.7203 36.7806 10.1684 36.7806ZM10.1684 27.0274C9.391 27.0249 8.63037 27.2526 7.9828 27.6817C7.33522 28.1108 6.82982 28.722 6.53059 29.4379C6.23136 30.1538 6.15176 30.9421 6.30187 31.7032C6.45199 32.4642 6.82506 33.1637 7.37385 33.7131C7.92264 34.2624 8.62246 34.637 9.38471 34.7892C10.147 34.9414 10.9373 34.8646 11.6558 34.5683C12.3742 34.2721 12.9884 33.7698 13.4205 33.125C13.8527 32.4803 14.0834 31.7221 14.0834 30.9464C14.0767 29.9136 13.6616 28.9252 12.9285 28.1961C12.1954 27.467 11.2035 27.0561 10.1684 27.0528V27.0274Z" fill="#1DACB0"/>
<path d="M55.6236 25.5054C55.4583 25.5062 55.2955 25.4646 55.1508 25.3847C55.0061 25.3047 54.8845 25.1891 54.7974 25.0488C54.022 23.7805 47.2471 12.5941 47.2471 8.35805C47.2471 6.14136 48.1296 4.01545 49.7005 2.44802C51.2714 0.880578 53.402 0 55.6236 0C57.8452 0 59.9759 0.880578 61.5468 2.44802C63.1177 4.01545 64.0002 6.14136 64.0002 8.35805C64.0002 12.5941 57.2252 23.7805 56.4499 25.0488C56.3611 25.1874 56.239 25.3018 56.0947 25.3815C55.9505 25.4613 55.7885 25.5038 55.6236 25.5054ZM55.6236 1.94049C53.9167 1.94048 52.2794 2.61621 51.0712 3.81938C49.863 5.02254 49.1825 6.65484 49.1791 8.35805C49.1791 11.1229 53.2721 18.6566 55.6236 22.6517C57.9625 18.6566 62.0554 11.1229 62.0554 8.35805C62.0521 6.65704 61.3733 5.02665 60.1679 3.82385C58.9624 2.62105 57.3284 1.94384 55.6236 1.94049Z" fill="#1DACB0"/>
<path d="M55.6233 13.2541C54.6528 13.2541 53.7042 12.967 52.8974 12.4291C52.0905 11.8911 51.4616 11.1265 51.0903 10.232C50.7189 9.33742 50.6218 8.35307 50.8111 7.40342C51.0004 6.45376 51.4677 5.58145 52.1539 4.89678C52.84 4.21212 53.7143 3.74586 54.666 3.55696C55.6178 3.36806 56.6043 3.46501 57.5009 3.83555C58.3974 4.20609 59.1637 4.83357 59.7028 5.63865C60.2419 6.44373 60.5297 7.39024 60.5297 8.3585C60.5264 9.65587 60.0083 10.8991 59.0889 11.8165C58.1695 12.7339 56.9235 13.2508 55.6233 13.2541ZM55.6233 5.3907C55.0344 5.38819 54.4581 5.56011 53.9673 5.88469C53.4765 6.20926 53.0933 6.67189 52.8662 7.21396C52.6392 7.75603 52.5784 8.35315 52.6918 8.92968C52.8051 9.50621 53.0874 10.0362 53.5028 10.4525C53.9183 10.8689 54.4483 11.1528 55.0256 11.2683C55.6029 11.3839 56.2016 11.3258 56.7458 11.1016C57.2901 10.8773 57.7554 10.497 58.0828 10.0086C58.4101 9.52031 58.5849 8.94602 58.5849 8.3585C58.5849 7.57358 58.2733 6.82063 57.7182 6.26442C57.1632 5.70821 56.4099 5.39405 55.6233 5.3907Z" fill="#1DACB0"/>
<path d="M52.7892 51.9998H10.1691C9.93041 51.9725 9.71007 51.8586 9.55012 51.6797C9.39016 51.5007 9.30176 51.2693 9.30176 51.0296C9.30176 50.7898 9.39016 50.5584 9.55012 50.3795C9.71007 50.2006 9.93041 50.0866 10.1691 50.0593H52.7892C54.0332 50.0593 55.2262 49.5663 56.1058 48.6886C56.9854 47.8109 57.4796 46.6205 57.4796 45.3793V43.4388C57.4796 42.1965 56.9858 41.0048 56.1066 40.1251C55.2273 39.2454 54.0343 38.7495 52.7892 38.7462H32.8202C32.564 38.7462 32.3183 38.6446 32.1371 38.4638C31.9559 38.2831 31.8542 38.0379 31.8542 37.7823C31.8542 37.5266 31.9559 37.2814 32.1371 37.1007C32.3183 36.9199 32.564 36.8184 32.8202 36.8184H52.7892C54.549 36.8184 56.2366 37.5159 57.481 38.7575C58.7253 39.999 59.4244 41.683 59.4244 43.4388V45.3793C59.4244 47.1352 58.7253 48.8191 57.481 50.0607C56.2366 51.3023 54.549 51.9998 52.7892 51.9998Z" fill="#1DACB0"/>
<path d="M32.8197 38.7459C31.06 38.7459 29.3723 38.0484 28.128 36.8068C26.8836 35.5652 26.1846 33.8813 26.1846 32.1254V30.1976C26.1846 28.4406 26.8832 26.7553 28.1272 25.5117C29.3712 24.2681 31.0588 23.5678 32.8197 23.5645H55.6233C55.8807 23.5678 56.1264 23.6721 56.3072 23.8549C56.488 24.0377 56.5894 24.2842 56.5893 24.541C56.5893 24.7967 56.4876 25.0419 56.3064 25.2226C56.1252 25.4034 55.8795 25.5049 55.6233 25.5049H32.8197C31.5746 25.5083 30.3816 26.0042 29.5024 26.8839C28.6231 27.7636 28.1294 28.9552 28.1294 30.1976V32.1254C28.1394 33.3612 28.6376 34.5432 29.5158 35.4146C30.3939 36.2861 31.5812 36.7768 32.8197 36.7801C33.0759 36.7801 33.3216 36.8816 33.5028 37.0624C33.684 37.2432 33.7858 37.4883 33.7858 37.744C33.7858 37.9996 33.684 38.2448 33.5028 38.4255C33.3216 38.6063 33.0759 38.7079 32.8197 38.7079V38.7459Z" fill="#1DACB0"/>
</svg>
