<svg width="53" height="53" viewBox="0 0 53 53" fill="none" xmlns="http://www.w3.org/2000/svg">
<path d="M1.65025 1.64988H46.4246V24.0115H48.0876V0.831146C48.0878 0.717506 48.0648 0.605028 48.0198 0.500657C47.9748 0.396285 47.909 0.302235 47.8263 0.224312C47.7435 0.14639 47.6457 0.0862501 47.5389 0.0476048C47.432 0.00895957 47.3184 -0.00737043 47.2049 -0.000376997H0.831523C0.610989 -0.000376997 0.399488 0.0872296 0.243547 0.24317C0.0876066 0.399111 0 0.610612 0 0.831146L0 37.2646C0 37.4852 0.0876066 37.6967 0.243547 37.8526C0.399488 38.0086 0.610989 38.0962 0.831523 38.0962H18.2168V36.4331H1.65025V1.64988Z" fill="#1DACB0"/>
<path d="M41.3973 6.62598H39.7471V20.7107H41.3973V6.62598Z" fill="#1DACB0"/>
<path d="M34.7704 6.62598H33.1201V19.8792H34.7704V6.62598Z" fill="#1DACB0"/>
<path d="M28.1571 6.62598H26.5068V21.5294H28.1571V6.62598Z" fill="#1DACB0"/>
<path d="M20.6981 6.62598H19.0479V27.3245H20.6981V6.62598Z" fill="#1DACB0"/>
<path d="M14.9032 6.62598H13.2529V27.3245H14.9032V6.62598Z" fill="#1DACB0"/>
<path d="M8.27721 6.62598H6.62695V31.4693H8.27721V6.62598Z" fill="#1DACB0"/>
<path d="M51.5544 44.5947L49.482 42.5223C49.4068 42.4437 49.3164 42.3812 49.2164 42.3385C49.1163 42.2958 49.0087 42.2738 48.8999 42.2738C48.7912 42.2738 48.6835 42.2958 48.5835 42.3385C48.4834 42.3812 48.3931 42.4437 48.3179 42.5223C48.1655 42.6777 48.0802 42.8867 48.0802 43.1043C48.0802 43.322 48.1655 43.531 48.3179 43.6864L50.3903 45.7588C50.9896 46.3759 51.3221 47.2041 51.3158 48.0644C51.3095 48.9246 50.965 49.7478 50.3567 50.3561C49.7484 50.9644 48.9251 51.309 48.0649 51.3153C47.2046 51.3215 46.3765 50.9891 45.7593 50.3897L41.768 46.3856C44.555 44.7835 46.6115 42.1623 47.5044 39.074C48.3972 35.9858 48.0567 32.6716 46.5546 29.8294C45.0525 26.9872 42.506 24.8389 39.4514 23.8369C36.3968 22.8349 33.0726 23.0575 30.1789 24.4577C27.2851 25.8579 25.0477 28.3265 23.9378 31.3435C22.8279 34.3605 22.9322 37.6906 24.2288 40.6322C25.5253 43.5739 27.9128 45.8976 30.8885 47.114C33.8642 48.3303 37.1959 48.3444 40.1817 47.1532L44.5952 51.5539C45.0448 52.0426 45.5886 52.4353 46.1938 52.7085C46.7991 52.9816 47.4533 53.1296 48.1173 53.1434C48.7812 53.1572 49.441 53.0366 50.0571 52.7889C50.6732 52.5412 51.2329 52.1715 51.7024 51.7019C52.172 51.2324 52.5417 50.6727 52.7895 50.0566C53.0372 49.4405 53.1577 48.7806 53.1439 48.1167C53.1301 47.4528 52.9822 46.7986 52.709 46.1933C52.4358 45.588 52.0431 45.0443 51.5544 44.5947ZM35.6147 46.3728C33.4833 46.3754 31.399 45.7455 29.6257 44.5629C27.8523 43.3803 26.4698 41.6981 25.6529 39.7294C24.8361 37.7606 24.6217 35.5938 25.0369 33.5032C25.4521 31.4125 26.4782 29.4921 27.9854 27.9849C29.4926 26.4777 31.4131 25.4516 33.5037 25.0364C35.5943 24.6211 37.7612 24.8355 39.7299 25.6524C41.6987 26.4692 43.3808 27.8518 44.5634 29.6251C45.746 31.3984 46.3759 33.4827 46.3734 35.6142C46.37 38.4665 45.2354 41.2011 43.2185 43.218C41.2016 45.2349 38.4671 46.3695 35.6147 46.3728Z" fill="#1DACB0"/>
</svg>
