<svg width="48" height="48" viewBox="0 0 48 48" fill="none" xmlns="http://www.w3.org/2000/svg">
<path d="M42.1544 0H5.52922C4.06483 -3.34299e-06 2.66023 0.580916 1.62364 1.61529C0.587051 2.64967 0.00312905 4.05301 0 5.51741V42.1426C0.00312135 43.6049 0.58542 45.0065 1.61946 46.0405C2.6535 47.0746 4.05506 47.6569 5.51741 47.66H42.1426C43.6049 47.6569 45.0065 47.0746 46.0405 46.0405C47.0746 45.0065 47.6569 43.6049 47.66 42.1426V5.51741C47.6569 4.0571 47.0762 2.65732 46.0447 1.62361C45.0132 0.589911 43.6147 0.00623734 42.1544 0V0ZM45.8287 5.51741V22.9203H24.8106V1.84307H42.1544C43.1289 1.84307 44.0635 2.23019 44.7526 2.91926C45.4416 3.60833 45.8287 4.54291 45.8287 5.51741ZM5.51741 1.84307H22.9203V22.9203H1.84307V5.51741C1.84307 4.54291 2.23019 3.60833 2.91926 2.91926C3.60833 2.23019 4.54291 1.84307 5.51741 1.84307ZM1.84307 42.1544V24.8106H22.9203V45.8287H5.51741C4.54291 45.8287 3.60833 45.4416 2.91926 44.7526C2.23019 44.0635 1.84307 43.1289 1.84307 42.1544ZM42.1544 45.8287H24.8106V24.8106H45.8287V42.1544C45.8287 43.1289 45.4416 44.0635 44.7526 44.7526C44.0635 45.4416 43.1289 45.8287 42.1544 45.8287Z" fill="#1DACB0"/>
<path d="M7.01756 13.457H11.2472V17.7221C11.2472 17.9665 11.3443 18.2009 11.5171 18.3737C11.6899 18.5465 11.9243 18.6436 12.1687 18.6436C12.4131 18.6436 12.6475 18.5465 12.8203 18.3737C12.9932 18.2009 13.0902 17.9665 13.0902 17.7221V13.457H17.3199C17.4488 13.4717 17.5795 13.459 17.7032 13.4196C17.8269 13.3803 17.9409 13.3153 18.0377 13.2289C18.1346 13.1424 18.2121 13.0365 18.2651 12.918C18.3182 12.7995 18.3456 12.6712 18.3456 12.5414C18.3456 12.4116 18.3182 12.2832 18.2651 12.1648C18.2121 12.0463 18.1346 11.9404 18.0377 11.8539C17.9409 11.7675 17.8269 11.7025 17.7032 11.6631C17.5795 11.6238 17.4488 11.6111 17.3199 11.6258H13.0902V7.39615C13.0902 7.15174 12.9932 6.91734 12.8203 6.74452C12.6475 6.5717 12.4131 6.47461 12.1687 6.47461C11.9243 6.47461 11.6899 6.5717 11.5171 6.74452C11.3443 6.91734 11.2472 7.15174 11.2472 7.39615V11.6258H7.01756C6.79264 11.6514 6.58501 11.7588 6.43426 11.9277C6.28351 12.0966 6.2002 12.315 6.2002 12.5414C6.2002 12.7678 6.28351 12.9862 6.43426 13.1551C6.58501 13.324 6.79264 13.4314 7.01756 13.457Z" fill="#1DACB0"/>
<path d="M13.4683 35.3377L16.4692 32.3486C16.6431 32.1747 16.7408 31.9389 16.7408 31.6929C16.7408 31.447 16.6431 31.2111 16.4692 31.0372C16.2953 30.8633 16.0594 30.7656 15.8135 30.7656C15.5676 30.7656 15.3317 30.8633 15.1578 31.0372L12.1687 34.0381L9.17962 31.0372C9.00695 30.8655 8.77333 30.7691 8.52982 30.7691C8.28631 30.7691 8.05269 30.8655 7.88002 31.0372C7.71036 31.2134 7.61558 31.4484 7.61558 31.6929C7.61558 31.9375 7.71036 32.1725 7.88002 32.3486L10.8691 35.3377L7.88002 38.3268C7.78389 38.4095 7.70587 38.5112 7.65084 38.6255C7.59581 38.7397 7.56496 38.8641 7.56022 38.9909C7.55547 39.1176 7.57694 39.2439 7.62327 39.362C7.6696 39.4801 7.73981 39.5873 7.82948 39.677C7.91916 39.7666 8.02638 39.8368 8.14444 39.8832C8.26249 39.9295 8.38884 39.951 8.51558 39.9462C8.64231 39.9415 8.7667 39.9106 8.88096 39.8556C8.99523 39.8006 9.0969 39.7226 9.17962 39.6264L12.1687 36.6255L15.1578 39.6146C15.2435 39.7014 15.3456 39.7703 15.4582 39.8174C15.5707 39.8644 15.6915 39.8886 15.8135 39.8886C15.9355 39.8886 16.0563 39.8644 16.1688 39.8174C16.2814 39.7703 16.3835 39.7014 16.4692 39.6146C16.6409 39.4419 16.7373 39.2083 16.7373 38.9648C16.7373 38.7213 16.6409 38.4877 16.4692 38.315L13.4683 35.3377Z" fill="#1DACB0"/>
<path d="M29.8197 13.4563H40.1692C40.2982 13.471 40.4288 13.4582 40.5525 13.4189C40.6762 13.3796 40.7903 13.3146 40.8871 13.2281C40.9839 13.1417 41.0614 13.0358 41.1145 12.9173C41.1675 12.7988 41.1949 12.6705 41.1949 12.5407C41.1949 12.4109 41.1675 12.2825 41.1145 12.1641C41.0614 12.0456 40.9839 11.9397 40.8871 11.8532C40.7903 11.7668 40.6762 11.7018 40.5525 11.6624C40.4288 11.6231 40.2982 11.6104 40.1692 11.625H29.8197C29.6907 11.6104 29.5601 11.6231 29.4364 11.6624C29.3126 11.7018 29.1986 11.7668 29.1018 11.8532C29.005 11.9397 28.9275 12.0456 28.8744 12.1641C28.8214 12.2825 28.7939 12.4109 28.7939 12.5407C28.7939 12.6705 28.8214 12.7988 28.8744 12.9173C28.9275 13.0358 29.005 13.1417 29.1018 13.2281C29.1986 13.3146 29.3126 13.3796 29.4364 13.4189C29.5601 13.4582 29.6907 13.471 29.8197 13.4563Z" fill="#1DACB0"/>
<path d="M39.4725 31.1549C39.3878 31.0684 39.2867 30.9998 39.1751 30.9529C39.0635 30.906 38.9437 30.8818 38.8227 30.8818C38.7017 30.8818 38.5819 30.906 38.4703 30.9529C38.3587 30.9998 38.2576 31.0684 38.1729 31.1549L30.8951 38.4327C30.8087 38.5174 30.74 38.6185 30.6931 38.73C30.6462 38.8416 30.6221 38.9614 30.6221 39.0825C30.6221 39.2035 30.6462 39.3233 30.6931 39.4349C30.74 39.5465 30.8087 39.6476 30.8951 39.7323C30.9798 39.8187 31.0809 39.8874 31.1925 39.9343C31.3041 39.9812 31.4239 40.0053 31.5449 40.0053C31.666 40.0053 31.7858 39.9812 31.8973 39.9343C32.0089 39.8874 32.11 39.8187 32.1947 39.7323L39.4725 32.4545C39.559 32.3698 39.6276 32.2687 39.6745 32.1571C39.7214 32.0455 39.7456 31.9257 39.7456 31.8047C39.7456 31.6837 39.7214 31.5638 39.6745 31.4523C39.6276 31.3407 39.559 31.2396 39.4725 31.1549Z" fill="#1DACB0"/>
<path d="M33.3765 31.8998C33.3789 31.5348 33.2728 31.1773 33.0717 30.8727C32.8706 30.568 32.5836 30.3299 32.247 30.1886C31.9104 30.0473 31.5395 30.0091 31.1812 30.0789C30.8229 30.1487 30.4934 30.3233 30.2345 30.5806C29.9755 30.8378 29.7988 31.1662 29.7267 31.5241C29.6546 31.8819 29.6904 32.2531 29.8296 32.5906C29.9687 32.928 30.2049 33.2166 30.5083 33.4196C30.8116 33.6227 31.1684 33.7311 31.5335 33.7311C31.7749 33.7326 32.0143 33.6864 32.2379 33.5951C32.4614 33.5037 32.6647 33.3691 32.836 33.1989C33.0073 33.0287 33.1433 32.8263 33.236 32.6033C33.3288 32.3804 33.3765 32.1413 33.3765 31.8998Z" fill="#1DACB0"/>
<path d="M38.3977 36.9327C38.0355 36.9327 37.6814 37.0401 37.3803 37.2413C37.0791 37.4425 36.8444 37.7285 36.7058 38.0631C36.5672 38.3977 36.5309 38.7659 36.6016 39.1212C36.6723 39.4764 36.8467 39.8027 37.1028 40.0588C37.3589 40.3149 37.6852 40.4893 38.0404 40.56C38.3956 40.6306 38.7638 40.5944 39.0985 40.4558C39.4331 40.3172 39.7191 40.0825 39.9203 39.7813C40.1215 39.4802 40.2289 39.1261 40.2289 38.7639C40.2305 38.523 40.1842 38.2842 40.0927 38.0613C40.0013 37.8384 39.8664 37.6359 39.6961 37.4655C39.5257 37.2952 39.3232 37.1603 39.1003 37.0689C38.8774 36.9774 38.6386 36.9311 38.3977 36.9327Z" fill="#1DACB0"/>
</svg>
