<svg width="44" height="46" viewBox="0 0 44 46" fill="none" xmlns="http://www.w3.org/2000/svg">
<path d="M43.2031 14.7622C43.1239 14.7622 43.0455 14.7779 42.9723 14.8082C42.8991 14.8385 42.8326 14.8829 42.7766 14.9389C42.7206 14.9949 42.6762 15.0614 42.6458 15.1346C42.6155 15.2078 42.5999 15.2862 42.5999 15.3654V44.5934H1.21656V1.13477H31.1398V11.9815C31.1398 12.1442 31.2044 12.3002 31.3194 12.4153C31.4345 12.5303 31.5905 12.5949 31.7531 12.5949H43.2031H43.3667C43.4144 12.5831 43.4596 12.5623 43.4996 12.5336L43.612 12.4211C43.6452 12.3771 43.6727 12.329 43.6938 12.278C43.6984 12.227 43.6984 12.1757 43.6938 12.1247C43.6938 12.1247 43.6938 12.0531 43.6938 12.0122C43.6814 11.9597 43.6643 11.9083 43.6427 11.8589C43.6145 11.8104 43.5801 11.7657 43.5405 11.726L32.1825 0.0920085L32.0496 0H31.8963H0.603167C0.456995 0.000782736 0.315908 0.0537397 0.205323 0.14933C0.0947374 0.244921 0.0219239 0.376861 0 0.521381L0 45.2068C0.00263109 45.366 0.0670235 45.5179 0.179574 45.6304C0.292124 45.743 0.444018 45.8074 0.603167 45.81H43.2031C43.364 45.81 43.5185 45.7468 43.6333 45.634C43.748 45.5211 43.8138 45.3677 43.8165 45.2068V15.3654C43.8165 15.2853 43.8006 15.2061 43.7696 15.1322C43.7387 15.0584 43.6933 14.9914 43.6362 14.9353C43.5791 14.8791 43.5114 14.8349 43.4371 14.8052C43.3627 14.7755 43.2832 14.7609 43.2031 14.7622ZM32.3563 11.3784V1.96285L41.7412 11.3477L32.3563 11.3784Z" fill="#1DACB0"/>
<path d="M8.2398 13.6476C8.84639 13.6476 9.43935 13.4677 9.94371 13.1307C10.4481 12.7937 10.8412 12.3147 11.0733 11.7543C11.3054 11.1939 11.3662 10.5772 11.2478 9.98229C11.1295 9.38736 10.8374 8.84088 10.4085 8.41196C9.97954 7.98304 9.43306 7.69094 8.83813 7.5726C8.2432 7.45426 7.62654 7.515 7.06613 7.74713C6.50572 7.97926 6.02673 8.37236 5.68973 8.87672C5.35273 9.38107 5.17285 9.97404 5.17285 10.5806C5.17285 11.394 5.49598 12.1741 6.07114 12.7493C6.6463 13.3244 7.4264 13.6476 8.2398 13.6476ZM8.2398 8.72001C8.6078 8.72001 8.96753 8.82913 9.2735 9.03358C9.57948 9.23802 9.81796 9.52861 9.95879 9.8686C10.0996 10.2086 10.1365 10.5827 10.0647 10.9436C9.99287 11.3045 9.81567 11.6361 9.55546 11.8963C9.29524 12.1565 8.96371 12.3337 8.60279 12.4055C8.24187 12.4773 7.86776 12.4404 7.52777 12.2996C7.18779 12.1588 6.8972 11.9203 6.69276 11.6143C6.48831 11.3083 6.37918 10.9486 6.37918 10.5806C6.38187 10.088 6.57876 9.61629 6.92711 9.26794C7.27547 8.91958 7.74716 8.72269 8.2398 8.72001Z" fill="#1DACB0"/>
<path d="M8.2398 21.9083C8.84639 21.9083 9.43935 21.7284 9.94371 21.3914C10.4481 21.0544 10.8412 20.5754 11.0733 20.015C11.3054 19.4546 11.3662 18.838 11.2478 18.243C11.1295 17.6481 10.8374 17.1016 10.4085 16.6727C9.97954 16.2438 9.43306 15.9517 8.83813 15.8333C8.2432 15.715 7.62654 15.7757 7.06613 16.0079C6.50572 16.24 6.02673 16.6331 5.68973 17.1375C5.35273 17.6418 5.17285 18.2348 5.17285 18.8414C5.17285 19.6548 5.49598 20.4349 6.07114 21.01C6.6463 21.5852 7.4264 21.9083 8.2398 21.9083ZM8.2398 16.9807C8.60823 16.9808 8.96836 17.0901 9.27456 17.295C9.58075 17.4999 9.81922 17.7911 9.95974 18.1317C10.1003 18.4723 10.1365 18.8469 10.0639 19.2081C9.99126 19.5693 9.81303 19.9008 9.5518 20.1606C9.29056 20.4204 8.95808 20.5968 8.59648 20.6675C8.23489 20.7381 7.86046 20.6998 7.52066 20.5574C7.18086 20.415 6.89099 20.1749 6.68777 19.8676C6.48456 19.5603 6.37716 19.1996 6.37918 18.8311C6.38189 18.3394 6.57911 17.8688 6.92775 17.5221C7.27639 17.1754 7.7481 16.9807 8.2398 16.9807Z" fill="#1DACB0"/>
<path d="M8.2398 30.588C8.84639 30.588 9.43935 30.4081 9.94371 30.0711C10.4481 29.7341 10.8412 29.2551 11.0733 28.6947C11.3054 28.1343 11.3662 27.5176 11.2478 26.9227C11.1295 26.3278 10.8374 25.7813 10.4085 25.3524C9.97954 24.9235 9.43306 24.6314 8.83813 24.513C8.2432 24.3947 7.62654 24.4554 7.06613 24.6876C6.50572 24.9197 6.02673 25.3128 5.68973 25.8171C5.35273 26.3215 5.17285 26.9145 5.17285 27.5211C5.17285 28.3345 5.49598 29.1145 6.07114 29.6897C6.6463 30.2649 7.4264 30.588 8.2398 30.588ZM8.2398 25.6604C8.6078 25.6604 8.96753 25.7696 9.2735 25.974C9.57948 26.1785 9.81796 26.469 9.95879 26.809C10.0996 27.149 10.1365 27.5231 10.0647 27.884C9.99287 28.245 9.81567 28.5765 9.55546 28.8367C9.29524 29.0969 8.96371 29.2741 8.60279 29.3459C8.24187 29.4177 7.86776 29.3809 7.52777 29.24C7.18779 29.0992 6.8972 28.8607 6.69276 28.5548C6.48831 28.2488 6.37918 27.889 6.37918 27.5211C6.37648 27.275 6.42261 27.0309 6.5149 26.8027C6.6072 26.5746 6.74382 26.3671 6.91686 26.1922C7.08991 26.0172 7.29594 25.8783 7.52302 25.7836C7.7501 25.6888 7.99373 25.64 8.2398 25.64V25.6604Z" fill="#1DACB0"/>
<path d="M13.6076 12.5945H27.3884C27.5362 12.5753 27.6719 12.503 27.7702 12.391C27.8686 12.2791 27.9228 12.1352 27.9228 11.9862C27.9228 11.8372 27.8686 11.6933 27.7702 11.5814C27.6719 11.4694 27.5362 11.3971 27.3884 11.3779H13.6076C13.4599 11.3971 13.3241 11.4694 13.2258 11.5814C13.1275 11.6933 13.0732 11.8372 13.0732 11.9862C13.0732 12.1352 13.1275 12.2791 13.2258 12.391C13.3241 12.503 13.4599 12.5753 13.6076 12.5945Z" fill="#1DACB0"/>
<path d="M38.705 19.9766H13.6072C13.5271 19.9766 13.4478 19.9925 13.374 20.0234C13.3001 20.0544 13.2331 20.0997 13.177 20.1568C13.1209 20.2139 13.0766 20.2816 13.0469 20.356C13.0172 20.4304 13.0026 20.5099 13.004 20.59C13.0026 20.6695 13.0173 20.7486 13.0471 20.8224C13.0769 20.8962 13.1213 20.9633 13.1776 21.0195C13.2339 21.0758 13.3009 21.1202 13.3747 21.15C13.4485 21.1798 13.5276 21.1945 13.6072 21.1931H38.705C38.865 21.1931 39.0184 21.1296 39.1315 21.0165C39.2446 20.9033 39.3082 20.7499 39.3082 20.59C39.3082 20.429 39.245 20.2745 39.1322 20.1598C39.0193 20.0451 38.8659 19.9792 38.705 19.9766Z" fill="#1DACB0"/>
<path d="M38.705 28.543H13.6072C13.5271 28.543 13.4478 28.5589 13.374 28.5898C13.3001 28.6208 13.2331 28.6661 13.177 28.7232C13.1209 28.7803 13.0766 28.848 13.0469 28.9224C13.0172 28.9968 13.0026 29.0763 13.004 29.1564C13.0026 29.2359 13.0173 29.315 13.0471 29.3888C13.0769 29.4626 13.1213 29.5297 13.1776 29.5859C13.2339 29.6422 13.3009 29.6866 13.3747 29.7164C13.4485 29.7463 13.5276 29.7609 13.6072 29.7595H38.705C38.865 29.7595 39.0184 29.696 39.1315 29.5829C39.2446 29.4697 39.3082 29.3163 39.3082 29.1564C39.3082 28.9954 39.245 28.8409 39.1322 28.7262C39.0193 28.6115 38.8659 28.5457 38.705 28.543Z" fill="#1DACB0"/>
<path d="M13.6072 38.4598H38.705C38.8659 38.4571 39.0193 38.3913 39.1322 38.2766C39.245 38.1618 39.3082 38.0073 39.3082 37.8464C39.3082 37.7672 39.2926 37.6888 39.2623 37.6156C39.232 37.5424 39.1875 37.4759 39.1315 37.4199C39.0755 37.3639 39.009 37.3195 38.9359 37.2892C38.8627 37.2589 38.7842 37.2433 38.705 37.2433H13.6072C13.5276 37.2419 13.4485 37.2565 13.3747 37.2863C13.3009 37.3162 13.2339 37.3605 13.1776 37.4168C13.1213 37.4731 13.0769 37.5402 13.0471 37.614C13.0173 37.6878 13.0026 37.7668 13.004 37.8464C13.0026 37.9265 13.0172 38.006 13.0469 38.0804C13.0766 38.1547 13.1209 38.2225 13.177 38.2796C13.2331 38.3366 13.3001 38.382 13.374 38.4129C13.4478 38.4439 13.5271 38.4598 13.6072 38.4598Z" fill="#1DACB0"/>
<path d="M13.2905 31.6714C13.1758 31.559 13.0217 31.4961 12.8611 31.4961C12.7006 31.4961 12.5464 31.559 12.4318 31.6714L10.1315 34.1966C9.66236 33.8293 9.09635 33.6066 8.50267 33.5558C7.90899 33.5049 7.31336 33.6281 6.78857 33.9103L6.27741 33.1538C6.18448 33.0222 6.04425 32.9317 5.88607 32.9012C5.7279 32.8707 5.56407 32.9026 5.42889 32.9902C5.29683 33.083 5.20667 33.2242 5.17796 33.383C5.14926 33.5418 5.18432 33.7056 5.27554 33.8387L5.84804 34.6873C5.40706 35.231 5.16536 35.9092 5.16309 36.6092C5.16701 37.0748 5.27689 37.5334 5.48441 37.9503C5.69193 38.3671 5.99162 38.7312 6.36078 39.0149C6.72994 39.2987 7.15886 39.4947 7.61503 39.5881C8.07119 39.6814 8.54263 39.6697 8.99358 39.5537C9.44454 39.4378 9.86318 39.2207 10.2178 38.9189C10.5723 38.6171 10.8535 38.2386 11.0401 37.8119C11.2266 37.3853 11.3135 36.9218 11.2943 36.4566C11.275 35.9914 11.1501 35.5366 10.929 35.1269L13.2905 32.5302C13.3474 32.4741 13.3925 32.4072 13.4234 32.3335C13.4542 32.2598 13.4701 32.1807 13.4701 32.1008C13.4701 32.0209 13.4542 31.9418 13.4234 31.8681C13.3925 31.7944 13.3474 31.7275 13.2905 31.6714ZM8.24026 34.7384C8.60577 34.7446 8.96134 34.8584 9.26258 35.0655L8.24026 36.0878L7.40196 34.8611C7.67028 34.7649 7.9567 34.73 8.24026 34.7588V34.7384ZM10.1009 36.5888C10.1009 37.0822 9.90485 37.5555 9.55591 37.9044C9.20698 38.2534 8.73372 38.4494 8.24026 38.4494C7.74679 38.4494 7.27354 38.2534 6.9246 37.9044C6.57567 37.5555 6.37964 37.0822 6.37964 36.5888C6.38443 36.2976 6.45429 36.0112 6.58411 35.7505L7.73932 37.4475C7.78575 37.5267 7.84935 37.5944 7.92543 37.6457C8.00151 37.697 8.08814 37.7306 8.17892 37.744C8.34859 37.741 8.51024 37.6712 8.62874 37.5498L9.95775 36.1083C10.0305 36.2671 10.0788 36.436 10.1009 36.6092V36.5888Z" fill="#1DACB0"/>
</svg>
