<svg width="123" height="26" viewBox="0 0 123 26" fill="none" xmlns="http://www.w3.org/2000/svg">
<path d="M55.4479 20.6014H53.3661L53.2794 20.4279H54.1793C54.2657 20.4294 54.3514 20.4136 54.4316 20.3815C54.5118 20.3495 54.5848 20.3018 54.6464 20.2413C54.7079 20.1807 54.7568 20.1085 54.7902 20.0288C54.8236 19.9492 54.8407 19.8637 54.8407 19.7774V0.759058C54.8407 0.672704 54.8236 0.587211 54.7902 0.507566C54.7568 0.42792 54.7079 0.355714 54.6464 0.29516C54.5848 0.234605 54.5118 0.186912 54.4316 0.154863C54.3514 0.122814 54.2657 0.10705 54.1793 0.108489H2.01453C1.92819 0.10705 1.84243 0.122814 1.76224 0.154863C1.68205 0.186912 1.60905 0.234605 1.54749 0.29516C1.48592 0.355714 1.43703 0.42792 1.40366 0.507566C1.37029 0.587211 1.35311 0.672704 1.35312 0.759058V19.8099C1.35311 19.8962 1.37029 19.9817 1.40366 20.0614C1.43703 20.141 1.48592 20.2132 1.54749 20.2738C1.60905 20.3343 1.68205 20.382 1.76224 20.4141C1.84243 20.4461 1.92819 20.4619 2.01453 20.4605H2.91449L2.82774 20.6014H0.745923C0.6527 20.5894 0.557987 20.5974 0.468097 20.6249C0.378207 20.6523 0.295205 20.6987 0.224623 20.7607C0.154041 20.8228 0.0974991 20.8992 0.0587665 20.9848C0.0200339 21.0705 0 21.1634 0 21.2574C0 21.3514 0.0200339 21.4443 0.0587665 21.5299C0.0974991 21.6156 0.154041 21.692 0.224623 21.7541C0.295205 21.8161 0.378207 21.8625 0.468097 21.8899C0.557987 21.9174 0.6527 21.9254 0.745923 21.9134H3.21809C3.33637 21.9133 3.45237 21.8809 3.55363 21.8197C3.65488 21.7586 3.73756 21.671 3.79275 21.5664L4.42164 20.4605H5.09389C4.84493 20.9588 4.71502 21.5081 4.71439 22.0652C4.71439 22.5465 4.80919 23.023 4.99336 23.4677C5.17754 23.9123 5.44749 24.3163 5.78781 24.6566C6.12812 24.997 6.53214 25.2669 6.97678 25.4511C7.42142 25.6353 7.89799 25.7301 8.37926 25.7301C8.86054 25.7301 9.33711 25.6353 9.78175 25.4511C10.2264 25.2669 10.6304 24.997 10.9707 24.6566C11.311 24.3163 11.581 23.9123 11.7652 23.4677C11.9493 23.023 12.0441 22.5465 12.0441 22.0652C12.0435 21.5081 11.9136 20.9588 11.6646 20.4605H12.7489C12.5 20.9588 12.37 21.5081 12.3694 22.0652C12.3694 23.0372 12.7555 23.9693 13.4428 24.6566C14.1301 25.3439 15.0623 25.7301 16.0343 25.7301C17.0063 25.7301 17.9384 25.3439 18.6257 24.6566C19.313 23.9693 19.6992 23.0372 19.6992 22.0652C19.6985 21.5081 19.5686 20.9588 19.3197 20.4605H36.8742C36.6252 20.9588 36.4953 21.5081 36.4947 22.0652C36.4947 22.5465 36.5895 23.023 36.7737 23.4677C36.9578 23.9123 37.2278 24.3163 37.5681 24.6566C37.9084 24.997 38.3124 25.2669 38.7571 25.4511C39.2017 25.6353 39.6783 25.7301 40.1596 25.7301C40.6408 25.7301 41.1174 25.6353 41.562 25.4511C42.0067 25.2669 42.4107 24.997 42.751 24.6566C43.0913 24.3163 43.3613 23.9123 43.5455 23.4677C43.7296 23.023 43.8244 22.5465 43.8244 22.0652C43.8272 21.509 43.701 20.9597 43.4558 20.4605H44.5401C44.2911 20.9588 44.1612 21.5081 44.1606 22.0652C44.1606 23.0372 44.5467 23.9693 45.234 24.6566C45.9213 25.3439 46.8534 25.7301 47.8254 25.7301C48.7974 25.7301 49.7296 25.3439 50.4169 24.6566C51.1042 23.9693 51.4903 23.0372 51.4903 22.0652C51.4897 21.5081 51.3598 20.9588 51.1108 20.4605H51.7831L52.4011 21.5989C52.4563 21.7036 52.539 21.7911 52.6402 21.8523C52.7415 21.9134 52.8575 21.9458 52.9758 21.9459H55.4479C55.5411 21.9579 55.6359 21.9499 55.7257 21.9225C55.8156 21.895 55.8986 21.8487 55.9692 21.7866C56.0398 21.7245 56.0963 21.6481 56.1351 21.5625C56.1738 21.4768 56.1938 21.3839 56.1938 21.2899C56.1938 21.1959 56.1738 21.103 56.1351 21.0174C56.0963 20.9317 56.0398 20.8553 55.9692 20.7933C55.8986 20.7312 55.8156 20.6849 55.7257 20.6574C55.6359 20.6299 55.5411 20.6219 55.4479 20.6339V20.6014ZM2.6651 1.42047H53.5287V19.1485H2.6651V1.42047ZM10.7213 22.0218C10.7263 22.4083 10.6361 22.7901 10.4585 23.1335C10.2809 23.4768 10.0214 23.7711 9.70305 23.9903C9.38469 24.2095 9.01721 24.3469 8.63312 24.3904C8.24903 24.4338 7.86014 24.382 7.50085 24.2394C7.14155 24.0969 6.82292 23.868 6.5731 23.573C6.32329 23.278 6.15 22.9261 6.06856 22.5482C5.98711 22.1703 6.00001 21.7782 6.10612 21.4065C6.21223 21.0348 6.40828 20.695 6.67694 20.4171H10.0599C10.4852 20.8602 10.7223 21.451 10.7213 22.0652V22.0218ZM18.3872 22.0218C18.3922 22.4083 18.3019 22.7901 18.1243 23.1335C17.9467 23.4768 17.6873 23.7711 17.3689 23.9903C17.0506 24.2095 16.6831 24.3469 16.299 24.3904C15.9149 24.4338 15.526 24.382 15.1667 24.2394C14.8074 24.0969 14.4888 23.868 14.239 23.573C13.9892 23.278 13.8159 22.9261 13.7344 22.5482C13.653 22.1703 13.6659 21.7782 13.772 21.4065C13.8781 21.0348 14.0742 20.695 14.3428 20.4171H17.7149C18.1482 20.8559 18.3899 21.4485 18.3872 22.0652V22.0218ZM42.5124 22.0218C42.5124 22.6458 42.2646 23.2443 41.8233 23.6856C41.382 24.1268 40.7836 24.3747 40.1596 24.3747C39.5355 24.3747 38.9371 24.1268 38.4958 23.6856C38.0546 23.2443 37.8067 22.6458 37.8067 22.0218C37.8153 21.4202 38.0561 20.8452 38.4789 20.4171H41.851C42.2764 20.8602 42.5134 21.451 42.5124 22.0652V22.0218ZM50.1783 22.0218C50.1833 22.4083 50.0931 22.7901 49.9155 23.1335C49.7379 23.4768 49.4784 23.7711 49.16 23.9903C48.8417 24.2095 48.4742 24.3469 48.0901 24.3904C47.706 24.4338 47.3171 24.382 46.9578 24.2394C46.5986 24.0969 46.2799 23.868 46.0301 23.573C45.7803 23.278 45.607 22.9261 45.5256 22.5482C45.4441 22.1703 45.457 21.7782 45.5631 21.4065C45.6692 21.0348 45.8653 20.695 46.1339 20.4171H49.5169C49.9422 20.8602 50.1793 21.451 50.1783 22.0652V22.0218Z" fill="#1DACB0"/>
<path d="M47.7932 3.95801C47.6197 3.95798 47.4531 4.02618 47.3294 4.14788C47.2056 4.26958 47.1347 4.43505 47.1318 4.60858V15.6466C47.1429 15.8144 47.2174 15.9717 47.3403 16.0865C47.4631 16.2013 47.6251 16.265 47.7932 16.2646C47.9658 16.2646 48.1313 16.1961 48.2533 16.0741C48.3753 15.9521 48.4438 15.7866 48.4438 15.614V4.60858C48.4438 4.43603 48.3753 4.27056 48.2533 4.14856C48.1313 4.02655 47.9658 3.95801 47.7932 3.95801Z" fill="#1DACB0"/>
<path d="M41.1028 3.9581C41.0165 3.95666 40.9307 3.97242 40.8505 4.00447C40.7703 4.03652 40.6973 4.08421 40.6358 4.14477C40.5742 4.20532 40.5253 4.27753 40.4919 4.35717C40.4586 4.43682 40.4414 4.52231 40.4414 4.60867V15.6467C40.4619 15.8061 40.5399 15.9526 40.6606 16.0588C40.7813 16.165 40.9366 16.2236 41.0974 16.2236C41.2582 16.2236 41.4134 16.165 41.5342 16.0588C41.6549 15.9526 41.7328 15.8061 41.7534 15.6467V4.60867C41.7534 4.43613 41.6848 4.27065 41.5628 4.14865C41.4408 4.02664 41.2754 3.9581 41.1028 3.9581Z" fill="#1DACB0"/>
<path d="M34.3802 3.9581C34.2938 3.95666 34.2081 3.97242 34.1279 4.00447C34.0477 4.03652 33.9747 4.08421 33.9131 4.14477C33.8516 4.20532 33.8027 4.27753 33.7693 4.35717C33.7359 4.43682 33.7187 4.52231 33.7188 4.60867V15.6467C33.7393 15.8061 33.8172 15.9526 33.938 16.0588C34.0587 16.165 34.214 16.2236 34.3747 16.2236C34.5355 16.2236 34.6908 16.165 34.8115 16.0588C34.9323 15.9526 35.0102 15.8061 35.0307 15.6467V4.60867C35.0307 4.43613 34.9622 4.27065 34.8402 4.14865C34.7182 4.02664 34.5527 3.9581 34.3802 3.9581Z" fill="#1DACB0"/>
<path d="M27.6575 3.9581C27.5712 3.95666 27.4854 3.97242 27.4052 4.00447C27.325 4.03652 27.252 4.08421 27.1905 4.14477C27.1289 4.20532 27.08 4.27753 27.0466 4.35717C27.0133 4.43682 26.9961 4.52231 26.9961 4.60867V15.6467C27.0166 15.8061 27.0946 15.9526 27.2153 16.0588C27.336 16.165 27.4913 16.2236 27.6521 16.2236C27.8129 16.2236 27.9681 16.165 28.0889 16.0588C28.2096 15.9526 28.2875 15.8061 28.3081 15.6467V4.60867C28.3081 4.52323 28.2912 4.43864 28.2586 4.35971C28.2259 4.28077 28.1779 4.20906 28.1175 4.14865C28.0571 4.08823 27.9854 4.04031 27.9065 4.00762C27.8275 3.97493 27.7429 3.9581 27.6575 3.9581Z" fill="#1DACB0"/>
<path d="M20.9348 3.9581C20.8485 3.95666 20.7627 3.97242 20.6826 4.00447C20.6024 4.03652 20.5294 4.08421 20.4678 4.14477C20.4062 4.20532 20.3573 4.27753 20.324 4.35717C20.2906 4.43682 20.2734 4.52231 20.2734 4.60867V15.6467C20.294 15.8061 20.3719 15.9526 20.4926 16.0588C20.6134 16.165 20.7686 16.2236 20.9294 16.2236C21.0902 16.2236 21.2455 16.165 21.3662 16.0588C21.4869 15.9526 21.5649 15.8061 21.5854 15.6467V4.60867C21.5854 4.43613 21.5169 4.27065 21.3949 4.14865C21.2729 4.02664 21.1074 3.9581 20.9348 3.9581Z" fill="#1DACB0"/>
<path d="M14.1799 3.9581C14.0073 3.9581 13.8418 4.02664 13.7198 4.14865C13.5978 4.27065 13.5293 4.43613 13.5293 4.60867V15.6467C13.5498 15.8061 13.6278 15.9526 13.7485 16.0588C13.8692 16.165 14.0245 16.2236 14.1853 16.2236C14.3461 16.2236 14.5013 16.165 14.6221 16.0588C14.7428 15.9526 14.8207 15.8061 14.8413 15.6467V4.60867C14.8413 4.52231 14.8241 4.43682 14.7907 4.35717C14.7574 4.27753 14.7085 4.20532 14.6469 4.14477C14.5853 4.08421 14.5123 4.03652 14.4322 4.00447C14.352 3.97242 14.2662 3.95666 14.1799 3.9581Z" fill="#1DACB0"/>
<path d="M7.47967 3.9581C7.30713 3.9581 7.14165 4.02664 7.01965 4.14865C6.89764 4.27065 6.8291 4.43613 6.8291 4.60867V15.6467C6.84965 15.8061 6.92757 15.9526 7.0483 16.0588C7.16904 16.165 7.32431 16.2236 7.48509 16.2236C7.64587 16.2236 7.80115 16.165 7.92188 16.0588C8.04261 15.9526 8.12054 15.8061 8.14108 15.6467V4.60867C8.14109 4.52231 8.12391 4.43682 8.09054 4.35717C8.05717 4.27753 8.00828 4.20532 7.94672 4.14477C7.88515 4.08421 7.81215 4.03652 7.73196 4.00447C7.65178 3.97242 7.56601 3.95666 7.47967 3.9581Z" fill="#1DACB0"/>
<path d="M122.608 23.4422L120.147 19.5171V9.60675C120.148 9.48957 120.117 9.37432 120.058 9.27316C119.999 9.17201 119.913 9.08872 119.811 9.03208L115.669 6.72256L113.782 0.46626C113.742 0.330816 113.659 0.21207 113.546 0.127959C113.432 0.0438483 113.294 -0.00105953 113.153 1.89817e-05H61.1076C60.659 1.89817e-05 60.2287 0.178228 59.9115 0.495442C59.5943 0.812656 59.4161 1.24289 59.4161 1.6915V19.7014C59.4147 19.7878 59.4304 19.8735 59.4625 19.9537C59.4945 20.0339 59.5422 20.1069 59.6028 20.1685C59.6633 20.23 59.7355 20.2789 59.8152 20.3123C59.8948 20.3457 59.9803 20.3628 60.0667 20.3628H63.146C62.8914 20.8596 62.7577 21.4094 62.7557 21.9676C62.7492 22.524 62.8691 23.0747 63.1064 23.5781C63.3437 24.0815 63.6922 24.5244 64.1257 24.8735C64.5591 25.2226 65.0661 25.4687 65.6085 25.5932C66.151 25.7177 66.7146 25.7175 67.2569 25.5925C67.7992 25.4675 68.306 25.2209 68.7391 24.8715C69.1723 24.5221 69.5204 24.0788 69.7573 23.5753C69.9942 23.0717 70.1136 22.5209 70.1066 21.9644C70.0996 21.4079 69.9663 20.8603 69.7168 20.3628H70.8011C70.5464 20.8596 70.4127 21.4094 70.4107 21.9676C70.4618 22.9065 70.8707 23.7901 71.5534 24.4367C72.2361 25.0833 73.1407 25.4437 74.081 25.4437C75.0213 25.4437 75.9259 25.0833 76.6086 24.4367C77.2913 23.7901 77.7002 22.9065 77.7513 21.9676C77.7493 21.4094 77.6156 20.8596 77.361 20.3628H78.9332V23.5615C78.9332 23.7369 79.0029 23.9051 79.1269 24.0291C79.2509 24.1532 79.4192 24.2229 79.5946 24.2229H99.2309C99.4063 24.2229 99.5746 24.1532 99.6986 24.0291C99.8227 23.9051 99.8923 23.7369 99.8923 23.5615V20.3628H101.465C101.21 20.8596 101.076 21.4094 101.074 21.9676C101.125 22.9065 101.534 23.7901 102.217 24.4367C102.9 25.0833 103.804 25.4437 104.744 25.4437C105.685 25.4437 106.589 25.0833 107.272 24.4367C107.955 23.7901 108.364 22.9065 108.415 21.9676C108.413 21.4094 108.279 20.8596 108.024 20.3628H109.109C108.881 20.8577 108.767 21.3972 108.774 21.9419C108.781 22.4866 108.909 23.0229 109.149 23.5117C109.39 24.0006 109.736 24.4297 110.163 24.7678C110.59 25.106 111.088 25.3447 111.619 25.4665C112.15 25.5883 112.701 25.5903 113.233 25.4722C113.765 25.354 114.263 25.1189 114.693 24.7837C115.122 24.4486 115.472 24.0219 115.715 23.5347C115.959 23.0476 116.091 22.5122 116.102 21.9676C116.1 21.4094 115.967 20.8596 115.712 20.3628H119.149L120.873 23.1386H119.301L119.106 22.8025C119.064 22.7273 119.008 22.6613 118.94 22.6084C118.873 22.5554 118.795 22.5167 118.712 22.4944C118.629 22.4722 118.542 22.4668 118.457 22.4788C118.372 22.4907 118.29 22.5197 118.217 22.5639C118.066 22.6522 117.957 22.7963 117.912 22.9648C117.868 23.1333 117.891 23.3127 117.978 23.4639L118.358 24.1253C118.418 24.2237 118.503 24.3051 118.603 24.362C118.704 24.4189 118.817 24.4493 118.932 24.4506H122.055C122.173 24.4504 122.289 24.4181 122.391 24.3569C122.492 24.2958 122.575 24.2082 122.63 24.1036C122.688 24.0022 122.717 23.8866 122.713 23.7698C122.709 23.653 122.673 23.5395 122.608 23.4422ZM68.8168 21.9676C68.7763 22.5654 68.5102 23.1255 68.0724 23.5346C67.6346 23.9437 67.0577 24.1713 66.4585 24.1713C65.8593 24.1713 65.2825 23.9437 64.8447 23.5346C64.4069 23.1255 64.1408 22.5654 64.1002 21.9676C64.1065 21.3655 64.3477 20.7897 64.7725 20.3628H68.1446C68.5693 20.7897 68.8105 21.3655 68.8168 21.9676ZM76.4827 21.9676C76.4421 22.5654 76.176 23.1255 75.7382 23.5346C75.3004 23.9437 74.7236 24.1713 74.1244 24.1713C73.5252 24.1713 72.9483 23.9437 72.5105 23.5346C72.0727 23.1255 71.8066 22.5654 71.7661 21.9676C71.7724 21.3655 72.0136 20.7897 72.4383 20.3628H75.8104C76.2351 20.7897 76.4764 21.3655 76.4827 21.9676ZM107.103 21.9676C107.062 22.5654 106.796 23.1255 106.358 23.5346C105.921 23.9437 105.344 24.1713 104.744 24.1713C104.145 24.1713 103.568 23.9437 103.131 23.5346C102.693 23.1255 102.427 22.5654 102.386 21.9676C102.401 21.3608 102.654 20.7844 103.091 20.3628H106.463C106.876 20.7948 107.105 21.37 107.103 21.9676ZM114.769 21.9676C114.728 22.5654 114.462 23.1255 114.024 23.5346C113.586 23.9437 113.01 24.1713 112.41 24.1713C111.811 24.1713 111.234 23.9437 110.797 23.5346C110.359 23.1255 110.093 22.5654 110.052 21.9676C110.058 21.3655 110.3 20.7897 110.724 20.3628H114.096C114.521 20.7897 114.762 21.3655 114.769 21.9676ZM118.835 19.0508H99.2309C99.0584 19.0508 98.8929 19.1194 98.7709 19.2414C98.6489 19.3634 98.5803 19.5289 98.5803 19.7014V22.9543H80.3211V19.7014C80.3211 19.5289 80.2525 19.3634 80.1305 19.2414C80.0085 19.1194 79.843 19.0508 79.6705 19.0508H60.804V1.70234C60.804 1.60169 60.844 1.50516 60.9151 1.43399C60.9863 1.36283 61.0828 1.32284 61.1835 1.32284H112.709L114.237 6.50571H105.672L104.999 3.14444C104.99 3.05249 104.962 2.96349 104.916 2.88317C104.87 2.80284 104.808 2.73298 104.734 2.67809C104.66 2.62319 104.575 2.58448 104.485 2.56444C104.394 2.5444 104.301 2.54349 104.21 2.56176C104.12 2.58003 104.034 2.61707 103.959 2.6705C103.883 2.72393 103.82 2.79257 103.773 2.87198C103.725 2.9514 103.695 3.03983 103.684 3.13157C103.673 3.22332 103.682 3.31635 103.709 3.40466L104.49 7.29723C104.518 7.44654 104.597 7.5814 104.714 7.67844C104.83 7.77548 104.978 7.82857 105.129 7.82853H114.953L118.835 9.99709V19.0508Z" fill="#1DACB0"/>
<path d="M94.0047 5.29102H85.7425C85.567 5.29102 85.3988 5.3607 85.2748 5.48474C85.1507 5.60878 85.0811 5.77701 85.0811 5.95243C85.0811 6.12784 85.1507 6.29608 85.2748 6.42012C85.3988 6.54415 85.567 6.61384 85.7425 6.61384H94.0155C94.1909 6.61384 94.3592 6.54415 94.4832 6.42012C94.6073 6.29608 94.6769 6.12784 94.6769 5.95243C94.6769 5.77701 94.6073 5.60878 94.4832 5.48474C94.3592 5.3607 94.1909 5.29102 94.0155 5.29102H94.0047Z" fill="#1DACB0"/>
<path d="M77.2206 5.29102H68.9475C68.7721 5.29102 68.6039 5.3607 68.4799 5.48474C68.3558 5.60878 68.2861 5.77701 68.2861 5.95243C68.2861 6.12784 68.3558 6.29608 68.4799 6.42012C68.6039 6.54415 68.7721 6.61384 68.9475 6.61384H77.2206C77.396 6.61384 77.5643 6.54415 77.6883 6.42012C77.8123 6.29608 77.882 6.12784 77.882 5.95243C77.882 5.77701 77.8123 5.60878 77.6883 5.48474C77.5643 5.3607 77.396 5.29102 77.2206 5.29102Z" fill="#1DACB0"/>
</svg>
