<svg width="40" height="58" viewBox="0 0 40 58" fill="none" xmlns="http://www.w3.org/2000/svg">
<path d="M36.1985 48.9298C38.9348 45.0959 40.2206 40.4148 39.8269 35.7211C39.4331 31.0274 37.3853 26.626 34.0485 23.3016C33.923 23.1761 33.7529 23.1056 33.5755 23.1056C33.398 23.1056 33.2279 23.1761 33.1025 23.3016C32.977 23.427 32.9065 23.5971 32.9065 23.7746C32.9065 23.952 32.977 24.1221 33.1025 24.2476C36.1656 27.3185 38.0575 31.3646 38.4502 35.6843C38.8429 40.0039 37.7116 44.3248 35.2525 47.8978H30.4257C31.5958 44.7518 32.2176 41.4284 32.2639 38.0722H35.79C35.9535 38.0515 36.1039 37.9718 36.2129 37.8481C36.3219 37.7244 36.3821 37.5652 36.3821 37.4003C36.3821 37.2355 36.3219 37.0762 36.2129 36.9525C36.1039 36.8289 35.9535 36.7492 35.79 36.7284H32.2639C32.2181 33.2954 31.5705 29.8971 30.3504 26.6878C31.4254 24.8281 32.5004 22.7748 33.4895 20.7645C34.7787 18.305 35.7884 15.7088 36.4995 13.0245C36.647 12.4189 36.7263 11.7987 36.736 11.1754C36.7345 10.3257 36.6408 9.47865 36.4565 8.64916C35.8353 5.97622 34.2527 3.62512 32.0101 2.04357C29.7675 0.462013 27.0216 -0.23952 24.2952 0.072559C21.5688 0.384638 19.0524 1.68853 17.2252 3.73594C15.398 5.78335 14.3877 8.43126 14.3865 11.1754C14.6195 13.4844 15.2601 15.7337 16.2785 17.819C15.2932 17.9951 14.3228 18.2466 13.376 18.5715C10.4913 19.5749 7.8759 21.2281 5.73203 23.4035C3.58817 25.5789 1.97325 28.2181 1.01209 31.1172C0.0509287 34.0162 -0.23072 37.0975 0.188911 40.1228C0.608543 43.148 1.71822 46.0363 3.43216 48.5643C3.43238 48.7071 3.48 48.8458 3.56755 48.9587C3.6551 49.0715 3.77762 49.1521 3.91591 49.1878C5.70326 51.6289 8.02343 53.6304 10.7002 55.0405C13.3769 56.4506 16.3398 57.2321 19.3638 57.3256H19.9121C23.0614 57.3238 26.1654 56.5744 28.9687 55.1391C31.772 53.7038 34.1946 51.6236 36.0372 49.0696C36.104 49.0406 36.1603 48.9918 36.1985 48.9298ZM28.8454 48.3601V48.4353C26.8889 52.9181 23.6639 55.8851 20.1486 55.9926V49.2738H24.4486C24.6122 49.2531 24.7626 49.1734 24.8716 49.0497C24.9806 48.926 25.0407 48.7668 25.0407 48.6019C25.0407 48.4371 24.9806 48.2779 24.8716 48.1542C24.7626 48.0305 24.6122 47.9508 24.4486 47.93H20.1486V38.0722H30.8987C30.8803 41.6014 30.1832 45.0942 28.8454 48.3601ZM1.37888 38.0722H7.6247C7.67426 41.4405 8.30337 44.7752 9.48447 47.93H4.63617C2.63015 45.0232 1.49972 41.602 1.37888 38.0722ZM4.47492 27.1071H9.37696C8.2629 30.213 7.67433 33.4828 7.63545 36.7822H1.37888C1.49529 33.3327 2.56711 29.9833 4.47492 27.1071ZM18.8263 23.0866C18.8212 23.1258 18.8212 23.1656 18.8263 23.2048V25.7848H15.3433C15.1797 25.8056 15.0293 25.8852 14.9203 26.0089C14.8113 26.1326 14.7512 26.2918 14.7512 26.4567C14.7512 26.6216 14.8113 26.7808 14.9203 26.9045C15.0293 27.0282 15.1797 27.1079 15.3433 27.1286H18.8048V36.8037H8.97921C9.15121 28.7519 12.4515 21.7535 17.0418 19.6035C17.6008 20.6785 18.2028 21.8933 18.8263 23.0866ZM20.2668 25.7848H20.1486V25.5698C20.1815 25.6449 20.2211 25.7168 20.2668 25.7848ZM8.96846 38.0722H18.8048V47.93H10.9035C9.66679 44.7884 9.01114 41.4482 8.96846 38.0722ZM18.8048 49.2738V55.8851C15.8808 55.3691 13.29 52.8966 11.4947 49.2631L18.8048 49.2738ZM30.9309 36.7284H20.1808V27.1071H21.0516C23.0941 30.7191 24.8679 33.4927 25.0399 33.7722C25.1011 33.8677 25.1854 33.9463 25.2849 34.0008C25.3845 34.0553 25.4961 34.0838 25.6096 34.0839C25.7217 34.084 25.8319 34.0554 25.9297 34.0009C26.0276 33.9463 26.1099 33.8676 26.1686 33.7722C26.1686 33.7722 27.6844 31.3964 29.5227 28.2036C30.4253 30.9565 30.9002 33.8315 30.9309 36.7284ZM25.5559 1.32834C27.7813 1.31984 29.9431 2.07037 31.6844 3.45604C33.4258 4.84171 34.6427 6.77971 35.1342 8.95016C35.2978 9.68065 35.3807 10.4269 35.3815 11.1754C35.3717 11.701 35.3032 12.2238 35.1772 12.7342C34.4816 15.3131 33.5047 17.8078 32.2639 20.1733C29.9204 25.0323 26.8244 30.0849 25.5774 32.1489C22.8106 27.7083 20.2982 23.1142 18.0523 18.3888C16.7515 15.5292 15.8163 12.8955 15.8163 11.2292C15.802 8.62311 16.8213 6.11763 18.651 4.26178C20.4806 2.40592 22.9714 1.35106 25.5774 1.32834H25.5559ZM13.8275 19.84L14.2038 19.7218C12.3348 21.3871 10.8651 23.452 9.90372 25.7633H5.45318C7.63337 23.0421 10.5355 20.9894 13.8275 19.84ZM5.65743 49.2738H10.0542C11.0257 51.5098 12.4751 53.5059 14.3005 55.1219C10.9209 54.0363 7.9221 52.0072 5.65743 49.2738ZM25.5989 55.1219C27.4433 53.511 28.9112 51.5146 29.8989 49.2738H34.2957C32.0132 52.0121 28.9958 54.0411 25.5989 55.1219Z" fill="#1DACB0"/>
<path d="M24.5987 17.4746C24.9159 17.5175 25.2355 17.5391 25.5555 17.5391C26.7394 17.5358 27.9011 17.2182 28.9221 16.6189C29.943 16.0195 30.7865 15.1598 31.3663 14.1276C31.9462 13.0955 32.2416 11.9279 32.2224 10.7442C32.2032 9.56047 31.8701 8.40307 31.2571 7.39026C30.6441 6.37746 29.7732 5.54556 28.7333 4.9796C27.6935 4.41363 26.5221 4.13389 25.3387 4.16895C24.1554 4.20401 23.0025 4.55263 21.998 5.17917C20.9935 5.8057 20.1734 6.6877 19.6214 7.73503C19.5804 7.81406 19.5554 7.90042 19.5477 7.98914C19.5401 8.07787 19.5501 8.16723 19.577 8.2521C19.604 8.33698 19.6474 8.4157 19.7049 8.48377C19.7623 8.55184 19.8326 8.60791 19.9117 8.64879C19.9899 8.68959 20.0755 8.71445 20.1634 8.72192C20.2513 8.7294 20.3398 8.71935 20.4238 8.69235C20.5078 8.66535 20.5856 8.62194 20.6527 8.56463C20.7198 8.50733 20.7749 8.43727 20.8147 8.35853C21.4047 7.23573 22.3727 6.35775 23.5476 5.87985C24.7225 5.40195 26.0285 5.35492 27.2348 5.74709C28.441 6.13926 29.4697 6.94535 30.1389 8.02281C30.8081 9.10027 31.0747 10.3797 30.8916 11.6348C30.7085 12.8898 30.0874 14.0397 29.1383 14.8811C28.1891 15.7224 26.973 16.201 25.705 16.2322C24.437 16.2634 23.1989 15.8452 22.2095 15.0515C21.2201 14.2578 20.5433 13.1399 20.2987 11.8953C20.2818 11.8092 20.248 11.7273 20.1994 11.6542C20.1508 11.5811 20.0883 11.5183 20.0154 11.4694C19.9425 11.4205 19.8607 11.3864 19.7747 11.3691C19.6887 11.3518 19.6 11.3516 19.5139 11.3686C19.4278 11.3855 19.3459 11.4192 19.2728 11.4678C19.1997 11.5165 19.1369 11.579 19.088 11.6518C19.0391 11.7247 19.005 11.8065 18.9877 11.8926C18.9704 11.9786 18.9702 12.0672 18.9872 12.1533C19.256 13.5123 19.9404 14.7543 20.9456 15.7075C21.9509 16.6608 23.2274 17.2782 24.5987 17.4746Z" fill="#1DACB0"/>
</svg>
