<svg width="120" height="88" viewBox="0 0 120 88" fill="none" xmlns="http://www.w3.org/2000/svg">
<path d="M75.1862 59.7469L65.3339 40.9348C64.3768 39.1076 62.2835 37.9258 59.9975 37.9258H53.9584C52.6848 37.9258 51.5138 38.5539 50.9021 39.5662C50.3621 40.4585 50.3272 41.5415 50.8102 42.4647L60.3807 60.7387C60.9634 61.8517 60.9634 63.0789 60.3807 64.192L50.8102 82.466C50.3272 83.3883 50.3611 84.4713 50.9021 85.3645C51.5138 86.3758 52.6848 87.0049 53.9584 87.0049H59.9975C62.2815 87.0049 64.3758 85.8242 65.3339 83.9969L75.1862 65.1847C76.0901 63.4534 76.0901 61.4724 75.1862 59.7467V59.7469ZM72.727 63.8939L62.8767 82.706C62.3928 83.6303 61.2634 84.2264 59.9995 84.2264H53.9605C53.615 84.2264 53.3682 84.0755 53.2782 83.9255C53.2298 83.8432 53.2433 83.8045 53.2714 83.7522L62.842 65.4782C63.8446 63.5639 63.8446 61.3659 62.842 59.4508L53.2724 41.1768C53.2443 41.1245 53.2298 41.0839 53.2791 41.0016C53.3691 40.8516 53.6159 40.7006 53.9614 40.7006H60.0005C61.2645 40.7006 62.3939 41.2987 62.8777 42.223L72.73 61.0351C73.211 61.9555 73.211 62.9707 72.7271 63.894L72.727 63.8939Z" fill="white"/>
<path d="M97.1172 59.7469L87.265 40.9348C86.3078 39.1076 84.2126 37.9258 81.9285 37.9258H75.8895C74.6158 37.9258 73.4448 38.5539 72.8312 39.5662C72.2911 40.4585 72.2563 41.5415 72.7412 42.4647L82.3107 60.7387C82.8934 61.8517 82.8934 63.0779 82.3107 64.191L72.7412 82.465C72.2582 83.3873 72.2921 84.4703 72.8312 85.3635C73.4428 86.3748 74.6138 87.0039 75.8895 87.0039H81.9285C84.2125 87.0039 86.3069 85.8232 87.265 83.9959L97.1172 65.1837C98.0211 63.4533 98.0211 61.4724 97.1172 59.7467V59.7469ZM94.66 63.8939L84.8077 82.706C84.3238 83.6303 83.1944 84.2264 81.9285 84.2264H75.8895C75.543 84.2264 75.2972 84.0755 75.2052 83.9255C75.1568 83.8451 75.1704 83.8045 75.1985 83.7522L84.7681 65.4782C85.7726 63.562 85.7726 61.3659 84.7681 59.4498L75.1994 41.1758C75.1714 41.1235 75.1578 41.0829 75.2062 41.0006C75.2982 40.8506 75.543 40.6996 75.8905 40.6996H81.9295C83.1944 40.6996 84.3239 41.2977 84.8087 42.222L94.661 61.0341C95.1429 61.9555 95.1429 62.9707 94.66 63.894L94.66 63.8939Z" fill="white"/>
<path d="M119.046 59.7469L109.194 40.9348C108.237 39.1076 106.144 37.9258 103.857 37.9258H97.8184C96.5458 37.9258 95.3738 38.5539 94.7621 39.5662C94.2221 40.4585 94.1872 41.5415 94.6702 42.4647L104.241 60.7387C104.823 61.8517 104.823 63.0789 104.241 64.192L94.6702 82.466C94.1872 83.3883 94.2221 84.4713 94.7621 85.3645C95.3738 86.3758 96.5448 87.0049 97.8184 87.0049H103.857C106.142 87.0049 108.236 85.8242 109.194 83.9969L119.046 65.1847C119.95 63.4534 119.95 61.4724 119.046 59.7467V59.7469ZM116.587 63.8939L106.737 82.706C106.253 83.6303 105.123 84.2264 103.86 84.2264H97.8205C97.475 84.2264 97.2282 84.0755 97.1382 83.9255C97.0898 83.8432 97.1033 83.8035 97.1314 83.7522L106.702 65.4782C107.705 63.5639 107.705 61.3659 106.702 59.4508L97.1324 41.1768C97.1043 41.1245 97.0898 41.0839 97.1392 41.0016C97.2292 40.8516 97.476 40.7006 97.8214 40.7006H103.861C105.124 40.7006 106.254 41.2987 106.738 42.223L116.59 61.0351C117.07 61.9555 117.07 62.9707 116.587 63.894L116.587 63.8939Z" fill="white"/>
<path d="M44.7758 77.3154C28.4142 79.3381 12.4089 70.1701 5.86315 55.0134C1.90202 45.8407 1.74916 35.6747 5.43344 26.3876C9.11882 17.0997 16.1982 9.80524 25.3692 5.84213C44.3022 -2.33384 66.3605 6.41507 74.5365 25.348C75.1133 26.6826 75.6156 28.0617 76.0317 29.4427C76.2533 30.1782 77.0305 30.5914 77.7602 30.3708C78.4938 30.1501 78.91 29.3759 78.6883 28.6423C78.2412 27.1586 77.7021 25.6799 77.0827 24.2466C68.299 3.90628 44.6019 -5.49162 24.266 3.29383C14.4157 7.55128 6.80983 15.3883 2.85341 25.3635C-1.10401 35.3396 -0.94024 46.2603 3.31505 56.1125C9.69776 70.887 24.444 80.3667 40.258 80.3667C41.8684 80.3667 43.4905 80.2679 45.1153 80.0667C45.876 79.9728 46.415 79.2798 46.3221 78.5182C46.2283 77.7594 45.5402 77.2146 44.7746 77.3142L44.7758 77.3154Z" fill="white"/>
<path d="M39.2773 19.0095C38.5853 19.025 38.0095 19.5467 37.9272 20.2328L34.9095 45.6973C34.7363 47.1683 35.2202 48.6277 36.2403 49.701C37.1839 50.693 38.4778 51.2466 39.8347 51.2466C39.946 51.2466 40.0583 51.2427 40.1686 51.2359C41.539 51.1459 42.8223 50.481 43.6895 49.4155C44.5566 48.3499 44.9447 46.9602 44.7521 45.5696L40.6748 20.177C40.5645 19.4947 39.9112 18.9721 39.2773 19.0108L39.2773 19.0095ZM41.5371 47.6651C41.15 48.1422 40.5974 48.4267 39.9848 48.4683C39.3257 48.5041 38.7015 48.2641 38.2505 47.7909C37.8014 47.3166 37.5856 46.6731 37.664 46.0246L39.5125 30.4373L42.0084 45.982C42.0935 46.5917 41.9251 47.1889 41.537 47.665L41.5371 47.6651Z" fill="white"/>
<path d="M48.2635 23.3343C48.2635 23.8143 48.5122 24.2808 48.9574 24.5373C49.1771 24.6631 49.4152 24.7231 49.6494 24.7231C50.1294 24.7231 50.5959 24.4744 50.8524 24.0292L55.1205 16.6371C58.4922 18.7595 61.3917 21.6039 63.6061 25.0232L56.1048 29.3532C55.6596 29.6116 55.4109 30.0762 55.4109 30.5562C55.4109 30.7923 55.4709 31.0304 55.5967 31.2482C55.8551 31.6934 56.3196 31.9421 56.7997 31.9421C57.0339 31.9421 57.2729 31.8821 57.4917 31.7563L65.0016 27.4205C65.3897 28.1754 65.7575 28.9458 66.0807 29.7432C66.3682 30.4526 67.1773 30.7962 67.8876 30.5078C68.598 30.2203 68.9406 29.4113 68.6522 28.7009C63.9478 17.0863 52.8121 9.58203 40.2791 9.58203C23.4064 9.58203 9.67871 23.3092 9.67871 40.1824C9.67871 57.0556 23.4059 70.7828 40.2791 70.7828C42.8719 70.7828 45.45 70.4567 47.9402 69.8141C48.6825 69.6224 49.1297 68.8666 48.938 68.1243C48.7464 67.382 47.9877 66.9368 47.2483 67.1265C45.2265 67.6482 43.1419 67.9259 41.0397 67.983V59.9056C41.0397 59.1401 40.4184 58.5178 39.6519 58.5178C38.8864 58.5178 38.2641 59.1391 38.2641 59.9056V67.9045C34.267 67.6161 30.4957 66.5031 27.141 64.6982L31.0539 57.9209C31.1797 57.7031 31.2397 57.4641 31.2397 57.2289C31.2397 56.7489 30.9909 56.2824 30.5458 56.0259C29.878 55.6417 29.0331 55.8701 28.6508 56.534L24.7633 63.267C21.5637 61.1098 18.8558 58.2906 16.7867 55.0271L23.4006 51.2092C23.8458 50.9508 24.0945 50.4863 24.0945 50.0062C24.0945 49.7701 24.0345 49.532 23.9087 49.3143C23.5245 48.6513 22.6757 48.4219 22.0138 48.8061L15.4222 52.6114C13.7382 49.2581 12.7222 45.5234 12.5264 41.5699H20.1286C20.8941 41.5699 21.5164 40.9486 21.5164 40.1821C21.5164 39.4166 20.8951 38.7943 20.1286 38.7943H12.5264C12.7239 34.8302 13.743 31.0885 15.4346 27.7285L22.1134 31.584C22.3331 31.7099 22.5711 31.7699 22.8053 31.7699C23.2854 31.7699 23.7519 31.5211 24.0083 31.076C24.1341 30.8582 24.1941 30.6191 24.1941 30.384C24.1941 29.9039 23.9454 29.4375 23.5002 29.181L16.8021 25.3147C18.8877 22.0339 21.6217 19.2061 24.8493 17.0469L28.824 23.9318C29.0824 24.377 29.547 24.6257 30.027 24.6257C30.2612 24.6257 30.5012 24.5657 30.719 24.4399C31.1642 24.1815 31.4129 23.7159 31.4129 23.2359C31.4129 23.0017 31.3529 22.7627 31.2271 22.5439L27.231 15.6231C31.1255 13.5462 35.5658 12.3587 40.2789 12.3587C44.7018 12.3587 48.928 13.3981 52.7016 15.2738L48.4481 22.6425C48.3233 22.8603 48.2633 23.0994 48.2633 23.3355L48.2635 23.3343Z" fill="white"/>
</svg>
