<svg width="64" height="47" viewBox="0 0 64 47" fill="none" xmlns="http://www.w3.org/2000/svg">
<path d="M39.9495 31.7456L34.7147 21.7501C34.2061 20.7793 33.0939 20.1514 31.8793 20.1514H28.6705C27.9938 20.1514 27.3716 20.4851 27.0466 21.023C26.7597 21.4971 26.7411 22.0725 26.9977 22.563L32.0829 32.2726C32.3925 32.864 32.3925 33.516 32.0829 34.1074L26.9977 43.817C26.7411 44.307 26.7591 44.8824 27.0466 45.357C27.3716 45.8944 27.9938 46.2286 28.6705 46.2286H31.8793C33.0928 46.2286 34.2056 45.6013 34.7147 44.6304L39.9495 34.6349C40.4298 33.715 40.4298 32.6624 39.9495 31.7455V31.7456ZM38.6429 33.949L33.4091 43.9445C33.152 44.4356 32.5519 44.7523 31.8803 44.7523H28.6716C28.488 44.7523 28.3569 44.6721 28.3091 44.5924C28.2834 44.5487 28.2906 44.5282 28.3055 44.5004L33.3906 34.7908C33.9234 33.7737 33.9234 32.6059 33.3906 31.5883L28.306 21.8787C28.2911 21.8509 28.2834 21.8293 28.3096 21.7856C28.3574 21.7059 28.4885 21.6257 28.6721 21.6257H31.8809C32.5524 21.6257 33.1525 21.9435 33.4096 22.4346L38.6444 32.4301C38.9 32.9191 38.9 33.4585 38.6429 33.9491L38.6429 33.949Z" fill="#1DACB0"/>
<path d="M51.6011 31.7456L46.3663 21.7501C45.8577 20.7793 44.7445 20.1514 43.5309 20.1514H40.3221C39.6454 20.1514 39.0232 20.4851 38.6971 21.023C38.4102 21.4971 38.3917 22.0725 38.6493 22.563L43.7339 32.2726C44.0435 32.864 44.0435 33.5155 43.7339 34.1069L38.6493 43.8164C38.3927 44.3065 38.4107 44.8819 38.6971 45.3565C39.0221 45.8939 39.6443 46.2281 40.3221 46.2281H43.5309C44.7444 46.2281 45.8572 45.6008 46.3663 44.6299L51.6011 34.6344C52.0814 33.7149 52.0814 32.6624 51.6011 31.7455V31.7456ZM50.2955 33.949L45.0607 43.9445C44.8035 44.4356 44.2034 44.7523 43.5309 44.7523H40.3221C40.138 44.7523 40.0074 44.6721 39.9586 44.5924C39.9329 44.5498 39.9401 44.5282 39.955 44.5004L45.0396 34.7908C45.5733 33.7727 45.5733 32.6059 45.0396 31.5877L39.9555 21.8782C39.9406 21.8504 39.9334 21.8288 39.9591 21.7851C40.0079 21.7054 40.138 21.6252 40.3226 21.6252H43.5314C44.2035 21.6252 44.8036 21.943 45.0612 22.4341L50.296 32.4295C50.5521 32.9191 50.5521 33.4585 50.2955 33.9491L50.2955 33.949Z" fill="#1DACB0"/>
<path d="M63.2525 31.7456L58.0177 21.7501C57.5091 20.7793 56.3969 20.1514 55.1823 20.1514H51.9736C51.2974 20.1514 50.6746 20.4851 50.3496 21.023C50.0627 21.4971 50.0442 22.0725 50.3008 22.563L55.3859 32.2726C55.6955 32.864 55.6955 33.516 55.3859 34.1074L50.3008 43.817C50.0442 44.307 50.0627 44.8824 50.3496 45.357C50.6746 45.8944 51.2968 46.2286 51.9736 46.2286H55.1823C56.3959 46.2286 57.5087 45.6013 58.0177 44.6304L63.2525 34.6349C63.7328 33.715 63.7328 32.6624 63.2525 31.7455V31.7456ZM61.9459 33.949L56.7121 43.9445C56.455 44.4356 55.8549 44.7523 55.1834 44.7523H51.9746C51.7911 44.7523 51.6599 44.6721 51.6121 44.5924C51.5864 44.5487 51.5936 44.5276 51.6085 44.5004L56.6937 34.7908C57.2264 33.7737 57.2264 32.6059 56.6937 31.5883L51.609 21.8787C51.5941 21.8509 51.5864 21.8293 51.6126 21.7856C51.6605 21.7059 51.7916 21.6257 51.9752 21.6257H55.1839C55.8555 21.6257 56.4556 21.9435 56.7127 22.4346L61.9475 32.4301C62.2025 32.9191 62.2025 33.4585 61.9459 33.9491L61.9459 33.949Z" fill="#1DACB0"/>
<path d="M23.7908 41.0801C15.0973 42.1548 6.59322 37.2836 3.11528 29.2303C1.0106 24.3566 0.929381 18.9551 2.88696 14.0205C4.84511 9.0856 8.60662 5.20983 13.4794 3.1041C23.5392 -1.24004 35.2594 3.40852 39.6035 13.4682C39.91 14.1773 40.1769 14.91 40.398 15.6438C40.5158 16.0346 40.9287 16.2542 41.3164 16.1369C41.7062 16.0197 41.9273 15.6083 41.8096 15.2185C41.572 14.4302 41.2856 13.6445 40.9565 12.883C36.2894 2.07553 23.6984 -2.91787 12.8933 1.75011C7.65951 4.01223 3.61827 8.17629 1.5161 13.4764C-0.586594 18.7771 -0.499579 24.5795 1.76139 29.8143C5.15272 37.6645 12.9878 42.7013 21.3903 42.7013C22.246 42.7013 23.1079 42.6489 23.9712 42.5419C24.3753 42.492 24.6618 42.1238 24.6124 41.7192C24.5625 41.316 24.1969 41.0265 23.7902 41.0795L23.7908 41.0801Z" fill="#1DACB0"/>
<path d="M20.8698 10.101C20.5022 10.1092 20.1962 10.3864 20.1525 10.751L18.5491 24.281C18.4571 25.0626 18.7142 25.838 19.2562 26.4083C19.7575 26.9354 20.445 27.2295 21.166 27.2295C21.2251 27.2295 21.2848 27.2275 21.3434 27.2239C22.0716 27.176 22.7534 26.8228 23.2142 26.2566C23.6749 25.6904 23.8811 24.952 23.7788 24.2132L21.6124 10.7213C21.5538 10.3588 21.2067 10.0811 20.8698 10.1017L20.8698 10.101ZM22.0705 25.3266C21.8649 25.5801 21.5712 25.7312 21.2457 25.7534C20.8955 25.7724 20.5639 25.6449 20.3242 25.3934C20.0856 25.1414 19.971 24.7995 20.0126 24.4549L20.9948 16.1729L22.3209 24.4323C22.3662 24.7563 22.2767 25.0735 22.0705 25.3265L22.0705 25.3266Z" fill="#1DACB0"/>
<path d="M25.6443 12.3978C25.6443 12.6529 25.7765 12.9007 26.013 13.037C26.1298 13.1038 26.2563 13.1357 26.3807 13.1357C26.6358 13.1357 26.8836 13.0036 27.0199 12.767L29.2877 8.8394C31.0792 9.96708 32.6198 11.4784 33.7964 13.2952L29.8107 15.5959C29.5741 15.7332 29.442 15.98 29.442 16.235C29.442 16.3605 29.4739 16.487 29.5407 16.6027C29.678 16.8393 29.9248 16.9714 30.1799 16.9714C30.3043 16.9714 30.4314 16.9395 30.5476 16.8727L34.5379 14.569C34.7441 14.9701 34.9395 15.3794 35.1112 15.8031C35.264 16.18 35.6938 16.3626 36.0713 16.2093C36.4487 16.0566 36.6308 15.6267 36.4775 15.2493C33.9779 9.07809 28.0612 5.09082 21.402 5.09082C12.437 5.09082 5.14307 12.3845 5.14307 21.3498C5.14307 30.315 12.4368 37.6087 21.402 37.6087C22.7796 37.6087 24.1495 37.4354 25.4726 37.094C25.867 36.9922 26.1046 36.5906 26.0028 36.1961C25.9009 35.8017 25.4978 35.5652 25.1049 35.666C24.0307 35.9432 22.9231 36.0907 21.8062 36.1211V31.8293C21.8062 31.4226 21.476 31.0919 21.0688 31.0919C20.662 31.0919 20.3314 31.4221 20.3314 31.8293V36.0793C18.2076 35.9261 16.2038 35.3348 14.4213 34.3758L16.5003 30.7747C16.5672 30.659 16.5991 30.532 16.5991 30.4071C16.5991 30.152 16.4669 29.9042 16.2304 29.7679C15.8756 29.5637 15.4266 29.6851 15.2235 30.0379L13.158 33.6153C11.458 32.4691 10.0191 30.9712 8.91979 29.2372L12.4339 27.2086C12.6705 27.0713 12.8026 26.8245 12.8026 26.5695C12.8026 26.444 12.7708 26.3175 12.7039 26.2018C12.4998 25.8495 12.0488 25.7277 11.6971 25.9318L8.19476 27.9537C7.30001 26.1719 6.76014 24.1876 6.65615 22.087H10.6954C11.1022 22.087 11.4328 21.7569 11.4328 21.3496C11.4328 20.9428 11.1027 20.6122 10.6954 20.6122H6.65615C6.76105 18.5059 7.30253 16.5179 8.20135 14.7326L11.75 16.7812C11.8667 16.848 11.9932 16.8799 12.1177 16.8799C12.3727 16.8799 12.6206 16.7478 12.7568 16.5112C12.8237 16.3955 12.8556 16.2685 12.8556 16.1435C12.8556 15.8885 12.7234 15.6406 12.4869 15.5044L8.92796 13.4501C10.0361 11.7069 11.4888 10.2044 13.2037 9.05712L15.3156 12.7153C15.4529 12.9518 15.6997 13.084 15.9547 13.084C16.0792 13.084 16.2067 13.0521 16.3224 12.9853C16.559 12.8479 16.6911 12.6006 16.6911 12.3456C16.6911 12.2211 16.6592 12.0941 16.5924 11.9779L14.4692 8.30063C16.5384 7.19711 18.8977 6.56613 21.4019 6.56613C23.7519 6.56613 25.9975 7.1184 28.0025 8.11502L25.7425 12.0303C25.6761 12.146 25.6443 12.273 25.6443 12.3985L25.6443 12.3978Z" fill="#1DACB0"/>
</svg>
