<svg width="50" height="43" viewBox="0 0 50 43" fill="none" xmlns="http://www.w3.org/2000/svg">
<path d="M29.8497 27.0118H43.24C43.9431 27.0118 44.6266 26.8572 45.2507 26.5634C47.7981 25.6121 49.5625 23.1048 49.5625 20.2632C49.5625 16.9552 47.1866 14.1831 44.0299 13.6192C44.0303 13.5845 44.0303 13.5494 44.0303 13.5146C44.0303 7.8142 39.4305 3.19336 33.7561 3.19336C32.8762 3.19336 32.0107 3.30465 31.1742 3.52228C28.7831 1.28753 25.6391 0.0175781 22.2965 0.0175781C16.3822 0.0175781 11.2718 4.00436 9.72728 9.61569C5.43274 10.1647 2.14303 13.8505 2.14303 18.2786C2.14303 18.3303 2.14338 18.3817 2.14444 18.4331C2.63521 18.0772 3.17682 17.7873 3.7575 17.5768C4.09445 14.1146 6.89583 11.3571 10.4036 11.1462L10.9946 11.1104L11.1269 10.5312C12.3116 5.34474 16.9276 1.60576 22.2961 1.60576C25.3748 1.60576 28.2588 2.82998 30.394 4.97227L30.731 5.31041L31.1857 5.16934C32.0106 4.91308 32.874 4.78159 33.7557 4.78159C38.5568 4.78159 42.4492 8.69179 42.4492 13.515C42.4492 13.7627 42.439 14.0091 42.4185 14.2536L42.3511 15.0635L43.1587 15.1124C45.8602 15.2758 47.9815 17.5307 47.9815 20.2635C47.9815 22.4366 46.6322 24.3545 44.6385 25.1009C44.1639 25.3214 43.7099 25.4241 43.2395 25.4241H30.188C30.1527 25.9756 30.0366 26.5098 29.85 27.012L29.8497 27.0118ZM29.0139 25.0641C29.0139 26.9274 27.8436 28.5653 26.1846 29.1402C25.7976 29.3067 25.3795 29.3936 24.9508 29.3936H6.0157C2.9881 29.3936 0.5625 26.9253 0.5625 23.8856C0.5625 21.1702 2.50334 18.8947 5.07788 18.4546C6.08552 15.0923 9.15683 12.7208 12.7034 12.7208C14.687 12.7208 16.5566 13.4616 18.0013 14.7684C18.4632 14.6614 18.9388 14.6064 19.4211 14.6064C22.865 14.6064 25.665 17.3902 25.7681 20.8591C27.6394 21.3241 29.014 23.0388 29.014 25.0642L29.0139 25.0641ZM24.9508 27.8057C25.1646 27.8057 25.3714 27.7628 25.6148 27.66C26.692 27.2854 27.4333 26.248 27.4333 25.0641C27.4333 23.6103 26.3222 22.414 24.9128 22.3275L24.1069 22.2783L24.1732 21.4698C24.1845 21.3333 24.1902 21.1954 24.1902 21.0572C24.1902 18.3691 22.0528 16.1943 19.4211 16.1943C18.9381 16.1943 18.4653 16.2673 18.014 16.4091L17.5543 16.5537L17.216 16.2095C16.0248 14.9995 14.4184 14.3087 12.7034 14.3087C9.71183 14.3087 7.13693 16.4215 6.47505 19.3555L6.34415 19.9365L5.75212 19.9726C3.73297 20.0956 2.14312 21.8072 2.14312 23.8856C2.14312 26.053 3.86592 27.8057 5.98569 27.8057H24.9506L24.9508 27.8057ZM29.8042 25.4239H42.4493V27.0118H29.8042V25.4239ZM33.44 19.5699L31.4731 25.5464H33.5547L31.2952 35.63L39.3406 25.5011L37.1958 25.5461L39.3406 19.5696L33.44 19.5699ZM42.5707 23.8431L28.1345 42.0176L31.4694 27.1341H29.1764L32.1884 17.9815H41.4817L39.3541 23.9102L42.5707 23.8431Z" fill="#BB925F"/>
</svg>
