<svg width="53" height="41" viewBox="0 0 53 41" fill="none" xmlns="http://www.w3.org/2000/svg">
<path d="M51.7415 25.9339H51.6493L51.6489 1.71643C51.6489 1.26273 51.2816 0.89502 50.8275 0.89502H1.73417C1.28009 0.89502 0.91276 1.26273 0.91276 1.71643V25.9339H0.821406C0.367331 25.9339 0 26.3017 0 26.7553V30.4881C0 30.9418 0.367331 31.3095 0.821406 31.3095H7.79532L8.27204 34.4281H7.16395C6.44195 33.4375 5.28244 32.7857 3.9674 32.7857C1.7803 32.7857 0.000491037 34.5686 0.000491037 36.7607C0.000491037 37.6354 0.294126 38.4376 0.775833 39.0944C0.344406 39.1189 0.000491037 39.4686 0.000491037 39.9058C0.000491037 40.3595 0.367822 40.7272 0.821898 40.7272H51.742C52.196 40.7272 52.5634 40.3595 52.5634 39.9058C52.5634 39.4686 52.2195 39.1189 51.788 39.0936C52.2697 38.4369 52.5634 37.6346 52.5634 36.7599C52.5634 34.5678 50.7836 32.7849 48.5965 32.7849C47.281 32.7849 46.1218 33.4367 45.3999 34.4274H44.3029L44.7796 31.3087H51.7423C52.1964 31.3087 52.5638 30.941 52.5638 30.4873L52.563 26.7554C52.563 26.3017 52.1957 25.934 51.742 25.934L51.7415 25.9339ZM2.55571 2.53691H50.0071V25.9339H2.55571V2.53691ZM39.334 31.3088L39.8107 34.4275H38.7026C37.9806 33.4368 36.8211 32.785 35.5061 32.785C33.319 32.785 31.5392 34.568 31.5392 36.76C31.5392 37.6305 31.8293 38.4293 32.3068 39.0845L20.256 39.0841C20.7335 38.4293 21.0237 37.6301 21.0237 36.7596C21.0237 34.5675 19.2439 32.7846 17.0568 32.7846C15.7414 32.7846 14.5822 33.4364 13.8603 34.4271H12.7633L13.24 31.3085L39.334 31.3088ZM33.1811 36.7601C33.1811 35.4739 34.2236 34.428 35.5056 34.428C36.7872 34.428 37.8301 35.4742 37.8301 36.7601C37.8301 38.0417 36.7876 39.0846 35.5056 39.0846C34.224 39.0842 33.1811 38.0417 33.1811 36.7601ZM14.7326 36.7601C14.7326 35.4739 15.775 34.428 17.057 34.428C18.3387 34.428 19.3815 35.4742 19.3815 36.7601C19.3815 38.0417 18.3391 39.0846 17.057 39.0846C15.775 39.0842 14.7326 38.0417 14.7326 36.7601ZM11.5786 31.3088L11.0139 35.0037C10.989 35.0824 10.9644 35.1622 10.9644 35.2489H10.0582L9.45634 31.3088L11.5786 31.3088ZM8.52244 36.0703L8.54125 36.1943C8.60228 36.5954 8.94696 36.8917 9.35305 36.8917H11.6814C12.0871 36.8917 12.4321 36.5954 12.4932 36.1943L12.512 36.0703H13.1595C13.12 36.2952 13.09 36.524 13.09 36.76C13.09 37.6306 13.3802 38.4293 13.8577 39.0845H7.16589C7.64338 38.4297 7.93356 37.6305 7.93356 36.76C7.93356 36.524 7.90362 36.2952 7.86409 36.0703H8.52244ZM3.96635 34.4275C5.24798 34.4275 6.29082 35.4738 6.29082 36.7596C6.29082 38.0412 5.24837 39.0841 3.96635 39.0841C2.68473 39.0841 1.64188 38.0416 1.64188 36.7596C1.64226 35.4738 2.68473 34.4275 3.96635 34.4275ZM48.5957 34.4275C49.8773 34.4275 50.9202 35.4738 50.9202 36.7596C50.9202 38.0412 49.8777 39.0841 48.5957 39.0841C47.3141 39.0841 46.2712 38.0416 46.2712 36.7596C46.2712 35.4738 47.3137 34.4275 48.5957 34.4275ZM44.6983 36.0703C44.6587 36.2952 44.6288 36.524 44.6288 36.76C44.6288 37.6306 44.919 38.4293 45.3965 39.0845H38.7047C39.1822 38.4297 39.4723 37.6305 39.4723 36.76C39.4723 36.524 39.4424 36.2952 39.4029 36.0703H40.0615L40.0803 36.1943C40.1414 36.5954 40.486 36.8917 40.8921 36.8917H43.2204C43.6261 36.8917 43.9712 36.5954 44.0322 36.1943L44.0511 36.0703H44.6983ZM42.5526 35.0037C42.5277 35.0824 42.5031 35.1622 42.5031 35.2489H41.5969L40.995 31.3088H43.1173L42.5526 35.0037ZM50.9198 29.6665C39.5863 29.6646 12.982 29.6665 1.64267 29.6665V27.5762C1.72481 27.5762 54.2656 27.5773 50.9198 27.5762V29.6665Z" fill="#BB925F"/>
<path d="M6.30273 4.43652H7.94518V24.0367H6.30273V4.43652Z" fill="#BB925F"/>
<path d="M11.0918 4.43604H12.7342V24.0362H11.0918V4.43604Z" fill="#BB925F"/>
<path d="M15.8809 4.43604H17.5233V24.0362H15.8809V4.43604Z" fill="#BB925F"/>
<path d="M20.668 4.43652H22.3104V24.0367H20.668V4.43652Z" fill="#BB925F"/>
<path d="M25.4609 4.43652H27.1034V24.0367H25.4609V4.43652Z" fill="#BB925F"/>
<path d="M30.25 4.43652H31.8924V24.0367H30.25V4.43652Z" fill="#BB925F"/>
<path d="M35.0371 4.43604H36.6795V24.0362H35.0371V4.43604Z" fill="#BB925F"/>
<path d="M39.8281 4.43604H41.4706V24.0362H39.8281V4.43604Z" fill="#BB925F"/>
<path d="M44.6172 4.43652H46.2596V24.0367H44.6172V4.43652Z" fill="#BB925F"/>
</svg>
