<svg width="52" height="37" viewBox="0 0 52 37" fill="none" xmlns="http://www.w3.org/2000/svg">
<path d="M51.0909 32.1564C49.9029 31.397 48.9738 31.4521 47.8809 32.3538L45.4433 34.3882C44.3338 35.3088 43.1987 35.3088 42.0891 34.384L39.6961 32.3833C38.4953 31.3757 37.3686 31.3757 36.1555 32.3833L33.7244 34.4198C33.3955 34.6893 33.0581 34.8779 32.7189 34.982C32.6827 34.9884 32.6468 34.982 32.6106 34.9927C31.8679 35.2132 31.1193 35.031 30.3979 34.4454C29.7849 33.9467 29.1822 33.4378 28.5798 32.9263L27.937 32.3854C26.7319 31.3735 25.6053 31.3714 24.3921 32.3854L21.961 34.4177C21.3309 34.9352 20.6902 35.1497 20.0474 35.0648C19.5892 35.0012 19.1289 34.7828 18.6811 34.4156C18.2293 34.0465 17.7836 33.6687 17.3382 33.2932L16.2478 32.3808C15.0364 31.3775 13.9077 31.3775 12.709 32.3851L10.2395 34.4536C9.23827 35.2832 8.04392 35.279 7.03805 34.4493L4.48586 32.313C3.45699 31.4624 2.46394 31.4027 1.35014 32.1219C0.955557 32.3787 0.845096 32.9026 1.09975 33.295C1.35867 33.6917 1.8804 33.7979 2.27501 33.5475C2.76088 33.2314 2.9516 33.2463 3.40372 33.6196L5.95808 35.7559C6.77496 36.4307 7.70624 36.7678 8.64174 36.7678C9.57297 36.7678 10.5088 36.4304 11.3211 35.7581L13.7991 33.6832C14.3741 33.1974 14.5776 33.1995 15.1676 33.6832L16.2452 34.5871C16.697 34.9668 17.1491 35.3486 17.6072 35.7244C18.3008 36.2909 19.0435 36.6326 19.8113 36.7405C19.9832 36.764 20.1551 36.7768 20.327 36.7768C21.2668 36.7768 22.1963 36.4184 23.0383 35.7223L25.4759 33.6858C26.0509 33.2106 26.28 33.2063 26.8422 33.6815L27.4829 34.2203C28.0938 34.7378 28.7071 35.2556 29.3287 35.7606C30.4468 36.6666 31.7367 36.9678 32.9904 36.6347C33.0518 36.6304 33.1133 36.6368 33.1772 36.6176C33.748 36.4479 34.2953 36.1488 34.8084 35.7265L37.2417 33.6879C37.8295 33.1999 38.0351 33.202 38.6123 33.6836L41.0075 35.6863C41.888 36.4162 42.8299 36.783 43.776 36.783C44.7158 36.783 45.6576 36.4204 46.5339 35.6927L48.9671 33.6604C49.4807 33.2339 49.6185 33.2253 50.1786 33.5841C50.5689 33.8323 51.0992 33.7219 51.3516 33.3273C51.6045 32.933 51.4855 32.4088 51.0909 32.1563L51.0909 32.1564Z" fill="#BB925F"/>
<path d="M34.8594 15.2754H37.6193V16.9365H34.8594V15.2754Z" fill="#BB925F"/>
<path d="M38.9688 15.2754H41.7287V16.9365H38.9688V15.2754Z" fill="#BB925F"/>
<path d="M43.082 15.2754H45.842V16.9365H43.082V15.2754Z" fill="#BB925F"/>
<path d="M51.3104 12.0961C50.9687 11.5019 50.328 11.1308 49.6451 11.1308H48.9958V3.04544C48.9958 1.40775 47.6615 0.0751953 46.0256 0.0751953H45.2701C43.6346 0.0751953 42.2999 1.40739 42.2999 3.04544L42.3003 11.1329H41.3711V5.1672C41.3711 3.52951 40.0368 2.19695 38.4009 2.19695H37.6373C36.0018 2.19695 34.667 3.52915 34.667 5.1672V11.1329H34.1663C33.8821 11.1329 33.6168 11.2749 33.4598 11.5104L30.5574 15.8637H27.2139V11.557C27.2139 11.0881 26.8321 10.7085 26.3655 10.7085H23.7496V6.40177C23.7496 5.93295 23.3678 5.55328 22.9011 5.55328H20.2832V1.2423C20.2832 0.773486 19.9014 0.393813 19.4347 0.393813H12.5034C12.0346 0.393813 11.6549 0.773486 11.6549 1.2423V5.55119H9.03906C8.57025 5.55119 8.19057 5.93086 8.19057 6.39967V10.7064H5.57265C5.10384 10.7064 4.72417 11.0861 4.72417 11.5549V15.8616H4.50539C3.40014 15.8616 2.37118 16.3538 1.67971 17.2172C0.990341 18.0806 0.731395 19.1923 0.969029 20.2702L2.34604 26.465C2.04913 26.5435 1.74581 26.6685 1.43364 26.8724C1.03906 27.127 0.928596 27.653 1.18325 28.0455C1.44003 28.44 1.96604 28.5505 2.35851 28.298C2.84438 27.9819 3.03333 27.9968 3.48722 28.3701L6.04158 30.5064C6.85846 31.1812 7.79184 31.5183 8.72524 31.5183C9.65865 31.5183 10.5923 31.183 11.4067 30.5107L13.8868 28.4336C14.4575 27.9542 14.6632 27.9456 15.251 28.4358L16.3542 29.3584C16.7974 29.7339 17.2431 30.1075 17.6906 30.4743C18.3821 31.0429 19.1269 31.3867 19.899 31.4926H19.9054C20.0752 31.516 20.245 31.5288 20.4126 31.5288C21.3524 31.5288 22.2819 31.1704 23.1239 30.4765L25.5614 28.4378C26.1364 27.9647 26.3613 27.9605 26.9277 28.4357L27.6256 29.0235C28.2177 29.5242 28.8115 30.0247 29.4142 30.5127C30.5642 31.4461 31.9029 31.7472 33.1758 31.3718C33.7465 31.2021 34.2938 30.903 34.807 30.4807L37.2424 28.44C37.3549 28.3444 37.465 28.2659 37.5691 28.2024H37.5712C37.8195 28.0582 38.0145 27.9392 38.6087 28.4357L41.0039 30.4406C41.8844 31.1705 42.8284 31.5373 43.7724 31.5373C44.7122 31.5373 45.654 31.1747 46.5302 30.447L48.9635 28.4147C49.4771 27.9881 49.6149 27.9796 50.175 28.3383C50.5653 28.5866 51.0955 28.4761 51.348 28.0816C51.6006 27.687 51.4837 27.161 51.0913 26.9085C49.9033 26.1491 48.9741 26.2042 47.8812 27.1059L45.4437 29.1403C44.4297 29.9824 43.3987 30.0144 42.3805 29.3165L51.2951 14.0307C51.6496 13.4365 51.6538 12.6981 51.3104 12.0958L51.3104 12.0961ZM43.9954 3.04544C43.9954 2.34328 44.5662 1.77253 45.2683 1.77253H46.0238C46.7259 1.77253 47.2967 2.34328 47.2967 3.04544L47.2963 11.1329H43.995L43.9954 3.04544ZM36.3665 5.1672C36.3665 4.46503 36.9373 3.89429 37.6394 3.89429H38.3966C39.0988 3.89429 39.6696 4.46503 39.6696 5.1672V11.1329H36.3665L36.3665 5.1672ZM25.5122 15.8633H20.2828V12.4051H25.5122V15.8633ZM13.3514 15.8633V12.4051H18.5809V15.8633H13.3514ZM22.0473 10.7059H16.8178V7.24768H22.0451L22.0455 10.7059H22.0473ZM13.3514 2.0903H18.583V5.55071H13.3514V2.0903ZM9.88682 7.24804H15.1163V10.7063L12.5026 10.7059H9.88682V7.24804ZM6.42041 12.4032H11.652V15.8615L6.42041 15.8611V12.4032ZM49.833 13.1647L41.0352 28.2505L39.6965 27.1304C39.3211 26.8164 38.1903 25.8681 36.7118 26.7336C36.7075 26.7358 36.7075 26.7379 36.7032 26.74C36.5249 26.8441 36.3449 26.9734 36.1559 27.1282L33.7248 29.1669C33.3896 29.4428 33.044 29.6357 32.696 29.7397C31.9512 29.9624 31.2047 29.776 30.4833 29.1924C29.8912 28.7108 29.3059 28.2186 28.7224 27.7242L28.0202 27.1322C26.8323 26.1352 25.6736 26.1331 24.4775 27.1322L22.0464 29.1645C21.4163 29.6841 20.7777 29.8986 20.1327 29.8116H20.1306C19.6724 29.7501 19.2143 29.5317 18.7664 29.1623C18.3232 28.7997 17.8838 28.4303 17.447 28.0614L16.33 27.1287C15.1185 26.1254 13.9919 26.1254 12.7933 27.1351L10.3238 29.2036C9.32688 30.029 8.12826 30.0311 7.12239 29.2014L4.56802 27.0651C4.43022 26.9504 4.29419 26.889 4.15851 26.8041L2.62457 19.905C2.49529 19.3321 2.63522 18.7404 3.0021 18.2819C3.37112 17.8237 3.91842 17.5626 4.50414 17.5626H31.0107C31.2948 17.5626 31.5601 17.4206 31.7171 17.1851L34.6195 12.8318H49.6417C49.7223 12.8318 49.7944 12.8762 49.837 12.9444C49.8775 13.0098 49.8775 13.0925 49.8327 13.1646L49.833 13.1647Z" fill="#BB925F"/>
<path d="M9.80176 20.8413C9.80176 21.6262 9.16566 22.2627 8.38037 22.2627C7.59546 22.2627 6.95898 21.6262 6.95898 20.8413C6.95898 20.056 7.59544 19.4199 8.38037 19.4199C9.16564 19.4199 9.80176 20.056 9.80176 20.8413Z" fill="#BB925F"/>
<path d="M14.7764 20.8413C14.7764 21.6262 14.1399 22.2627 13.355 22.2627C12.5697 22.2627 11.9336 21.6262 11.9336 20.8413C11.9336 20.056 12.5697 19.4199 13.355 19.4199C14.1399 19.4199 14.7764 20.056 14.7764 20.8413Z" fill="#BB925F"/>
<path d="M19.749 20.8413C19.749 21.6262 19.1129 22.2627 18.3276 22.2627C17.5427 22.2627 16.9062 21.6262 16.9062 20.8413C16.9062 20.056 17.5427 19.4199 18.3276 19.4199C19.1129 19.4199 19.749 20.056 19.749 20.8413Z" fill="#BB925F"/>
<path d="M24.7217 20.8413C24.7217 21.6262 24.0852 22.2627 23.3003 22.2627C22.515 22.2627 21.8789 21.6262 21.8789 20.8413C21.8789 20.056 22.515 19.4199 23.3003 19.4199C24.0852 19.4199 24.7217 20.056 24.7217 20.8413Z" fill="#BB925F"/>
</svg>
