<svg width="48" height="25" viewBox="0 0 48 25" fill="none" xmlns="http://www.w3.org/2000/svg">
<path d="M23.0013 24.0843H22.9092C22.6592 24.081 22.4259 23.9677 22.2651 23.7756L6.52486 4.8267C6.2299 4.47342 6.26742 3.94887 6.61031 3.64355L7.71776 2.64984C8.05024 2.35153 8.55435 2.35822 8.88018 2.66693L26.6803 19.5483C26.8482 19.7096 26.9448 19.9287 26.9481 20.1617C26.9481 20.34 26.9314 21.9173 25.7931 23.0488C25.0903 23.7342 24.1534 24.0842 23.0014 24.0842L23.0013 24.0843ZM9.04525 5.17916L23.3171 22.3592C23.8554 22.3113 24.274 22.1367 24.5861 21.8283C24.994 21.4234 25.1445 20.8543 25.2028 20.501L9.04525 5.17916Z" fill="#BB925F"/>
<path d="M47.046 22.9049L39.4175 22.8674C38.9821 22.864 38.6184 22.5382 38.5701 22.1028C38.4022 20.5771 37.9976 19.096 37.3597 17.704C37.1781 17.3028 37.3293 16.8262 37.713 16.6067L44.3099 12.8011C44.5153 12.6848 44.759 12.654 44.9853 12.7227C45.2115 12.7911 45.4002 12.9486 45.5065 13.1611C46.8747 15.9246 47.6804 18.8935 47.8996 21.9825C47.9167 22.2191 47.8338 22.4557 47.673 22.627C47.5084 22.8087 47.2826 22.9049 47.0459 22.9049L47.046 22.9049ZM40.1716 21.1596L46.1061 21.1875C45.8557 18.9555 45.2695 16.7953 44.3575 14.7518L39.2257 17.714C39.6715 18.8214 39.9862 19.9767 40.1715 21.1595L40.1716 21.1596Z" fill="#BB925F"/>
<path d="M36.5317 15.4693C36.2679 15.4693 36.0108 15.3489 35.8429 15.1227C34.9343 13.892 33.8406 12.8187 32.5928 11.9309C32.2361 11.6772 32.1299 11.1939 32.3457 10.8135L36.0966 4.17903C36.2129 3.97322 36.4116 3.8224 36.6412 3.76779C36.8712 3.71281 37.1145 3.75405 37.3136 3.88778C39.8984 5.59846 42.0961 7.76534 43.8448 10.3264C43.9785 10.5218 44.0268 10.7685 43.9722 10.9984C43.9205 11.2314 43.7694 11.4305 43.5635 11.5505L36.957 15.356C36.8232 15.4315 36.6757 15.4693 36.5316 15.4693L36.5317 15.4693ZM34.2039 10.9947C35.1434 11.7321 35.9933 12.5683 36.7478 13.4974L41.8903 10.5321C40.5463 8.7252 38.9492 7.15156 37.1253 5.83498L34.2039 10.9947Z" fill="#BB925F"/>
<path d="M30.312 10.5171C30.1987 10.5171 30.0824 10.4967 29.9729 10.4454C28.5809 9.84172 27.1098 9.46471 25.5978 9.32092C25.1587 9.27968 24.8192 8.90968 24.8192 8.47058L24.8125 0.855829C24.8125 0.619189 24.9091 0.392953 25.0803 0.231728C25.2553 0.0708737 25.4816 -0.0149449 25.7215 0.00214476C28.7626 0.190864 31.6932 0.948695 34.4326 2.2549C34.6451 2.3578 34.81 2.54317 34.8821 2.77276C34.9542 2.99899 34.9267 3.24604 34.81 3.45146L31.0561 10.0822C30.9016 10.3564 30.6137 10.5172 30.312 10.5172L30.312 10.5171ZM26.5302 7.70942C27.696 7.87399 28.838 8.16895 29.9353 8.5839L32.8556 3.42058C30.8362 2.56021 28.7142 2.01118 26.5236 1.78493L26.5302 7.70942Z" fill="#BB925F"/>
<path d="M17.9142 10.6247C17.6163 10.6247 17.328 10.4702 17.1701 10.1961L13.3609 3.59993C13.2442 3.39412 13.2137 3.1508 13.2821 2.92456C13.3508 2.69832 13.5091 2.50961 13.7216 2.40336C16.4509 1.05264 19.3782 0.253881 22.4259 0.0239262C22.6625 0.0105531 22.8955 0.0889356 23.0704 0.250162C23.2454 0.411387 23.345 0.640971 23.345 0.877611V8.50244C23.345 8.93783 23.0195 9.30486 22.5841 9.35278C21.0859 9.52404 19.6323 9.92524 18.2641 10.5493C18.1511 10.6006 18.0308 10.6248 17.9141 10.6248L17.9142 10.6247ZM15.312 3.5516L18.2742 8.6845C19.3579 8.25245 20.4823 7.94374 21.6343 7.7554V1.82052C19.4433 2.07759 17.3247 2.65712 15.312 3.55165V3.5516Z" fill="#BB925F"/>
<path d="M11.8442 15.5918C11.7004 15.5918 11.5563 15.5573 11.4225 15.4819L4.79217 11.7246C4.58302 11.6079 4.43517 11.4092 4.38056 11.1759C4.32558 10.9426 4.36979 10.6993 4.50018 10.5005C5.13803 9.54734 5.85166 8.63199 6.62284 7.7816C6.94158 7.43203 7.48358 7.40491 7.83319 7.7203C8.18314 8.0357 8.20988 8.57696 7.89449 8.93028C7.38704 9.49234 6.90372 10.0856 6.45456 10.6993L11.6183 13.6237C11.6458 13.5895 11.6695 13.5591 11.697 13.5245C11.9953 13.1579 12.5336 13.0995 12.9006 13.3978C13.2673 13.6961 13.3252 14.2341 13.0269 14.6011C12.859 14.8069 12.6948 15.0194 12.5406 15.2389C12.3727 15.4651 12.1116 15.5918 11.8441 15.5918L11.8442 15.5918Z" fill="#BB925F"/>
<path d="M9.03654 22.9111L1.41541 22.9077C1.17877 22.9077 0.952908 22.8082 0.791683 22.6369C0.630458 22.4619 0.547616 22.229 0.564706 21.9924C0.777571 18.9751 1.5529 16.0678 2.86568 13.3526C2.96858 13.1397 3.15693 12.9789 3.38316 12.9068C3.6094 12.8348 3.85607 12.8622 4.06187 12.9789L10.6829 16.7465C11.0667 16.9627 11.2167 17.4356 11.0384 17.8369C10.4318 19.2047 10.0443 20.655 9.88685 22.1427C9.84227 22.5818 9.47524 22.911 9.03651 22.911L9.03654 22.9111ZM2.35454 21.1933L8.28571 21.1967C8.46366 20.0551 8.75862 18.9376 9.17692 17.8611L4.02433 14.9297C3.15691 16.9249 2.59782 19.0269 2.35445 21.1934L2.35454 21.1933Z" fill="#BB925F"/>
</svg>
