<svg width="48" height="25" viewBox="0 0 48 25" fill="none" xmlns="http://www.w3.org/2000/svg">
<path d="M25.4655 24.1019H25.5576C25.8076 24.0986 26.0409 23.9852 26.2017 23.7932L41.9419 4.84428C42.2369 4.491 42.1994 3.96645 41.8565 3.66113L40.749 2.66741C40.4166 2.36911 39.9124 2.3758 39.5866 2.6845L21.7865 19.5659C21.6186 19.7271 21.522 19.9463 21.5187 20.1792C21.5187 20.3576 21.5354 21.9349 22.6737 23.0664C23.3765 23.7518 24.3134 24.1018 25.4654 24.1018L25.4655 24.1019ZM39.4215 5.19673L25.1497 22.3768C24.6114 22.3288 24.1928 22.1542 23.8807 21.8459C23.4728 21.441 23.3223 20.8719 23.264 20.5186L39.4215 5.19673Z" fill="#C49B6F"/>
<path d="M1.4208 22.9225L9.04934 22.8849C9.48472 22.8816 9.84841 22.5558 9.89671 22.1204C10.0646 20.5947 10.4692 19.1136 11.1071 17.7216C11.2887 17.3204 11.1375 16.8438 10.7538 16.6242L4.15689 12.8187C3.95146 12.7024 3.70776 12.6716 3.48153 12.7403C3.25529 12.8086 3.06657 12.9662 2.96032 13.1786C1.5921 15.9422 0.786404 18.9111 0.567196 22C0.550107 22.2367 0.632951 22.4733 0.793804 22.6446C0.958377 22.8262 1.18424 22.9224 1.42088 22.9224L1.4208 22.9225ZM8.29519 21.1772L2.36068 21.205C2.61106 18.9731 3.19728 16.8129 4.10931 14.7693L9.24106 17.7316C8.79528 18.839 8.48062 19.9943 8.29525 21.1771L8.29519 21.1772Z" fill="#C49B6F"/>
<path d="M11.9371 15.4869C12.2008 15.4869 12.4579 15.3665 12.6258 15.1403C13.5345 13.9096 14.6282 12.8363 15.876 11.9485C16.2326 11.6948 16.3389 11.2115 16.123 10.8311L12.3722 4.19661C12.2559 3.9908 12.0571 3.83998 11.8275 3.78537C11.5976 3.73039 11.3543 3.77162 11.1552 3.90536C8.5703 5.61604 6.37261 7.78292 4.62398 10.344C4.49025 10.5394 4.44195 10.7861 4.49657 11.016C4.54821 11.2489 4.6994 11.4481 4.90521 11.5681L11.5118 15.3736C11.6455 15.449 11.793 15.4869 11.9372 15.4869L11.9371 15.4869ZM14.2649 11.0123C13.3254 11.7497 12.4754 12.5859 11.7209 13.515L6.57841 10.5497C7.92248 8.74278 9.51951 7.16914 11.3435 5.85256L14.2649 11.0123Z" fill="#C49B6F"/>
<path d="M18.1567 10.5347C18.27 10.5347 18.3863 10.5142 18.4959 10.463C19.8879 9.8593 21.3589 9.48229 22.8709 9.3385C23.31 9.29726 23.6496 8.92726 23.6496 8.48816L23.6562 0.873407C23.6562 0.636767 23.5597 0.410531 23.3884 0.249306C23.2134 0.0884518 22.9872 0.0026332 22.7472 0.0197229C19.7062 0.208442 16.7755 0.966273 14.0361 2.27248C13.8236 2.37538 13.6587 2.56075 13.5866 2.79033C13.5146 3.01657 13.5421 3.26361 13.6587 3.46904L17.4126 10.0998C17.5672 10.3739 17.8551 10.5348 18.1567 10.5348L18.1567 10.5347ZM21.9385 7.727C20.7728 7.89157 19.6308 8.18653 18.5334 8.60148L15.6131 3.43815C17.6325 2.57778 19.7545 2.02875 21.9452 1.80251L21.9385 7.727Z" fill="#C49B6F"/>
<path d="M30.5545 10.6423C30.8525 10.6423 31.1407 10.4878 31.2986 10.2136L35.1079 3.61751C35.2245 3.4117 35.255 3.16837 35.1867 2.94214C35.1179 2.7159 34.9597 2.52718 34.7472 2.42094C32.0179 1.07021 29.0906 0.271459 26.0429 0.0415044C25.8062 0.0281312 25.5733 0.106514 25.3983 0.26774C25.2234 0.428965 25.1238 0.658549 25.1238 0.895189V8.52002C25.1238 8.95541 25.4492 9.32244 25.8846 9.37036C27.3828 9.54162 28.8364 9.94282 30.2047 10.5669C30.3176 10.6182 30.438 10.6423 30.5546 10.6423L30.5545 10.6423ZM33.1568 3.56918L30.1946 8.70207C29.1109 8.27003 27.9864 7.96132 26.8345 7.77298V1.8381C29.0255 2.09517 31.1441 2.67469 33.1568 3.56922V3.56918Z" fill="#C49B6F"/>
<path d="M36.6226 15.6094C36.7664 15.6094 36.9105 15.5748 37.0443 15.4994L43.6746 11.7422C43.8838 11.6255 44.0316 11.4268 44.0862 11.1935C44.1412 10.9602 44.097 10.7169 43.9666 10.5181C43.3288 9.56492 42.6151 8.64957 41.844 7.79918C41.5252 7.4496 40.9832 7.42249 40.6336 7.73788C40.2837 8.05327 40.2569 8.59453 40.5723 8.94785C41.0798 9.50992 41.5631 10.1031 42.0122 10.7169L36.8485 13.6413C36.821 13.6071 36.7973 13.5766 36.7698 13.5421C36.4715 13.1754 35.9332 13.1171 35.5662 13.4154C35.1995 13.7137 35.1416 14.2516 35.4399 14.6186C35.6078 14.8245 35.772 15.0369 35.9261 15.2565C36.0941 15.4827 36.3552 15.6094 36.6227 15.6094L36.6226 15.6094Z" fill="#C49B6F"/>
<path d="M39.4303 22.9286L47.0514 22.9253C47.288 22.9253 47.5139 22.8257 47.6751 22.6545C47.8363 22.4795 47.9192 22.2466 47.9021 22.0099C47.6892 18.9927 46.9139 16.0854 45.6011 13.3702C45.4982 13.1573 45.3099 12.9965 45.0836 12.9244C44.8574 12.8523 44.6107 12.8798 44.4049 12.9965L37.7839 16.7641C37.4001 16.9803 37.2501 17.4532 37.4284 17.8544C38.035 19.2223 38.4225 20.6726 38.58 22.1603C38.6245 22.5994 38.9916 22.9286 39.4303 22.9286L39.4303 22.9286ZM46.1123 21.2109L40.1811 21.2143C40.0031 20.0727 39.7082 18.9552 39.2899 17.8787L44.4425 14.9473C45.3099 16.9425 45.869 19.0444 46.1123 21.2109L46.1123 21.2109Z" fill="#C49B6F"/>
</svg>
