<svg width="39" height="39" viewBox="0 0 39 39" fill="none" xmlns="http://www.w3.org/2000/svg">
<path d="M19.5625 0.0175781C9.09139 0.0175781 0.5625 8.54647 0.5625 19.0176C0.5625 29.4887 9.09139 38.0176 19.5625 38.0176C30.0336 38.0176 38.5625 29.4887 38.5625 19.0176C38.5625 8.54647 30.0336 0.0175781 19.5625 0.0175781ZM19.5625 1.70632C24.038 1.70632 28.0914 3.39505 31.1736 6.1818L6.72694 30.6285C3.9402 27.5463 2.25116 23.4928 2.25116 19.0174C2.25116 9.47513 10.0201 1.70624 19.5623 1.70624L19.5625 1.70632ZM19.5625 36.3285C15.087 36.3285 11.0336 34.6398 7.95139 31.8531L32.3981 7.40639C35.1848 10.4882 36.8738 14.5417 36.8738 19.0175C36.8738 28.5597 29.1049 36.3286 19.5627 36.3286L19.5625 36.3285Z" fill="#BB925F"/>
</svg>
