<svg width="40" height="61" viewBox="0 0 40 61" fill="none" xmlns="http://www.w3.org/2000/svg">
<path d="M35.9066 61.0001H4.09336C3.00773 61.0001 1.96657 60.5716 1.19892 59.809C0.431263 59.0463 0 58.0119 0 56.9334L0 14.9469C0.054651 13.8077 0.373705 12.6966 0.932227 11.7003C1.49075 10.704 2.27361 9.84949 3.21963 9.20358L16.7564 0.844317C17.7388 0.271696 18.8612 -0.0204467 20 6.74932e-05C21.1426 -0.0207929 22.269 0.271298 23.2555 0.844317L36.7804 9.1679C37.7264 9.81382 38.5093 10.6683 39.0678 11.6646C39.6263 12.6609 39.9454 13.7721 40 14.9112V56.9334C39.9968 58.011 39.5646 59.0435 38.7976 59.8055C38.0306 60.5675 36.9913 60.9969 35.9066 61.0001ZM20 1.35562C19.1127 1.33613 18.2363 1.55379 17.4626 1.98584L3.93776 10.3094C3.19141 10.8381 2.57315 11.5255 2.12799 12.3216C1.68283 13.1176 1.42199 14.0023 1.36445 14.9112V56.9334C1.36445 57.6524 1.65196 58.342 2.16373 58.8504C2.6755 59.3589 3.36961 59.6445 4.09336 59.6445H35.9066C36.6294 59.6414 37.3217 59.3547 37.8328 58.847C38.3439 58.3392 38.6324 57.6515 38.6356 56.9334V14.9469C38.5755 14.0386 38.3136 13.1548 37.8687 12.3591C37.4237 11.5634 36.8068 10.8756 36.0622 10.3451L22.5374 2.02151C21.7672 1.57701 20.8907 1.34698 20 1.35562Z" fill="#1DACB0"/>
<path d="M20 14.5786C19.0531 14.5786 18.1274 14.2996 17.3401 13.777C16.5528 13.2544 15.9392 12.5115 15.5768 11.6424C15.2145 10.7733 15.1197 9.81698 15.3044 8.89434C15.4891 7.9717 15.9451 7.1242 16.6146 6.45902C17.2842 5.79383 18.1373 5.34084 19.066 5.15731C19.9946 4.97379 20.9573 5.06798 21.8321 5.42797C22.7069 5.78797 23.4546 6.3976 23.9807 7.17978C24.5067 7.96195 24.7875 8.88154 24.7875 9.82226C24.7875 11.0837 24.2831 12.2935 23.3853 13.1855C22.4874 14.0775 21.2697 14.5786 20 14.5786ZM20 6.44526C19.3253 6.44526 18.6658 6.64401 18.1048 7.01639C17.5439 7.38876 17.1067 7.91804 16.8485 8.53728C16.5903 9.15651 16.5228 9.83791 16.6544 10.4953C16.786 11.1527 17.1109 11.7565 17.5879 12.2305C18.065 12.7044 18.6728 13.0272 19.3345 13.1579C19.9962 13.2887 20.682 13.2216 21.3053 12.9651C21.9286 12.7086 22.4614 12.2742 22.8362 11.7169C23.211 11.1596 23.4111 10.5044 23.4111 9.83415C23.4079 8.93632 23.0475 8.07616 22.4085 7.4413C21.7695 6.80644 20.9037 6.44839 20 6.44526Z" fill="#1DACB0"/>
<path d="M5.88877 54.6031C5.70879 54.6 5.53705 54.5276 5.40977 54.4012C5.28249 54.2747 5.20962 54.1041 5.20654 53.9253V38.3483C5.20654 38.1685 5.27842 37.9961 5.40636 37.869C5.5343 37.7419 5.70783 37.6705 5.88877 37.6705C5.97881 37.6689 6.06825 37.6853 6.15175 37.7188C6.23526 37.7523 6.31111 37.8022 6.37479 37.8654C6.43847 37.9287 6.48866 38.0041 6.52237 38.087C6.55608 38.17 6.57262 38.2588 6.571 38.3483V53.9253C6.571 54.105 6.49912 54.2774 6.37118 54.4046C6.24323 54.5317 6.06971 54.6031 5.88877 54.6031Z" fill="#1DACB0"/>
<path d="M9.07261 50.3105C8.89056 50.3105 8.71578 50.2395 8.58593 50.1127C8.45608 49.9859 8.38156 49.8135 8.37842 49.6327V38.3483C8.37842 38.1685 8.4503 37.9961 8.57824 37.869C8.70618 37.7419 8.87971 37.6705 9.06064 37.6705C9.15068 37.6689 9.24012 37.6853 9.32363 37.7188C9.40713 37.7523 9.48299 37.8022 9.54667 37.8654C9.61034 37.9287 9.66053 38.0041 9.69425 38.087C9.72796 38.17 9.74449 38.2588 9.74287 38.3483V49.6327C9.7429 49.8104 9.67267 49.981 9.5473 50.1078C9.42194 50.2346 9.25147 50.3074 9.07261 50.3105Z" fill="#1DACB0"/>
<path d="M11.2867 50.3105C11.1067 50.3074 10.935 50.235 10.8077 50.1086C10.6804 49.9821 10.6076 49.8115 10.6045 49.6327V38.3483C10.6045 38.1685 10.6764 37.9961 10.8043 37.869C10.9323 37.7419 11.1058 37.6705 11.2867 37.6705C11.3768 37.6689 11.4662 37.6853 11.5497 37.7188C11.6332 37.7523 11.7091 37.8022 11.7727 37.8654C11.8364 37.9287 11.8866 38.0041 11.9203 38.087C11.954 38.17 11.9706 38.2588 11.9689 38.3483V49.6327C11.9689 49.8125 11.8971 49.9849 11.7691 50.112C11.6412 50.2391 11.4677 50.3105 11.2867 50.3105Z" fill="#1DACB0"/>
<path d="M14.0754 50.3105C13.8945 50.3105 13.7209 50.2391 13.593 50.112C13.4651 49.9849 13.3932 49.8125 13.3932 49.6327V38.3483C13.3916 38.2588 13.4081 38.17 13.4418 38.087C13.4755 38.0041 13.5257 37.9287 13.5894 37.8654C13.6531 37.8022 13.7289 37.7523 13.8124 37.7188C13.8959 37.6853 13.9854 37.6689 14.0754 37.6705C14.2563 37.6705 14.4299 37.7419 14.5578 37.869C14.6858 37.9961 14.7576 38.1685 14.7576 38.3483V49.6327C14.7546 49.8115 14.6817 49.9821 14.5544 50.1086C14.4271 50.235 14.2554 50.3074 14.0754 50.3105Z" fill="#1DACB0"/>
<path d="M16.0621 50.3105C15.8821 50.3074 15.7104 50.235 15.5831 50.1086C15.4558 49.9821 15.383 49.8115 15.3799 49.6327V38.3483C15.3799 38.1685 15.4518 37.9961 15.5797 37.869C15.7076 37.7419 15.8812 37.6705 16.0621 37.6705C16.1521 37.6689 16.2416 37.6853 16.3251 37.7188C16.4086 37.7523 16.4845 37.8022 16.5481 37.8654C16.6118 37.9287 16.662 38.0041 16.6957 38.087C16.7294 38.17 16.746 38.2588 16.7443 38.3483V49.6327C16.7443 49.8125 16.6725 49.9849 16.5445 50.112C16.4166 50.2391 16.243 50.3105 16.0621 50.3105Z" fill="#1DACB0"/>
<path d="M18.8508 50.3105C18.6699 50.3105 18.4963 50.2391 18.3684 50.112C18.2404 49.9849 18.1686 49.8125 18.1686 49.6327V38.3483C18.1669 38.2588 18.1835 38.17 18.2172 38.087C18.2509 38.0041 18.3011 37.9287 18.3648 37.8654C18.4284 37.8022 18.5043 37.7523 18.5878 37.7188C18.6713 37.6853 18.7608 37.6689 18.8508 37.6705C19.0317 37.6705 19.2053 37.7419 19.3332 37.869C19.4611 37.9961 19.533 38.1685 19.533 38.3483V49.6327C19.5299 49.8115 19.4571 49.9821 19.3298 50.1086C19.2025 50.235 19.0308 50.3074 18.8508 50.3105Z" fill="#1DACB0"/>
<path d="M22.2859 50.3105C22.1049 50.3105 21.9314 50.2391 21.8034 50.112C21.6755 49.9849 21.6036 49.8125 21.6036 49.6327V38.3483C21.602 38.2588 21.6185 38.17 21.6522 38.087C21.686 38.0041 21.7362 37.9287 21.7998 37.8654C21.8635 37.8022 21.9394 37.7523 22.0229 37.7188C22.1064 37.6853 22.1958 37.6689 22.2859 37.6705C22.4668 37.6705 22.6403 37.7419 22.7683 37.869C22.8962 37.9961 22.9681 38.1685 22.9681 38.3483V49.6327C22.965 49.8115 22.8921 49.9821 22.7649 50.1086C22.6376 50.235 22.4658 50.3074 22.2859 50.3105Z" fill="#1DACB0"/>
<path d="M24.4763 50.3105C24.2953 50.3105 24.1218 50.2391 23.9939 50.112C23.8659 49.9849 23.7941 49.8125 23.7941 49.6327V38.3483C23.7924 38.2588 23.809 38.17 23.8427 38.087C23.8764 38.0041 23.9266 37.9287 23.9903 37.8654C24.0539 37.8022 24.1298 37.7523 24.2133 37.7188C24.2968 37.6853 24.3862 37.6689 24.4763 37.6705C24.6572 37.6705 24.8307 37.7419 24.9587 37.869C25.0866 37.9961 25.1585 38.1685 25.1585 38.3483V49.6327C25.1554 49.8115 25.0826 49.9821 24.9553 50.1086C24.828 50.235 24.6563 50.3074 24.4763 50.3105Z" fill="#1DACB0"/>
<path d="M26.7746 50.3105C26.5937 50.3105 26.4202 50.2391 26.2922 50.112C26.1643 49.9849 26.0924 49.8125 26.0924 49.6327V38.3483C26.0908 38.2588 26.1073 38.17 26.141 38.087C26.1747 38.0041 26.2249 37.9287 26.2886 37.8654C26.3523 37.8022 26.4281 37.7523 26.5116 37.7188C26.5951 37.6853 26.6846 37.6689 26.7746 37.6705C26.9556 37.6705 27.1291 37.7419 27.257 37.869C27.385 37.9961 27.4568 38.1685 27.4568 38.3483V49.6327C27.4538 49.8115 27.3809 49.9821 27.2536 50.1086C27.1263 50.235 26.9546 50.3074 26.7746 50.3105Z" fill="#1DACB0"/>
<path d="M29.2999 50.3105C29.1199 50.3074 28.9482 50.235 28.8209 50.1086C28.6936 49.9821 28.6208 49.8115 28.6177 49.6327V38.3483C28.6177 38.1685 28.6896 37.9961 28.8175 37.869C28.9454 37.7419 29.119 37.6705 29.2999 37.6705C29.3899 37.6689 29.4794 37.6853 29.5629 37.7188C29.6464 37.7523 29.7222 37.8022 29.7859 37.8654C29.8496 37.9287 29.8998 38.0041 29.9335 38.087C29.9672 38.17 29.9838 38.2588 29.9821 38.3483V49.6327C29.9821 49.8125 29.9103 49.9849 29.7823 50.112C29.6544 50.2391 29.4808 50.3105 29.2999 50.3105Z" fill="#1DACB0"/>
<path d="M32.1003 50.3105C31.9194 50.3105 31.7458 50.2391 31.6179 50.112C31.49 49.9849 31.4181 49.8125 31.4181 49.6327V38.3483C31.4165 38.2588 31.433 38.17 31.4667 38.087C31.5004 38.0041 31.5506 37.9287 31.6143 37.8654C31.678 37.8022 31.7538 37.7523 31.8373 37.7188C31.9208 37.6853 32.0103 37.6689 32.1003 37.6705C32.2812 37.6705 32.4548 37.7419 32.5827 37.869C32.7107 37.9961 32.7825 38.1685 32.7825 38.3483V49.6327C32.7795 49.8115 32.7066 49.9821 32.5793 50.1086C32.452 50.235 32.2803 50.3074 32.1003 50.3105Z" fill="#1DACB0"/>
<path d="M34.0992 54.6031C33.9192 54.6 33.7475 54.5276 33.6202 54.4012C33.4929 54.2747 33.4201 54.1041 33.417 53.9253V38.3483C33.417 38.1685 33.4889 37.9961 33.6168 37.869C33.7448 37.7419 33.9183 37.6705 34.0992 37.6705C34.1893 37.6689 34.2787 37.6853 34.3622 37.7188C34.4457 37.7523 34.5216 37.8022 34.5852 37.8654C34.6489 37.9287 34.6991 38.0041 34.7328 38.087C34.7665 38.17 34.7831 38.2588 34.7814 38.3483V53.9253C34.7814 54.105 34.7096 54.2774 34.5816 54.4046C34.4537 54.5317 34.2802 54.6031 34.0992 54.6031Z" fill="#1DACB0"/>
</svg>
