<svg width="50" height="50" viewBox="0 0 50 50" fill="none" xmlns="http://www.w3.org/2000/svg">
<g clip-path="url(#clip0_34_458)">
<path d="M43.2969 38.5159L42.1094 37.9534C42.0701 37.8717 42.0202 37.7955 41.9609 37.7268C38.3594 34.1253 39.0625 25.1565 39.0625 25.0003V13.2815C39.0625 5.96121 32.75 0.000272418 25 0.000272418C23.2507 -0.0185506 21.5152 0.312125 19.8953 0.972905C18.2754 1.63368 16.8038 2.61127 15.5668 3.84831C14.3297 5.08536 13.3522 6.55697 12.6914 8.17682C12.0306 9.79668 11.6999 11.5322 11.7188 13.2815V14.9065C10.6595 15.0049 9.6742 15.492 8.95288 16.2739C8.23156 17.0559 7.82532 18.0772 7.8125 19.1409V21.4846C7.82117 22.5922 8.25336 23.6545 9.02041 24.4535C9.78746 25.2525 10.8312 25.7277 11.9375 25.7815C12.2545 26.8537 12.8925 27.8029 13.7655 28.5014C14.6386 29.1998 15.7047 29.6139 16.8203 29.6878C18.7188 32.8128 21.8047 35.1565 25.4141 35.1565C31.3281 35.1565 35.9375 28.6487 35.9375 23.0471V16.4065H34.375V23.0471C34.375 27.8206 30.3672 33.594 25.3906 33.594C22.7344 33.594 20.3672 31.9456 18.7187 29.6878H21.0625C21.1067 29.6915 21.1511 29.6915 21.1953 29.6878C21.3587 30.15 21.6629 30.5494 22.0651 30.8296C22.4673 31.1099 22.9473 31.257 23.4375 31.2503H27.3438C27.9654 31.2503 28.5615 31.0033 29.001 30.5638C29.4406 30.1243 29.6875 29.5281 29.6875 28.9065C29.6875 28.2849 29.4406 27.6888 29.001 27.2492C28.5615 26.8097 27.9654 26.5628 27.3438 26.5628H23.4375C22.9526 26.5625 22.4796 26.7127 22.0836 26.9925C21.6876 27.2723 21.3882 27.6681 21.2266 28.1253C21.1824 28.1215 21.1379 28.1215 21.0938 28.1253H17.75C16.9079 26.5622 16.4475 24.8221 16.4062 23.0471V16.4065H14.8438V23.0471C14.8675 24.7169 15.2289 26.3645 15.9063 27.8909C15.1425 27.6257 14.4799 27.1301 14.0097 26.4725C13.5396 25.8148 13.285 25.0275 13.2812 24.219V13.2815C13.246 11.7329 13.525 10.1933 14.1015 8.75559C14.6779 7.31787 15.5398 6.01193 16.6351 4.91664C17.7304 3.82135 19.0363 2.95945 20.4741 2.383C21.9118 1.80656 23.4514 1.52753 25 1.56277C31.8906 1.56277 37.5 6.82058 37.5 13.2815V24.9378C37.5 25.2737 36.9453 32.0471 39.2812 36.6175L34.7109 34.4534H34.625C34.5467 34.4135 34.4621 34.3871 34.375 34.3753H34.2891C34.2112 34.3821 34.1349 34.4005 34.0625 34.43H34.0156C33.9381 34.465 33.8669 34.5125 33.8047 34.5706C31.477 36.9247 28.3105 38.2593 25 38.2815C21.4844 38.2815 19.2422 36.805 16.9453 34.594C16.9017 34.5558 16.8547 34.5218 16.8047 34.4925V34.4925C16.7244 34.449 16.6372 34.4199 16.5469 34.4065H16.4062C16.3414 34.3984 16.2758 34.3984 16.2109 34.4065H16.125H16.0703L6.69531 38.4846C4.69028 39.4432 2.9975 40.9497 1.81269 42.8299C0.627882 44.7101 -0.000569481 46.8873 3.87215e-07 49.1096V50.0003H1.5625V49.1096C1.56759 47.1912 2.11343 45.3131 3.13739 43.6908C4.16135 42.0685 5.62194 40.7677 7.35156 39.9378L14.6484 36.8128L10.25 44.9456C10.1867 45.0645 10.1552 45.1977 10.1586 45.3324C10.162 45.467 10.2001 45.5985 10.2693 45.7141C10.3384 45.8296 10.4363 45.9253 10.5534 45.9919C10.6705 46.0585 10.8028 46.0937 10.9375 46.094H11.0938L18.9063 44.5315C19.1135 44.4901 19.2957 44.368 19.4129 44.1922C19.5301 44.0164 19.5727 43.8012 19.5312 43.594C19.4898 43.3868 19.3678 43.2046 19.1919 43.0874C19.0161 42.9701 18.8009 42.9276 18.5937 42.969L12.4141 44.219L16.6172 36.4065C18.8502 38.6109 21.8622 39.846 25 39.844C28.3424 39.8193 31.5675 38.6096 34.1016 36.43L37.7109 44.2425L31.4063 42.969C31.3037 42.9485 31.198 42.9484 31.0954 42.9687C30.9927 42.989 30.8951 43.0293 30.8081 43.0874C30.721 43.1454 30.6462 43.22 30.588 43.3069C30.5298 43.3939 30.4893 43.4914 30.4688 43.594C30.4482 43.6966 30.4481 43.8022 30.4684 43.9049C30.4887 44.0075 30.529 44.1052 30.5871 44.1922C30.6451 44.2793 30.7197 44.354 30.8067 44.4123C30.8936 44.4705 30.9912 44.511 31.0937 44.5315L38.9062 46.094H39.0625C39.1812 46.0947 39.2984 46.0683 39.4054 46.0168C39.5123 45.9654 39.6061 45.8903 39.6797 45.7971C39.763 45.6869 39.8156 45.5564 39.8321 45.4192C39.8486 45.2819 39.8283 45.1428 39.7734 45.0159L35.9844 36.8128L42.6328 39.9378C44.3654 40.7655 45.8292 42.0653 46.856 43.6878C47.8828 45.3103 48.431 47.1895 48.4375 49.1096V50.0003H50V49.1096C49.994 46.8917 49.3616 44.7207 48.1757 42.8464C46.9898 40.9722 45.2986 39.471 43.2969 38.5159V38.5159ZM23.4375 28.1253H27.3438C27.551 28.1253 27.7497 28.2076 27.8962 28.3541C28.0427 28.5006 28.125 28.6993 28.125 28.9065C28.125 29.1137 28.0427 29.3124 27.8962 29.4589C27.7497 29.6055 27.551 29.6878 27.3438 29.6878H23.4375C23.2303 29.6878 23.0316 29.6055 22.8851 29.4589C22.7386 29.3124 22.6562 29.1137 22.6562 28.9065C22.6562 28.6993 22.7386 28.5006 22.8851 28.3541C23.0316 28.2076 23.2303 28.1253 23.4375 28.1253ZM9.375 21.4846V19.1409C9.38399 18.492 9.62546 17.8679 10.0555 17.3819C10.4856 16.8959 11.0758 16.5803 11.7188 16.4925V24.1331C11.0758 24.0452 10.4856 23.7297 10.0555 23.2437C9.62546 22.7577 9.38399 22.1335 9.375 21.4846V21.4846Z" fill="white"/>
<path d="M30.4688 14.8438H35.9375V13.2813H31.25V9.3751C31.2499 9.21454 31.2004 9.0579 31.1081 8.9265C31.0159 8.7951 30.8854 8.69531 30.7344 8.64072C30.5833 8.58582 30.4189 8.57887 30.2637 8.62081C30.1085 8.66275 29.9701 8.75155 29.8672 8.8751L26.1953 13.2813H14.8438V14.8438H26.5625C26.6773 14.844 26.7907 14.8189 26.8946 14.7703C26.9986 14.7217 27.0906 14.6508 27.1641 14.5626L29.6875 11.5313V14.0626C29.6875 14.2698 29.7698 14.4685 29.9163 14.615C30.0628 14.7615 30.2615 14.8438 30.4688 14.8438Z" fill="white"/>
</g>
<defs>
<clipPath id="clip0_34_458">
<rect width="50" height="50" fill="white"/>
</clipPath>
</defs>
</svg>
