<svg width="155" height="43" viewBox="0 0 155 43" fill="none" xmlns="http://www.w3.org/2000/svg">
<path d="M52.84 33.7001L23 12.2001L22.63 12.7201L22.92 12.1501C22.2547 11.8076 21.5183 11.6261 20.77 11.6201H11.77C11.0249 11.6261 10.2918 11.8077 9.63 12.1501L5 15.4901L1.86 25.2601V39.2601C1.85922 40.0949 2.13333 40.9067 2.64 41.5701H0V42.8501H22C22.2395 42.85 22.478 42.8197 22.71 42.7601V42.8501H53.87V35.6501C53.8701 35.2658 53.7763 34.8872 53.5968 34.5474C53.4173 34.2076 53.1575 33.9167 52.84 33.7001ZM10.22 13.2701C10.6882 13.0335 11.2054 12.9102 11.73 12.9101H20.73C21.2618 12.9128 21.7857 13.0395 22.26 13.2801L26 15.9201L25.57 17.4201H5.73L6.1 16.2801L10.22 13.2701ZM13.31 41.6101H5.19C4.62137 41.5616 4.09415 41.293 3.72059 40.8615C3.34704 40.4301 3.15666 39.8698 3.19 39.3001V25.4601L5.36 18.7101H25.17L23.46 24.7101H3.72V26.0001H23.32V39.2901C23.32 41.6001 22.32 41.6001 21.97 41.6001L13.31 41.6101ZM52.59 41.6101H24.11C24.4523 40.8898 24.6136 40.0969 24.58 39.3001V25.4501L27.08 16.7201L52.08 34.7201C52.2267 34.8202 52.347 34.9544 52.4306 35.1111C52.5142 35.2678 52.5586 35.4425 52.56 35.6201L52.59 41.6101Z" fill="#1DACB0"/>
<path d="M18.1 32.8799H16.68C16.3876 32.8799 16.0981 32.9376 15.8281 33.0498C15.5581 33.162 15.3129 33.3264 15.1067 33.5336C14.9004 33.7408 14.7371 33.9868 14.6261 34.2573C14.5151 34.5277 14.4587 34.8175 14.46 35.1099V36.2199C14.4587 36.5118 14.5152 36.8011 14.6263 37.071C14.7374 37.3409 14.9008 37.5862 15.1073 37.7926C15.3137 37.999 15.5589 38.1625 15.8289 38.2736C16.0988 38.3847 16.3881 38.4412 16.68 38.4399H18.1C18.3919 38.4412 18.6812 38.3847 18.9511 38.2736C19.221 38.1625 19.4663 37.999 19.6727 37.7926C19.8791 37.5862 20.0426 37.3409 20.1537 37.071C20.2648 36.8011 20.3213 36.5118 20.32 36.2199V35.1099C20.3213 34.8175 20.2649 34.5277 20.1539 34.2573C20.0429 33.9868 19.8796 33.7408 19.6733 33.5336C19.467 33.3264 19.2219 33.162 18.9519 33.0498C18.6819 32.9376 18.3924 32.8799 18.1 32.8799ZM19 36.2199C19 36.4692 18.9009 36.7083 18.7247 36.8846C18.5484 37.0608 18.3093 37.1599 18.06 37.1599H16.68C16.4307 37.1599 16.1916 37.0608 16.0153 36.8846C15.839 36.7083 15.74 36.4692 15.74 36.2199V35.1099C15.74 34.8606 15.839 34.6215 16.0153 34.4452C16.1916 34.2689 16.4307 34.1699 16.68 34.1699H18.1C18.2234 34.1699 18.3457 34.1942 18.4597 34.2414C18.5738 34.2887 18.6774 34.3579 18.7647 34.4452C18.852 34.5325 18.9212 34.6361 18.9684 34.7502C19.0157 34.8642 19.04 34.9864 19.04 35.1099L19 36.2199Z" fill="#1DACB0"/>
<path d="M7.32018 32.8799H5.91018C5.31874 32.8799 4.75153 33.1148 4.33333 33.533C3.91512 33.9512 3.68018 34.5184 3.68018 35.1099V36.2199C3.68017 36.5123 3.73792 36.8018 3.85011 37.0718C3.9623 37.3418 4.12672 37.5869 4.33393 37.7932C4.54114 37.9995 4.78705 38.1628 5.05755 38.2738C5.32805 38.3847 5.6178 38.4412 5.91018 38.4399H7.32018C7.61255 38.4412 7.90231 38.3847 8.1728 38.2738C8.4433 38.1628 8.68922 37.9995 8.89642 37.7932C9.10363 37.5869 9.26805 37.3418 9.38024 37.0718C9.49243 36.8018 9.55018 36.5123 9.55018 36.2199V35.1099C9.55018 34.5184 9.31523 33.9512 8.89702 33.533C8.47882 33.1148 7.91161 32.8799 7.32018 32.8799ZM8.26018 36.2199C8.26018 36.4692 8.16114 36.7083 7.98486 36.8846C7.80857 37.0608 7.56948 37.1599 7.32018 37.1599H5.91018C5.66611 37.1521 5.43465 37.0496 5.26481 36.8742C5.09496 36.6987 5.00005 36.4641 5.00018 36.2199V35.1099C5.00018 34.8606 5.09921 34.6215 5.2755 34.4452C5.45178 34.2689 5.69087 34.1699 5.94018 34.1699H7.32018C7.56948 34.1699 7.80857 34.2689 7.98486 34.4452C8.16114 34.6215 8.26018 34.8606 8.26018 35.1099V36.2199Z" fill="#1DACB0"/>
<path d="M46.7401 32.3499H45.4501V34.9399L39.0301 32.4099V27.6099H37.7501V31.9099L30.1801 28.9399V21.6699H28.8901V29.8099L50.0501 38.1199L50.5201 36.9299L46.7401 35.4399V32.3499Z" fill="#1DACB0"/>
<path d="M104.87 25.0499L87.5899 22.8199C86.0297 22.6199 84.4502 22.6199 82.8899 22.8199L65.62 25.0499C65.333 25.0868 65.0574 25.1854 64.8122 25.339C64.5671 25.4927 64.3582 25.6977 64.1999 25.9399C64.0504 26.1883 63.9553 26.4656 63.9208 26.7535C63.8863 27.0414 63.9133 27.3333 63.9999 27.61L66.9999 37.61L68.23 37.2499L65.23 27.1899C65.1998 27.0911 65.1923 26.9868 65.2079 26.8847C65.2234 26.7826 65.2617 26.6853 65.3199 26.5999C65.3735 26.51 65.4477 26.434 65.5363 26.3784C65.625 26.3228 65.7257 26.289 65.83 26.28L83.0599 24.0999C83.5699 24.0299 84.0599 23.9999 84.5999 23.9799V30.6599H85.8899V23.9999C86.4 23.9999 86.8899 24.05 87.43 24.12L104.7 26.3499C104.804 26.3606 104.904 26.3949 104.992 26.4504C105.081 26.5059 105.155 26.581 105.21 26.6699C105.268 26.7553 105.306 26.8526 105.322 26.9547C105.338 27.0568 105.33 27.1611 105.3 27.2599L102.3 37.3199L103.54 37.6799L106.54 27.6799C106.624 27.4019 106.646 27.109 106.605 26.8216C106.564 26.5342 106.461 26.2591 106.303 26.0155C106.145 25.7719 105.936 25.5656 105.69 25.4109C105.444 25.2563 105.168 25.157 104.88 25.12L104.87 25.0499Z" fill="#1DACB0"/>
<path d="M75.7399 8.18H77.0299V6.3L70.8899 4.94L70.8999 3.37H81.8799H88.6099H99.5899V4.94L93.4599 6.3V8.18H94.7499V7.33L100.88 5.97V2.08H88.6099V0H87.3299V2.08H83.1599V0H81.8799V2.08H69.6099V5.97L75.7399 7.33V8.18Z" fill="#1DACB0"/>
<path d="M93.3799 29.2999C93.3799 27.7899 92.4999 26.6099 91.3799 26.6099C90.2599 26.6099 89.3799 27.7899 89.3799 29.2999C89.3799 30.8099 90.2599 31.9899 91.3799 31.9899C92.4999 31.9899 93.3799 30.8099 93.3799 29.2999ZM90.6599 29.2999C90.6599 28.4499 91.0799 27.8999 91.3799 27.8999C91.6799 27.8999 92.0999 28.4499 92.0999 29.2999C92.0999 30.1499 91.6699 30.6999 91.3799 30.6999C91.0899 30.6999 90.6599 30.1599 90.6599 29.2999Z" fill="#1DACB0"/>
<path d="M81.1201 29.2999C81.1201 27.7899 80.2401 26.6099 79.1201 26.6099C78.0001 26.6099 77.1201 27.7899 77.1201 29.2999C77.1201 30.8099 78.0001 31.9999 79.1101 31.9999C80.2201 31.9999 81.1201 30.8099 81.1201 29.2999ZM78.3901 29.2999C78.3901 28.4499 78.8201 27.8999 79.1101 27.8999C79.4001 27.8999 79.8301 28.4499 79.8301 29.2999C79.8301 30.1499 79.4101 30.6999 79.1101 30.6999C78.8101 30.6999 78.3901 30.1599 78.3901 29.2999Z" fill="#1DACB0"/>
<path d="M103.32 40.0001C98.2124 41.904 92.6188 42.0657 87.4099 40.4601L84.5699 39.5801C78.8189 37.8056 72.6303 38.0813 67.0599 40.3601L63.8799 41.6701L64.3699 42.8601L67.5499 41.5501C72.8417 39.3776 78.7241 39.1125 84.1899 40.8001L87.0299 41.6901C92.5112 43.3775 98.3966 43.2052 103.77 41.2001L106.59 40.1401L106.14 38.9401L103.32 40.0001Z" fill="#1DACB0"/>
<path d="M65.4402 19.7198H72.3401V21.1198H73.6202V19.7198H80.5102V20.4398H81.8002V19.7198H88.6902V20.4398H90.0002V19.7198H96.8902V21.1198H98.1702V19.7198H105V22.4898H106.29V10.2598H64.1602V22.4898H65.4402V19.7198ZM105 11.5498V18.4398H98.1502V11.5498H105ZM96.8302 11.5498V18.4398H90.0002V11.5498H96.8302ZM88.6502 11.5498V18.4398H81.8002V11.5498H88.6502ZM80.4702 11.5498V18.4398H73.6202V11.5498H80.4702ZM65.4002 11.5498H72.3002V18.4398H65.4002V11.5498Z" fill="#1DACB0"/>
<path d="M143.88 30.8801C143.1 32.1401 142.65 32.8801 142.39 33.3301H135.39L133.73 30.5801H131.16V31.8601H133L134.66 34.6201H143.9L143.48 33.9501L144.75 31.8601H146.6V30.5801H144.04L143.88 30.8801Z" fill="#1DACB0"/>
<path d="M141.67 30.5801H136.16V31.8701H141.67V30.5801Z" fill="#1DACB0"/>
<path d="M142.77 27.8198H135.05V29.1098H142.77V27.8198Z" fill="#1DACB0"/>
<path d="M140.57 36.0898H137.26V37.3798H140.57V36.0898Z" fill="#1DACB0"/>
<path d="M130.55 23.4999C130.556 24.0865 130.785 24.6489 131.189 25.0738C131.594 25.4987 132.144 25.7545 132.73 25.7899C134.773 26.1333 136.839 26.3205 138.91 26.3499C140.988 26.3186 143.06 26.1314 145.11 25.7899C145.685 25.7305 146.219 25.4666 146.615 25.0463C147.012 24.626 147.244 24.0772 147.27 23.4999V17.8999H130.55V23.4999ZM131.84 19.1799H146V23.4999C146 24.1899 145.28 24.4399 144.87 24.4999C142.887 24.8348 140.881 25.0153 138.87 25.0399C136.876 25.0121 134.886 24.8315 132.92 24.4999C131.8 24.2999 131.8 23.6999 131.8 23.4999L131.84 19.1799Z" fill="#1DACB0"/>
<path d="M153.25 17.9H151.59V19.18H153.16V23.1L150 24.67V16.89C149.964 16.2943 149.712 15.7323 149.29 15.3103C148.868 14.8883 148.306 14.6356 147.71 14.6C141.85 13.8534 135.92 13.8534 130.06 14.6C129.462 14.6311 128.896 14.8821 128.472 15.3047C128.047 15.7274 127.794 16.2919 127.76 16.89V24.67L124.64 23.1V19.18H126.2V17.9H124.55C124.393 17.8987 124.237 17.9285 124.092 17.9877C123.946 18.0469 123.814 18.1344 123.702 18.245C123.591 18.3556 123.502 18.4873 123.442 18.6323C123.381 18.7773 123.35 18.9329 123.35 19.09V23.16C123.349 23.3822 123.411 23.6002 123.527 23.7893C123.644 23.9784 123.811 24.1311 124.01 24.23L127.76 26.1V35.17H131.58C131.97 35.17 132.01 35.17 132.13 35.52L132.45 36.52C132.388 36.5763 132.321 36.6265 132.25 36.67H127.76V38.42C127.753 38.8216 127.851 39.2181 128.046 39.5693C128.241 39.9205 128.525 40.214 128.87 40.42V41.5C128.87 41.8899 129.025 42.2638 129.301 42.5395C129.576 42.8151 129.95 42.97 130.34 42.97H133.64C134.03 42.97 134.404 42.8151 134.68 42.5395C134.955 42.2638 135.11 41.8899 135.11 41.5V40.77H142.65V41.5C142.65 41.8899 142.805 42.2638 143.081 42.5395C143.356 42.8151 143.73 42.97 144.12 42.97H147.43C147.82 42.97 148.194 42.8151 148.47 42.5395C148.745 42.2638 148.9 41.8899 148.9 41.5V40.34C149.244 40.1335 149.527 39.8396 149.72 39.4883C149.913 39.137 150.01 38.7408 150 38.34V36.64H145.52C145.445 36.6024 145.377 36.5516 145.32 36.49L145.63 35.49C145.76 35.13 145.79 35.14 146.21 35.13H150V26.1L153.75 24.23C153.95 24.132 154.118 23.9795 154.234 23.7902C154.351 23.6009 154.412 23.3824 154.41 23.16V19.09C154.41 18.7795 154.289 18.4813 154.072 18.259C153.856 18.0367 153.56 17.9078 153.25 17.9ZM133.86 41.42C133.86 41.4704 133.84 41.5187 133.804 41.5544C133.769 41.59 133.72 41.61 133.67 41.61H130.37C130.32 41.61 130.271 41.59 130.236 41.5544C130.2 41.5187 130.18 41.4704 130.18 41.42V40.69H133.86V41.42ZM147.46 41.61H144.15C144.101 41.6074 144.056 41.5863 144.022 41.5509C143.989 41.5156 143.97 41.4687 143.97 41.42V40.69H147.64V41.42C147.64 41.4687 147.622 41.5156 147.588 41.5509C147.555 41.5863 147.509 41.6074 147.46 41.61ZM148.75 33.89H146.22C145.827 33.8418 145.43 33.9393 145.104 34.1641C144.777 34.3889 144.545 34.7254 144.45 35.11L144 36.35C143.971 36.4953 143.975 36.6451 144.012 36.7886C144.048 36.9322 144.116 37.0658 144.21 37.18C144.5 37.5737 144.929 37.8419 145.41 37.93H148.71V38.39C148.71 38.6552 148.605 38.9096 148.417 39.0971C148.23 39.2847 147.975 39.39 147.71 39.39H130.09C129.825 39.39 129.571 39.2847 129.383 39.0971C129.195 38.9096 129.09 38.6552 129.09 38.39V37.93H132.43C132.892 37.8285 133.301 37.5618 133.58 37.18C133.682 37.0582 133.753 36.9139 133.788 36.7591C133.822 36.6044 133.82 36.4436 133.78 36.29L133.38 35.11C133.285 34.7235 133.051 34.3855 132.723 34.1605C132.395 33.9355 131.995 33.8392 131.6 33.89H129.09V16.89C129.09 16.3 129.69 15.95 130.29 15.89C133.15 15.5003 136.034 15.3165 138.92 15.34C141.802 15.3221 144.683 15.5025 147.54 15.88C147.82 15.93 148.76 16.16 148.76 16.88L148.75 33.89Z" fill="#1DACB0"/>
<path d="M125.68 39.4002H121.36V37.9302H124V36.6402H120.23V18.7902L127.76 10.7902V12.4702H129.05V9.81021H148.72V12.4702H150V8.47021H128.16L119 18.2802V37.9302H120.1V40.6902H121.21V41.4202C121.21 41.8101 121.365 42.184 121.641 42.4597C121.916 42.7353 122.29 42.8902 122.68 42.8902H124.88C125.27 42.8902 125.644 42.7353 125.919 42.4597C126.195 42.184 126.35 41.8101 126.35 41.4202V40.0002H125.71L125.68 39.4002ZM124.85 41.6102H122.65C122.6 41.6078 122.553 41.587 122.518 41.5519C122.483 41.5168 122.462 41.4698 122.46 41.4202V40.6902H125V41.4202C124.999 41.4639 124.984 41.5062 124.957 41.5405C124.93 41.5748 124.892 41.5993 124.85 41.6102Z" fill="#1DACB0"/>
</svg>
