<svg width="42" height="50" viewBox="0 0 42 50" fill="none" xmlns="http://www.w3.org/2000/svg">
<path d="M21.0182 49.0563C20.8279 49.05 20.6456 48.9781 20.5022 48.8528C20.3587 48.7275 20.2629 48.5566 20.231 48.3688C20.199 48.1811 20.2329 47.9881 20.3268 47.8224C20.4207 47.6567 20.569 47.5286 20.7465 47.4596C41.1306 38.785 40.2699 12.0592 39.8735 6.5668C26.2841 10.3718 20.3728 1.3462 20.3048 1.25561C20.1962 1.06908 20.1627 0.848212 20.2111 0.637868C20.2594 0.427524 20.3861 0.243489 20.5653 0.123156C20.7511 0.0117659 20.9728 -0.0233301 21.184 0.0252318C21.3951 0.0737936 21.5792 0.202239 21.6977 0.38362C21.9242 0.73468 27.292 8.84302 40.3492 4.70958C40.4655 4.67094 40.589 4.65902 40.7106 4.6747C40.8321 4.69039 40.9486 4.73327 41.0513 4.80018C41.153 4.86751 41.2391 4.95597 41.3036 5.05954C41.3681 5.16311 41.4095 5.27936 41.425 5.40037C41.425 5.74011 45.1394 38.8869 21.324 49.0224C21.2253 49.0538 21.1214 49.0654 21.0182 49.0563Z" fill="#1DACB0"/>
<path d="M21.0069 49.0566C20.8984 49.0599 20.7904 49.0406 20.6898 48.9999C-3.12561 38.8645 0.554852 5.71768 0.588826 5.37795C0.604353 5.25693 0.64577 5.14068 0.710257 5.03711C0.774745 4.93354 0.86079 4.84508 0.962535 4.77775C1.06523 4.71085 1.18169 4.66796 1.30325 4.65227C1.42481 4.63659 1.54834 4.64851 1.66465 4.68715C14.7218 8.8206 20.0896 0.712252 20.3048 0.361192C20.4278 0.183392 20.6148 0.0600214 20.8267 0.0168657C21.0385 -0.0262901 21.2589 0.0141092 21.4416 0.12962C21.6244 0.24513 21.7554 0.426812 21.8074 0.636692C21.8593 0.846572 21.8281 1.06841 21.7204 1.25583C21.6524 1.34642 15.775 10.3721 2.15161 6.56702C1.75525 12.0594 0.939885 38.7852 21.3353 47.4598C21.5174 47.5305 21.6685 47.6635 21.7619 47.835C21.8554 48.0065 21.885 48.2056 21.8457 48.3969C21.8063 48.5882 21.7005 48.7594 21.547 48.8802C21.3934 49.0009 21.2021 49.0634 21.0069 49.0566Z" fill="#1DACB0"/>
<path d="M21.0185 43.3715C20.9358 43.3833 20.852 43.3833 20.7693 43.3715C10.5546 40.144 7.40642 27.5059 7.28185 26.9623C7.23079 26.7475 7.26713 26.5213 7.38288 26.3334C7.49862 26.1454 7.68429 26.0111 7.89904 25.9601C8.11378 25.909 8.34002 25.9454 8.52797 26.0611C8.71592 26.1768 8.8502 26.3625 8.90126 26.5773C8.90126 26.7018 11.9136 38.8417 21.2563 41.7521C21.4471 41.8086 21.6112 41.932 21.7183 42.0996C21.8255 42.2673 21.8686 42.468 21.8397 42.6649C21.8108 42.8618 21.7118 43.0417 21.5609 43.1715C21.4101 43.3013 21.2175 43.3723 21.0185 43.3715Z" fill="#1DACB0"/>
</svg>
