<svg width="50" height="42" viewBox="0 0 50 42" fill="none" xmlns="http://www.w3.org/2000/svg">
<path d="M49.3085 14.383H45.4452V2.52111H49.3085C49.3951 2.53168 49.483 2.52373 49.5663 2.4978C49.6497 2.47186 49.7266 2.42853 49.7919 2.37067C49.8573 2.3128 49.9096 2.24173 49.9454 2.16214C49.9812 2.08255 49.9998 1.99626 49.9998 1.90897C49.9998 1.82169 49.9812 1.7354 49.9454 1.65581C49.9096 1.57622 49.8573 1.50514 49.7919 1.44728C49.7266 1.38942 49.6497 1.34608 49.5663 1.32015C49.483 1.29421 49.3951 1.28627 49.3085 1.29683H45.4452V0.616675C45.4452 0.453123 45.3802 0.296269 45.2645 0.18062C45.1489 0.064971 44.992 3.67567e-08 44.8285 3.67567e-08C44.6649 3.67567e-08 44.5081 0.064971 44.3924 0.18062C44.2768 0.296269 44.2118 0.453123 44.2118 0.616675V1.29683H36.2404V0.616675C36.2404 0.453123 36.1754 0.296269 36.0598 0.18062C35.9441 0.064971 35.7873 3.67567e-08 35.6237 3.67567e-08C35.4601 3.67567e-08 35.3033 0.064971 35.1876 0.18062C35.072 0.296269 35.007 0.453123 35.007 0.616675V1.29683H27.0265V0.616675C27.0265 0.453123 26.9616 0.296269 26.8459 0.18062C26.7303 0.064971 26.5734 3.67567e-08 26.4098 3.67567e-08C26.2463 3.67567e-08 26.0894 0.064971 25.9738 0.18062C25.8581 0.296269 25.7932 0.453123 25.7932 0.616675V1.29683H17.858V0.616675C17.858 0.535692 17.8421 0.455502 17.8111 0.380684C17.7801 0.305865 17.7347 0.237884 17.6774 0.18062C17.6201 0.123356 17.5521 0.0779324 17.4773 0.0469416C17.4025 0.0159508 17.3223 0 17.2413 0C17.1604 0 17.0802 0.0159508 17.0053 0.0469416C16.9305 0.0779324 16.8625 0.123356 16.8053 0.18062C16.748 0.237884 16.7026 0.305865 16.6716 0.380684C16.6406 0.455502 16.6247 0.535692 16.6247 0.616675V1.29683H8.59881V0.616675C8.59881 0.453123 8.53384 0.296269 8.4182 0.18062C8.30255 0.064971 8.14569 3.67567e-08 7.98214 3.67567e-08C7.81859 3.67567e-08 7.66173 0.064971 7.54608 0.18062C7.43044 0.296269 7.36546 0.453123 7.36546 0.616675V1.29683H1.24405C1.15741 1.28627 1.06951 1.29421 0.986173 1.32015C0.902831 1.34608 0.825944 1.38942 0.760596 1.44728C0.695249 1.50514 0.642929 1.57622 0.607096 1.65581C0.571263 1.7354 0.552734 1.82169 0.552734 1.90897C0.552734 1.99626 0.571263 2.08255 0.607096 2.16214C0.642929 2.24173 0.695249 2.3128 0.760596 2.37067C0.825944 2.42853 0.902831 2.47186 0.986173 2.4978C1.06951 2.52373 1.15741 2.53168 1.24405 2.52111H7.36546V14.383H1.24405C1.0805 14.383 0.923649 14.448 0.808 14.5637C0.692351 14.6793 0.62738 14.8362 0.62738 14.9997C0.62738 15.1633 0.692351 15.3201 0.808 15.4358C0.923649 15.5514 1.0805 15.6164 1.24405 15.6164H7.36546V16.3238C7.36546 16.4873 7.43044 16.6442 7.54608 16.7598C7.66173 16.8755 7.81859 16.9404 7.98214 16.9404C8.14569 16.9404 8.30255 16.8755 8.4182 16.7598C8.53384 16.6442 8.59881 16.4873 8.59881 16.3238V15.6436H16.5793V16.3238C16.5793 16.4933 16.6467 16.6559 16.7666 16.7758C16.8865 16.8957 17.0491 16.9631 17.2187 16.9631C17.3882 16.9631 17.5509 16.8957 17.6708 16.7758C17.7907 16.6559 17.858 16.4933 17.858 16.3238V15.6436H25.8385V16.3238C25.8385 16.4873 25.9035 16.6442 26.0191 16.7598C26.1348 16.8755 26.2916 16.9404 26.4552 16.9404C26.6187 16.9404 26.7756 16.8755 26.8912 16.7598C27.0069 16.6442 27.0719 16.4873 27.0719 16.3238V15.6436H35.0524V16.3238C35.0524 16.4873 35.1173 16.6442 35.233 16.7598C35.3486 16.8755 35.5055 16.9404 35.669 16.9404C35.8326 16.9404 35.9895 16.8755 36.1051 16.7598C36.2208 16.6442 36.2857 16.4873 36.2857 16.3238V15.6436H44.2572V16.3238C44.2572 16.4047 44.2731 16.4849 44.3041 16.5597C44.3351 16.6346 44.3805 16.7025 44.4378 16.7598C44.495 16.8171 44.563 16.8625 44.6378 16.8935C44.7127 16.9245 44.7929 16.9404 44.8738 16.9404C44.9548 16.9404 45.035 16.9245 45.1098 16.8935C45.1846 16.8625 45.2526 16.8171 45.3099 16.7598C45.3671 16.7025 45.4126 16.6346 45.4436 16.5597C45.4746 16.4849 45.4905 16.4047 45.4905 16.3238V15.6436H49.3538C49.5173 15.6436 49.6742 15.5786 49.7899 15.463C49.9055 15.3473 49.9705 15.1905 49.9705 15.0269C49.9705 14.8634 49.9055 14.7065 49.7899 14.5909C49.6742 14.4752 49.5173 14.4102 49.3538 14.4102L49.3085 14.383ZM8.59881 14.383V2.52111H16.5793V14.383H8.59881ZM17.8127 14.383V2.52111H25.7932V14.383H17.8127ZM27.0265 14.383V2.52111H35.007V14.383H27.0265ZM36.2404 14.383V2.52111H44.2118V14.383H36.2404Z" fill="#1DACB0"/>
<path d="M45.4452 31.0967V24.2226H49.3085C49.4721 24.2226 49.6289 24.1576 49.7446 24.042C49.8602 23.9263 49.9252 23.7695 49.9252 23.6059C49.9252 23.4424 49.8602 23.2855 49.7446 23.1699C49.6289 23.0542 49.4721 22.9892 49.3085 22.9892H45.4452C45.4452 22.8257 45.3803 22.6688 45.2646 22.5532C45.149 22.4375 44.9921 22.3726 44.8286 22.3726C44.665 22.3726 44.5081 22.4375 44.3925 22.5532C44.2768 22.6688 44.2119 22.8257 44.2119 22.9892H36.2404C36.2404 22.8257 36.1755 22.6688 36.0598 22.5532C35.9442 22.4375 35.7873 22.3726 35.6238 22.3726C35.4602 22.3726 35.3034 22.4375 35.1877 22.5532C35.0721 22.6688 35.0071 22.8257 35.0071 22.9892H27.0266C27.0266 22.8257 26.9616 22.6688 26.846 22.5532C26.7303 22.4375 26.5735 22.3726 26.4099 22.3726C26.2464 22.3726 26.0895 22.4375 25.9739 22.5532C25.8582 22.6688 25.7932 22.8257 25.7932 22.9892H17.8581C17.8581 22.8257 17.7931 22.6688 17.6775 22.5532C17.5618 22.4375 17.405 22.3726 17.2414 22.3726C17.0778 22.3726 16.921 22.4375 16.8053 22.5532C16.6897 22.6688 16.6247 22.8257 16.6247 22.9892H8.59888C8.59888 22.8257 8.53391 22.6688 8.41826 22.5532C8.30261 22.4375 8.14575 22.3726 7.9822 22.3726C7.81865 22.3726 7.6618 22.4375 7.54615 22.5532C7.4305 22.6688 7.36553 22.8257 7.36553 22.9892H1.24412C1.16313 22.9892 1.08294 23.0052 1.00813 23.0362C0.933307 23.0672 0.865325 23.1126 0.808061 23.1699C0.750798 23.2271 0.705374 23.2951 0.674383 23.3699C0.643392 23.4447 0.627441 23.5249 0.627441 23.6059C0.627441 23.6869 0.643392 23.7671 0.674383 23.8419C0.705374 23.9167 0.750798 23.9847 0.808061 24.042C0.865325 24.0992 0.933307 24.1447 1.00813 24.1756C1.08294 24.2066 1.16313 24.2226 1.24412 24.2226H7.36553V39.2586H1.24412C1.08056 39.2586 0.923711 39.3235 0.808061 39.4392C0.692412 39.5548 0.627441 39.7117 0.627441 39.8753C0.627441 40.0388 0.692412 40.1957 0.808061 40.3113C0.923711 40.427 1.08056 40.4919 1.24412 40.4919H7.36553C7.36553 40.6555 7.4305 40.8123 7.54615 40.928C7.6618 41.0436 7.81865 41.1086 7.9822 41.1086C8.14575 41.1086 8.30261 41.0436 8.41826 40.928C8.53391 40.8123 8.59888 40.6555 8.59888 40.4919H16.5794C16.5794 40.6555 16.6444 40.8123 16.76 40.928C16.8756 41.0436 17.0325 41.1086 17.1961 41.1086C17.3596 41.1086 17.5165 41.0436 17.6321 40.928C17.7478 40.8123 17.8127 40.6555 17.8127 40.4919H25.7932C25.7932 40.6555 25.8582 40.8123 25.9739 40.928C26.0895 41.0436 26.2464 41.1086 26.4099 41.1086C26.5735 41.1086 26.7303 41.0436 26.846 40.928C26.9616 40.8123 27.0266 40.6555 27.0266 40.4919H35.0071C35.0071 40.6555 35.0721 40.8123 35.1877 40.928C35.3034 41.0436 35.4602 41.1086 35.6238 41.1086C35.7873 41.1086 35.9442 41.0436 36.0598 40.928C36.1755 40.8123 36.2404 40.6555 36.2404 40.4919H44.2119C44.2119 40.6555 44.2768 40.8123 44.3925 40.928C44.5081 41.0436 44.665 41.1086 44.8286 41.1086C44.9921 41.1086 45.149 41.0436 45.2646 40.928C45.3803 40.8123 45.4452 40.6555 45.4452 40.4919H49.3085C49.4721 40.4919 49.6289 40.427 49.7446 40.3113C49.8602 40.1957 49.9252 40.0388 49.9252 39.8753C49.9252 39.7117 49.8602 39.5548 49.7446 39.4392C49.6289 39.3235 49.4721 39.2586 49.3085 39.2586H45.4452V31.0967ZM8.59888 39.2586V24.2226H16.5794V39.2586H8.59888ZM17.8127 39.2586V24.2226H25.7932V39.2586H17.8127ZM27.0266 39.2586V24.2226H35.0071V39.2586H27.0266ZM36.2404 39.2586V24.2226H44.2119V39.2586H36.2404Z" fill="#1DACB0"/>
</svg>
