<svg width="41" height="48" viewBox="0 0 41 48" fill="none" xmlns="http://www.w3.org/2000/svg">
<path d="M36.7699 43.6198H4.22988C4.15157 43.6211 4.07377 43.6069 4.00103 43.5778C3.92829 43.5487 3.86206 43.5055 3.80621 43.4506C3.75036 43.3957 3.706 43.3302 3.67573 43.2579C3.64546 43.1857 3.62987 43.1081 3.62988 43.0298V8.8998C3.62988 8.74067 3.6931 8.58806 3.80562 8.47554C3.91814 8.36302 4.07075 8.2998 4.22988 8.2998H15.2299C15.3087 8.2998 15.3867 8.31532 15.4595 8.34548C15.5323 8.37563 15.5984 8.41983 15.6541 8.47554C15.7099 8.53126 15.7541 8.5974 15.7842 8.67019C15.8144 8.74299 15.8299 8.82101 15.8299 8.8998C15.8299 8.9786 15.8144 9.05662 15.7842 9.12941C15.7541 9.20221 15.7099 9.26835 15.6541 9.32407C15.5984 9.37978 15.5323 9.42398 15.4595 9.45413C15.3867 9.48428 15.3087 9.4998 15.2299 9.4998H4.82988V42.4298H36.1699V20.2298C36.1699 20.0707 36.2331 19.9181 36.3456 19.8055C36.4581 19.693 36.6108 19.6298 36.7699 19.6298C36.929 19.6298 37.0816 19.693 37.1941 19.8055C37.3067 19.9181 37.3699 20.0707 37.3699 20.2298V42.9998C37.374 43.0806 37.3615 43.1614 37.333 43.2372C37.3046 43.313 37.2609 43.382 37.2046 43.4402C37.1483 43.4984 37.0807 43.5443 37.0059 43.5752C36.9311 43.6061 36.8508 43.6213 36.7699 43.6198Z" fill="#1DACB0"/>
<path d="M36.7698 18.2498H27.9998C27.8406 18.2498 27.688 18.1866 27.5755 18.0741C27.463 17.9615 27.3998 17.8089 27.3998 17.6498V9.4998H25.3598C25.281 9.4998 25.203 9.48428 25.1302 9.45413C25.0574 9.42398 24.9912 9.37978 24.9355 9.32407C24.8798 9.26835 24.8356 9.20221 24.8054 9.12941C24.7753 9.05662 24.7598 8.9786 24.7598 8.8998C24.7598 8.82101 24.7753 8.74299 24.8054 8.67019C24.8356 8.5974 24.8798 8.53126 24.9355 8.47554C24.9912 8.41983 25.0574 8.37563 25.1302 8.34548C25.203 8.31532 25.281 8.2998 25.3598 8.2998H27.9998C28.1589 8.2998 28.3115 8.36302 28.424 8.47554C28.5366 8.58806 28.5998 8.74067 28.5998 8.8998V17.0498H36.7598C36.9189 17.0498 37.0715 17.113 37.184 17.2255C37.2966 17.3381 37.3598 17.4907 37.3598 17.6498C37.3598 17.8089 37.2966 17.9615 37.184 18.0741C37.0715 18.1866 36.9189 18.2498 36.7598 18.2498H36.7698Z" fill="#1DACB0"/>
<path d="M36.7699 18.2502H27.9999C27.8408 18.2502 27.6882 18.187 27.5756 18.0745C27.4631 17.962 27.3999 17.8093 27.3999 17.6502V8.90022C27.4007 8.78233 27.4363 8.6673 27.5021 8.56948C27.5679 8.47167 27.661 8.3954 27.7699 8.35022C27.8798 8.3006 28.0024 8.28646 28.1207 8.30976C28.239 8.33306 28.347 8.39264 28.4299 8.48022L37.1799 17.2302C37.2558 17.3148 37.306 17.4192 37.3249 17.5312C37.3438 17.6433 37.3304 17.7584 37.2864 17.8631C37.2424 17.9679 37.1696 18.058 37.0764 18.123C36.9832 18.188 36.8734 18.2252 36.7599 18.2302L36.7699 18.2502ZM28.6099 17.0502H35.3199L28.6099 10.3402V17.0502Z" fill="#1DACB0"/>
<path d="M33.3301 34.1902H14.1601C14.0009 34.1902 13.8483 34.127 13.7358 34.0145C13.6233 33.902 13.5601 33.7494 13.5601 33.5902C13.5601 33.4311 13.6233 33.2785 13.7358 33.166C13.8483 33.0534 14.0009 32.9902 14.1601 32.9902H33.3301C33.4892 32.9902 33.6418 33.0534 33.7543 33.166C33.8668 33.2785 33.9301 33.4311 33.9301 33.5902C33.9301 33.7494 33.8668 33.902 33.7543 34.0145C33.6418 34.127 33.4892 34.1902 33.3301 34.1902Z" fill="#1DACB0"/>
<path d="M33.3302 25.5002H14.1602C14.0756 25.5112 13.9896 25.504 13.908 25.4791C13.8264 25.4542 13.751 25.4123 13.6869 25.3559C13.6228 25.2996 13.5715 25.2303 13.5363 25.1526C13.5011 25.0748 13.4829 24.9905 13.4829 24.9052C13.4829 24.8199 13.5011 24.7355 13.5363 24.6578C13.5715 24.5801 13.6228 24.5107 13.6869 24.4544C13.751 24.3981 13.8264 24.3561 13.908 24.3312C13.9896 24.3064 14.0756 24.2992 14.1602 24.3102H33.3302C33.4747 24.329 33.6075 24.3997 33.7037 24.5092C33.7999 24.6187 33.8529 24.7594 33.8529 24.9052C33.8529 25.0509 33.7999 25.1917 33.7037 25.3012C33.6075 25.4107 33.4747 25.4814 33.3302 25.5002Z" fill="#1DACB0"/>
<path d="M33.3301 21.47H14.1601C14.0009 21.47 13.8483 21.4068 13.7358 21.2943C13.6233 21.1818 13.5601 21.0291 13.5601 20.87C13.5601 20.7109 13.6233 20.5583 13.7358 20.4458C13.8483 20.3332 14.0009 20.27 14.1601 20.27H33.3301C33.4892 20.27 33.6418 20.3332 33.7543 20.4458C33.8668 20.5583 33.9301 20.7109 33.9301 20.87C33.9301 21.0291 33.8668 21.1818 33.7543 21.2943C33.6418 21.4068 33.4892 21.47 33.3301 21.47Z" fill="#1DACB0"/>
<path d="M33.3301 37.9998H14.1601C14.0009 37.9998 13.8483 37.9366 13.7358 37.8241C13.6233 37.7115 13.5601 37.5589 13.5601 37.3998C13.5601 37.2407 13.6233 37.0881 13.7358 36.9755C13.8483 36.863 14.0009 36.7998 14.1601 36.7998H33.3301C33.4892 36.7998 33.6418 36.863 33.7543 36.9755C33.8668 37.0881 33.9301 37.2407 33.9301 37.3998C33.9301 37.5589 33.8668 37.7115 33.7543 37.8241C33.6418 37.9366 33.4892 37.9998 33.3301 37.9998Z" fill="#1DACB0"/>
<path d="M11.6999 25.4999H6.53994C6.38081 25.4999 6.2282 25.4367 6.11568 25.3242C6.00316 25.2116 5.93994 25.059 5.93994 24.8999V19.7499C5.93994 19.5908 6.00316 19.4382 6.11568 19.3256C6.2282 19.2131 6.38081 19.1499 6.53994 19.1499H11.6999C11.8591 19.1499 12.0117 19.2131 12.1242 19.3256C12.2367 19.4382 12.2999 19.5908 12.2999 19.7499V24.8999C12.2999 25.059 12.2367 25.2116 12.1242 25.3242C12.0117 25.4367 11.8591 25.4999 11.6999 25.4999ZM7.13994 24.3099H11.1399V20.3099H7.13994V24.3099Z" fill="#1DACB0"/>
<path d="M11.6999 37.9999H6.53994C6.38081 37.9999 6.2282 37.9367 6.11568 37.8242C6.00316 37.7116 5.93994 37.559 5.93994 37.3999V32.2499C5.93994 32.0908 6.00316 31.9382 6.11568 31.8256C6.2282 31.7131 6.38081 31.6499 6.53994 31.6499H11.6999C11.8591 31.6499 12.0117 31.7131 12.1242 31.8256C12.2367 31.9382 12.2999 32.0908 12.2999 32.2499V37.4099C12.2973 37.5673 12.2329 37.7174 12.1207 37.8277C12.0085 37.9381 11.8574 37.9999 11.6999 37.9999ZM7.13994 36.7999H11.1399V32.7999H7.13994V36.7999Z" fill="#1DACB0"/>
<path d="M9.11998 36.2098H9.05998C8.96519 36.1992 8.8742 36.1666 8.79431 36.1145C8.71442 36.0624 8.64786 35.9923 8.59998 35.9098L7.59998 34.2698C7.53764 34.2051 7.49064 34.1272 7.46244 34.0419C7.43424 33.9566 7.42556 33.866 7.43705 33.7769C7.44854 33.6877 7.4799 33.6023 7.52882 33.527C7.57774 33.4516 7.64296 33.3882 7.71967 33.3414C7.79639 33.2946 7.88263 33.2656 7.97204 33.2566C8.06145 33.2476 8.15173 33.2588 8.23623 33.2894C8.32073 33.3199 8.39729 33.3691 8.46025 33.4332C8.52321 33.4973 8.57096 33.5748 8.59998 33.6598L9.15998 34.5998L12.65 30.5998C12.7057 30.5439 12.772 30.4995 12.8449 30.4692C12.9178 30.4389 12.996 30.4233 13.075 30.4233C13.1539 30.4233 13.2321 30.4389 13.3051 30.4692C13.378 30.4995 13.4442 30.5439 13.5 30.5998C13.5556 30.6547 13.5998 30.7201 13.6299 30.7922C13.6601 30.8643 13.6756 30.9417 13.6756 31.0198C13.6756 31.098 13.6601 31.1753 13.6299 31.2474C13.5998 31.3195 13.5556 31.3849 13.5 31.4398L9.56998 35.9998C9.51389 36.0644 9.44484 36.1165 9.36731 36.1527C9.28979 36.1889 9.20552 36.2083 9.11998 36.2098Z" fill="#1DACB0"/>
<path d="M40.4 47.7298H0.6C0.44087 47.7298 0.288258 47.6666 0.175736 47.5541C0.0632141 47.4415 0 47.2889 0 47.1298L0 3.87979C0 3.72066 0.0632141 3.56804 0.175736 3.45552C0.288258 3.343 0.44087 3.27979 0.6 3.27979H11.7C11.8591 3.27979 12.0117 3.343 12.1243 3.45552C12.2368 3.56804 12.3 3.72066 12.3 3.87979V6.55979H15.23C15.3891 6.55979 15.5417 6.623 15.6543 6.73552C15.7668 6.84804 15.83 7.00066 15.83 7.15979V9.83979H24.76V7.15979C24.76 7.00066 24.8232 6.84804 24.9357 6.73552C25.0483 6.623 25.2009 6.55979 25.36 6.55979H28.29V3.87979C28.29 3.72066 28.3532 3.56804 28.4657 3.45552C28.5783 3.343 28.7309 3.27979 28.89 3.27979H40.4C40.4783 3.27977 40.5559 3.29536 40.6281 3.32563C40.7004 3.35591 40.7659 3.40026 40.8208 3.45611C40.8757 3.51196 40.9189 3.57819 40.948 3.65093C40.977 3.72367 40.9913 3.80147 40.99 3.87979V47.1298C40.9913 47.2081 40.977 47.2859 40.948 47.3586C40.9189 47.4314 40.8757 47.4976 40.8208 47.5535C40.7659 47.6093 40.7004 47.6537 40.6281 47.6839C40.5559 47.7142 40.4783 47.7298 40.4 47.7298ZM1.2 46.5298H39.8V4.52979H29.49V7.15979C29.49 7.23811 29.4744 7.31566 29.4442 7.3879C29.4139 7.46014 29.3695 7.52563 29.3137 7.58055C29.2578 7.63547 29.1916 7.67872 29.1189 7.70778C29.0461 7.73683 28.9683 7.75111 28.89 7.74979H26V10.4298C26 10.5889 25.9368 10.7415 25.8243 10.854C25.7117 10.9666 25.5591 11.0298 25.4 11.0298H15.23C15.0709 11.0298 14.9183 10.9666 14.8057 10.854C14.6932 10.7415 14.63 10.5889 14.63 10.4298V7.74979H11.7C11.6217 7.75111 11.5439 7.73683 11.4711 7.70778C11.3984 7.67872 11.3322 7.63547 11.2763 7.58055C11.2205 7.52563 11.1761 7.46014 11.1458 7.3879C11.1156 7.31566 11.1 7.23811 11.1 7.15979V4.47979H1.2V46.5298Z" fill="#1DACB0"/>
<path d="M28.8901 7.75H25.3601C25.2818 7.75133 25.204 7.73705 25.1312 7.70799C25.0585 7.67894 24.9923 7.63569 24.9364 7.58077C24.8806 7.52585 24.8362 7.46036 24.8059 7.38812C24.7757 7.31588 24.7601 7.23833 24.7601 7.16V4.48H15.8301V7.16C15.8301 7.23833 15.8145 7.31588 15.7842 7.38812C15.754 7.46036 15.7096 7.52585 15.6538 7.58077C15.5979 7.63569 15.5317 7.67894 15.459 7.70799C15.3862 7.73705 15.3084 7.75133 15.2301 7.75H11.7001C11.6218 7.75133 11.544 7.73705 11.4712 7.70799C11.3985 7.67894 11.3323 7.63569 11.2764 7.58077C11.2206 7.52585 11.1762 7.46036 11.1459 7.38812C11.1157 7.31588 11.1001 7.23833 11.1001 7.16V0.6C11.1001 0.44087 11.1633 0.288258 11.2758 0.175736C11.3884 0.0632141 11.541 0 11.7001 0L28.8901 0C29.0492 0 29.2018 0.0632141 29.3144 0.175736C29.4269 0.288258 29.4901 0.44087 29.4901 0.6V7.16C29.4901 7.23833 29.4745 7.31588 29.4442 7.38812C29.414 7.46036 29.3696 7.52585 29.3138 7.58077C29.2579 7.63569 29.1917 7.67894 29.119 7.70799C29.0462 7.73705 28.9684 7.75133 28.8901 7.75ZM26.0001 6.56H28.3301V1.2H12.3301V6.56H14.6601V3.88C14.6601 3.72087 14.7233 3.56826 14.8358 3.45574C14.9484 3.34321 15.101 3.28 15.2601 3.28H25.3601C25.5192 3.28 25.6718 3.34321 25.7844 3.45574C25.8969 3.56826 25.9601 3.72087 25.9601 3.88L26.0001 6.56Z" fill="#1DACB0"/>
<path d="M25.3599 10.9998H15.2299C15.0708 10.9998 14.9181 10.9366 14.8056 10.824C14.6931 10.7115 14.6299 10.5589 14.6299 10.3998V3.87979C14.6299 3.72066 14.6931 3.56804 14.8056 3.45552C14.9181 3.343 15.0708 3.27979 15.2299 3.27979H25.3599C25.519 3.27979 25.6716 3.343 25.7841 3.45552C25.8967 3.56804 25.9599 3.72066 25.9599 3.87979V10.4298C25.9522 10.5837 25.8856 10.7287 25.7739 10.8348C25.6622 10.9409 25.5139 11 25.3599 10.9998ZM15.8299 9.83979H24.7599V4.47979H15.8299V9.83979Z" fill="#1DACB0"/>
</svg>
