<svg width="67" height="39" viewBox="0 0 67 39" fill="none" xmlns="http://www.w3.org/2000/svg">
<path d="M63.6832 12.3231C63.5973 12.3407 63.5086 12.3407 63.4226 12.3231L33.4408 1.517L3.55379 12.2764C3.46126 12.3098 3.36294 12.3248 3.2645 12.3205C3.16606 12.3163 3.06946 12.2929 2.98025 12.2516C2.89104 12.2104 2.81101 12.1522 2.74476 12.0803C2.67852 12.0085 2.62737 11.9244 2.59428 11.833C2.5603 11.7434 2.5447 11.648 2.54838 11.5524C2.55205 11.4568 2.57493 11.3629 2.61569 11.2761C2.65645 11.1893 2.71429 11.1113 2.78584 11.0466C2.8574 10.982 2.94126 10.9319 3.03257 10.8994L33.1684 -5.28283e-05C33.3331 -0.0579251 33.513 -0.0579251 33.6777 -5.28283e-05L63.9675 10.8877C64.0603 10.9203 64.1457 10.9707 64.2186 11.036C64.2915 11.1012 64.3506 11.1801 64.3925 11.268C64.4343 11.3559 64.4581 11.451 64.4624 11.548C64.4667 11.645 64.4515 11.7418 64.4177 11.833C64.363 11.9803 64.2626 12.1069 64.1308 12.1949C63.999 12.2829 63.8424 12.3277 63.6832 12.3231Z" fill="#1DACB0"/>
<path d="M60.698 39H6.30195C6.10402 39 5.9142 38.9226 5.77425 38.7847C5.63429 38.6468 5.55566 38.4598 5.55566 38.2648V10.7478C5.55566 10.545 5.63741 10.3506 5.78292 10.2073C5.92843 10.0639 6.12578 9.9834 6.33157 9.9834C6.53735 9.9834 6.7347 10.0639 6.88021 10.2073C7.02572 10.3506 7.10747 10.545 7.10747 10.7478V37.5296H59.9517V10.7478C59.9517 10.5528 60.0303 10.3658 60.1703 10.2279C60.3102 10.09 60.5001 10.0126 60.698 10.0126C60.8959 10.0126 61.0857 10.09 61.2257 10.2279C61.3657 10.3658 61.4443 10.5528 61.4443 10.7478V38.2648C61.4443 38.4598 61.3657 38.6468 61.2257 38.7847C61.0857 38.9226 60.8959 39 60.698 39Z" fill="#1DACB0"/>
<path d="M56.7296 38.9998H10.2702C10.1722 38.9998 10.0752 38.9808 9.98464 38.9439C9.8941 38.9069 9.81183 38.8528 9.74253 38.7845C9.67323 38.7162 9.61826 38.6352 9.58075 38.546C9.54325 38.4568 9.52395 38.3612 9.52395 38.2646C9.52395 38.1681 9.54325 38.0725 9.58075 37.9833C9.61826 37.8941 9.67323 37.8131 9.74253 37.7448C9.81183 37.6765 9.8941 37.6224 9.98464 37.5854C10.0752 37.5485 10.1722 37.5295 10.2702 37.5295H55.9833V13.3849H11.0165V36.1758C11.0165 36.2723 10.9972 36.3679 10.9597 36.4571C10.9222 36.5463 10.8672 36.6274 10.7979 36.6956C10.7286 36.7639 10.6464 36.8181 10.5558 36.855C10.4653 36.8919 10.3682 36.911 10.2702 36.911C10.1683 36.9173 10.0662 36.9031 9.97007 36.869C9.87399 36.8349 9.78602 36.7818 9.71162 36.7129C9.63723 36.6439 9.57798 36.5607 9.53755 36.4683C9.49711 36.376 9.47636 36.2764 9.47656 36.1758V12.6497C9.47656 12.4548 9.55519 12.2678 9.69515 12.1299C9.8351 11.992 10.0249 11.9146 10.2229 11.9146H56.7296C56.9275 11.9146 57.1173 11.992 57.2573 12.1299C57.3972 12.2678 57.4759 12.4548 57.4759 12.6497V38.323C57.4609 38.5077 57.3758 38.68 57.2374 38.8055C57.099 38.931 56.9176 39.0004 56.7296 38.9998Z" fill="#1DACB0"/>
<path d="M66.2537 39.0002H0.746287C0.548359 39.0002 0.358538 38.9227 0.218582 38.7848C0.0786264 38.647 0 38.46 0 38.265C0 38.07 0.0786264 37.883 0.218582 37.7451C0.358538 37.6072 0.548359 37.5298 0.746287 37.5298H66.2537C66.4516 37.5298 66.6415 37.6072 66.7814 37.7451C66.9214 37.883 67 38.07 67 38.265C67 38.46 66.9214 38.647 66.7814 38.7848C66.6415 38.9227 66.4516 39.0002 66.2537 39.0002Z" fill="#1DACB0"/>
<path d="M56.7299 38.9998H38.4162C38.2183 38.9998 38.0285 38.9224 37.8885 38.7845C37.7485 38.6466 37.6699 38.4596 37.6699 38.2646V27.8553C37.6699 27.6603 37.7485 27.4733 37.8885 27.3354C38.0285 27.1976 38.2183 27.1201 38.4162 27.1201H56.7299C56.9278 27.1201 57.1176 27.1976 57.2576 27.3354C57.3975 27.4733 57.4761 27.6603 57.4761 27.8553V38.2646C57.4761 38.4596 57.3975 38.6466 57.2576 38.7845C57.1176 38.9224 56.9278 38.9998 56.7299 38.9998ZM39.1625 37.5295H55.9836V28.5905H39.1625V37.5295Z" fill="#1DACB0"/>
<path d="M38.416 38.9999H23.3836C23.1846 38.9999 22.9935 38.9228 22.8517 38.7853C22.7098 38.6477 22.6286 38.4607 22.6255 38.2647V31.8114C22.6286 31.6153 22.7098 31.4283 22.8517 31.2908C22.9935 31.1532 23.1846 31.0761 23.3836 31.0762H38.416C38.6139 31.0762 38.8037 31.1536 38.9437 31.2915C39.0836 31.4294 39.1623 31.6164 39.1623 31.8114V38.2647C39.1623 38.4597 39.0836 38.6467 38.9437 38.7845C38.8037 38.9224 38.6139 38.9999 38.416 38.9999ZM24.1299 37.5295H37.6697V32.5465H24.1299V37.5295Z" fill="#1DACB0"/>
<path d="M56.7298 28.5908H49.6223C49.4243 28.5908 49.2345 28.5134 49.0946 28.3755C48.9546 28.2376 48.876 28.0506 48.876 27.8556V20.8538C48.876 20.6589 48.9546 20.4719 49.0946 20.334C49.2345 20.1961 49.4243 20.1187 49.6223 20.1187H56.7298C56.9277 20.1187 57.1175 20.1961 57.2575 20.334C57.3974 20.4719 57.476 20.6589 57.476 20.8538V27.8556C57.476 28.0506 57.3974 28.2376 57.2575 28.3755C57.1175 28.5134 56.9277 28.5908 56.7298 28.5908ZM50.333 27.1204H55.9835V21.554H50.333V27.1204Z" fill="#1DACB0"/>
<path d="M49.5867 28.5908H42.4792C42.3812 28.5908 42.2841 28.5718 42.1936 28.5349C42.1031 28.4979 42.0208 28.4438 41.9515 28.3755C41.8822 28.3072 41.8272 28.2262 41.7897 28.137C41.7522 28.0478 41.7329 27.9522 41.7329 27.8556V20.8538C41.7329 20.7573 41.7522 20.6617 41.7897 20.5725C41.8272 20.4833 41.8822 20.4023 41.9515 20.334C42.0208 20.2657 42.1031 20.2116 42.1936 20.1746C42.2841 20.1377 42.3812 20.1187 42.4792 20.1187H49.5867C49.7846 20.1187 49.9744 20.1961 50.1144 20.334C50.2544 20.4719 50.333 20.6589 50.333 20.8538V27.8556C50.333 28.0506 50.2544 28.2376 50.1144 28.3755C49.9744 28.5134 49.7846 28.5908 49.5867 28.5908ZM43.1781 27.1204H48.8404V21.554H43.1781V27.1204Z" fill="#1DACB0"/>
</svg>
