<svg width="57" height="51" viewBox="0 0 57 51" fill="none" xmlns="http://www.w3.org/2000/svg">
<path d="M16.6694 8.30546L16.2799 8.98426C16.2338 9.06122 16.2037 9.14666 16.1913 9.23549C16.1789 9.32432 16.1846 9.41472 16.2079 9.50134C16.2312 9.58795 16.2716 9.66899 16.3269 9.73965C16.3822 9.81031 16.4511 9.86913 16.5296 9.91262C16.6304 9.97875 16.7486 10.0135 16.8692 10.0124C16.988 10.0098 17.1042 9.97727 17.2072 9.91796C17.3101 9.85866 17.3965 9.77444 17.4584 9.67305L17.8579 8.97428L21.1539 9.08409C21.3297 9.08679 21.4995 9.02023 21.6266 8.89882C21.7537 8.7774 21.8278 8.61087 21.8331 8.43523C21.8371 8.34526 21.8231 8.25539 21.7921 8.17085C21.761 8.08632 21.7134 8.00881 21.652 7.94285C21.5907 7.87688 21.5168 7.82378 21.4347 7.78664C21.3526 7.74949 21.2639 7.72904 21.1739 7.72648L18.607 7.63664L20.1352 4.99131C20.2006 4.91537 20.2483 4.82589 20.2751 4.72931C20.3018 4.63272 20.3068 4.53142 20.2897 4.43268C20.2726 4.33394 20.2338 4.24021 20.1762 4.15822C20.1185 4.07622 20.0435 4.008 19.9563 3.95844C19.8692 3.90889 19.7721 3.87923 19.6722 3.8716C19.5722 3.86397 19.4718 3.87856 19.3781 3.91431C19.2844 3.95007 19.1999 4.00611 19.1304 4.07841C19.061 4.1507 19.0085 4.23747 18.9766 4.33247L17.4385 6.98778L16.0901 4.7717C16.0459 4.69387 15.9863 4.62585 15.915 4.5718C15.8436 4.51775 15.762 4.47879 15.6751 4.45731C15.5882 4.43583 15.4978 4.43227 15.4094 4.44684C15.3211 4.46142 15.2367 4.49383 15.1613 4.5421C15.0075 4.63712 14.8972 4.78874 14.8542 4.96428C14.8112 5.13981 14.839 5.32519 14.9315 5.48044L16.6694 8.30546Z" fill="#1DACB0"/>
<path d="M24.9692 13.4166H21.9729L23.2014 11.1506C23.2869 10.9929 23.3066 10.8079 23.256 10.6358C23.2055 10.4637 23.0889 10.3186 22.9317 10.2322C22.7725 10.1462 22.5858 10.1263 22.412 10.1767C22.2382 10.2272 22.0913 10.3439 22.0028 10.5017L20.4248 13.4166H19.6557C19.4756 13.4166 19.3029 13.4881 19.1755 13.6154C19.0481 13.7427 18.9766 13.9153 18.9766 14.0954C18.9766 14.2754 19.0481 14.4481 19.1755 14.5754C19.3029 14.7027 19.4756 14.7742 19.6557 14.7742H20.4547L21.9729 17.679C22.0308 17.7876 22.1172 17.8784 22.2227 17.9417C22.3283 18.005 22.4491 18.0384 22.5721 18.0384C22.684 18.0416 22.7946 18.014 22.8918 17.9585C22.9714 17.9176 23.042 17.8611 23.0994 17.7924C23.1568 17.7237 23.1999 17.6441 23.2259 17.5585C23.252 17.4728 23.2606 17.3828 23.2513 17.2938C23.2419 17.2048 23.2147 17.1185 23.1714 17.0402L21.9729 14.7742H24.9692C25.1493 14.7742 25.3221 14.7027 25.4494 14.5754C25.5768 14.4481 25.6484 14.2754 25.6484 14.0954C25.6484 13.9153 25.5768 13.7427 25.4494 13.6154C25.3221 13.4881 25.1493 13.4166 24.9692 13.4166Z" fill="#1DACB0"/>
<path d="M21.1538 19.1264L17.8479 19.2162L17.4584 18.5474C17.3683 18.3912 17.2199 18.2771 17.0457 18.2303C16.8715 18.1835 16.6858 18.2078 16.5295 18.2978C16.3732 18.3878 16.2591 18.5362 16.2123 18.7103C16.1655 18.8844 16.1898 19.07 16.2798 19.2262L16.6793 19.915L14.9814 22.71C14.927 22.812 14.8994 22.9261 14.9015 23.0417C14.9035 23.1572 14.935 23.2704 14.993 23.3703C15.051 23.4703 15.1336 23.5538 15.233 23.613C15.3323 23.6721 15.4451 23.7049 15.5607 23.7083C15.6767 23.7098 15.7911 23.6811 15.8926 23.6251C15.9942 23.5691 16.0794 23.4877 16.14 23.3888L17.4983 21.2127L18.9765 23.868C19.0384 23.9694 19.1248 24.0536 19.2278 24.1129C19.3308 24.1722 19.447 24.2047 19.5658 24.2074C19.685 24.2082 19.8022 24.1772 19.9054 24.1176C20.0625 24.0258 20.177 23.8756 20.2238 23.6998C20.2706 23.524 20.2459 23.3369 20.1551 23.1792L18.6369 20.5538L21.2138 20.484C21.303 20.4814 21.3908 20.4613 21.4722 20.4247C21.5536 20.3882 21.627 20.336 21.6882 20.2711C21.7495 20.2062 21.7973 20.1299 21.829 20.0465C21.8607 19.9632 21.8756 19.8744 21.873 19.7852C21.8719 19.6939 21.852 19.6037 21.8147 19.5203C21.7774 19.4369 21.7234 19.362 21.656 19.3003C21.5886 19.2386 21.5093 19.1913 21.4229 19.1614C21.3366 19.1315 21.245 19.1195 21.1538 19.1264Z" fill="#1DACB0"/>
<path d="M15.1012 20.7035C15.2578 20.7046 15.41 20.6515 15.532 20.5533C15.6539 20.455 15.7381 20.3177 15.7704 20.1645L16.2598 17.7887L18.517 18.5673C18.6879 18.6282 18.8759 18.6188 19.0398 18.5411C19.2037 18.4634 19.33 18.3238 19.3909 18.153C19.4519 17.9823 19.4424 17.7943 19.3647 17.6305C19.287 17.4667 19.1473 17.3405 18.9765 17.2796L16.1999 16.3313L15.301 14.774H17.1287L19.3061 16.7006C19.4286 16.8125 19.5895 16.8733 19.7555 16.8703C19.8512 16.8722 19.9462 16.8536 20.034 16.8157C20.1219 16.7779 20.2006 16.7216 20.2649 16.6507C20.3295 16.583 20.3796 16.5029 20.4122 16.4153C20.4448 16.3276 20.4592 16.2343 20.4545 16.1409C20.4499 16.0475 20.4262 15.956 20.385 15.872C20.3438 15.788 20.286 15.7133 20.2149 15.6525L18.3972 14.0553L20.2049 12.4781C20.2774 12.4186 20.3369 12.345 20.3798 12.2618C20.4228 12.1785 20.4484 12.0874 20.4549 11.994C20.4614 11.9005 20.4489 11.8068 20.4179 11.7184C20.3869 11.63 20.3383 11.5488 20.2749 11.4798C20.2155 11.4069 20.1416 11.3471 20.0579 11.3042C19.9742 11.2612 19.8825 11.2362 19.7886 11.2305C19.6947 11.2249 19.6007 11.2388 19.5125 11.2714C19.4242 11.304 19.3437 11.3546 19.2761 11.4199L17.0488 13.3465H15.281L16.1999 11.7593L18.9765 10.9108C19.1443 10.8515 19.2821 10.7288 19.3603 10.5689C19.4385 10.4091 19.4507 10.225 19.3944 10.0562C19.3381 9.88739 19.2178 9.74744 19.0593 9.66645C18.9008 9.58545 18.7168 9.56989 18.547 9.6231L16.2498 10.3818L15.7904 8.0359C15.7733 7.94807 15.7391 7.86446 15.6897 7.78983C15.6404 7.71521 15.5768 7.65104 15.5026 7.60098C15.3527 7.49989 15.1688 7.46243 14.9914 7.49685C14.8139 7.53127 14.6573 7.63474 14.5562 7.78451C14.4551 7.93427 14.4176 8.11806 14.452 8.29544L15.0213 11.1903L14.1224 12.7376L13.2035 11.1504L13.7928 8.30542C13.8286 8.12804 13.7924 7.94373 13.6922 7.79303C13.592 7.64233 13.436 7.53758 13.2585 7.50184C13.081 7.4661 12.8966 7.50229 12.7458 7.60244C12.595 7.7026 12.4902 7.85852 12.4545 8.0359L11.985 10.4017L9.68786 9.6231C9.51694 9.5654 9.3302 9.57699 9.16774 9.65538C9.00527 9.73377 8.88004 9.87271 8.81893 10.0424C8.76169 10.2145 8.77469 10.4022 8.85509 10.5648C8.9355 10.7274 9.07683 10.8517 9.2484 10.9108L12.025 11.9091L12.9239 13.4563H11.0861L8.91881 11.4898C8.8519 11.4231 8.77161 11.3712 8.68321 11.3377C8.59482 11.3043 8.50032 11.2899 8.40596 11.2955C8.3116 11.3012 8.2195 11.3268 8.13575 11.3706C8.05199 11.4144 7.97847 11.4754 7.92003 11.5497C7.85103 11.6133 7.79596 11.6904 7.75829 11.7763C7.72062 11.8622 7.70117 11.955 7.70117 12.0488C7.70117 12.1426 7.72062 12.2354 7.75829 12.3213C7.79596 12.4072 7.85103 12.4844 7.92003 12.5479L9.7378 14.1551L7.98995 15.6824C7.91754 15.7419 7.85803 15.8155 7.81505 15.8987C7.77208 15.9819 7.74654 16.073 7.73999 16.1665C7.73345 16.2599 7.74604 16.3537 7.777 16.4421C7.80795 16.5305 7.85662 16.6117 7.92003 16.6806C7.9861 16.7526 8.06634 16.8102 8.15572 16.8497C8.24509 16.8892 8.34167 16.9098 8.4394 16.9102C8.60065 16.9134 8.75731 16.8565 8.87886 16.7505L11.1061 14.8139H12.8939L11.985 16.3612L9.22843 17.2796C9.14234 17.3066 9.06249 17.3504 8.99354 17.4086C8.92459 17.4667 8.86793 17.538 8.82685 17.6183C8.78578 17.6986 8.76113 17.7862 8.75433 17.8761C8.74753 17.9661 8.75872 18.0564 8.78725 18.142C8.81577 18.2275 8.86107 18.3065 8.92049 18.3744C8.97991 18.4422 9.05226 18.4976 9.13331 18.5372C9.21436 18.5768 9.3025 18.5998 9.39257 18.605C9.48264 18.6102 9.57284 18.5974 9.6579 18.5673L11.9551 17.8087L12.4145 20.1545C12.4447 20.3095 12.5281 20.4492 12.6502 20.5494C12.7724 20.6496 12.9257 20.7041 13.0837 20.7035H13.2135C13.3016 20.6868 13.3854 20.6528 13.4602 20.6036C13.5351 20.5543 13.5994 20.4907 13.6495 20.4165C13.6997 20.3422 13.7346 20.2588 13.7524 20.171C13.7701 20.0832 13.7703 19.9928 13.7529 19.905L13.2035 16.9701L14.1024 15.4129L14.9814 17.04L14.3921 19.885C14.3591 20.062 14.3958 20.2448 14.4944 20.3955C14.593 20.5461 14.746 20.6529 14.9214 20.6936L15.1012 20.7035Z" fill="#1DACB0"/>
<path d="M11.5357 19.895L11.9253 19.2262C12.0153 19.07 12.0396 18.8844 11.9928 18.7103C11.946 18.5362 11.8318 18.3878 11.6756 18.2978C11.5193 18.2078 11.3336 18.1835 11.1594 18.2303C10.9852 18.2771 10.8368 18.3912 10.7467 18.5474L10.3472 19.2362L7.05124 19.1264C6.96205 19.1264 6.87373 19.1439 6.79133 19.178C6.70893 19.2121 6.63406 19.2621 6.57099 19.3252C6.50793 19.3882 6.4579 19.463 6.42377 19.5454C6.38964 19.6278 6.37207 19.716 6.37207 19.8052C6.37207 19.8943 6.38964 19.9826 6.42377 20.0649C6.4579 20.1473 6.50793 20.2221 6.57099 20.2852C6.63406 20.3482 6.70893 20.3982 6.79133 20.4323C6.87373 20.4664 6.96205 20.484 7.05124 20.484L9.61808 20.5738L8.06999 23.1892C8.02526 23.2665 7.99625 23.3519 7.98459 23.4404C7.97294 23.529 7.97888 23.6189 8.00208 23.7052C8.02527 23.7914 8.06526 23.8722 8.11976 23.943C8.17426 24.0138 8.2422 24.0731 8.31968 24.1176C8.42285 24.1772 8.54008 24.2082 8.65926 24.2074C8.77807 24.2047 8.8943 24.1722 8.99727 24.1129C9.10023 24.0536 9.18664 23.9694 9.24854 23.868L10.7667 21.2326L12.115 23.4288C12.1756 23.5276 12.2608 23.609 12.3624 23.6651C12.464 23.7211 12.5783 23.7497 12.6943 23.7482C12.818 23.7495 12.9395 23.7148 13.0439 23.6484C13.1207 23.6032 13.1877 23.5432 13.241 23.4717C13.2943 23.4003 13.3327 23.319 13.3541 23.2325C13.3755 23.146 13.3794 23.0561 13.3656 22.9681C13.3518 22.8801 13.3205 22.7958 13.2736 22.72L11.5357 19.895Z" fill="#1DACB0"/>
<path d="M8.56948 14.7737C8.7496 14.7737 8.92235 14.7022 9.04972 14.5749C9.17709 14.4476 9.24864 14.2749 9.24864 14.0949C9.24864 13.9149 9.17709 13.7422 9.04972 13.6149C8.92235 13.4876 8.7496 13.4161 8.56948 13.4161H7.77046L6.22236 10.5112C6.18039 10.4326 6.12333 10.3629 6.05444 10.3063C5.98554 10.2497 5.90617 10.2072 5.82084 10.1813C5.64852 10.1288 5.46242 10.147 5.30349 10.2317C5.14456 10.3164 5.0258 10.4608 4.97336 10.633C4.92091 10.8052 4.93907 10.9912 5.02383 11.1501L6.22236 13.4161H3.22604C3.04592 13.4161 2.87317 13.4876 2.7458 13.6149C2.61843 13.7422 2.54688 13.9149 2.54688 14.0949C2.54688 14.2749 2.61843 14.4476 2.7458 14.5749C2.87317 14.7022 3.04592 14.7737 3.22604 14.7737H6.25232L4.99387 17.0397C4.90778 17.1986 4.88835 17.3851 4.93986 17.5582C4.99137 17.7314 5.1096 17.877 5.26853 17.9631C5.42747 18.0491 5.61409 18.0685 5.78735 18.0171C5.96061 17.9656 6.10631 17.8474 6.1924 17.6886L7.80042 14.7737H8.56948Z" fill="#1DACB0"/>
<path d="M6.9913 9.064L10.3572 8.98414L10.7467 9.65296C10.8086 9.75435 10.895 9.83857 10.998 9.89788C11.1009 9.95718 11.2172 9.98967 11.336 9.99236C11.4566 9.99341 11.5747 9.95867 11.6756 9.89254C11.8286 9.80466 11.9408 9.65988 11.9876 9.48973C12.0343 9.31958 12.0119 9.13786 11.9252 8.98414L11.5257 8.29536L13.2736 5.50029C13.367 5.34623 13.3963 5.16172 13.3553 4.98631C13.3142 4.81091 13.206 4.65857 13.0539 4.56195C12.9779 4.5144 12.8932 4.48236 12.8048 4.46767C12.7164 4.45298 12.626 4.45593 12.5387 4.47634C12.4514 4.49676 12.369 4.53424 12.2963 4.58662C12.2236 4.63901 12.162 4.70526 12.115 4.78156L10.7567 6.98766L9.24853 4.33235C9.21124 4.24461 9.15587 4.1657 9.08604 4.10077C9.01621 4.03583 8.93348 3.98633 8.84323 3.95548C8.75298 3.92462 8.65724 3.91312 8.56225 3.92171C8.46725 3.93029 8.37514 3.95878 8.29189 4.00532C8.20865 4.05185 8.13614 4.11539 8.0791 4.19179C8.02206 4.2682 7.98176 4.35575 7.96082 4.44876C7.93989 4.54177 7.93879 4.63814 7.9576 4.73159C7.9764 4.82505 8.0147 4.9135 8.06998 4.99119L9.58811 7.63652L6.9913 7.7064C6.81203 7.71417 6.64286 7.79153 6.51976 7.92202C6.39666 8.05251 6.32934 8.22584 6.33211 8.40516C6.33714 8.57831 6.4082 8.74298 6.53075 8.86547C6.6533 8.98795 6.81806 9.05898 6.9913 9.064Z" fill="#1DACB0"/>
<path d="M57 14.0851C57 14.0851 57 14.0851 57 14.0053C57 14.0053 57 14.0053 57 13.9454V13.8755C56.9971 13.8557 56.9971 13.8355 57 13.8156V13.7657V13.7058H56.9301L47.252 7.61656C47.1453 7.54585 47.0204 7.50769 46.8924 7.50675H28.2054V4.7616C28.2027 3.49955 27.6999 2.28995 26.8071 1.39755C25.9142 0.505151 24.7039 0.00263751 23.4412 0L4.76415 0C3.50143 0.00263751 2.29118 0.505151 1.3983 1.39755C0.505422 2.28995 0.00263892 3.49955 0 4.7616V23.4287C0.00263892 24.6907 0.505422 25.9003 1.3983 26.7927C2.29118 27.6851 3.50143 28.1876 4.76415 28.1903H23.4412C24.7039 28.1876 25.9142 27.6851 26.8071 26.7927C27.6999 25.9003 28.2027 24.6907 28.2054 23.4287V14.7739H31.3615V19.9648C31.3615 20.1448 31.433 20.3175 31.5604 20.4448C31.6878 20.5721 31.8605 20.6436 32.0407 20.6436H38.3729C38.4629 20.6449 38.5523 20.6283 38.6358 20.5948C38.7194 20.5613 38.7955 20.5115 38.8596 20.4483C38.9237 20.3852 38.9746 20.3099 39.0094 20.2269C39.0441 20.1438 39.062 20.0548 39.062 19.9648V14.7739H51.5467C51.7268 14.7739 51.8996 14.7024 52.0269 14.5751C52.1543 14.4478 52.2259 14.2752 52.2259 14.0951C52.2259 13.9151 52.1543 13.7424 52.0269 13.6151C51.8996 13.4878 51.7268 13.4163 51.5467 13.4163H38.9522L37.7337 8.67469H46.443L55.6417 14.4745V49.6424H14.7818V30.027C14.7818 29.847 14.7103 29.6743 14.5829 29.547C14.4556 29.4197 14.2828 29.3482 14.1027 29.3482C13.9226 29.3482 13.7498 29.4197 13.6224 29.547C13.4951 29.6743 13.4235 29.847 13.4235 30.027V50.3212C13.4222 50.4107 13.4388 50.4996 13.4725 50.5825C13.5061 50.6655 13.5561 50.7409 13.6194 50.8042C13.6828 50.8675 13.7582 50.9174 13.8412 50.9511C13.9242 50.9847 14.0131 51.0013 14.1027 51H56.3208C56.501 51 56.6737 50.9285 56.8011 50.8012C56.9284 50.6739 57 50.5012 57 50.3212V14.0951V14.0851ZM26.847 23.4287C26.847 24.3314 26.4882 25.1973 25.8495 25.8356C25.2108 26.474 24.3445 26.8326 23.4412 26.8326H4.76415C3.86087 26.8326 2.99459 26.474 2.35587 25.8356C1.71716 25.1973 1.35833 24.3314 1.35833 23.4287V4.7616C1.35833 3.8588 1.71716 2.99298 2.35587 2.35461C2.99459 1.71624 3.86087 1.3576 4.76415 1.3576H23.4412C24.3445 1.3576 25.2108 1.71624 25.8495 2.35461C26.4882 2.99298 26.847 3.8588 26.847 4.7616V23.4287ZM34.3578 8.67469H36.3554L37.5239 13.4163H32.9595L34.3578 8.67469ZM31.5413 13.4163H28.2054V8.67469H32.9595L31.5413 13.4163ZM37.6937 19.256H32.6998V14.7739H37.6937V19.256Z" fill="#1DACB0"/>
<path d="M35.9561 45.7892C35.9561 45.9692 36.0276 46.1418 36.155 46.2691C36.2823 46.3964 36.4551 46.468 36.6352 46.468H51.6168C51.706 46.468 51.7943 46.4504 51.8767 46.4163C51.9591 46.3822 52.034 46.3322 52.0971 46.2691C52.1601 46.2061 52.2102 46.1313 52.2443 46.0489C52.2784 45.9666 52.296 45.8783 52.296 45.7892C52.296 45.7 52.2784 45.6117 52.2443 45.5294C52.2102 45.447 52.1601 45.3722 52.0971 45.3092C52.034 45.2461 51.9591 45.1961 51.8767 45.162C51.7943 45.1279 51.706 45.1104 51.6168 45.1104H36.6352C36.4559 45.1129 36.2846 45.1853 36.1578 45.312C36.031 45.4388 35.9586 45.6099 35.9561 45.7892Z" fill="#1DACB0"/>
<path d="M48.94 43.2335C49.1201 43.2335 49.2928 43.162 49.4202 43.0347C49.5476 42.9074 49.6191 42.7347 49.6191 42.5547V34.5688L51.6766 36.9346C51.7328 37.0116 51.8046 37.0759 51.8873 37.1233C51.9701 37.1708 52.0618 37.2002 52.1567 37.2099C52.2516 37.2195 52.3474 37.209 52.438 37.1792C52.5286 37.1493 52.6118 37.1007 52.6824 37.0366C52.7529 36.9724 52.8091 36.8941 52.8474 36.8068C52.8857 36.7195 52.9051 36.6251 52.9044 36.5298C52.9038 36.4345 52.883 36.3404 52.8436 36.2536C52.8041 36.1669 52.7468 36.0894 52.6754 36.0262L49.4294 32.4026C49.4294 32.4026 49.4294 32.4026 49.3794 32.4026H49.3095C49.2599 32.374 49.2059 32.3537 49.1497 32.3427C49.1003 32.3327 49.0493 32.3327 48.9999 32.3427C48.9438 32.3324 48.8862 32.3324 48.8301 32.3427L48.6803 32.4226C48.6421 32.4506 48.6085 32.4843 48.5804 32.5224L45.4143 36.3856C45.3506 36.4551 45.3022 36.5372 45.272 36.6266C45.2418 36.7159 45.2306 36.8106 45.2391 36.9045C45.2475 36.9984 45.2755 37.0895 45.3211 37.1721C45.3668 37.2546 45.4291 37.3267 45.5042 37.3838C45.6266 37.4802 45.7778 37.5329 45.9337 37.5335C46.0352 37.5355 46.1357 37.514 46.2276 37.4707C46.3194 37.4274 46.4 37.3635 46.463 37.284L48.4606 34.8982V42.7244C48.4877 42.8443 48.5465 42.9547 48.6308 43.0442C48.7151 43.1338 48.8219 43.1991 48.94 43.2335Z" fill="#1DACB0"/>
<path d="M39.7511 32.373H39.6912H39.6313C39.5824 32.3428 39.5282 32.3225 39.4715 32.3131C39.422 32.3032 39.3711 32.3032 39.3217 32.3131C39.2621 32.3036 39.2014 32.3036 39.1419 32.3131L39.0021 32.393C38.9663 32.4237 38.9329 32.4571 38.9022 32.4928L35.7361 36.356C35.6724 36.4256 35.6239 36.5077 35.5938 36.597C35.5636 36.6864 35.5524 36.781 35.5608 36.8749C35.5693 36.9688 35.5972 37.06 35.6429 37.1425C35.6885 37.225 35.7509 37.2971 35.826 37.3542C35.9515 37.452 36.1063 37.5048 36.2654 37.504C36.3654 37.5051 36.4642 37.4832 36.5543 37.4399C36.6444 37.3967 36.7233 37.3332 36.7848 37.2544L38.7823 34.8686V42.6948C38.7823 42.8748 38.8539 43.0475 38.9812 43.1748C39.1086 43.3021 39.2814 43.3736 39.4615 43.3736C39.6416 43.3736 39.8144 43.3021 39.9417 43.1748C40.0691 43.0475 40.1407 42.8748 40.1407 42.6948V34.7089L41.9484 36.935C42.012 37.0039 42.0893 37.059 42.1752 37.0966C42.2612 37.1343 42.354 37.1537 42.4478 37.1537C42.5417 37.1537 42.6345 37.1343 42.7204 37.0966C42.8064 37.059 42.8836 37.0039 42.9472 36.935C43.0149 36.8706 43.0688 36.7932 43.1056 36.7074C43.1425 36.6216 43.1614 36.5292 43.1614 36.4359C43.1614 36.3425 43.1425 36.2501 43.1056 36.1643C43.0688 36.0785 43.0149 36.0011 42.9472 35.9367L39.7511 32.373Z" fill="#1DACB0"/>
</svg>
